<svg xmlns="http://www.w3.org/2000/svg" width="432.961" height="869.714" viewBox="0 0 2886.41 5798.094">
  <metadata><?xpacket begin="﻿" id="W5M0MpCehiHzreSzNTczkc9d"?>
<x:xmpmeta xmlns:x="adobe:ns:meta/" x:xmptk="Adobe XMP Core 5.6-c138 79.159824, 2016/09/14-01:09:01        ">
   <rdf:RDF xmlns:rdf="http://www.w3.org/1999/02/22-rdf-syntax-ns#">
      <rdf:Description rdf:about=""/>
   </rdf:RDF>
</x:xmpmeta>
                                                                                                    
                                                                                                    
                                                                                                    
                                                                                                    
                                                                                                    
                                                                                                    
                                                                                                    
                                                                                                    
                                                                                                    
                                                                                                    
                                                                                                    
                                                                                                    
                                                                                                    
                                                                                                    
                                                                                                    
                                                                                                    
                                                                                                    
                                                                                                    
                                                                                                    
                                                                                                    
                           
<?xpacket end="w"?></metadata>
<defs>
    <style>
      .cls-1 {
        fill-rule: evenodd;
      }
    </style>
  </defs>
  <path id="barton-portrait-mask" class="cls-1" d="M-4,3222s132.656-91.25,213-152,106.523-97.43,171-122,96.773-49.82,142-107,58.1-59.98,78-86,50.5-126.91,122-167c-8.547-82.81-15-445-15-445s-38.67,14.22-79,4-68.223-59.03-97-81-59.751-56.46-103-183-57.116-176.5-46-270,27.938-130.84,61.5-140,51.728-.54,64.5-9,18.344-221.62,14-293-16.38-399.816,94-490S861.79,505.889,924,498c-25.154-42.488-25.09-88.371-20-94s48.707-30.52,58-31,18,4,18,4,54.33-58.073,85-70c13.44-5.227,17.69,7.688,26,6s66.62-57.291,96-65c9.72-2.55,16,8,16,8s47.4-39.1,93-38c8.88,0.215,17,18,17,18s54.8-37.964,100-47c6.85-1.369,16,21,16,21s53.32-33.927,61-27c24.91,22.465,41.39-1.209,48-2,14.04-1.679,40,26,40,26s52.77-9.147,77-3c29.5,7.484,39.95,36.364,74,45,17.04,4.322,26-13,26-13s44.87,23.367,51,38c10.33,24.659,80.88,25.022,82,26,19.28,16.85,64.27,53.216,65,77,0.65,21.309,32.63,20.506,50,37,9.27,8.806,32.97,63.581,37,75,5.93,16.8,16.6,32.653,15,57-2.19,33.42,10.69,63.178,37,87,69.81,63.211,125.86,154.789,173,298,29.12,88.45,79.88,355.23,64,442s33.13,188.52,42,210,1,72,1,72,4.57,81.48-14,196-32.55,177.38-26,199,20,23,20,23-7.56,25.57-14,29-20.94,4.82-21,15,19.25,25.71,24,34,3.98,17.33-3,15-20.33-21.77-18-5,1.39,45.52-5,47,39.03,15.04,39,25-14.57,4-25,8-7.06,17.14-3,28,4.77,19.92-8,28-19.18,22.61-21,39-0.82,28.18,7,38,30.57,28.38,23,34-7,6-7,6-21.36-11.37-28-12,6.72,31.77,5,45,6.33,21.79-4,41-41.2,20.51-52,47-12.42,53.17-36,92-18.18,60.93-52,79-45.41,36.41-76,54-41.35,46.48-59,62-16.92,11.35-26,17a268.538,268.538,0,0,1,40,137c0.71,43.79-2.7,102.84,4,116,39.48,17.29,244.87,119.16,469,386s260.06,338.62,268,398-23.64,179.53-61,205c30.93,47.09,168.41,167.14,174,264s-46.38,249.91-54,389-5.59,285.59-44,432-97.19,462.7-103,513-33,301-33,301L-1,5979Z" transform="translate(0 -180.906)"/>
</svg>
