<?xml version="1.0" encoding="utf-8"?>
    <!-- Generator: Adobe Illustrator 21.1.0, SVG Export Plug-In . SVG Version: 6.00 Build 0)  -->
    <svg version="1.1" id="barton-factory" xmlns="http://www.w3.org/2000/svg" xmlns:xlink="http://www.w3.org/1999/xlink" x="0px" y="0px" viewBox="0 0 546.4 453.6" style="enable-background:new 0 0 546.4 453.6;" xml:space="preserve">
        <style type="text/css">
            .st0 {
                enable-background: new;
            }

        </style>
        <defs>
            <path id="SVGID_1_" class="st0" d="M535.4,274.2l-32.2,4.6l-0.6-19.8l-4.6-1.8l-13.7,1.8l-0.1,9.6l-172.6-91.3c0,0-0.1-7.4-3.7-15
		s-8.2-9.1-8.2-9.1s1.2-2.2,1.2-3.5c0-1.3-3.2-2.8-5.9-7c-2.7-4.1-1.2-12.6-1.2-12.6s0.9-1.7,1.3-2.6c0.4-1,1-2.5,1-2.5l-2.2-1.1
		l-0.2-4.2l-6.1-3.8l-10.1,2.3l-0.1,4.6l-3,1.6l1.4,2.3l-11.6,3.5l-2.9-98.8l2.6-3.6l1.1-6.4l-4.2-4v-3.7l-4.3-3.5L250,9.5l-5.3,2.5
		l-0.5,4.9l-3.7,1.8l-0.5,7.1l3.8,6.1l-2.5,105l-66.2,20.9l-0.1-1.2l-6.7-2.9l-10.3,3.4l0.4,5l-57.7,17.5l-0.1-2.5l-2-0.5l-6.2,1.4
		v3.4l-2.8,0.7l0.8,2.2l-62.5,19.9l-0.1-1.1l-6.1-1.6l-7.1,1.8l-2.8,4.8l0.5,3.2l2,2.4l1.7,0.4L15,230.8l-7.9,2l2.4,4l4.3,1.4
		l1.6,0.7l0.2,10.6l-3,0.8l1.8,3l0.8,1.8l-1.2,0.6l0.7,2.5l-1,0.7l-0.2,8.4l1,0.4l-1.7,46l-4-1L5.3,313l0.4,5l0.6,0.8
		c0,0,0.6,3,1.9,4.6s2.8,4.7,2,6c-0.8,1.3-1.2,2.3-0.6,3.4c0.7,0.2,1.1,0.7,1.1,0.7l-0.4,86.8H0l0.1,33.5l545.8-0.1l0.1-144.7
		L535.4,274.2z" />
        </defs>
        <clipPath id="SVGID_2_">
            <use xlink:href="#SVGID_1_" style="overflow:visible;" />
        </clipPath>
        <g style="clip-path:url(#SVGID_2_);">

            <image style="overflow:visible;" width="4553" height="3780" id="image" xlink:href="barton-factory.jpg" transform="matrix(0.12 0 0 0.12 0 0)">
            </image>
        </g>
    </svg>
