<?xml version="1.0" encoding="utf-8"?>
<!-- Generator: Adobe Illustrator 21.1.0, SVG Export Plug-In . SVG Version: 6.00 Build 0)  -->
<svg version="1.1" id="barton-portrait" xmlns="http://www.w3.org/2000/svg" xmlns:xlink="http://www.w3.org/1999/xlink" x="0px"
	 y="0px" viewBox="0 0 364.2 717.5" style="enable-background:new 0 0 364.2 717.5;" xml:space="preserve">
<style type="text/css">
	.st0{enable-background:new    ;}
</style>
<defs>
	<path id="SVGID_1_" class="st0" d="M346.3,521.4c-0.7-11.6-17.2-26-20.9-31.7c4.5-3.1,8.3-17.5,7.3-24.6c-1-7.1-5.3-15.7-32.2-47.8
		c-26.9-32-51.5-44.2-56.3-46.3c-0.8-1.6-0.4-8.7-0.5-13.9c-0.1-5.3-1.5-11.1-4.8-16.4c1.1-0.7,1-0.2,3.1-2c2.1-1.9,3.4-5.3,7.1-7.4
		s5.1-4.3,9.1-6.5c4.1-2.2,3.4-4.8,6.2-9.5s3-7.9,4.3-11c1.3-3.2,5-3.3,6.2-5.6s0.3-3.3,0.5-4.9c0.2-1.6-1.4-5.5-0.6-5.4
		c0.8,0.1,3.4,1.4,3.4,1.4s-0.1,0,0.8-0.7c0.9-0.7-1.8-2.9-2.8-4.1c-0.9-1.2-1.1-2.6-0.8-4.6c0.2-2,1-3.7,2.5-4.7s1.4-2.1,1-3.4
		c-0.5-1.3-0.9-2.9,0.4-3.4c1.3-0.5,3,0.2,3-1c0-1.2-5.4-2.8-4.7-3c0.8-0.2,0.9-3.6,0.6-5.6c-0.3-2,1.3,0.3,2.2,0.6
		c0.8,0.3,0.9-0.8,0.4-1.8s-2.9-2.9-2.9-4.1c0-1.2,1.7-1.4,2.5-1.8c0.8-0.4,1.7-3.5,1.7-3.5s-1.6-0.2-2.4-2.8
		c-0.8-2.6,0.9-10.1,3.1-23.9c2.2-13.7,1.7-23.5,1.7-23.5s0.9-6.1-0.1-8.6c-1.1-2.6-6.9-14.8-5-25.2c1.9-10.4-4.2-42.4-7.7-53
		C266.1,94.5,259.4,83.5,251,76c-3.2-2.9-4.7-6.4-4.4-10.4c0.2-2.9-1.1-4.8-1.8-6.8c-0.5-1.4-3.3-7.9-4.4-9c-2.1-2-5.9-1.9-6-4.4
		c-0.1-2.9-5.5-7.2-7.8-9.2c-0.1-0.1-8.6-0.2-9.8-3.1c-0.7-1.8-6.1-4.6-6.1-4.6s-1.1,2.1-3.1,1.6c-4.1-1-5.3-4.5-8.9-5.4
		c-2.9-0.7-9.2,0.4-9.2,0.4s-3.1-3.3-4.8-3.1c-0.8,0.1-2.8,2.9-5.8,0.2c-0.9-0.8-7.3,3.2-7.3,3.2s-1.1-2.7-1.9-2.5
		c-5.4,1.1-12,5.6-12,5.6s-1-2.1-2-2.2c-5.5-0.1-11.2,4.6-11.2,4.6s-0.8-1.3-1.9-1c-3.5,0.9-10.5,7.6-11.5,7.8
		c-1,0.2-1.5-1.3-3.1-0.7c-3.7,1.4-10.2,8.4-10.2,8.4s-1-0.5-2.2-0.5c-1.1,0.1-6.3,3-7,3.7s-0.6,6.2,2.4,11.3
		c-7.5,0.9-23.7,11.1-37,22S62.1,132,62.6,140.5c0.5,8.6-0.1,34.1-1.7,35.2c-1.5,1-3.7,0-7.7,1.1c-4,1.1-6,5.6-7.4,16.8
		s0.3,17.2,5.5,32.4c5.2,15.2,8.9,19.3,12.4,22c3.5,2.6,6.8,8.5,11.6,9.7c4.8,1.2,9.5-0.5,9.5-0.5s0.8,43.5,1.8,53.4
		c-8.6,4.8-12.3,16.9-14.6,20c-2.4,3.1-3.9,3.5-9.4,10.3c-5.4,6.9-9.3,9.9-17,12.8s-10.9,7.4-20.5,14.6
		c-9.6,7.3-25.6,18.2-25.6,18.2l0.4,330.8l318.4,0.1c0,0,3.3-30.1,4-36.1c0.7-6,7.8-44,12.4-61.6c4.6-17.6,4.4-35.1,5.3-51.8
		C340.8,551.4,347,533,346.3,521.4z"/>
</defs>
<clipPath id="SVGID_2_">
	<use xlink:href="#SVGID_1_"  style="overflow:visible;"/>
</clipPath>
<g style="clip-path:url(#SVGID_2_);">
	
		<image style="overflow:visible;" width="3035" height="5979" id="portrait" xlink:href="barton-portrait-911.jpg"  transform="matrix(0.12 0 0 0.12 0 0)">
	</image>
</g>
</svg>
