<?xml version="1.0" encoding="utf-8"?>
    <!-- Generator: Adobe Illustrator 22.0.1, SVG Export Plug-In . SVG Version: 6.00 Build 0)  -->
    <svg version="1.1" id="camera_2_" xmlns="http://www.w3.org/2000/svg" xmlns:xlink="http://www.w3.org/1999/xlink" x="0px" y="0px" viewBox="0 0 712.1 850.3" style="enable-background:new 0 0 712.1 850.3;" xml:space="preserve">
        <defs>
            <path id="SVGID_1_" style="enable-background:new    ;" d="M695.3,186.2c-0.9-0.5-124.7-71.4-125.3-71.8c-0.6-0.4-2.4-1.1-3.6-1
		c-1.2,0.1-87.2,3.2-90.2,3.4c-3,0.1-5,4.8-5.5,5.8c-0.5,1-1,14.6-1,14.6L395.8,78c0,0,0-29,0-31.4c0-2.4-0.8-3.9-1.7-4.6
		c-0.8-0.6-11.2-8.5-11.8-8.9c-1.6-0.3-5.5-0.2-5.5-0.2l-6.5-10.8c0,0-0.3-0.5-0.8-0.5s-23.5,0-24,0c-0.5,0-0.9,0.2-0.9,0.2
		l-2.4,1.7l-124.6,2.4c0,0-0.4-4.9,0-7.3c0.2-1.4-0.6-2.2-1.1-2.6c-1.1-0.9-3.3-3.3-4.5-4.1c-0.3-0.2-0.7-0.3-1.2-0.3
		c-4.1-0.1-23.4,0.2-27.5,0.2c-0.7,0-1,0.2-1.2,0.3c-1.2,0.8-4.2,3-5.4,3.8c-0.6,0.4-0.8,1.3-0.4,2.8c0.8,2.9,1.3,9.1,1.3,9.1
		L55.4,29.8c0,0-1.4-1-2.2-1.7c-0.9-0.7-1.1-0.5-1.1-0.5S35,28.3,29.4,28.5c-3,0.1-2.2,1.3-2.2,1.3l0.4,9.9c0,0,0.3,1.1-0.6,1.1
		c-2.3,0-10,0.2-12.9,0.2c-1.5,0-1.1,1.2-1.1,1.2s12.7,490,12.9,492.5c0.2,2.6,5.2,4.8,7.2,4.8c2,0,15.6-0.5,15.6-0.5v27.1
		c0,0-2.1-1.4-2.9-2.2c-0.8-0.7-1.3-0.4-1.9-0.5c-0.6-0.1-3.9-4.9-5.3-6.2c-1.4-1.3-7.6,0-8.4,1.7c-0.8,1.6-0.3,12.8,0,21.1
		c0.3,8.3,0,17.8,0,19.2c0,1.4,1.3,4.6,5.8,4.6c4.4,0,5.3-2.8,6-3.6c0.7-0.8,7.3-7.1,8.2-7.4c0.8-0.3,4.3-0.2,4.3-0.2
		s15.9,82.4,16.3,83.3c0.5,0.9,0.3,2.5,2.2,2.4c1.8-0.1,384.1-16.4,385.9-16.6c1.8-0.1,2.6-0.7,2.6-0.7s-0.3,4.9-0.5,7.2
		c-0.2,2.3,0.6,7.7,1.4,9.6c0.9,1.9,102.5,156.2,104.6,158.9c2.2,2.7,3.7,3,7,2.9c3.2-0.2,88.3-5.8,94.8-6.5
		c6.5-0.7,7.6-5.5,7.9-8.2c0.3-2.7,22.3-628.2,22.3-632.6C699.1,187.8,696.2,186.8,695.3,186.2z" />
        </defs>
        <clipPath id="SVGID_2_">
            <use xlink:href="#SVGID_1_" style="overflow:visible;" />
        </clipPath>
        <g style="clip-path:url(#SVGID_2_);">

            <image style="overflow:visible;" width="2967" height="3543" id="camera_xA0_Image" xlink:href="brims-camera.jpg" transform="matrix(0.24 0 0 0.24 0 0)">
            </image>
        </g>
    </svg>
