<svg 
 xmlns="http://www.w3.org/2000/svg"
 xmlns:xlink="http://www.w3.org/1999/xlink"
 width="1695px" height="1491px">
<path fill-rule="evenodd"  fill="rgb(0, 0, 0)"
 d="M277.000,1.000 C299.287,0.503 319.631,7.306 338.500,12.000 C369.497,18.666 400.503,25.334 431.500,32.000 C512.696,52.143 601.467,60.927 680.500,81.000 C811.592,114.296 951.879,133.805 1084.000,166.500 C1125.496,174.666 1167.004,182.834 1208.500,191.000 C1285.659,206.498 1362.841,222.002 1440.000,237.500 C1463.498,242.166 1487.002,246.834 1510.500,251.500 C1518.626,253.615 1522.536,259.528 1532.500,261.000 C1533.655,259.001 1535.218,256.899 1538.000,258.000 C1555.320,266.445 1556.063,292.214 1562.000,312.000 C1570.666,339.331 1579.334,366.669 1588.000,394.000 C1589.833,407.332 1591.667,420.668 1593.500,434.000 C1593.833,444.166 1594.167,454.334 1594.500,464.500 C1597.563,472.810 1612.195,470.835 1616.000,478.000 C1617.095,481.566 1616.401,484.772 1615.500,488.500 C1613.499,489.153 1612.552,488.755 1611.000,488.000 C1610.833,485.334 1610.667,482.666 1610.500,480.000 C1610.333,480.000 1610.167,480.000 1610.000,480.000 C1602.794,480.590 1594.897,484.351 1591.500,489.000 C1593.557,493.746 1597.409,494.857 1594.500,501.000 C1599.668,509.637 1603.087,522.827 1612.000,528.000 C1617.009,530.907 1622.345,528.731 1628.500,530.000 C1632.333,532.166 1636.167,534.334 1640.000,536.500 C1647.215,541.570 1653.386,552.752 1661.500,555.000 C1660.742,551.714 1659.989,551.227 1661.000,548.000 C1674.639,550.475 1700.065,584.906 1693.000,603.500 C1686.834,610.999 1680.666,618.501 1674.500,626.000 C1671.074,628.666 1666.258,630.201 1664.000,634.000 C1660.127,644.989 1671.776,658.371 1667.000,672.000 C1663.359,682.389 1635.739,688.737 1622.500,681.500 C1619.167,677.834 1615.833,674.166 1612.500,670.500 C1612.000,670.500 1611.500,670.500 1611.000,670.500 C1605.810,677.400 1589.972,695.490 1582.500,699.000 C1579.500,699.500 1576.500,700.000 1573.500,700.500 C1569.604,733.130 1569.458,772.563 1560.000,801.000 C1560.333,801.333 1560.667,801.667 1561.000,802.000 C1574.893,796.601 1582.590,777.280 1590.000,765.000 C1592.351,764.398 1594.527,763.825 1597.000,764.500 C1598.502,776.799 1592.437,781.686 1588.000,789.000 C1578.421,804.791 1573.651,841.582 1553.000,844.500 C1541.834,841.334 1530.666,838.166 1519.500,835.000 C1515.752,841.975 1515.127,850.411 1509.000,855.000 C1496.146,847.659 1506.551,816.686 1502.500,800.000 C1500.453,791.566 1492.658,784.168 1490.500,775.000 C1490.500,770.167 1490.500,765.333 1490.500,760.500 C1490.167,760.000 1489.833,759.500 1489.500,759.000 C1489.333,759.000 1489.167,759.000 1489.000,759.000 C1479.180,766.770 1476.647,783.535 1470.000,794.500 C1450.002,822.997 1429.998,851.503 1410.000,880.000 C1407.000,884.666 1404.000,889.334 1401.000,894.000 C1395.288,901.269 1383.647,902.079 1383.000,916.000 C1385.666,918.500 1388.334,921.000 1391.000,923.500 C1404.281,928.410 1418.975,917.463 1430.000,921.500 C1430.500,922.000 1431.000,922.500 1431.500,923.000 C1425.401,934.365 1417.234,952.284 1404.500,957.000 C1392.627,961.397 1377.149,960.598 1366.500,964.500 C1367.971,967.743 1369.593,969.586 1370.000,974.000 C1367.123,978.947 1361.586,978.153 1358.000,982.000 C1349.951,990.635 1347.057,1007.752 1334.500,1011.500 C1329.830,1012.894 1323.983,1012.131 1320.500,1013.000 C1319.167,1016.666 1317.833,1020.334 1316.500,1024.000 C1301.705,1029.715 1269.376,1016.607 1252.500,1012.000 C1199.839,999.501 1147.161,986.999 1094.500,974.500 C893.187,927.005 691.813,879.495 490.500,832.000 C492.642,838.544 500.596,840.993 504.000,846.500 C506.500,853.166 509.000,859.834 511.500,866.500 C549.830,897.664 588.171,928.836 626.500,960.000 C703.795,1020.151 779.280,1083.911 854.500,1146.500 C862.148,1152.863 858.947,1165.244 864.500,1174.000 C897.663,1202.997 930.837,1232.003 964.000,1261.000 C991.993,1283.398 1018.276,1307.070 1038.500,1337.500 C1047.045,1350.357 1057.042,1372.563 1053.500,1395.000 C1050.454,1414.298 1049.865,1428.054 1042.000,1441.500 C1034.741,1453.910 1024.550,1463.940 1013.000,1472.000 C989.923,1488.104 944.695,1497.156 913.500,1483.500 C892.474,1474.296 877.369,1459.164 860.500,1446.000 C829.503,1420.336 798.497,1394.664 767.500,1369.000 C752.658,1357.325 738.890,1343.343 722.500,1333.500 C717.667,1331.834 712.833,1330.167 708.000,1328.500 C697.501,1322.001 686.999,1315.499 676.500,1309.000 C670.501,1303.001 664.499,1296.999 658.500,1291.000 C643.286,1278.782 628.623,1265.494 613.500,1253.500 C550.673,1201.505 487.827,1149.495 425.000,1097.500 C403.835,1080.502 382.665,1063.498 361.500,1046.500 C355.667,1044.334 349.833,1042.166 344.000,1040.000 C326.187,1032.203 312.260,1018.411 301.000,1004.000 C297.646,999.708 296.706,994.262 293.500,989.500 C285.001,982.167 276.499,974.833 268.000,967.500 C240.599,945.547 198.371,903.735 211.500,847.500 C214.666,837.668 217.834,827.832 221.000,818.000 C228.127,801.486 242.317,790.792 252.500,777.500 C249.283,772.379 211.005,766.784 202.000,764.500 C156.505,753.834 110.995,743.166 65.500,732.500 C55.875,730.084 20.889,725.580 16.500,720.000 C11.410,713.529 4.337,704.432 2.000,696.000 C-0.911,685.497 0.280,667.419 2.000,656.500 C4.166,628.169 6.334,599.830 8.500,571.500 C13.666,511.839 18.834,452.161 24.000,392.500 C26.166,366.836 28.334,341.164 30.500,315.500 C36.039,281.009 37.812,241.516 37.000,206.500 C48.832,195.501 60.668,184.499 72.500,173.500 C75.163,171.351 82.002,168.665 84.000,166.000 C87.973,160.700 86.937,156.897 93.000,152.000 C129.430,122.575 161.296,87.873 198.000,58.500 C223.631,37.988 243.967,14.697 277.000,1.000 Z"/>
</svg>