<?xml version="1.0" encoding="utf-8"?>
    <!-- Generator: Adobe Illustrator 21.1.0, SVG Export Plug-In . SVG Version: 6.00 Build 0)  -->
    <svg version="1.1" id="chandra-portrait" xmlns="http://www.w3.org/2000/svg" xmlns:xlink="http://www.w3.org/1999/xlink" x="0px" y="0px" viewBox="0 0 285.4 306.2" style="enable-background:new 0 0 285.4 306.2;" xml:space="preserve">
        <style type="text/css">
            .st0 {
                enable-background: new;
            }

        </style>
        <defs>
            <path id="SVGID_1_" class="st0" d="M273,261c-5.3-20.1-14.7-37.2-17.2-40.1c-2.5-2.9-5.6-6.3-10-8.7c-2.6-3.5-5.9-7.3-10.8-10.8
		c3.9-6.2,6.1-10.1,10.4-22.5c4.3-12.4,4.4-25.1,4.5-32.4c0.1-7.3-1.8-7.8-0.5-10.3s1.1-8.9,2.8-12.1c1.7-3.2,4-10,2.8-13.5
		c-1.1-3.5,0.9-6.5,1.3-8.3s13.2,5.2,17.5,1.8c4.2-3.3-1.2-10.1,0.6-16.1c1.8-6-3.6-25.3-5.9-27.8c-2.3-2.4-3-0.3-4.7-5.5
		c-1.6-5.2-8.7-10.4-10.9-12.7c-0.2-1.9-2.3-9.1-5.7-13.2c-3.4-4.1-9.2-8.2-12-9.1c-2.8,0.4-8.5-2.1-11.8-2.9
		c-2.6-2.4-8.4-6.3-11.9-8.1c-3.4-1.8-4.6-0.6-7.7-0.3c-5.3-2-7.7,1.3-9.6-0.3c-8.7-6-15.1-2.5-16.1-2.2c-1,0.3,0.5-1.1-10.4-1
		c-10.9,0.2-13.5,7.4-15,9.2c-1.5,1.7-4.3,2.4-6.7,0.9c-2.4-1.5-3.7,1.3-5.2,1.1c-1.4-0.2-3.3-0.4-7.3,1s-6.4,6.7-7.3,7.8
		c-0.6,0.1-5.3,2.7-8.7,5c-3.3,2.3-4,3.1-6.7,7.3c-2.7,4.2,1.9,8.2,0.1,12.3s-2.5,10.6-3.2,12.5c-0.8,1.9-0.3,7.7-1.2,10
		s-0.2,12.3-0.2,12.3s2.9,9.7-3.2,13.1c-1.6,0.9-3.5,7.6-4.8,12.3c-1.2,4.7,1,11.3,1.3,13.7c-0.1,2.1-0.1,3.6,0.3,6.1
		c0.5,2.6,2.1,3.5,2.9,4.9c0.8,1.4,1,4.3,1.3,5.6c0.3,1.3,1.8,2.9,1.9,3.3c0.2,0.4,1,0.6,1.8,1.2c-3.5,3.8-3.1,4-2.5,7.6
		s2.4,6.1,4.9,6.4c2.5,0.3,3.7-1.4,3.7-1.4s0.7,4.2,0.5,5.8c-0.2,1.7-4.2,4.1-5.8,3.2c-1.4,2.4-14.7,11.3-23.3,19.6
		s-36.1,35.5-44,42.3c-7.9,6.8-15.9,10.8-26.1,31C5.5,279.3,4.6,306.6,4.6,306.6l276.3-0.1C280.9,306.5,278.3,281.1,273,261z" />
        </defs>
        <clipPath id="SVGID_2_">
            <use xlink:href="#SVGID_1_" style="overflow:visible;" />
        </clipPath>
        <g style="clip-path:url(#SVGID_2_);">

            <image style="overflow:visible;" width="2378" height="2552" id="portrait" xlink:href="chandra-portrait.jpg" transform="matrix(0.12 0 0 0.12 0 0)">
            </image>
        </g>
    </svg>
