<?xml version="1.0" encoding="utf-8"?>
<!-- Generator: Adobe Illustrator 21.1.0, SVG Export Plug-In . SVG Version: 6.00 Build 0)  -->
<svg version="1.1" id="container" xmlns="http://www.w3.org/2000/svg" xmlns:xlink="http://www.w3.org/1999/xlink" x="0px" y="0px"
	 viewBox="0 0 837.1 734.9" style="enable-background:new 0 0 837.1 734.9;" xml:space="preserve">
<g id="chandra-kit">
	<defs>
		<path id="mask" d="M143.5,10.6c10.7-0.2,20.5,3,29.5,5.3c14.9,3.2,29.8,6.4,44.6,9.6c39,9.7,81.6,13.9,119.5,23.5
			c62.9,16,130.3,25.3,193.7,41c19.9,3.9,39.8,7.8,59.8,11.8c37,7.4,74.1,14.9,111.1,22.3c11.3,2.2,22.6,4.5,33.8,6.7
			c3.9,1,5.8,3.9,10.6,4.6c0.6-1,1.3-2,2.6-1.4c8.3,4.1,8.7,16.4,11.5,25.9c4.2,13.1,8.3,26.2,12.5,39.4c0.9,6.4,1.8,12.8,2.6,19.2
			c0.2,4.9,0.3,9.8,0.5,14.6c1.5,4,8.5,3,10.3,6.5c0.5,1.7,0.2,3.3-0.2,5c-1,0.3-1.4,0.1-2.2-0.2c-0.1-1.3-0.2-2.6-0.2-3.8
			c-0.1,0-0.2,0-0.2,0c-3.5,0.3-7.2,2.1-8.9,4.3c1,2.3,2.8,2.8,1.4,5.8c2.5,4.1,4.1,10.5,8.4,13c2.4,1.4,5,0.4,7.9,1
			c1.8,1,3.7,2.1,5.5,3.1c3.5,2.4,6.4,7.8,10.3,8.9c-0.4-1.6-0.7-1.8-0.2-3.4c6.5,1.2,18.8,17.7,15.4,26.6c-3,3.6-5.9,7.2-8.9,10.8
			c-1.6,1.3-4,2-5,3.8c-1.9,5.3,3.7,11.7,1.4,18.2c-1.7,5-15,8-21.4,4.6c-1.6-1.8-3.2-3.5-4.8-5.3c-0.2,0-0.5,0-0.7,0
			c-2.5,3.3-10.1,12-13.7,13.7c-1.4,0.2-2.9,0.5-4.3,0.7c-1.9,15.7-1.9,34.6-6.5,48.2c0.2,0.2,0.3,0.3,0.5,0.5
			c6.7-2.6,10.4-11.9,13.9-17.8c1.1-0.3,2.2-0.6,3.4-0.2c0.7,5.9-2.2,8.2-4.3,11.8c-4.6,7.6-6.9,25.2-16.8,26.6
			c-5.4-1.5-10.7-3-16.1-4.6c-1.8,3.3-2.1,7.4-5,9.6c-6.2-3.5-1.2-18.4-3.1-26.4c-1-4-4.7-7.6-5.8-12c0-2.3,0-4.6,0-7
			c-0.2-0.2-0.3-0.5-0.5-0.7c-0.1,0-0.2,0-0.2,0c-4.7,3.7-5.9,11.8-9.1,17c-9.6,13.7-19.2,27.4-28.8,41c-1.4,2.2-2.9,4.5-4.3,6.7
			c-2.7,3.5-8.3,3.9-8.6,10.6c1.3,1.2,2.6,2.4,3.8,3.6c6.4,2.4,13.4-2.9,18.7-1c0.2,0.2,0.5,0.5,0.7,0.7c-2.9,5.5-6.8,14.1-13,16.3
			c-5.7,2.1-13.1,1.7-18.2,3.6c0.7,1.6,1.5,2.4,1.7,4.6c-1.4,2.4-4,2-5.8,3.8c-3.9,4.1-5.3,12.4-11.3,14.2c-2.2,0.7-5,0.3-6.7,0.7
			c-0.6,1.8-1.3,3.5-1.9,5.3c-7.1,2.7-22.6-3.5-30.7-5.8c-25.3-6-50.6-12-75.8-18C439.3,455,342.6,432.2,246,409.4
			c1,3.1,4.8,4.3,6.5,7c1.2,3.2,2.4,6.4,3.6,9.6c18.4,15,36.8,29.9,55.2,44.9c37.1,28.9,73.3,59.5,109.4,89.5
			c3.7,3.1,2.1,9,4.8,13.2c15.9,13.9,31.8,27.8,47.8,41.8c13.4,10.8,26.1,22.1,35.8,36.7c4.1,6.2,8.9,16.8,7.2,27.6
			c-1.5,9.3-1.7,15.9-5.5,22.3c-3.5,6-8.4,10.8-13.9,14.6c-11.1,7.7-32.8,12.1-47.8,5.5c-10.1-4.4-17.3-11.7-25.4-18
			c-14.9-12.3-29.8-24.6-44.6-37c-7.1-5.6-13.7-12.3-21.6-17c-2.3-0.8-4.6-1.6-7-2.4c-5-3.1-10.1-6.2-15.1-9.4
			c-2.9-2.9-5.8-5.8-8.6-8.6c-7.3-5.9-14.3-12.2-21.6-18c-30.2-25-60.3-49.9-90.5-74.9c-10.2-8.2-20.3-16.3-30.5-24.5
			c-2.8-1-5.6-2.1-8.4-3.1c-8.6-3.7-15.2-10.4-20.6-17.3c-1.6-2.1-2.1-4.7-3.6-7c-4.1-3.5-8.2-7-12.2-10.6
			c-13.2-10.5-33.4-30.6-27.1-57.6c1.5-4.7,3-9.4,4.6-14.2c3.4-7.9,10.2-13.1,15.1-19.4c-1.5-2.5-19.9-5.1-24.2-6.2
			c-21.8-5.1-43.7-10.2-65.5-15.4c-4.6-1.2-21.4-3.3-23.5-6c-2.4-3.1-5.8-7.5-7-11.5c-1.4-5-0.8-13.7,0-19c1-13.6,2.1-27.2,3.1-40.8
			c2.5-28.6,5-57.3,7.4-85.9c1-12.3,2.1-24.6,3.1-37c2.7-16.6,3.5-35.5,3.1-52.3c5.7-5.3,11.4-10.6,17-15.8c1.3-1,4.6-2.3,5.5-3.6
			c1.9-2.5,1.4-4.4,4.3-6.7C72.7,68.9,88,52.3,105.6,38.2C117.9,28.3,127.7,17.1,143.5,10.6z"/>
	</defs>
	<clipPath id="mask_1_">
		<use xlink:href="#mask"  style="overflow:visible;"/>
	</clipPath>
	<g style="clip-path:url(#mask_1_);">
		
			<image style="overflow:visible;" width="1744" height="1531" id="image" xlink:href="F771DBF8994B5448.png"  transform="matrix(0.48 0 0 0.48 0 0)">
		</image>
	</g>
</g>
</svg>
