<?xml version="1.0" encoding="utf-8"?>
    <!-- Generator: Adobe Illustrator 21.1.0, SVG Export Plug-In . SVG Version: 6.00 Build 0)  -->
    <svg version="1.1" id="chandra-kit" xmlns="http://www.w3.org/2000/svg" xmlns:xlink="http://www.w3.org/1999/xlink" x="0px" y="0px" viewBox="0 0 837.1 734.9" style="enable-background:new 0 0 837.1 734.9;" xml:space="preserve">
        <style type="text/css">
            .st0 {
                enable-background: new;
            }

        </style>
        <defs>
            <path id="SVGID_1_" class="st0" d="M807.8,273.1c-0.5,1.5-0.1,1.8,0.2,3.4c-3.9-1.1-6.9-6.4-10.3-8.9c-1.8-1-3.7-2.1-5.5-3.1
		c-3-0.6-5.5,0.4-7.9-1c-4.3-2.5-5.9-8.8-8.4-13c1.4-2.9-0.5-3.5-1.4-5.8c1.6-2.2,5.4-4,8.9-4.3c0.1,0,0.2,0,0.2,0
		c0.1,1.3,0.2,2.6,0.2,3.8c0.7,0.4,1.2,0.6,2.2,0.2c0.4-1.8,0.8-3.3,0.2-5c-1.8-3.4-8.8-2.5-10.3-6.5c-0.2-4.9-0.3-9.8-0.5-14.6
		c-0.9-6.4-1.8-12.8-2.6-19.2c-4.2-13.1-8.3-26.2-12.5-39.4c-2.8-9.5-3.2-21.9-11.5-25.9c-1.3-0.5-2.1,0.5-2.6,1.4
		c-4.8-0.7-6.7-3.5-10.6-4.6c-11.3-2.2-22.6-4.5-33.8-6.7c-37-7.4-74.1-14.9-111.1-22.3c-19.9-3.9-39.8-7.8-59.8-11.8
		c-63.4-15.7-130.8-25.1-193.7-41c-37.9-9.6-80.5-13.9-119.5-23.5c-14.9-3.2-29.8-6.4-44.6-9.6c-9.1-2.3-18.8-5.5-29.5-5.3
		c-15.9,6.6-25.6,17.8-37.9,27.6C88,52.3,72.7,68.9,55.2,83c-2.9,2.4-2.4,4.2-4.3,6.7c-1,1.3-4.2,2.6-5.5,3.6
		c-5.7,5.3-11.4,10.6-17,15.8c0.4,16.8-0.5,35.8-3.1,52.3c-1,12.3-2.1,24.6-3.1,37c-2.5,28.6-5,57.3-7.4,85.9
		c-1,13.6-2.1,27.2-3.1,40.8c-0.8,5.2-1.4,13.9,0,19c1.1,4,4.5,8.4,7,11.5c2.1,2.7,18.9,4.8,23.5,6c21.8,5.1,43.7,10.2,65.5,15.4
		c4.3,1.1,22.7,3.8,24.2,6.2c-4.9,6.4-11.7,11.5-15.1,19.4c-1.5,4.7-3,9.4-4.6,14.2c-6.3,27,14,47.1,27.1,57.6
		c4.1,3.5,8.2,7,12.2,10.6c1.5,2.3,2,4.9,3.6,7c5.4,6.9,12.1,13.5,20.6,17.3c2.8,1,5.6,2.1,8.4,3.1c10.2,8.2,20.3,16.3,30.5,24.5
		c30.2,25,60.3,49.9,90.5,74.9c7.3,5.8,14.3,12.1,21.6,18c2.9,2.9,5.8,5.8,8.6,8.6c5,3.1,10.1,6.2,15.1,9.4c2.3,0.8,4.6,1.6,7,2.4
		c7.9,4.7,14.5,11.4,21.6,17c14.9,12.3,29.8,24.6,44.6,37c8.1,6.3,15.3,13.6,25.4,18c15,6.6,36.7,2.2,47.8-5.5
		c5.5-3.9,10.4-8.7,13.9-14.6c3.8-6.5,4.1-13.1,5.5-22.3c1.7-10.8-3.1-21.4-7.2-27.6c-9.7-14.6-22.3-26-35.8-36.7
		c-15.9-13.9-31.8-27.8-47.8-41.8c-2.7-4.2-1.1-10.1-4.8-13.2c-36.1-30-72.3-60.6-109.4-89.5c-18.4-15-36.8-29.9-55.2-44.9
		c-1.2-3.2-2.4-6.4-3.6-9.6c-1.6-2.6-5.5-3.8-6.5-7c96.6,22.8,193.3,45.6,289.9,68.4c25.3,6,50.6,12,75.8,18
		c8.1,2.2,23.6,8.5,30.7,5.8c0.6-1.8,1.3-3.5,1.9-5.3c1.7-0.4,4.5-0.1,6.7-0.7c6-1.8,7.4-10,11.3-14.2c1.7-1.8,4.4-1.5,5.8-3.8
		c-0.2-2.1-1-3-1.7-4.6c5.1-1.9,12.5-1.5,18.2-3.6c6.1-2.3,10-10.9,13-16.3c-0.2-0.2-0.5-0.5-0.7-0.7c-5.3-1.9-12.3,3.3-18.7,1
		c-1.3-1.2-2.6-2.4-3.8-3.6c0.3-6.7,5.9-7.1,8.6-10.6c1.4-2.2,2.9-4.5,4.3-6.7c9.6-13.7,19.2-27.4,28.8-41c3.2-5.3,4.4-13.3,9.1-17
		c0.1,0,0.2,0,0.2,0c0.2,0.2,0.3,0.5,0.5,0.7c0,2.3,0,4.6,0,7c1,4.4,4.8,8,5.8,12c1.9,8-3,22.9,3.1,26.4c2.9-2.2,3.2-6.3,5-9.6
		c5.4,1.5,10.7,3,16.1,4.6c9.9-1.4,12.2-19.1,16.8-26.6c2.1-3.5,5-5.9,4.3-11.8c-1.2-0.3-2.2,0-3.4,0.2c-3.6,5.9-7.3,15.2-13.9,17.8
		c-0.2-0.2-0.3-0.3-0.5-0.5c4.5-13.6,4.6-32.6,6.5-48.2c1.4-0.2,2.9-0.5,4.3-0.7c3.6-1.7,11.2-10.4,13.7-13.7c0.2,0,0.5,0,0.7,0
		c1.6,1.8,3.2,3.5,4.8,5.3c6.4,3.5,19.6,0.4,21.4-4.6c2.3-6.5-3.3-13-1.4-18.2c1.1-1.8,3.4-2.6,5-3.8c3-3.6,5.9-7.2,8.9-10.8
		C826.6,290.8,814.4,274.3,807.8,273.1z" />
        </defs>
        <clipPath id="SVGID_2_">
            <use xlink:href="#SVGID_1_" style="overflow:visible;" />
        </clipPath>
        <g style="clip-path:url(#SVGID_2_);">

            <image style="overflow:visible;" width="1744" height="1531" id="chandra-kit-image" xlink:href="chandra-kit.jpg" transform="matrix(0.48 0 0 0.48 0 0)">
            </image>
        </g>
    </svg>
