<?xml version="1.0" encoding="utf-8"?>
<!-- Generator: Adobe Illustrator 21.1.0, SVG Export Plug-In . SVG Version: 6.00 Build 0)  -->
<svg version="1.1" id="hunting-portrait" xmlns="http://www.w3.org/2000/svg" xmlns:xlink="http://www.w3.org/1999/xlink" x="0px"
	 y="0px" viewBox="0 0 2321 2109" style="enable-background:new 0 0 2321 2109;" xml:space="preserve">
<style type="text/css">
	.st0{enable-background:new    ;}
</style>
<defs>
	<path id="SVGID_1_" class="st0" d="M2275,916c-25.7-31.4-78.3-51.3-112-45c-3.3-17.9-11.6-19.2-19-20c-3.1-72.6,0.4-107.2-92-113
		c-24.1-24.6-43-41.8-58-45c-15-3.2-20-1-20-1s-1.1-126.2-42-222c-40.9-95.8-105.3-197-152-223s-174.8-70.4-254-60
		s-134,73.8-158,119s-38,49-38,49s-116.2,97.7-124,155c-7.8,57.3-11.2,84.9,17,98c28.2,13.1,59-9,59-9l49,81c0,0-18.4,6.6-10,35
		c8.4,28.4,64.3,153.2,109,191c44.7,37.8,68,41,68,41s57.6,46.7,98,63c9.7,20.1,16.3,37.8,20,49s0.8,36.5-5,43s-53.1,21.8-57,33
		s-1.1,68.9-18,86c-16.9,17.1-67.3,15.5-83,23s-31.7,26.3-40,34s-63.3,40.6-107,80s-72.7,77.3-102,125c-29.3,47.7-34,52-34,52
		s-36.9-5.7-47,9c-14.8-6.6-33.8-10-46-7c-17.9-10.2-52.2-24-65-15c-12.8,9-3.6-47-9-55c-5.4-8-174.6-216.6-195-316
		c-3.9-11.7-17-16.7-23-10c-10.8-24.9-86.2-119.9-153-174c-66.8-54.1-83.9-69.7-101-82c-17.1-12.3-127.6-54.8-155-64
		c-27.4-9.2-47,11-47,11s-128.9-78.6-161-23c-32.1,55.6-64.9,103.2,94,487c3.2,28.8,17,170,17,170s-5.1,17.3-3,30
		c-20.9,22.1-67,61-67,61s-4.5,8.3,0,21c-19.6,16.1-36,22-36,22s-181.3-102.6-289-140c-107.7-37.4-245.1-93.1-427-132
		c-204.4-43.7-469.1-33.2-570-6c0.3,64.3-1,787-1,787l3434-1V982C2320,982,2300.7,947.4,2275,916z"/>
</defs>
<clipPath id="SVGID_2_">
	<use xlink:href="#SVGID_1_"  style="overflow:visible;"/>
</clipPath>
<image style="overflow:visible;clip-path:url(#SVGID_2_);" width="2321" height="2109" id="hunting-portrait-Image" xlink:href="hunting-portrait-1393.jpg" >
</image>
</svg>
