<svg 
 xmlns="http://www.w3.org/2000/svg"
 xmlns:xlink="http://www.w3.org/1999/xlink"
 width="3434px" height="1924px">
<path fill-rule="evenodd"  fill="rgb(0, 0, 0)"
 d="M3434.000,797.000 C3434.000,797.000 3414.715,762.363 3389.000,731.000 C3363.285,699.637 3310.684,679.656 3277.000,686.000 C3273.734,668.102 3265.352,666.836 3258.000,666.000 C3254.910,593.371 3258.414,558.848 3166.000,553.000 C3141.891,528.383 3122.961,511.188 3108.000,508.000 C3093.039,504.813 3088.000,507.000 3088.000,507.000 C3088.000,507.000 3086.875,380.758 3046.000,285.000 C3005.125,189.242 2940.707,87.973 2894.000,62.000 C2847.293,36.027 2719.230,-8.402 2640.000,2.000 C2560.770,12.402 2505.961,75.797 2482.000,121.000 C2458.039,166.203 2444.000,170.000 2444.000,170.000 C2444.000,170.000 2327.789,267.672 2320.000,325.000 C2312.211,382.328 2308.828,409.930 2337.000,423.000 C2365.172,436.070 2396.000,414.000 2396.000,414.000 L2445.000,495.000 C2445.000,495.000 2426.648,501.586 2435.000,530.000 C2443.352,558.414 2499.313,683.207 2544.000,721.000 C2588.688,758.793 2612.000,762.000 2612.000,762.000 C2612.000,762.000 2669.594,808.727 2710.000,825.000 C2719.668,845.145 2726.273,862.766 2730.000,874.000 C2733.727,885.234 2730.844,910.461 2725.000,917.000 C2719.156,923.539 2671.922,938.820 2668.000,950.000 C2664.078,961.180 2666.945,1018.859 2650.000,1036.000 C2633.055,1053.141 2582.687,1051.543 2567.000,1059.000 C2551.313,1066.457 2535.301,1085.309 2527.000,1093.000 C2518.699,1100.691 2463.656,1133.645 2420.000,1173.000 C2376.344,1212.355 2347.277,1250.305 2318.000,1298.000 C2288.723,1345.695 2284.000,1350.000 2284.000,1350.000 C2284.000,1350.000 2247.074,1344.258 2237.000,1359.000 C2222.168,1352.434 2203.234,1349.043 2191.000,1352.000 C2173.082,1341.848 2138.785,1328.000 2126.000,1337.000 C2113.215,1346.000 2122.430,1290.004 2117.000,1282.000 C2111.570,1273.996 1942.402,1065.383 1922.000,966.000 C1918.066,954.301 1905.027,949.305 1899.000,956.000 C1888.219,931.090 1812.758,836.105 1746.000,782.000 C1679.242,727.895 1662.074,712.262 1645.000,700.000 C1627.926,687.738 1517.379,645.223 1490.000,636.000 C1462.621,626.777 1443.000,647.000 1443.000,647.000 C1443.000,647.000 1314.109,568.355 1282.000,624.000 C1249.891,679.645 1217.148,727.242 1376.000,1111.000 C1379.188,1139.785 1393.000,1281.000 1393.000,1281.000 C1393.000,1281.000 1387.867,1298.281 1390.000,1311.000 C1369.059,1333.109 1323.000,1372.000 1323.000,1372.000 C1323.000,1372.000 1318.480,1380.266 1323.000,1393.000 C1303.367,1409.133 1287.000,1415.000 1287.000,1415.000 C1287.000,1415.000 1105.715,1312.441 998.000,1275.000 C890.285,1237.559 752.923,1181.926 571.000,1143.000 C366.576,1099.259 101.895,1109.793 1.000,1137.000 C1.324,1201.266 -0.000,1924.000 -0.000,1924.000 L3434.000,1923.000 L3434.000,797.000 Z"/>
</svg>