<?xml version="1.0" encoding="utf-8"?>
    <!-- Generator: Adobe Illustrator 21.1.0, SVG Export Plug-In . SVG Version: 6.00 Build 0)  -->
    <svg version="1.1" id="jenyns-corset" xmlns="http://www.w3.org/2000/svg" xmlns:xlink="http://www.w3.org/1999/xlink" x="0px" y="0px" viewBox="0 0 452.3 634.9" style="enable-background:new 0 0 452.3 634.9;" xml:space="preserve">
        <g id="mask-group">
            <defs>
                <path id="mask" d="M440.6,489.6h-0.1c-2.8-8.7-4.3-18.2-5.8-28c-0.4-2.6,0-6.2,0.4-8.3c0.5-2.8-0.1-4.1,0.1-6.6
			c0.3-3.1-1.2-7.4-0.8-9.1c0.3-1.3,1.7-2,1.3-4c-0.3-1.9-0.5-3-1.1-4.8c-0.3-0.9-1.5-1.9-1.8-2.8c-0.4-1.1,0.3-2.6,0.1-3.8
			c-0.5-3-1.4-5.4-1.9-8.2v-4c-1.3-7.8-0.6-16.1-1.8-22.4c0.3-1.6,0.6-3.2,0.8-4.8c0.2-2.2,0.5-6.5,0.5-8.5c0-0.8-0.6-1.5-0.4-2.4
			c0.3-0.9,0.9-2.8,0.7-4.3c-0.1-1.9-0.2-3.8-0.4-5.6c0.1-1.2,0.2-2.5,0.2-3.7c-0.2-0.3-0.3-0.6-0.5-1c0-1.4,1.1-3.3,0.8-4.8
			c-0.6-3.6-0.7-8.9-0.4-13.1c0-5.4-0.1-10.7-0.1-16.1c0.1-6.6,0.5-13.9-0.8-20.2c0.1-2,0.2-4,0.4-6c-0.4-3.3-0.4-8.3-1.1-12
			c0-1.8,0.1-3.5,0.1-5.3c-1.9-12.9-2.6-28.5-3.6-40.7c0.1-0.9,0.2-1.8,0.2-2.6c-0.7-8.3-2.5-16.6-3.5-24.6
			c-0.8-6.1-0.7-14.1-1.8-20.9c0.2-3,0.4-6.1,0.6-9.1c-0.2-2.5-0.3-5-0.5-7.4c-3.1-13.7-3.5-30.2-2.2-43.8c0.6-6.1-1.2-10.1-1.7-15
			c-0.4-4.8,0.5-10.3-0.2-14.6c0-4.6,0.1-9.2,0.1-13.8c0.4-1.8,0.8-3.5,1.2-5.3c0.1-3,0.2-6,0.2-9c-0.4-3.2-0.9-6.3-1.3-9.5
			c-0.3-2.6,0.5-6.5,0.8-9.1c-0.1-3.8-0.2-7.6-0.2-11.4c0.5-2.6,1.8-4.4,1.4-6.6c-0.5-3.2,1.6-6.1,2.4-8.5c0.4-1.1-0.2-2.3,0.1-3.6
			c1.9-6.8,3.2-12.3-5.4-13.2c-0.6-1.1-1.5-2.3-1.6-4h-1c-0.6,0.9,0.7,2.2,0.2,2.9c-0.5,0.6-1,0.1-1.3,1.1c-0.7,0-1.4-0.1-2.2-0.1
			c-0.3,0.6-0.2,1,0,1.7c-1.2,0.5-1.5-0.4-2.4-0.6c-0.7-0.2-2.9,0.6-3.8,0.8l-2.4,1.2c-1.2,0.5-3.6,0.9-4.9,1.2
			c-0.5-0.2-1-0.3-1.4-0.5c-1.1,0.1-2.2,0.2-3.4,0.2c-1.4-0.1-3.5-0.4-4.9-0.6c-4.8-0.6-9.2,1-14.2,0.4c-0.8,0.1-1.6,0.2-2.4,0.4
			c-3.9,0-8.1-0.3-11.3,0.4c-0.7,0.2-1.8,0.7-2.5,0.6c-6.1-0.9-12.8-1.4-19.1-0.7c-1,0.1-1.9-0.7-3.2-0.4c-4.1,1.1-9.6,0.4-14.3,1
			c-1.5,0.2-3,0-4.4,0.2c-0.8,0.2-1.5,0.4-2.3,0.6c-1.3-0.1-3.1-0.8-4.9-0.5c-2.3,0.4-5.1,1-7.4,0.5c-1-0.4-2-0.7-3-1.1
			c-1.5,0.1-3,0.2-4.6,0.4c-3.3-0.6-6.3-0.4-10-1c-1.8,0-3.7,0.1-5.5,0.1c-2.7-0.2-5.4-0.3-8-0.5c-5.3,0.9-10.2,0-14.9,0.6
			c-3.7,0.4-9,1.3-12.5,2c-1.1,0.2-3-0.3-3.6-0.5c-1-0.2-4.6,0.4-5.2,0.6c-1.1,0-2.2-0.1-3.2-0.1c-4-0.1-7.9-0.2-11.9-0.4
			c-0.9-0.2-1.8-0.3-2.8-0.5c-1.6,0.1-3.2,0.2-4.8,0.4c-1-0.2-1.9-0.4-2.9-0.6c-1,0.1-2,0.2-3,0.4c-1.5-0.3-3-0.6-4.4-1
			c-1,0.2-2,0.3-3,0.5c-1.4-0.4-2.7-0.9-4.1-1.3c-2.2,0-4.2-0.4-6.5-0.8h-4.1c-1.2-0.3-2.3-0.6-3.5-0.8c-1.3,0.1-2.6,0.2-4,0.2
			c-7.5-1.2-14.4,0-21.6-1.2c-2.3,0-4.6,0.1-7,0.1c-3.9-1-9.1-2.1-13.1-2.9c-1.6-0.3-4,0.4-5.8,0.1c-2.4-0.4-6.2-1-8.6-1.4
			c-0.4-0.1-5.1-0.3-5.6-0.2c-0.6,0.2-1.2,0.3-1.8,0.5c-2.6-0.5-5.3-1-7.9-1.6c-6.2,0.1-10.2-0.2-16-0.2c-1.6,0.7-3.2,0.8-4.7,1.7
			c-0.9,0.5-1.2,1.5-2.3,1.9c-2.4,0.8-4.6-0.1-6.6-0.5c-1.9-0.4-3.2,0.8-4.9,1.1c-0.9-0.1-1.8-0.2-2.6-0.2
			c-3.9-0.5-10.1-0.2-12.7,1.7c-3,2.2,1.3,8.7,1.9,11c0.6,2.3,0.3,4.9,2.5,5.5c1.1,3,0.6,7.6,0,11c-0.6,7.8-1.1,15.6-1.7,23.4
			c0.1,1.5-0.5,4.6-0.5,6.5c0.2,6-0.2,10.2-1.1,16.8v6.2c-0.6,5-1.1,10.1-1.7,15.1c-0.4,2.2-0.1,4.3-0.5,6.1
			c-0.7,7.8-1.4,15.6-2.2,23.4c-2.5,5.3-6.1,9.5-7.7,16c-2.3,9.6-2.2,18.6-4.7,27.5c-7.4,26-16.5,51.5-22.9,77.9
			c-1.4,5.9-2.3,11.6-3.5,17c-0.4,3-0.8,6.1-1.2,9.1c-0.6,4.2-1.3,8.5-1.9,12.7c-0.4,4.6-0.9,9.1-1.3,13.7
			c-1.8,10.3-2.6,19.5-3.5,29.5c-0.7,8.1,1.9,14.5,1.7,21.4c0.5,13.2,2.2,23.6,4.5,35.1c1,6.4,1.9,12.9,2.9,19.3
			c0.8,4.4,0.7,8.5,2,12.2c1.1,3.3,2,7.6,3.8,10.6c1.8,2.4,3.7,4.8,5.5,7.2c0.3,1.7,0.6,3.4,1,5.2c1.9,4.7,4.3,9.5,7.1,13.6
			c1,1,2,1.9,3,2.9c0.4,0.7,0.7,1.4,1.1,2c0.5,0.3,1,0.6,1.4,0.8c0.4,1.5,0.8,3,1.2,4.4c1,2.7,2.3,5.6,3.7,7.9
			c3.9,6.3,10,10.6,15.4,15.4c1.5,1.3,8.2,4.2,10.4,4.9c1,0.3,4.4,0.7,4.8,1.6c-0.2,1.6-0.5,3.3-0.7,4.9c0.5,5.3-8,17.6,2.8,17.6
			c0.2-0.1,0.4-0.2,0.6-0.4c1.1-1.9,0.4-4.7,0.6-7.2c0.4-4.6,0.7-9.2,1.1-13.8c1.6-0.4,3.9,0.6,5.4,1c4.3,0.8,8.6,1.5,12.8,2.3
			c1,7.7-0.2,15.7-0.7,23.6c-0.2,3,0.2,5.1-0.4,8.5c-0.9,5.3-0.8,12.5-4.2,15.1c-1.6,0.3-3.4-1.3-4.4,0.8c-0.7,2.2,1.1,4.7,1.1,6.5
			c-0.1,5.3,0.8,13.9,4.3,16.6c0.8,0.4,1.7,0.7,2.5,1.1c0.9,0.6,1.3,1.6,2.4,2c1.3,0.5,2.6,0.5,3.4,1.4c1.1,1.3-0.2,4.1,0.4,6.4
			c0.9,3.6,1,3.9,3.2,6.2c0.3,3-1.4,5.9-1.9,8.5s-0.2,5.4,0.1,7.8c0.1,0.5,0.9,1.1,1.1,1.8c0.4,1.7-1.8,3.5-1.3,6.5
			c0.5,3.1,1.7,5.6,4.6,6.5c0.9,0.1,1.8,0.2,2.6,0.4c0.6,0.2,1.2,0.8,2,0.7c8.8-1.4,5.5-7.9,6.4-15c0.5-4,1.3-8.8,2.3-12.5
			c0.8-3.1-0.6-7.7-0.8-11c1.9-0.3,4.7,1.4,6.4,0c1.4-0.9,0.3-2.2,1-4.1c0.4-0.8,0.9-1.6,1.3-2.4c1-4.1-0.3-12.7-2.4-15.2
			c-1.3-1.5-3.9-2.7-6-3.4c0.6-2.1,1.9-4,2.5-6.4c0.6-4.4,1.1-8.8,1.7-13.2c0.6-4.6,1.3-9.1,1.9-13.7c0.5-2.8,0.1-4.9,0.5-7.3
			c0.5-3.4,1.1-7.8,1.1-12c2-0.9,6.1,0.5,7.9,1c5.5,0.4,11,0.8,16.6,1.2c3.7-0.6,10.8,0.1,14.3,0.7h7.6c6.7,1.1,14.9,0.1,20.6,1
			c6.8,1,12.4,0.2,18.5,1c4.7,0.2,9.4,0.5,14.2,0.7c6.3-0.9,12.7,0.8,19.9-0.1c3.6-0.1,7.3-0.2,10.9-0.2c6.8-0.4,13.5-0.9,20.3-1.3
			c45.8-4.6,91.9-12.3,128.9-29.8c3.3-1.6,5.9-4.4,8.9-6.2h0.1c0.1,0.9,0.2,1.8,0.4,2.8c0.6,1.5,2.9,3,1.4,5.6
			c-0.6,1.2-2.8,1.7-3.6,2.9c-2.2,3-4.5,11.4-3.4,16.3c0.1,0.6,2.4,5.8,2.8,6.1c1.3,1,3.4,0.3,4.2,1.8c0.4,0.9-0.2,1.5-0.4,2.2
			c-0.1,0.5,0.4,6,0.6,7.2c0.6,3.5,1.3,9.6,1.6,13.6c-0.2,0.6-0.3,1.3-0.5,1.9c0.3,0.9,0.6,1.8,1,2.6c-0.1,1.4-0.2,2.7-0.2,4.1
			c0.6,3.1,2.2,5.7,5.2,6.5c0.6,1.2-0.6,11.4-1,13.6c-0.2,1.1-0.8,3.1-0.4,4.3c0.6,1.3,2,1.4,3.1,0.6c0.6,0.5,1,1,2,0.7
			c2.3-1.1,1.9-7.7,1.8-11.3c-0.5-0.5-0.8-0.8-1.8-0.8c-0.7-1.7,0.4-4.5,0.5-6.7c0.8-1.1,2.4-1.4,3.1-2.5c1.7-2.6,1.1-7-1.1-8.5
			c0.3-1.8,2.4-3.6,1.7-6.6c-0.4-1.6-1.5-2.7-1.8-3.7c5.5-1.6,11.6-6.6,11.3-13.7c-0.1-1.8,0.4-6.7,1-8.5c0.8-2.8,2.6-5,3.2-8.2
			c0.1-2.7,0.2-5.4,0.2-8.2c0.3-0.6,0.6-1.2,1-1.8C448.3,489.4,444,488.5,440.6,489.6z" />
            </defs>
            <clipPath id="mask_1_">
                <use xlink:href="#mask" style="overflow:visible;" />
            </clipPath>
            <g transform="matrix(1 0 0 1 0 0)" style="clip-path:url(#mask_1_);enable-background:new    ;">

                <image style="overflow:visible;" width="3783" height="5300" id="image" xlink:href="jenyns-corset-565.jpg" transform="matrix(0.1197 0 0 0.1197 -0.3012 0.2148)">
                </image>
            </g>
        </g>
    </svg>
