<?xml version="1.0" encoding="utf-8"?>
<!-- Generator: Adobe Illustrator 22.0.1, SVG Export Plug-In . SVG Version: 6.00 Build 0)  -->
<svg version="1.1" id="jenyns-portrait" xmlns="http://www.w3.org/2000/svg" xmlns:xlink="http://www.w3.org/1999/xlink" x="0px"
	 y="0px" viewBox="0 0 196.3 232.9" style="enable-background:new 0 0 196.3 232.9;" xml:space="preserve">
<g>
	<defs>
		<path id="SVGID_1_" d="M183.1,176c-5.3-11.7-6-15.6-7.2-17.5s-2.5-2.5-2.9-3.2s2.9-7.4-2.2-12.6c-5-5.2-9.2-7.2-10.8-8.4
			s-3.8-4.8-7.4-6.1c-3.6-1.3-7.8-1.7-7.8-1.7s-1.7-1.4-4-3.1c-1.5-1.2-3-0.6-3-0.6s-0.2-2-1.4-2.5c-2.4-1.1-9.5-2.7-10.9-2.8
			c0.8-4.3,2.8-11.7,5.4-16c2.6-4.2,5-9,6-10c0.5,1.1,2,0.7,4.2-1.3c2.2-2.1,1.9-6.5,2.4-7.1s4.6-1,7-4c4.7-5.9,5.3-5.9,5.6-8.8
			c0.3-0.9,2.7-2.9,3-5.3c0.3-2.4,0.9-4.4,1-7.1c0.1-1.3,0.1-7.4-0.7-9.2S158,44,158,42.9s-0.7-2.9-1-3.6c-0.3-0.7-0.5-4.2-0.9-5.7
			c-0.4-1.7-3.4-4.8-5-5.7c-1.6-0.9-2.8-2.8-3.2-3.2c-0.8-0.9-2.5-1.3-2.9-2.2c-1.3-2.4-3.1-3-5.6-4.7c-1.6-1-2.9-0.4-4.1-2.2
			c-1.2-1.7-3.4-3-6-4.7c-0.7-0.5-4.4-3.2-7.2-3.6c-5.6-0.9-8.1,0.4-9.5-0.2c-0.7-0.3-1.8,0-3.9-1.1c-2-1.1-5.6-0.4-7.2,1.2
			c-1.8,1.8-3.8,0.2-5.7,1.2c-1.8,0.9-3.4,2.2-6.8,2.4c-1.6,0.1-5,4-5.6,4.9c-0.9,1.5-3.8,3-5.4,5.5s-5.3,5.6-6.1,7.3
			c-0.3,0.8-1.4,3.1-2.1,4.3s-2.4,4.8-3.5,7.2c-3.8,7.7-7.3,18.7-3,22c4.3,3.2,4.5,3.9,4.6,5.3c0.1,1.3,0.6,16.3,3.4,14
			c1.3-1.2,2,2.5,2.4,5.2s1.5,9.3,1.1,11c-0.4,1.8-2.1,3.8-2.5,4.2c-0.7-0.5-2.3,0.1-2.3,1.4c-1.5-0.5-3.5-1-4.3,0.7
			c-0.9,1.7-2.2,4.5-3.8,5.2s-3.8,0.8-3.8,0.8s-0.6,1.1-0.1,1.9c-1.5,0.7-10.8,4.6-12.6,4.9s-4.8-1.7-7-1.2s-2.6,1.7-3.2,2.3
			c-1.7,0-3.9,0.9-5,1.8s-2.2,1.5-2.6,2c-1.3-0.1-8,0.3-13.3,8.2C10,135.8,5.1,144.3,3.4,149c-0.6,1.7,0.1,2,0.6,2.9
			c9.3,17.3,78.2,76.4,121.8,77.5s65.7-4.1,66.7-14C193.2,208.4,188.4,187.7,183.1,176z"/>
	</defs>
	<clipPath id="SVGID_2_">
		<use xlink:href="#SVGID_1_"  style="overflow:visible;"/>
	</clipPath>
	<g style="clip-path:url(#SVGID_2_)">
		
			<image style="overflow:visible;enable-background:new    ;" width="1650" height="1950" id="portrait" xlink:href="jenyns-portrait-982.jpg"  transform="matrix(0.1193 0 0 0.1193 -0.2234 0.1887)">
		</image>
        
	</g>
</g>
</svg>
