<svg 
 xmlns="http://www.w3.org/2000/svg"
 xmlns:xlink="http://www.w3.org/1999/xlink"
 width="1580px" height="1868px">
<path fill-rule="evenodd"  fill="rgb(0, 0, 0)"
 d="M597.000,768.000 C593.521,782.625 579.186,799.762 576.000,803.000 C570.189,799.160 557.029,803.705 557.000,815.000 C544.578,811.232 528.248,806.939 521.000,821.000 C513.752,835.061 502.965,858.395 489.000,864.000 C475.035,869.605 457.000,871.000 457.000,871.000 C457.000,871.000 452.230,879.982 456.000,887.000 C443.268,892.908 365.750,925.479 351.000,928.000 C336.250,930.521 311.324,913.691 293.000,918.000 C274.676,922.309 271.344,932.348 266.000,937.000 C251.600,937.035 233.312,944.217 224.000,952.000 C214.688,959.783 205.723,964.320 202.000,969.000 C191.039,968.205 135.155,971.142 91.000,1037.000 C58.534,1085.423 17.824,1156.131 3.000,1196.000 C-2.337,1210.355 3.780,1212.748 8.000,1220.000 C85.750,1364.444 659.492,1856.707 1023.000,1866.000 C1386.508,1875.293 1570.238,1832.004 1579.000,1749.000 C1585.131,1690.917 1544.801,1518.566 1501.000,1421.000 C1457.199,1323.434 1450.879,1291.242 1441.000,1275.000 C1431.121,1258.758 1419.906,1254.445 1417.000,1248.000 C1414.094,1241.555 1440.855,1186.078 1399.000,1143.000 C1357.145,1099.922 1322.727,1083.168 1309.000,1073.000 C1295.273,1062.832 1277.258,1033.184 1247.000,1022.000 C1216.742,1010.816 1182.000,1008.000 1182.000,1008.000 C1182.000,1008.000 1167.716,996.320 1149.000,982.000 C1136.193,972.201 1124.000,977.000 1124.000,977.000 C1124.000,977.000 1122.213,960.744 1112.000,956.000 C1091.680,946.561 1032.496,933.113 1021.000,933.000 C1027.543,896.922 1044.418,835.090 1066.000,800.000 C1087.582,764.910 1107.315,725.109 1116.000,717.000 C1120.065,725.922 1133.068,722.975 1151.000,706.000 C1169.104,688.861 1167.033,651.434 1171.000,647.000 C1174.967,642.566 1209.638,638.438 1229.000,614.000 C1267.802,565.028 1273.405,564.988 1276.000,541.000 C1278.235,533.516 1298.403,516.718 1300.651,496.478 C1302.899,476.238 1307.735,459.411 1309.000,437.000 C1309.621,425.993 1309.693,375.149 1302.802,360.102 C1295.912,345.055 1291.030,320.793 1291.426,311.544 C1291.829,302.103 1285.525,287.527 1282.789,281.512 C1280.053,275.496 1278.406,246.793 1275.000,234.000 C1271.332,220.223 1246.692,193.648 1233.186,186.457 C1219.680,179.266 1209.438,162.874 1206.439,159.690 C1199.447,152.266 1185.862,148.586 1182.051,141.768 C1171.022,122.034 1156.263,116.415 1135.000,103.000 C1121.268,94.336 1111.145,99.338 1101.000,85.000 C1090.855,70.662 1072.353,59.817 1051.218,46.131 C1045.144,42.198 1014.764,19.861 991.000,16.000 C944.359,8.422 923.547,19.386 912.000,14.000 C906.234,11.311 896.594,14.126 879.549,5.247 C862.505,-3.632 832.607,2.139 819.518,15.301 C804.617,30.284 787.755,17.310 772.000,25.000 C757.029,32.307 743.999,43.651 715.545,45.235 C702.090,45.984 673.675,78.768 668.811,86.438 C661.059,98.662 636.907,111.702 624.000,132.000 C610.942,152.536 579.688,178.329 573.473,192.837 C570.565,199.627 562.153,218.966 556.335,229.067 C550.517,239.169 536.651,269.201 527.000,289.000 C495.730,353.148 465.848,445.023 502.000,472.000 C538.152,498.977 539.477,504.871 540.000,516.000 C540.523,527.129 545.135,652.051 568.000,633.000 C578.566,622.684 584.332,653.809 588.000,676.000 C591.668,698.191 600.479,753.375 597.000,768.000 Z"/>
</svg>