<svg xmlns="http://www.w3.org/2000/svg" viewBox="0 0 184.42 59.43"><defs><style>.cls-1{fill:#fff;}</style></defs><title>logo-slq</title><g id="Layer_2" data-name="Layer 2"><g id="Footer"><path class="cls-1" d="M73.6,29.49v.42c0,1.35.38,2.21,1.9,2.21a1.65,1.65,0,0,0,1.73-1.77c0-1.31-.67-1.79-2.57-2.46C72.09,27,70.9,26,70.9,23.56c0-2.79,1.71-4.22,4.44-4.22,2.57,0,4.44,1.1,4.44,3.86v.41H77c0-1.35-.46-2.13-1.57-2.13a1.48,1.48,0,0,0-1.65,1.67c0,.88.26,1.43,1.49,1.95l2.23,1c2.17.94,2.73,2,2.73,3.79,0,3-1.85,4.4-5,4.4s-4.56-1.53-4.56-4.18v-.58Z"/><path class="cls-1" d="M82.55,20.06h2.77v3.1h1.61V25H85.32V30.9c0,.84.18,1.18,1,1.18a5.59,5.59,0,0,0,.63,0V34a17.6,17.6,0,0,1-1.81.12c-2.17,0-2.57-.67-2.57-2.86V25H81.14V23.16h1.41v-3.1Z"/><path class="cls-1" d="M93.27,28.57a3.46,3.46,0,0,1-1.19.54c-1.13.24-1.57.78-1.57,1.75s.3,1.5,1,1.5a1.63,1.63,0,0,0,1.71-1.67V28.57Zm-5.06-2.09v-.26c0-2.5,1.71-3.34,3.8-3.34,3.3,0,3.92,1.36,3.92,3.32v5.69A4.44,4.44,0,0,0,96.26,34H93.61a4.64,4.64,0,0,1-.34-1.13h0a2.67,2.67,0,0,1-2.75,1.41c-1.93,0-2.61-1.65-2.61-3.1,0-2,.83-2.85,2.73-3.38l1.57-.42c.82-.22,1.1-.54,1.1-1.26s-.36-1.33-1.28-1.33a1.24,1.24,0,0,0-1.29,1.41v.3Z"/><path class="cls-1" d="M98.61,20.06h2.77v3.1H103V25h-1.61V30.9c0,.84.18,1.18,1,1.18a5.68,5.68,0,0,0,.62,0V34a17.52,17.52,0,0,1-1.81.12c-2.17,0-2.57-.67-2.57-2.86V25H97.2V23.16h1.41v-3.1Z"/><path class="cls-1" d="M109.47,27.34c-.06-1.65-.26-2.57-1.41-2.57s-1.42,1.14-1.42,2.15v.42ZM106.64,29v.86c0,1.27.34,2.51,1.36,2.51s1.31-.7,1.47-2H112c-.1,2.51-1.31,3.92-3.92,3.92-4,0-4.18-3.1-4.18-5.79,0-2.89.56-5.58,4.3-5.58,3.24,0,4,2.17,4,5.49V29Z"/><polygon class="cls-1" points="116.94 33.97 116.94 19.62 119.83 19.62 119.83 31.6 124.95 31.6 124.95 33.97 116.94 33.97 116.94 33.97"/><path class="cls-1" d="M126.35,23.16h2.78V34h-2.78V23.16Zm0-3.7h2.78v2.37h-2.78V19.46Z"/><path class="cls-1" d="M135.41,32.12c1.2,0,1.45-1.21,1.45-3.55S136.61,25,135.41,25s-1.47,1.21-1.47,3.56.24,3.55,1.47,3.55Zm-4.24-12.5h2.77v4.55h0a2.6,2.6,0,0,1,2.33-1.29c2.27,0,3.32,1.67,3.32,5.69s-1,5.69-3.32,5.69a2.62,2.62,0,0,1-2.45-1.43h0V34h-2.65V19.62Z"/><path class="cls-1" d="M141.37,23.16H144V24.6h0a2.8,2.8,0,0,1,2.49-1.72,4.59,4.59,0,0,1,.5,0v2.65c-.28,0-.58,0-.87,0a1.87,1.87,0,0,0-2.05,1.95V34h-2.77V23.16Z"/><path class="cls-1" d="M153.28,28.57a3.44,3.44,0,0,1-1.19.54c-1.12.24-1.57.78-1.57,1.75s.3,1.5,1,1.5a1.63,1.63,0,0,0,1.71-1.67V28.57Zm-5.06-2.09v-.26c0-2.5,1.71-3.34,3.8-3.34,3.3,0,3.92,1.36,3.92,3.32v5.69a4.44,4.44,0,0,0,.34,2.09h-2.65a4.62,4.62,0,0,1-.34-1.13h0a2.67,2.67,0,0,1-2.75,1.41c-1.93,0-2.61-1.65-2.61-3.1,0-2,.83-2.85,2.74-3.38l1.57-.42c.82-.22,1.11-.54,1.11-1.26s-.36-1.33-1.29-1.33a1.24,1.24,0,0,0-1.29,1.41v.3Z"/><path class="cls-1" d="M158,23.16h2.65V24.6h0a2.79,2.79,0,0,1,2.49-1.72,4.49,4.49,0,0,1,.5,0v2.65c-.28,0-.58,0-.87,0a1.87,1.87,0,0,0-2,1.95V34H158V23.16Z"/><path class="cls-1" d="M165.38,35.44a4.17,4.17,0,0,0,.72.06c1,0,1.41-.57,1.49-1.53l-3-10.81h2.89l1.61,7.47h0l1.41-7.47h2.78l-2.62,10.09c-1,3.74-1.58,4.26-4.16,4.26h-1.13V35.44Z"/><path class="cls-1" d="M75,53c1.13,0,1.49-1.11,1.49-3.8s-.36-3.8-1.49-3.8c-1.36,0-1.49,1.58-1.49,3.8S73.59,53,75,53Zm0-9.49c3.34-.06,4.26,1.93,4.26,5.69S78.13,54.85,75,54.85c-3.34.06-4.26-1.93-4.26-5.69s1.08-5.69,4.26-5.69Z"/><path class="cls-1" d="M81.61,45.64h-1.4V43.75h1.4V42.53c0-2,1.1-2.59,2.89-2.59.5,0,1,0,1.49.06v2a4.54,4.54,0,0,0-.54,0c-.78,0-1.07.24-1.07.87v.94H86v1.89H84.39v8.93H81.61V45.64Z"/><path class="cls-1" d="M95.54,52.71c1.71,0,2-1.47,2-5.32s-.28-5.33-2-5.33-2,1.49-2,5.33.28,5.32,2,5.32Zm3.62,3.62-1.71-1.77a4,4,0,0,1-.88.22,7.64,7.64,0,0,1-1,.06c-4.34,0-4.89-3.1-4.89-7.46s.55-7.46,4.89-7.46,4.88,3.09,4.88,7.46c0,2.43-.16,4.46-1.1,5.83l1.55,1.57-1.71,1.55Z"/><path class="cls-1" d="M107.88,53.3h0a3,3,0,0,1-2.76,1.55c-1.73,0-2.75-.95-2.75-3.08v-8h2.77V51.2c0,1.09.36,1.51,1.19,1.51s1.47-.58,1.47-1.79V43.75h2.77V54.57h-2.65V53.3Z"/><path class="cls-1" d="M117.9,47.93c-.06-1.65-.26-2.57-1.41-2.57s-1.43,1.14-1.43,2.15v.42Zm-2.83,1.65v.86c0,1.27.34,2.51,1.36,2.51s1.31-.7,1.47-2h2.49c-.1,2.51-1.31,3.92-3.92,3.92-4,0-4.18-3.1-4.18-5.79,0-2.89.56-5.59,4.3-5.59,3.24,0,4,2.17,4,5.49v.63Z"/><path class="cls-1" d="M127.54,47.93c-.06-1.65-.26-2.57-1.41-2.57s-1.43,1.14-1.43,2.15v.42Zm-2.83,1.65v.86c0,1.27.34,2.51,1.36,2.51s1.31-.7,1.47-2H130c-.1,2.51-1.31,3.92-3.92,3.92-4,0-4.18-3.1-4.18-5.79,0-2.89.56-5.59,4.3-5.59,3.24,0,4,2.17,4,5.49v.63Z"/><path class="cls-1" d="M131.94,43.75h2.65V45h0a3,3,0,0,1,2.75-1.55c1.73,0,2.75.94,2.75,3.08v8h-2.77V47.11c0-1.09-.36-1.51-1.19-1.51s-1.47.58-1.47,1.79v7.18h-2.77V43.75Z"/><path class="cls-1" d="M144.3,51v.36A1.39,1.39,0,0,0,145.74,53a1.23,1.23,0,0,0,1.4-1.28,1.28,1.28,0,0,0-1-1.23l-1.95-.7a3,3,0,0,1-2.31-3c0-1.79,1.12-3.26,4-3.26,2.51,0,3.7,1.13,3.7,3.08V47h-2.49c0-1.09-.32-1.63-1.23-1.63a1.17,1.17,0,0,0-1.3,1.16c0,.52.28,1,1.2,1.27l1.67.56c1.75.58,2.4,1.46,2.4,3.09,0,2.27-1.69,3.4-4,3.4-3.11,0-4-1.37-4-3.44V51Z"/><polygon class="cls-1" points="151.52 40.21 154.29 40.21 154.29 54.56 151.52 54.56 151.52 40.21 151.52 40.21"/><path class="cls-1" d="M161.38,49.16a3.41,3.41,0,0,1-1.19.54c-1.12.24-1.57.78-1.57,1.75s.3,1.51,1,1.51a1.64,1.64,0,0,0,1.71-1.67V49.16Zm-5.07-2.09V46.8c0-2.49,1.71-3.34,3.8-3.34,3.3,0,3.92,1.37,3.92,3.32v5.69a4.43,4.43,0,0,0,.34,2.09h-2.65a4.64,4.64,0,0,1-.34-1.13h0a2.67,2.67,0,0,1-2.75,1.41c-1.93,0-2.62-1.65-2.62-3.1,0-2,.83-2.85,2.74-3.37l1.57-.42c.82-.22,1.11-.54,1.11-1.27s-.36-1.33-1.29-1.33a1.24,1.24,0,0,0-1.29,1.41v.3Z"/><path class="cls-1" d="M166.07,43.75h2.65V45h0a3,3,0,0,1,2.75-1.55c1.73,0,2.75.94,2.75,3.08v8h-2.77V47.11c0-1.09-.36-1.51-1.18-1.51s-1.47.58-1.47,1.79v7.18h-2.77V43.75Z"/><path class="cls-1" d="M180.18,52.71c1.22,0,1.47-1.21,1.47-3.55s-.24-3.56-1.47-3.56-1.44,1.21-1.44,3.56.24,3.55,1.44,3.55Zm1.59.71h0a2.62,2.62,0,0,1-2.45,1.43c-2.27,0-3.32-1.67-3.32-5.69s1-5.69,3.32-5.69a2.6,2.6,0,0,1,2.33,1.29h0V40.21h2.77V54.57h-2.65V53.42Z"/><path id="logo-slqmark" class="cls-1" d="M43.38,40.25H32.81V19.36h5.3V35.65h5.27v4.6Zm-12.5-4.79a5.76,5.76,0,0,1-5.08,5,12.38,12.38,0,0,1-3.12.18c-3.15-.22-5.15-1.52-5.81-4.23a13.39,13.39,0,0,1-.24-3.11h5.3a6.44,6.44,0,0,0,.21,2.24,1.5,1.5,0,0,0,1.58.87,1.63,1.63,0,0,0,1.62-.83,2.49,2.49,0,0,0-.06-2,3.05,3.05,0,0,0-1.42-1c-.57-.26-1.18-.46-1.78-.68a10.85,10.85,0,0,1-3.2-1.69A5.16,5.16,0,0,1,17.07,27a8.88,8.88,0,0,1-.14-2.27,7,7,0,0,1,.42-2C18.16,20.53,20,19.23,22.8,19a10.47,10.47,0,0,1,3.68.35A5.1,5.1,0,0,1,30,22.72a10.24,10.24,0,0,1,.33,3.14H25.23c0-1.13.07-2.27-.8-2.54a2.45,2.45,0,0,0-1.47,0,1.15,1.15,0,0,0-.71,1,2.65,2.65,0,0,0,.13,1.47,1.91,1.91,0,0,0,.89.78,11.58,11.58,0,0,0,1.15.53l1.17.51c.79.34,1.58.66,2.3,1.05a5.31,5.31,0,0,1,3,3.72,9.36,9.36,0,0,1,0,3.08Zm25.24,7.88a29.14,29.14,0,0,0,3.13-16.89A29.69,29.69,0,1,0,46,54.59s16.89,4.91,16.87,4.84c-.25-.9-6.73-16.07-6.71-16.09Z"/></g></g></svg>