<svg xmlns="http://www.w3.org/2000/svg" viewBox="0 0 62.83 59.43"><defs><style>.cls-1{fill:#fff;}</style></defs><title>logo-slqmark</title><g id="Layer_2" data-name="Layer 2"><g id="Footer"><path id="logo-slqmark" class="cls-1" d="M43.38,40.25H32.81V19.36h5.3V35.65h5.27v4.6Zm-12.5-4.79a5.76,5.76,0,0,1-5.08,5,12.38,12.38,0,0,1-3.12.18c-3.15-.22-5.15-1.52-5.81-4.23a13.39,13.39,0,0,1-.24-3.11h5.3a6.44,6.44,0,0,0,.21,2.24,1.5,1.5,0,0,0,1.58.87,1.63,1.63,0,0,0,1.62-.83,2.49,2.49,0,0,0-.06-2,3.05,3.05,0,0,0-1.42-1c-.57-.26-1.18-.46-1.78-.68a10.85,10.85,0,0,1-3.2-1.69A5.16,5.16,0,0,1,17.07,27a8.88,8.88,0,0,1-.14-2.27,7,7,0,0,1,.42-2C18.16,20.53,20,19.23,22.8,19a10.47,10.47,0,0,1,3.68.35A5.1,5.1,0,0,1,30,22.72a10.24,10.24,0,0,1,.33,3.14H25.23c0-1.13.07-2.27-.8-2.54a2.45,2.45,0,0,0-1.47,0,1.15,1.15,0,0,0-.71,1,2.65,2.65,0,0,0,.13,1.47,1.91,1.91,0,0,0,.89.78,11.58,11.58,0,0,0,1.15.53l1.17.51c.79.34,1.58.66,2.3,1.05a5.31,5.31,0,0,1,3,3.72,9.36,9.36,0,0,1,0,3.08Zm25.24,7.88a29.14,29.14,0,0,0,3.13-16.89A29.69,29.69,0,1,0,46,54.59s16.89,4.91,16.87,4.84c-.25-.9-6.73-16.07-6.71-16.09Z"/></g></g></svg>