<svg xmlns="http://www.w3.org/2000/svg" viewBox="0 0 407.16 60.43"><defs><style>.cls-1{fill:#fff;}</style></defs><title>logo-lockedlogo</title><g id="Layer_2" data-name="Layer 2"><g id="Footer"><path class="cls-1" d="M73.6,29.49v.42c0,1.35.38,2.21,1.9,2.21a1.65,1.65,0,0,0,1.73-1.77c0-1.31-.67-1.79-2.57-2.46C72.09,27,70.9,26,70.9,23.56c0-2.79,1.71-4.22,4.44-4.22,2.57,0,4.44,1.1,4.44,3.86v.41H77c0-1.35-.46-2.13-1.57-2.13a1.48,1.48,0,0,0-1.65,1.67c0,.88.26,1.43,1.49,1.95l2.23,1c2.17.94,2.73,2,2.73,3.79,0,3-1.85,4.4-5,4.4s-4.56-1.53-4.56-4.18v-.58Z"/><path class="cls-1" d="M82.55,20.06h2.77v3.1h1.61V25H85.32V30.9c0,.84.18,1.18,1,1.18a5.59,5.59,0,0,0,.63,0V34a17.6,17.6,0,0,1-1.81.12c-2.17,0-2.57-.67-2.57-2.86V25H81.14V23.16h1.41v-3.1Z"/><path class="cls-1" d="M93.27,28.57a3.46,3.46,0,0,1-1.19.54c-1.13.24-1.57.78-1.57,1.75s.3,1.5,1,1.5a1.63,1.63,0,0,0,1.71-1.67V28.57Zm-5.06-2.09v-.26c0-2.5,1.71-3.34,3.8-3.34,3.3,0,3.92,1.36,3.92,3.32v5.69A4.44,4.44,0,0,0,96.26,34H93.61a4.64,4.64,0,0,1-.34-1.13h0a2.67,2.67,0,0,1-2.75,1.41c-1.93,0-2.61-1.65-2.61-3.1,0-2,.83-2.85,2.73-3.38l1.57-.42c.82-.22,1.1-.54,1.1-1.26s-.36-1.33-1.28-1.33a1.24,1.24,0,0,0-1.29,1.41v.3Z"/><path class="cls-1" d="M98.61,20.06h2.77v3.1H103V25h-1.61V30.9c0,.84.18,1.18,1,1.18a5.68,5.68,0,0,0,.62,0V34a17.52,17.52,0,0,1-1.81.12c-2.17,0-2.57-.67-2.57-2.86V25H97.2V23.16h1.41v-3.1Z"/><path class="cls-1" d="M109.47,27.34c-.06-1.65-.26-2.57-1.41-2.57s-1.42,1.14-1.42,2.15v.42ZM106.64,29v.86c0,1.27.34,2.51,1.36,2.51s1.31-.7,1.47-2H112c-.1,2.51-1.31,3.92-3.92,3.92-4,0-4.18-3.1-4.18-5.79,0-2.89.56-5.58,4.3-5.58,3.24,0,4,2.17,4,5.49V29Z"/><polygon class="cls-1" points="116.94 33.97 116.94 19.62 119.83 19.62 119.83 31.6 124.95 31.6 124.95 33.97 116.94 33.97 116.94 33.97"/><path class="cls-1" d="M126.35,23.16h2.78V34h-2.78V23.16Zm0-3.7h2.78v2.37h-2.78V19.46Z"/><path class="cls-1" d="M135.41,32.12c1.2,0,1.45-1.21,1.45-3.55S136.61,25,135.41,25s-1.47,1.21-1.47,3.56.24,3.55,1.47,3.55Zm-4.24-12.5h2.77v4.55h0a2.6,2.6,0,0,1,2.33-1.29c2.27,0,3.32,1.67,3.32,5.69s-1,5.69-3.32,5.69a2.62,2.62,0,0,1-2.45-1.43h0V34h-2.65V19.62Z"/><path class="cls-1" d="M141.37,23.16H144V24.6h0a2.8,2.8,0,0,1,2.49-1.72,4.59,4.59,0,0,1,.5,0v2.65c-.28,0-.58,0-.87,0a1.87,1.87,0,0,0-2.05,1.95V34h-2.77V23.16Z"/><path class="cls-1" d="M153.28,28.57a3.44,3.44,0,0,1-1.19.54c-1.12.24-1.57.78-1.57,1.75s.3,1.5,1,1.5a1.63,1.63,0,0,0,1.71-1.67V28.57Zm-5.06-2.09v-.26c0-2.5,1.71-3.34,3.8-3.34,3.3,0,3.92,1.36,3.92,3.32v5.69a4.44,4.44,0,0,0,.34,2.09h-2.65a4.62,4.62,0,0,1-.34-1.13h0a2.67,2.67,0,0,1-2.75,1.41c-1.93,0-2.61-1.65-2.61-3.1,0-2,.83-2.85,2.74-3.38l1.57-.42c.82-.22,1.11-.54,1.11-1.26s-.36-1.33-1.29-1.33a1.24,1.24,0,0,0-1.29,1.41v.3Z"/><path class="cls-1" d="M158,23.16h2.65V24.6h0a2.79,2.79,0,0,1,2.49-1.72,4.49,4.49,0,0,1,.5,0v2.65c-.28,0-.58,0-.87,0a1.87,1.87,0,0,0-2,1.95V34H158V23.16Z"/><path class="cls-1" d="M165.38,35.44a4.17,4.17,0,0,0,.72.06c1,0,1.41-.57,1.49-1.53l-3-10.81h2.89l1.61,7.47h0l1.41-7.47h2.78l-2.62,10.09c-1,3.74-1.58,4.26-4.16,4.26h-1.13V35.44Z"/><path class="cls-1" d="M75,53c1.13,0,1.49-1.11,1.49-3.8s-.36-3.8-1.49-3.8c-1.36,0-1.49,1.58-1.49,3.8S73.59,53,75,53Zm0-9.49c3.34-.06,4.26,1.93,4.26,5.69S78.13,54.85,75,54.85c-3.34.06-4.26-1.93-4.26-5.69s1.08-5.69,4.26-5.69Z"/><path class="cls-1" d="M81.61,45.64h-1.4V43.75h1.4V42.53c0-2,1.1-2.59,2.89-2.59.5,0,1,0,1.49.06v2a4.54,4.54,0,0,0-.54,0c-.78,0-1.07.24-1.07.87v.94H86v1.89H84.39v8.93H81.61V45.64Z"/><path class="cls-1" d="M95.54,52.71c1.71,0,2-1.47,2-5.32s-.28-5.33-2-5.33-2,1.49-2,5.33.28,5.32,2,5.32Zm3.62,3.62-1.71-1.77a4,4,0,0,1-.88.22,7.64,7.64,0,0,1-1,.06c-4.34,0-4.89-3.1-4.89-7.46s.55-7.46,4.89-7.46,4.88,3.09,4.88,7.46c0,2.43-.16,4.46-1.1,5.83l1.55,1.57-1.71,1.55Z"/><path class="cls-1" d="M107.88,53.3h0a3,3,0,0,1-2.76,1.55c-1.73,0-2.75-.95-2.75-3.08v-8h2.77V51.2c0,1.09.36,1.51,1.19,1.51s1.47-.58,1.47-1.79V43.75h2.77V54.57h-2.65V53.3Z"/><path class="cls-1" d="M117.9,47.93c-.06-1.65-.26-2.57-1.41-2.57s-1.43,1.14-1.43,2.15v.42Zm-2.83,1.65v.86c0,1.27.34,2.51,1.36,2.51s1.31-.7,1.47-2h2.49c-.1,2.51-1.31,3.92-3.92,3.92-4,0-4.18-3.1-4.18-5.79,0-2.89.56-5.59,4.3-5.59,3.24,0,4,2.17,4,5.49v.63Z"/><path class="cls-1" d="M127.54,47.93c-.06-1.65-.26-2.57-1.41-2.57s-1.43,1.14-1.43,2.15v.42Zm-2.83,1.65v.86c0,1.27.34,2.51,1.36,2.51s1.31-.7,1.47-2H130c-.1,2.51-1.31,3.92-3.92,3.92-4,0-4.18-3.1-4.18-5.79,0-2.89.56-5.59,4.3-5.59,3.24,0,4,2.17,4,5.49v.63Z"/><path class="cls-1" d="M131.94,43.75h2.65V45h0a3,3,0,0,1,2.75-1.55c1.73,0,2.75.94,2.75,3.08v8h-2.77V47.11c0-1.09-.36-1.51-1.19-1.51s-1.47.58-1.47,1.79v7.18h-2.77V43.75Z"/><path class="cls-1" d="M144.3,51v.36A1.39,1.39,0,0,0,145.74,53a1.23,1.23,0,0,0,1.4-1.28,1.28,1.28,0,0,0-1-1.23l-1.95-.7a3,3,0,0,1-2.31-3c0-1.79,1.12-3.26,4-3.26,2.51,0,3.7,1.13,3.7,3.08V47h-2.49c0-1.09-.32-1.63-1.23-1.63a1.17,1.17,0,0,0-1.3,1.16c0,.52.28,1,1.2,1.27l1.67.56c1.75.58,2.4,1.46,2.4,3.09,0,2.27-1.69,3.4-4,3.4-3.11,0-4-1.37-4-3.44V51Z"/><polygon class="cls-1" points="151.52 40.21 154.29 40.21 154.29 54.56 151.52 54.56 151.52 40.21 151.52 40.21"/><path class="cls-1" d="M161.38,49.16a3.41,3.41,0,0,1-1.19.54c-1.12.24-1.57.78-1.57,1.75s.3,1.51,1,1.51a1.64,1.64,0,0,0,1.71-1.67V49.16Zm-5.07-2.09V46.8c0-2.49,1.71-3.34,3.8-3.34,3.3,0,3.92,1.37,3.92,3.32v5.69a4.43,4.43,0,0,0,.34,2.09h-2.65a4.64,4.64,0,0,1-.34-1.13h0a2.67,2.67,0,0,1-2.75,1.41c-1.93,0-2.62-1.65-2.62-3.1,0-2,.83-2.85,2.74-3.37l1.57-.42c.82-.22,1.11-.54,1.11-1.27s-.36-1.33-1.29-1.33a1.24,1.24,0,0,0-1.29,1.41v.3Z"/><path class="cls-1" d="M166.07,43.75h2.65V45h0a3,3,0,0,1,2.75-1.55c1.73,0,2.75.94,2.75,3.08v8h-2.77V47.11c0-1.09-.36-1.51-1.18-1.51s-1.47.58-1.47,1.79v7.18h-2.77V43.75Z"/><path class="cls-1" d="M180.18,52.71c1.22,0,1.47-1.21,1.47-3.55s-.24-3.56-1.47-3.56-1.44,1.21-1.44,3.56.24,3.55,1.44,3.55Zm1.59.71h0a2.62,2.62,0,0,1-2.45,1.43c-2.27,0-3.32-1.67-3.32-5.69s1-5.69,3.32-5.69a2.6,2.6,0,0,1,2.33,1.29h0V40.21h2.77V54.57h-2.65V53.42Z"/><path id="logo-slqmark" class="cls-1" d="M43.38,40.25H32.81V19.36h5.3V35.65h5.27v4.6Zm-12.5-4.79a5.76,5.76,0,0,1-5.08,5,12.38,12.38,0,0,1-3.12.18c-3.15-.22-5.15-1.52-5.81-4.23a13.39,13.39,0,0,1-.24-3.11h5.3a6.44,6.44,0,0,0,.21,2.24,1.5,1.5,0,0,0,1.58.87,1.63,1.63,0,0,0,1.62-.83,2.49,2.49,0,0,0-.06-2,3.05,3.05,0,0,0-1.42-1c-.57-.26-1.18-.46-1.78-.68a10.85,10.85,0,0,1-3.2-1.69A5.16,5.16,0,0,1,17.07,27a8.88,8.88,0,0,1-.14-2.27,7,7,0,0,1,.42-2C18.16,20.53,20,19.23,22.8,19a10.47,10.47,0,0,1,3.68.35A5.1,5.1,0,0,1,30,22.72a10.24,10.24,0,0,1,.33,3.14H25.23c0-1.13.07-2.27-.8-2.54a2.45,2.45,0,0,0-1.47,0,1.15,1.15,0,0,0-.71,1,2.65,2.65,0,0,0,.13,1.47,1.91,1.91,0,0,0,.89.78,11.58,11.58,0,0,0,1.15.53l1.17.51c.79.34,1.58.66,2.3,1.05a5.31,5.31,0,0,1,3,3.72,9.36,9.36,0,0,1,0,3.08Zm25.24,7.88a29.14,29.14,0,0,0,3.13-16.89A29.69,29.69,0,1,0,46,54.59s16.89,4.91,16.87,4.84c-.25-.9-6.73-16.07-6.71-16.09Z"/><path class="cls-1" d="M296.43,26a7.89,7.89,0,0,1-1,.23,2.76,2.76,0,0,0,.94-1.84c-.28.09-.77.28-1.24.38a2.86,2.86,0,0,0,1.19-2.84,10.58,10.58,0,0,1-1.06.52,3,3,0,0,0,.46-2.91,8.3,8.3,0,0,1-1.23,1c.29-1.41.27-2.31-.32-2.94a15.34,15.34,0,0,1-2,3,3.68,3.68,0,0,0-.63-2.7,3.78,3.78,0,0,1-.63,1.72,4.21,4.21,0,0,0-1.08-2.65,7,7,0,0,1-.4,2.14,6.82,6.82,0,0,0-1.6-2.78,20.64,20.64,0,0,1-2.59,10.14c-.23,1.84-.43,4.6-3.42,6.23a3.53,3.53,0,0,0-2.25-.63c-.28-1.39,1.53-2.64,3.09-3.65s2.27-1.89,2.23-3.25A2,2,0,0,0,282.84,23a3.63,3.63,0,0,0-2.94,1.82,21.37,21.37,0,0,1-2.2.74,4.36,4.36,0,0,0-1.63.72,2.5,2.5,0,0,0,1.2.17c.5-.07,2.09-.37,3.61-.55.55.3,1.45.8.5,1.46a40,40,0,0,1-3.67,2c-2.88,1.51-2,5.31-1.24,5.59a8.67,8.67,0,0,0,1.92,4.4,9.47,9.47,0,0,1-.6,5c-.4-1-1.09-3.24-1.55-4.56.47-2.5-.29-3.6-.81-4s-1.36-.32-1.9.55c.83-.09,1.11,1,1.09,2.07,0,1.32-.35,2.39-1.28,2.39a1.17,1.17,0,0,0,1.9.91c.09.26.58,1.74,1,3.07.27.78.54,1.5.72,1.88s1.59.48,1.75,0a18,18,0,0,1,.75-1.88h0c.27-.57.64-1.3,1.2-2.38a22.34,22.34,0,0,1,1.17,2.38,3,3,0,0,1,.23.7,46.85,46.85,0,0,1-.23,7.19c-3.15-.86-4,.69-3.77,1.82a1,1,0,0,1,1.41-.17,1.37,1.37,0,0,0,1,1.7c.9-2.38,4.15-1.86,4.45-1.66,0-.46.45-1.62-1.22-1.86.06-2.07.27-4.6.35-5.13a3.12,3.12,0,0,0-.12-1.69c-.07-.24-.16-.55-.25-.91h0a13.07,13.07,0,0,1-.46-3.11,1.89,1.89,0,0,0,1.46.41c.37,1.56.89,1.1,1.17,1.76a3.52,3.52,0,0,1,.21.94,1.41,1.41,0,0,0,.23.71,4.56,4.56,0,0,0,2.75-.71,3.28,3.28,0,0,0,.54-.5A6.17,6.17,0,0,0,288,40.74a8.12,8.12,0,0,0-1.73-3.7,7.55,7.55,0,0,0,2.8-1.87,1.32,1.32,0,0,0,1.17-1.33c.31,0,.57-.05.81-.1,0-.23-.09-.59-.13-.8.41,0,.79,0,1.17-.06a9,9,0,0,0-.36-.88c.41,0,.91,0,1.31-.05a7.42,7.42,0,0,1-.51-1.11,16.68,16.68,0,0,0,1.77-.3c-.19-.2-.4-.41-.73-.72a3.14,3.14,0,0,0,2.28-2c-.23,0-.69.1-1,.07A2.81,2.81,0,0,0,296.43,26Z"/><path class="cls-1" d="M275,29.42H255.59v7.16a1.19,1.19,0,0,1,.26.2V29.72h19.28v6.55a1.33,1.33,0,0,1,.2.28V29.42Z"/><path class="cls-1" d="M265.44,54.08c-8.55-3.18-9.64-10.2-9.67-13.38h0a2.16,2.16,0,0,0,0-.23,11.26,11.26,0,0,1,.08-1.32,4.81,4.81,0,0,0-.17-1.07,1.26,1.26,0,0,0-.08-.17v3.31a12.74,12.74,0,0,0,4,9.47,17,17,0,0,0,5.72,3.6l.12,0,.12,0a17,17,0,0,0,5.72-3.6,12.73,12.73,0,0,0,4-9.47V40.6a2.32,2.32,0,0,1-.21.26A14.52,14.52,0,0,1,273.64,47c-1.33,2.72-3.36,5-8.2,7Z"/><path class="cls-1" d="M250.08,10.07c1.22.6,1.61-.5,3.89,1-1.51.47-2.67,2.34-4.36,1.86,1.22-.6,1.09-1.5,1.8-1.94-.45-.06-1.33-.26-1.32-.89Zm4.38,12.12a2,2,0,0,0-2.48.39c-.34-.59.16-1.49.48-1.75-1.6,0-2.51-.46-2.74-.94a3.18,3.18,0,0,1,3.31,0,6.81,6.81,0,0,0,2.27,1.25c.36-.36.23-.2.34-.3-.82-.57-1.18-4.92-2.78-5.09.23-.55,1.06-.5,1.73-.32a7,7,0,0,0-1-3.51c.93-.49,1.56,0,1.89,1.2s-.07,4.3.74,7.07l.5-.46c-.25-1.62,1.53-2.21,1.91-3a2.31,2.31,0,0,1-.37,2,1,1,0,0,1,.83,1.15,2,2,0,0,0-2.1,2.55,4,4,0,0,1-2.56-.2Zm7.56.9c-1.34.08-2.64,1.81-2.09,3.79a.86.86,0,0,1-1-.34c-.14.65-1.45,1.38-2.4,1.29.52-.57.88-1.85,1.9-2.53a3.7,3.7,0,0,0,1.87-2.3c-.48.22-3,.87-3.67.1a13.39,13.39,0,0,0,4.53-1.76l-.38-.4a18.47,18.47,0,0,1-3.09,1.27c-.25-2.05,1.7-2,1.85-1.41a1.64,1.64,0,0,0-.35-2.48,3,3,0,0,0-.52-3.25c-.12,1.74-2.06,2-2.28,3.35-.08-1.06-.15-3.92-.23-5.32-.15-2.59-3.42-3.49-3.92-3.49-2.14.1-2.34-.18-2.29-1.17-1.08,1.23-.72,2.33.2,2.86-.13.74-1.31,1.32-2,1.48a3.35,3.35,0,0,0,4.71-.26l.21-.18a5.83,5.83,0,0,1,.6,2.37,1.65,1.65,0,0,0-1.92,1.62c2.07-.85,2.29,3.1,2.83,3.74-.53,0-1.46-1.26-2.83-1.34-1.65-.11-2.23.78-2.91.74.13,1.16,1.54,1.82,2.46,2-.46,1.19-.06,2,.92,2.3,0-1.09,1.38-1.43,2.86-.56,1.78,1,2.7,1.13,4.13.68-.23.52-.88.57-1.68,1.35-1.1,1.1-1.13,2.52-2.37,3a3.93,3.93,0,0,0,4-.83,1.21,1.21,0,0,0,1.6-.23c-1-2.18.67-3.47,1.33-3.45,0,0,.29-.65,0-.63Z"/><path class="cls-1" d="M277.07,11.26a16.67,16.67,0,0,1,1.58-1A5.65,5.65,0,0,0,281,9.9c-.68.83-.76,1.14-1.86,1.26,1.43.13,2,1.41,2.74,1.61-2.39.73-2.63-1.65-4.82-1.5Zm3,7.16a1.21,1.21,0,0,1,.31,1.61c-.62-1.09-2.64-.71-4.62,1.52a4.93,4.93,0,0,1-.54.55c.15-2.67-2-2.71-2.67-2.44a1.66,1.66,0,0,1,.8-1.37,4.18,4.18,0,0,1-.86-2.36,5,5,0,0,1,2.92,3.86l.69-.46c-.21-3.76-.16-3.75-.19-6.3,0-.36,0-1.19,1.15-1.1,0,.95.19,3.47.14,7h.41a3.36,3.36,0,0,1,3.17-2,3.55,3.55,0,0,0,2-.22c-.48,1.17-2.25,1.68-2.7,1.76Zm-2.18-1.31c0-2.43-.09-4.42-.11-5l.29.09c1.74.61,2.14,2.7,5.74.32-1.92.23-2-1.41-2.91-1.44a3.28,3.28,0,0,0,1.42-2.49c-1.12.9-3.71,1-4.21,1.25-.67.41-1.52.89-2.09,1.21-1.5.81-.45,5.25-.6,6.87-.81-2.42-2.44-2.06-3.3-3.44-.64,1.16,0,3.1.3,3.65a2.2,2.2,0,0,0-.45,2.53,1.56,1.56,0,0,1,2.39.53,3.35,3.35,0,0,1-4-.4l-.42.47a3.69,3.69,0,0,0,4.52.65,3,3,0,0,1-.16.85,3.73,3.73,0,0,1-3.07.25c.17,1.22,1.56,2.13,2.89,2.49a2,2,0,0,1-1.4.44,2.62,2.62,0,0,1-.14,2.38c-.67-.44-1-.88-1.27-2.59s-1.49-3.45-2.44-3.8c0,.6,0,.34.05.73,2.54,1.87,1.11,5.22,3.75,6.43a2.47,2.47,0,0,0,.83-2.54,3.06,3.06,0,0,0,1.92-1.67,2.68,2.68,0,0,1-2.74-.92c1.57,0,3-1.24,4.52-2.79,1.34-1.4,3.11-1.19,3-.09.92-.14,1.28-1.4,1-2.2a3.42,3.42,0,0,0,2.55-3c-1.8.91-4.1-.6-5.81,1.24Z"/><path class="cls-1" d="M268.07,25.37a.38.38,0,0,0-.31.15l-.42-.06v-.77a.4.4,0,0,0,.23-.36.38.38,0,0,0-.38-.39.39.39,0,0,0-.39.39.4.4,0,0,0,.2.34v.75l-.41,0a.38.38,0,0,0-.35-.23.39.39,0,1,0,0,.78.37.37,0,0,0,.32-.18l.44.05,0,1.13a.39.39,0,0,0-.21.34.39.39,0,0,0,.78,0,.38.38,0,0,0-.23-.35V25.83l.37.06a.39.39,0,1,0,.37-.52Z"/><path class="cls-1" d="M264.7,25.15a.39.39,0,0,0-.36.23l-.41,0v-.75a.39.39,0,1,0-.57-.34.4.4,0,0,0,.23.36v.77l-.43.06a.35.35,0,0,0-.3-.15.39.39,0,0,0,0,.78.4.4,0,0,0,.37-.26l.36-.06v1.09a.38.38,0,0,0-.23.35.39.39,0,0,0,.78,0,.38.38,0,0,0-.21-.34V25.8l.43-.05a.37.37,0,0,0,.33.18.39.39,0,0,0,0-.78Z"/><path class="cls-1" d="M265.47,28.44c-.58,1.11-1.66,1.07-2.6.46a3,3,0,0,0-1.12-.47c.16-1.09.43-3.14.63-4.88,1.21-.55,2.71-.68,3.09.72.37-1.4,1.87-1.27,3.08-.72.19,1.74.46,3.79.63,4.88a3,3,0,0,0-1.12.47c-.94.62-2,.65-2.59-.46Zm4.4,0c-.24-1.56-.8-6-.87-7.43l-.67,0c0,.25,0,.58.07,1a10.91,10.91,0,0,0-5.87,0c0-.39.06-.72.07-1l-.67,0c-.06,1.47-.63,5.86-.86,7.43-.41.16-.67.56-.67,1.28,0,0,3.65,0,5.06,0s5.05,0,5.05,0c0-.72-.26-1.12-.65-1.28Z"/><path class="cls-1" d="M285.15,59.79H245.79a15.49,15.49,0,0,0-.63-2.73h40.62a14.94,14.94,0,0,0-.63,2.73Zm-26.68-8.42a8,8,0,0,1,.88,1.36c.17.45.06.72-.27,1.19a9.54,9.54,0,0,1-3.06,2.5h-3.94c2.48-.71,5.83-2.82,6.4-5Zm-2.38-.73a.92.92,0,0,1,1.63-.07c.23.3.13,1.11-.81,2.11-.67-.61-1.18-1.4-.83-2Zm15.72,3.27c-.33-.47-.44-.74-.27-1.19a8,8,0,0,1,.88-1.36c.57,2.23,3.92,4.34,6.4,5h-3.95a9.63,9.63,0,0,1-3.06-2.5Zm1.36-3.35a.92.92,0,0,1,1.63.07c.34.64-.16,1.42-.83,2-.93-1-1-1.81-.8-2.11Zm12.76,5.65a5.66,5.66,0,0,1-1.7.21h-.95c-3.28-.06-6.64-1-8.71-3.15,2.86-2.88-.49-5.24-2.31-2.8a15.66,15.66,0,0,0-1.41,2c-.32.6-.08,1.19.63,2.11a10.27,10.27,0,0,0,2.14,1.8H257.26a10.58,10.58,0,0,0,2.14-1.8c.7-.92.95-1.51.63-2.11a15.32,15.32,0,0,0-1.41-2c-1.81-2.44-5.16-.07-2.31,2.8-2.06,2.11-5.43,3.09-8.71,3.15h-.9a5.64,5.64,0,0,1-1.7-.21c-.68-.16-.83.13-.46,1.3a16.7,16.7,0,0,1,.54,2.92h40.77a16.2,16.2,0,0,1,.54-2.92c.36-1.17.21-1.46-.46-1.3Z"/><path class="cls-1" d="M250.49,58.78s0,0,0,0l.29-.78,0,0v0l.29.78s0,0,0,0Zm.64.11,0,0,.11.29s0,.05,0,.06,0,0,0,0,0,0,.07,0h.45c.08,0,.1,0,.1,0s0,0,0,0h-.1s-.12,0-.2-.25c-.15-.36-.52-1.31-.57-1.44s0-.08-.06-.08,0,0-.07.1l-.59,1.47c0,.12-.09.19-.2.21h-.08s0,0,0,0,0,0,0,0h.53s0,0,0,0,0,0,0,0h0c-.07,0-.09,0-.09-.08a.42.42,0,0,1,0-.13l0-.13s0,0,0,0Z"/><path class="cls-1" d="M252.28,58.56a.76.76,0,0,0,.21.62.74.74,0,0,0,.51.15.66.66,0,0,0,.49-.16.9.9,0,0,0,.22-.7v-.25c0-.35,0-.42,0-.49s0-.12.09-.13h.07s0,0,0,0,0,0,0,0h-.53s-.05,0-.05,0,0,0,0,0h.08c.07,0,.1.05.1.13s0,.14,0,.49v.29c0,.25,0,.46-.13.58a.47.47,0,0,1-.32.13.48.48,0,0,1-.29-.09c-.12-.09-.18-.24-.18-.57v-.33c0-.35,0-.42,0-.49s0-.12.09-.13h.07s0,0,0,0,0,0-.05,0h-.63s-.05,0-.05,0,0,0,0,0h.09c.08,0,.1.05.1.13s0,.14,0,.49v.34Z"/><path class="cls-1" d="M255,58.18v-.46a0,0,0,0,1,0,0l.15,0a.92.92,0,0,1,.67.23.8.8,0,0,1,.22.58.75.75,0,0,1-.2.59.77.77,0,0,1-.54.17.39.39,0,0,1-.31-.09.65.65,0,0,1,0-.18s0-.23,0-.47v-.29Zm-.29.45c0,.22,0,.4,0,.5s0,.11-.07.12h-.09s0,0,0,0,0,0,0,0h.29l.5,0a1.08,1.08,0,0,0,.78-.27,1,1,0,0,0,.26-.65.82.82,0,0,0-.23-.59,1.23,1.23,0,0,0-.93-.26h-.7s0,0,0,0,0,0,0,0h.1c.07,0,.1.05.1.13s0,.14,0,.49v.41Z"/><path class="cls-1" d="M257.28,58.78s0,0,0,0l.29-.78,0,0v0l.29.78s0,0,0,0Zm.63.11,0,0,.11.29a0,0,0,0,1,0,.06s0,0,0,0,0,0,.07,0h.44c.09,0,.11,0,.11,0s0,0,0,0h-.1s-.11,0-.2-.25c-.15-.36-.52-1.31-.58-1.44s0-.08-.06-.08,0,0-.07.1L257,59.05c0,.12-.09.19-.2.21h-.07s0,0,0,0,0,0,0,0h.52s0,0,0,0,0,0,0,0h0c-.07,0-.09,0-.09-.08a.48.48,0,0,1,0-.13l.05-.13s0,0,0,0Z"/><path class="cls-1" d="M260.19,57.78c.07-.11.11-.17.17-.19h.08s0,0,0,0,0,0,0,0H260s0,0,0,0,0,0,0,0H260s0,0,0,0a.17.17,0,0,1,0,.09c0,.06-.25.39-.32.49-.09-.15-.2-.32-.3-.51a.16.16,0,0,1,0-.07s0,0,0,0h.06s0,0,0,0,0,0,0,0h-.6s0,0,0,0,0,0,0,0l.09,0a.29.29,0,0,1,.2.17l.4.66-.45.64c-.08.11-.13.16-.19.17h-.09s0,0,0,0,0,0,0,0h.49s0,0,0,0,0,0,0,0h-.06s0,0,0,0a.2.2,0,0,1,0-.09l.35-.57.37.63s0,.05,0,.06,0,0,0,0,0,0,.08,0h.49s0,0,0,0,0,0,0,0h-.09a.23.23,0,0,1-.14-.1c-.06-.07-.44-.7-.51-.82l.39-.54Z"/><path class="cls-1" d="M263.37,58.78s0,0,0,0l.29-.78,0,0v0l.3.79s0,0,0,0Zm.63.11,0,0,.11.29s0,.05,0,.06,0,0,0,0,0,0,.07,0h.45c.08,0,.1,0,.1,0s0,0,0,0h-.1s-.12,0-.2-.25c-.15-.36-.52-1.31-.58-1.44s0-.08-.07-.08,0,0-.06.1l-.58,1.47c0,.12-.09.19-.2.21h-.07s0,0,0,0,0,0,0,0h.52s0,0,0,0,0,0,0,0h0c-.07,0-.09,0-.09-.08a.41.41,0,0,1,0-.13l0-.13,0,0Z"/><path class="cls-1" d="M265.43,58.63c0,.22,0,.4,0,.5s0,.11-.07.12h-.08s0,0,0,0,0,0,0,0h.66s0,0,0,0,0,0,0,0h-.11c-.07,0-.09-.06-.09-.12s0-.29,0-.5v-1H266c.21,0,.27.08.28.13v0s0,0,0,0,0,0,0,0,0-.22,0-.27,0,0,0,0a1.11,1.11,0,0,1-.22,0h-1.16c-.06,0-.08,0-.1,0s0,0,0,0a2.41,2.41,0,0,0,0,.26s0,0,0,0,0,0,0,0a.19.19,0,0,1,0-.08c0-.06.09-.06.22-.07h.35v1Z"/><path class="cls-1" d="M269.49,58.44s0,0,0,0h.34a.15.15,0,0,1,.12.08.65.65,0,0,1,0,.08s0,0,0,0,0,0,0-.05,0-.12,0-.17,0-.13,0-.14,0,0,0,0,0,0,0,0a.12.12,0,0,1-.1,0h-.4s0,0,0,0V57.7s0,0,0,0h.35a.17.17,0,0,1,.16.07.19.19,0,0,1,0,.08s0,0,0,0,0,0,0,0,0-.16,0-.18,0-.09,0-.11,0,0,0,0l0,0h-1s-.05,0-.05,0,0,0,0,0h.09c.08,0,.09.05.1.13s0,.14,0,.49v.41c0,.23,0,.4,0,.5s0,.11-.07.12H269s0,0,0,0,0,0,0,0h.65s.05,0,.05,0,0,0,0,0h-.12c-.07,0-.08-.06-.09-.12s0-.27,0-.5v-.19Z"/><path class="cls-1" d="M271,58.63c0,.23,0,.41,0,.51s0,.1-.07.11h-.08s0,0,0,0,0,0,0,0h.66s0,0,0,0,0,0,0,0h-.12c-.07,0-.09-.05-.09-.11s0-.28,0-.51v-.41c0-.35,0-.42,0-.49s0-.12.09-.13h.07s0,0,0,0,0,0-.05,0h-.58s-.06,0-.06,0,0,0,0,0h.08c.05,0,.07.05.08.13s0,.14,0,.49v.41Z"/><path class="cls-1" d="M272.67,58.18v-.46a0,0,0,0,1,0,0l.15,0a.91.91,0,0,1,.67.23.81.81,0,0,1,.22.58.75.75,0,0,1-.2.59.76.76,0,0,1-.54.17c-.18,0-.27,0-.3-.09a.59.59,0,0,1,0-.18s0-.23,0-.47v-.29Zm-.29.45c0,.22,0,.4,0,.5s0,.11-.07.12h-.09s0,0,0,0,0,0,.05,0h.3l.5,0a1.08,1.08,0,0,0,.78-.27,1,1,0,0,0,.25-.65.82.82,0,0,0-.23-.59,1.24,1.24,0,0,0-.93-.26h-.69s-.05,0-.05,0,0,0,0,0h.09c.08,0,.09.05.1.13s0,.14,0,.49v.41Z"/><path class="cls-1" d="M274.86,58.63c0,.22,0,.4,0,.5s0,.11-.06.12h-.09s0,0,0,0,0,0,0,0h.94c.09,0,.11,0,.13-.07a1.81,1.81,0,0,0,0-.26s0,0,0,0,0,0,0,0a.21.21,0,0,1-.11.17.63.63,0,0,1-.22,0c-.24,0-.28,0-.28-.19v-.55s0,0,0,0h.33c.08,0,.12,0,.13.09s0,.06,0,.08,0,0,0,0,0,0,0,0,0-.11,0-.16,0-.16,0-.18,0,0,0,0,0,0,0,0a.16.16,0,0,1-.12,0h-.37s0,0,0,0v-.58s0,0,0,0h.33c.11,0,.14,0,.15.09a.24.24,0,0,1,0,.08s0,0,0,0,0,0,0,0a1.17,1.17,0,0,0,0-.15c0-.11,0-.13,0-.15s0,0,0,0h-1.05s-.06,0-.06,0,0,0,0,0h.09c.08,0,.1.05.1.13s0,.14,0,.49v.41Z"/><path class="cls-1" d="M277,58.22c0-.35,0-.42,0-.49s0-.12.08-.13h.09s0,0,0,0,0,0,0,0h-.64s0,0,0,0,0,0,0,0h.08c.08,0,.09.05.1.13s0,.14,0,.49v.41a4,4,0,0,1,0,.5c0,.07,0,.11-.07.12h-.09s0,0,0,0,0,0,0,0h1c.12,0,.13,0,.15-.07a2,2,0,0,0,0-.27s0,0,0,0,0,0,0,0a.31.31,0,0,1-.06.14c-.05.06-.15.06-.28.06s-.24,0-.28-.05,0-.2,0-.5v-.41Z"/><path class="cls-1" d="M278.42,58.63c0,.23,0,.41,0,.51s0,.1-.07.11h-.08s0,0,0,0,0,0,0,0h.66s0,0,0,0,0,0,0,0h-.12c-.07,0-.09-.05-.1-.11s0-.28,0-.51v-.41c0-.35,0-.42,0-.49s0-.12.09-.13h.07s0,0,0,0,0,0,0,0h-.59s-.05,0-.05,0,0,0,0,0h.09s.07.05.08.13,0,.14,0,.49v.41Z"/><path class="cls-1" d="M280,59.33a.64.64,0,0,0,.37-.09.46.46,0,0,0,.22-.4c0-.22-.1-.39-.38-.6l-.07-.05c-.19-.15-.24-.23-.24-.33a.25.25,0,0,1,.28-.25.31.31,0,0,1,.25.12.25.25,0,0,1,.06.15s0,0,0,0,0,0,0-.06,0-.25,0-.28,0,0,0,0a1.19,1.19,0,0,0-.31,0c-.33,0-.54.19-.54.44a.69.69,0,0,0,.34.56l.11.08c.2.15.22.26.22.38a.28.28,0,0,1-.32.26.32.32,0,0,1-.33-.23.63.63,0,0,1,0-.11s0,0,0,0,0,0,0,.06,0,.18,0,.3,0,.07,0,.08a.72.72,0,0,0,.34.06Z"/><path class="cls-1" d="M265.47,18.62a9.58,9.58,0,0,0-3.65.75,1.1,1.1,0,0,1,.24-.62c.62-.74,2.22-1,3.41-1s2.79.26,3.4,1a1.05,1.05,0,0,1,.25.62,9.53,9.53,0,0,0-3.65-.75Zm2.07,1.72-.38-.87a8.23,8.23,0,0,1,1.61.48l.22.9a12,12,0,0,0-1.44-.5ZM264,20.2l-.64-.64a9.48,9.48,0,0,1,1.64-.26l.39.75a7.77,7.77,0,0,0-1.38.15Zm-2.1.68-.19.08c-.26.1-.44,0-.5-.1s0-.36.3-.56l.13-.07.62.51-.35.14Zm3.61-4.58.87.63c-.37,0-.69,0-.87,0s-.51,0-.88,0l.88-.63Zm-1-2.33c-.36-.78-.46-1.8.64-1.31L265.2,14Zm.84-2.82.17.11.16-.11.63-.46-.36,1.23h0a.42.42,0,0,0-.39-.25.43.43,0,0,0-.4.25h0l-.36-1.23.63.46Zm.95,5-.63-.45-.16-.12-.17.12-.62.45.4-1.31h.76l.41,1.31Zm.22-2.22h-.73l.09-1.31c1.1-.49,1,.53.65,1.31Zm-3.7.31.46-.63.11-.16-.11-.16-.46-.62.93.29a3.51,3.51,0,0,0,.24.92l-1.17.36ZM267.24,13l.92-.29-.45.62-.12.16.12.16.45.63L267,13.92a3.43,3.43,0,0,0,.25-.92ZM273,11.39c0-.35-.63-.61-.79-.63s-.62.55-1,.91a6.37,6.37,0,0,1,0-3.13A2.38,2.38,0,0,0,273.46,10c-1.7-1.36-1.41-2.59-1.93-2.66a5.31,5.31,0,0,0-.66,0c-.59,0-.68,1.15-.76,1.68A13.51,13.51,0,0,0,268.7,6.9c-.63-1.61-1.4-1.21-2.18-1.94.61.93.11,1.49,1.52,2.15a8.35,8.35,0,0,1,1.08,1.34,6,6,0,0,1-.61.7,9.72,9.72,0,0,1-.81,2,2.82,2.82,0,0,0,1.4-1.32c2.54,1.91.48,6.82-.11,7.89a5.09,5.09,0,0,0-1.93-.71l-.07-.22-.6-1.93h.27c.32,0,.39-.21.34-.38l1.76.54.77.24-.48-.66-.81-1.13.81-1.12.48-.66-.77.24-1.58.49a.82.82,0,0,0-.73-.57l.54-1.79.23-.76-.65.47-1.12.82-1.13-.82-.65-.47.23.76.53,1.79a.83.83,0,0,0-.73.57L262.15,12l-.77-.24.48.66.81,1.12-.81,1.13-.48.66.77-.24,1.76-.54c-.05.17,0,.38.33.38h.27l-.6,1.93-.06.22a4.89,4.89,0,0,0-2,.74c-1.72-3.32-1.24-6.68.2-7.79a2.84,2.84,0,0,0,.88,1.86c-.19-.72.14-2-.24-2.35a1.65,1.65,0,0,0-1.09-.32,21.79,21.79,0,0,1,1.37-2c1-.48,1.3-1.65,1.55-2.25-1.1.41-1.9,1-2.08,1.89-.39.51-.82,1.11-1.29,1.83a1,1,0,0,0-1.08-1.22c-1.85.39-1.71,1.72-3.29,2.64,1.08.38,2.78-2,3.36-1.73a27.25,27.25,0,0,1-.24,3.4c-.28-.31-.42-.51-.66-.55a1.53,1.53,0,0,0-1.27.48,13,13,0,0,1-.78,3.79,7.84,7.84,0,0,0,1.68-3.34,4.32,4.32,0,0,1,.61,1.84,12.85,12.85,0,0,0,1.64,4.6,2,2,0,0,0-.18,1.24,1.07,1.07,0,0,0-.41,1.34,1,1,0,0,0,1.35.43l.2-.08a7.63,7.63,0,0,1,6.71,0l.19.08a1,1,0,0,0,1.35-.43,1.06,1.06,0,0,0-.41-1.34,2,2,0,0,0-.23-1.34l0,0c1.26-1.79,1.35-5.23,2.39-6.21.09,1.2.73,2.2,1.36,2.34a6.83,6.83,0,0,1-.47-3.24Z"/><path class="cls-1" d="M257.06,39.4h-.78a14.79,14.79,0,0,0,.13,3.71,5,5,0,0,0,.94-2.15,6.63,6.63,0,0,0-.29-1.57Z"/><path class="cls-1" d="M259.83,41.74c.27.74.6,1.93.86,2.76-.23,0-.45,0-.66.06-.12-.3-.51-1.27-.9-2.22s.51-1.11.7-.6Zm1.64-.79c.06-.44,1.3-.53,1.07.44s-.53,2.11-.75,3.08h-.63c-.22-1-.52-2.11-.75-3.08s1-.88,1.07-.44Zm2.34,1.39c-.4.94-.79,1.92-.9,2.22-.21,0-.44,0-.67-.06.27-.83.59-2,.87-2.76.19-.51,1.07-.29.7.6Zm-4,2.76a8.66,8.66,0,0,1,3.25,0,1.55,1.55,0,0,1,0,.48,7.48,7.48,0,0,1-3.27,0,1.33,1.33,0,0,1,0-.48Zm2.92,3.07a6.94,6.94,0,0,1-1.29.11,7.05,7.05,0,0,1-1.3-.11c0-.15.09-.36.14-.57a3.19,3.19,0,0,1-.75-.2c.11-.38.28-.76.42-1.28a7.85,7.85,0,0,0,3,0c.14.52.32.9.43,1.28a3.26,3.26,0,0,1-.76.2c.06.22.1.43.14.57ZM257.4,39.4a6.78,6.78,0,0,1,.28,1.55,5,5,0,0,1-1,2.34l-.17.3c1.5,7.39,8.64,9.84,8.64,9.84v-14Z"/><path class="cls-1" d="M273,40.79l0-.36h.35c.47,0,.71-.45.83-1-1.83,0-8.39,0-8.39,0v6.77a5.77,5.77,0,0,1,1.76-1V43.79h.69a5.17,5.17,0,0,1,1.19-3.6l.22-.23.23.23a5.19,5.19,0,0,1,1.19,3.6h.71v1.58a3.9,3.9,0,0,1,1.64,1.29,12.66,12.66,0,0,0,1.24-4.41h-.1A1.52,1.52,0,0,1,273,40.79Z"/><path class="cls-1" d="M274.64,39.45h-.14c-.17.77-.52,1.31-1.17,1.31a1.19,1.19,0,0,0,1.19,1.16l.13,0a15.08,15.08,0,0,0,0-2.46Z"/><path class="cls-1" d="M271.25,48.23l-.6-.68-1,.9.42.48a.68.68,0,0,1,.8.24l-1.06.92a.69.69,0,0,1-.12-.83l-.41-.48L268,49.89l-.4-.46,1.27-1.07-.46-.53-.41.36a1.59,1.59,0,0,1-.39-1.67,1.59,1.59,0,0,1,1.6.61l-.41.36.46.54,1-.88-.59-.68a1.33,1.33,0,0,1,1.52,1.75Zm-1.63-2.62A5.28,5.28,0,0,0,265.76,47v6.48a14.8,14.8,0,0,0,7.3-6.19,3.66,3.66,0,0,0-3.45-1.67Z"/><path class="cls-1" d="M257.91,33.9a5,5,0,0,0,2-1.82,3.24,3.24,0,0,1-1.2-1,6.74,6.74,0,0,0,5.08,0,4.08,4.08,0,0,1-1.36,1.2,10,10,0,0,1,1.18,2.55,2.63,2.63,0,0,0-2,.6c-.83,0-1.89.3-2.47-1.59a5.64,5.64,0,0,0-.6.35,2.18,2.18,0,0,0,2.62,1.9,2.82,2.82,0,0,0,.37,1c-.69.4-2.39,1.41-3.7.25V33.9Zm6.26,2.79a2,2,0,0,1-1.51.41,1.15,1.15,0,0,1-.57-1.11c.13-.32,1.31-.65,1.68-.53s.54,1,.39,1.23Zm3.18-1.43v-.35h-.83c.2-.88,1.91-2,2.68-2.26,0-1,1.22-1.27,2.23-1.3,1.25,0,1.54,1.31,1.54,1.73s-.14,1.78-.84,2.16a1.2,1.2,0,0,1-1.87-.9c0-.76.53-1.2,1.43-1.1s.84-.4.16-.58c-.33-.08-1.77-.15-2.25.91a1.09,1.09,0,0,1-.75-.27,1.55,1.55,0,0,1-.88.52.92.92,0,0,0,1.49.25c0,.1,0,.2,0,.31a1.93,1.93,0,0,0,3,1.53,4,4,0,0,0,0,1.77h-4.51a2.79,2.79,0,0,1,1.18-1.39l-.4-.63a9.63,9.63,0,0,1-1.48.55c-1.25.33-1.17-.56.12-.92Zm-10.8.67c.5.41.69.71.53,2.1a3.14,3.14,0,0,0,.18.85h17c0-.19,0-.36,0-.52a2.5,2.5,0,0,0-.37-1.62.43.43,0,0,0-.33-.12h0l-.67.07.36-.58a1.84,1.84,0,0,1,1.4-.94v-5H256.32v5.63l.19.12,0,0Z"/><path class="cls-1" d="M256.32,36.16v2.72h.6a2.47,2.47,0,0,1-.16-.89c.16-1.38-.05-1.51-.44-1.83Z"/><path class="cls-1" d="M274.64,38.89V35.51a1.53,1.53,0,0,0-1.12.79h.1c.76,0,1,1,1,2.09,0,.17,0,.35,0,.52Z"/><path class="cls-1" d="M260.77,34.26c.32.15.7,0,1.11,0a.76.76,0,0,1-.12-.56.45.45,0,0,0-.47-.6,3.25,3.25,0,0,1-1.2,0c.33.32.25.92.68,1.13Z"/><path class="cls-1" d="M256.79,38c.16-1.41-.06-1.52-.46-1.85s-.94-.38-1.52-.78c-.41-.29-.53-.7-1.06-1.26a4.48,4.48,0,0,1,1.58-3,13.07,13.07,0,0,0,.06-1.89s.42,0,.38,0a1.37,1.37,0,0,0-1.73.49,9.33,9.33,0,0,1-2.3,1.36A44.85,44.85,0,0,1,248,28.28a8.34,8.34,0,0,0,2.23-.31,1.78,1.78,0,0,0,.48-1.63,7.91,7.91,0,0,1-.92-.45c-.41-.24-.82-.5-1-.64A4.53,4.53,0,0,0,246.71,24c.07-.53.19-.4.69-.74a3.72,3.72,0,0,0,1.26-1.47c.19-.4,0-1.23-.54-.18a2.16,2.16,0,0,1-1.25,1,4.92,4.92,0,0,0,.06-.69,2.81,2.81,0,0,0,1.38-3.21c-.07-.56-.64-.8-.61-.21a1.88,1.88,0,0,1-.79,2.15,2.24,2.24,0,0,0-.26-1,2.66,2.66,0,0,0,.16-3.23c-.27-.38-.95-.51-.64.09s.65,1.82-.1,2.36c-.26-.33-.56-.45-.67-.89a8.08,8.08,0,0,0-.2-2.87c-.18-.49-.64-.79-.6-.07a10.53,10.53,0,0,1,0,1.9c-.07.06-1.15-.95-1.59-1.24s-1-.19-.45.41,1.84,1.55,1.66,1.88-1.1-.61-1.61-.78-.68.1-.24.45a6.15,6.15,0,0,0,2.33,1.35c1.16.39,1.74,2,1.37,4.28,0,.1-.21.09-.32.05a8.84,8.84,0,0,0-.41-2.39c-.27-.6-.82-.61-.62.2a5.91,5.91,0,0,1,.14,2.22,4.12,4.12,0,0,1-1.72-.66,17.55,17.55,0,0,1,.23-1.83c0-.64-.34-1-.56-.24s-.34,1.14-.47,1.69a1.68,1.68,0,0,1-.7-.36c-.07-.07,0-.94-.07-1.58s-.33-.69-.55-.06a4.45,4.45,0,0,0-.2,1.13,1.33,1.33,0,0,1-.61-.91,20.16,20.16,0,0,1,.27-2c.06-.35-.18-1.07-.45-.2-.2.62-.26,1.15-.38,1.59-.25,0-.57-1.44-.73-2.34-.07-.42-.41-.88-.48,0a5.2,5.2,0,0,0,.39,2.48c-.49,0-1-.93-1.3-1.45s-.44,0-.41.2a3.07,3.07,0,0,0,2.38,2.57c1,1.44,2.93,2.06,4.55,2.77-2.12,0-2.67.83-3.64.28a1.46,1.46,0,0,0,.82,1.35,3,3,0,0,0,.66.19c.17,1,1.1.91,1.88,1a8,8,0,0,0,1.69,6.24c0,1-.11,2.22-.1,3a14.79,14.79,0,0,0-3,5.36A3.68,3.68,0,0,1,240.62,44a1.74,1.74,0,0,0,2.27,0,6.67,6.67,0,0,0,.29,1.47,2.51,2.51,0,0,0-.62,1.69,1.87,1.87,0,0,0-1,.69,2.37,2.37,0,0,0,.19,1.42c.54,1.21.11,3.94,0,4.76.23,0,.64,0,.73-.31a1.75,1.75,0,0,1,.62.89c0,.23-.17,1.07.26,1.17a4,4,0,0,0,2.07-.23,4,4,0,0,1-.58-1,3.21,3.21,0,0,0-.15-1.14,8.25,8.25,0,0,0-.9-1.28,15.16,15.16,0,0,1,.12-3.59c.39-.27,3.07-2.26,3.63-4.17.49.17.34,1.5.34,3.22,0,.46.56.69.89.74.73.08,1.76.78,2.92,2.49a5,5,0,0,1,.52-.47,4.75,4.75,0,0,1,.42,1c.13.24,1.06.37,1.78.16a.75.75,0,0,0,.53-.38,10.19,10.19,0,0,0-2.62-3.5c-.54-.41-1.26-.61-1.86-1,.4-.75,1.51-4.3.84-5.6a2,2,0,0,0-2.1-.67,28,28,0,0,0,2.83-3.7c.2.24,1.23.08,2,.37a3.41,3.41,0,0,1,1.1,1.47,7.74,7.74,0,0,1-.34,3.09,1.58,1.58,0,0,0,.56-.19,2.32,2.32,0,0,1-.48,1.51,3.52,3.52,0,0,0,.67,1.75c.39-1.16,1.83-2.8,1.79-3.76-.05-1.31-.66-2.41-.59-3Z"/><path class="cls-1" d="M310.71,23.63a2.63,2.63,0,0,0-2.56-1.84,2.53,2.53,0,0,0-2.26,1.28,8.45,8.45,0,0,0-.74,4c0,2.51.42,4.09,1.3,4.71a2.92,2.92,0,0,0,1.74.5c2,0,2.89-1.55,2.89-5.26a11.64,11.64,0,0,0-.38-3.37Zm4.5,13.11a2.7,2.7,0,0,1-1.3.25,5.14,5.14,0,0,1-2.68-1,12.41,12.41,0,0,0-3-1.47,5.34,5.34,0,0,1-4.71-2,8.64,8.64,0,0,1-1.68-5.4c0-3.14,1.19-5.67,3.29-6.81a6.52,6.52,0,0,1,3-.71c3.87,0,6.26,2.83,6.26,7.39,0,3.16-1.13,5.53-2.87,6.68a8.63,8.63,0,0,1,1.3.74,3.66,3.66,0,0,0,1.8.6,9.49,9.49,0,0,0,1.3-.11l-.77,1.91Z"/><path class="cls-1" d="M323.7,34.56a2.51,2.51,0,0,1-.84-1,4,4,0,0,1-2.82,1,3.22,3.22,0,0,1-3.16-1.74,6.41,6.41,0,0,1-.23-2.14V23.79l2.76-.52v6.89a4.24,4.24,0,0,0,.23,1.76,1.13,1.13,0,0,0,1,.5,2.07,2.07,0,0,0,1.74-1V23.85l2.68-.57v8.19a3.1,3.1,0,0,0,.65,1.95l-2,1.14Z"/><path class="cls-1" d="M333.66,27.6a2.73,2.73,0,0,0-.34-1.61,1.35,1.35,0,0,0-1.23-.63c-1.07,0-1.67.84-1.67,2.33v0h3.25V27.6Zm-3.29,2.18v.08c0,1.65.82,2.6,2.26,2.6a4.21,4.21,0,0,0,2.73-1.07l1.09,1.68a6.17,6.17,0,0,1-4,1.49c-3.08,0-5.06-2.18-5.06-5.55a5.86,5.86,0,0,1,1.34-4.25A4.2,4.2,0,0,1,332,23.31a4.38,4.38,0,0,1,3.1,1.13c1,1,1.42,2.45,1.42,4.69v.65Z"/><path class="cls-1" d="M344.25,27.6a2.75,2.75,0,0,0-.34-1.61,1.36,1.36,0,0,0-1.24-.63c-1.07,0-1.68.84-1.68,2.33v0h3.25V27.6ZM341,29.78v.08c0,1.65.81,2.6,2.26,2.6a4.2,4.2,0,0,0,2.72-1.07L347,33.07a6.17,6.17,0,0,1-4,1.49c-3.07,0-5.06-2.18-5.06-5.55a5.86,5.86,0,0,1,1.34-4.25,4.2,4.2,0,0,1,3.37-1.44,4.35,4.35,0,0,1,3.1,1.13c1,1,1.43,2.45,1.43,4.69v.65Z"/><path class="cls-1" d="M354.83,34.26v-7c0-1.21-.2-1.57-.94-1.57a3.3,3.3,0,0,0-1.94,1v7.58h-2.8V26.49a7.66,7.66,0,0,0-.38-2.51l2.49-.71a2.75,2.75,0,0,1,.4,1.34,12.41,12.41,0,0,1,1.24-.8,4.44,4.44,0,0,1,1.93-.45,2.66,2.66,0,0,1,2.58,1.55,4.29,4.29,0,0,1,.21,1.53v7.83Z"/><path class="cls-1" d="M363.71,34.6a9.54,9.54,0,0,1-4.34-1.24l1-2.05a7.81,7.81,0,0,0,3.56,1.22,1.32,1.32,0,0,0,1.43-1.22c0-.73-.53-1.11-1.66-1.32l-1.26-.23a3.82,3.82,0,0,1-2-1.09,3.31,3.31,0,0,1-.6-1.93c0-2.09,1.65-3.5,4.15-3.5a8,8,0,0,1,3.83,1l-.92,1.89a5.64,5.64,0,0,0-2.63-.78c-.82,0-1.36.42-1.36,1.05s.35.84,1.34,1.09l1.3.34A3.3,3.3,0,0,1,367.7,29a2.82,2.82,0,0,1,.59,1.82c0,2.22-1.84,3.73-4.58,3.73Z"/><path class="cls-1" d="M373,34.52a2.54,2.54,0,0,1-2.5-1.46,6,6,0,0,1-.24-2.41v-8a27.81,27.81,0,0,0-.15-3.23l2.87-.65a15.36,15.36,0,0,1,.15,2.78v8.36c0,1.84,0,2.09.19,2.39a.63.63,0,0,0,.56.29,1,1,0,0,0,.31,0l.48,1.68a4.7,4.7,0,0,1-1.68.29Z"/><path class="cls-1" d="M380.92,29.57c-1.94,0-2.61.36-2.61,1.63a1.27,1.27,0,0,0,1.23,1.4,2.05,2.05,0,0,0,1.47-.73l0-2.3Zm2.39,5.24a3,3,0,0,1-1.51-1.3,5.38,5.38,0,0,1-.65.57,3.7,3.7,0,0,1-2.16.58c-2.39,0-3.69-1.22-3.69-3.35,0-2.51,1.74-3.69,5.15-3.69a5.91,5.91,0,0,1,.63,0v-.44c0-1.2-.23-1.59-1.26-1.59a6,6,0,0,0-3.1,1.21l-1.19-2a10.45,10.45,0,0,1,1.74-.88,7.24,7.24,0,0,1,2.93-.63c1.8,0,3,.67,3.45,1.86a4.89,4.89,0,0,1,.18,1.93l-.06,3.6a2.3,2.3,0,0,0,1,2.39l-1.49,1.71Z"/><path class="cls-1" d="M392.45,34.26v-7c0-1.21-.21-1.57-.95-1.57a3.3,3.3,0,0,0-2,1v7.58h-2.81V26.49a7.66,7.66,0,0,0-.38-2.51l2.49-.71a2.75,2.75,0,0,1,.4,1.34,12.36,12.36,0,0,1,1.23-.8,4.43,4.43,0,0,1,1.93-.45A2.67,2.67,0,0,1,395,24.9a4.42,4.42,0,0,1,.21,1.53v7.83Z"/><path class="cls-1" d="M404,26.37a2.32,2.32,0,0,0-1.53-.69c-1.26,0-1.8,1-1.8,3.44s.49,3.05,1.95,3.05a2,2,0,0,0,1.38-.69V26.37Zm.63,7.89a2,2,0,0,1-.17-.63,3.6,3.6,0,0,1-2.47.9c-2.72,0-4.44-2.11-4.44-5.44s1.87-5.65,4.59-5.65a2.91,2.91,0,0,1,1.9.6,12.49,12.49,0,0,1-.08-1.59V18.77l2.78.44V30.35c0,2.64.21,3.5.4,3.92Z"/><path class="cls-1" d="M308.51,54.76a5.85,5.85,0,0,1-4.41-1.8,7.78,7.78,0,0,1-1.78-5.57c0-2.74.73-4.69,2.22-6A5.34,5.34,0,0,1,308.28,40a5.86,5.86,0,0,1,3.94,1.42l-.78,1.07a5.11,5.11,0,0,0-3.12-1.11,3.53,3.53,0,0,0-3.58,2.43,11,11,0,0,0-.56,3.64,7.94,7.94,0,0,0,1,4.36,4.38,4.38,0,0,0,3.48,1.53,4.32,4.32,0,0,0,2.28-.57V48.4h-2.89L307.72,47h4.84v6.7a7.82,7.82,0,0,1-4,1.09Z"/><path class="cls-1" d="M322,46.47a2.54,2.54,0,0,0-4.36-.21,5.87,5.87,0,0,0-.5,2.72,7.31,7.31,0,0,0,.65,3.42,2.47,2.47,0,0,0,2.12,1,2.27,2.27,0,0,0,2.26-1.57,6.22,6.22,0,0,0,.31-2.26,7.35,7.35,0,0,0-.48-3.14Zm-2.14,8.33c-2.87,0-4.5-2.12-4.5-5.55s1.7-5.46,4.44-5.46a4.13,4.13,0,0,1,3.59,1.82,6.62,6.62,0,0,1,1,3.88c0,3.48-1.86,5.32-4.48,5.32Z"/><path class="cls-1" d="M330.86,54.64h-1.62l-3.74-10.45,1.68-.36L329.6,51c.29.86.5,1.78.5,1.78h0a14.29,14.29,0,0,1,.5-1.76L333,44.1h1.74l-3.92,10.54Z"/><path class="cls-1" d="M342.3,46a2.22,2.22,0,0,0-1.88-.92c-1.49,0-2.32,1.09-2.41,3.25h4.77A4.45,4.45,0,0,0,342.3,46ZM338,49.59v.25a4.19,4.19,0,0,0,.48,2.29,3,3,0,0,0,2.6,1.27,3.57,3.57,0,0,0,2.55-1l.63,1.06a5.23,5.23,0,0,1-3.52,1.29c-2.89,0-4.63-2.1-4.63-5.55a5.57,5.57,0,0,1,1.26-3.94,3.89,3.89,0,0,1,3.12-1.45A3.84,3.84,0,0,1,343.33,45c.9.92,1.19,1.91,1.19,4.4v.23Z"/><path class="cls-1" d="M351.88,45.67a1.47,1.47,0,0,0-.46-.09,2.49,2.49,0,0,0-1.74.76,1.87,1.87,0,0,0-.6,1.65v6.54h-1.63v-8a5.27,5.27,0,0,0-.36-2.22l1.63-.44a3.77,3.77,0,0,1,.34,1.7A3.77,3.77,0,0,1,352,43.79a2,2,0,0,1,.56.1l-.67,1.78Z"/><path class="cls-1" d="M360.13,54.53V47.48c0-1.11-.08-1.38-.37-1.74a1.55,1.55,0,0,0-1.15-.44,4.79,4.79,0,0,0-2.89,1.47v7.77h-1.59v-8a4.82,4.82,0,0,0-.4-2.2l1.59-.44a4.23,4.23,0,0,1,.38,1.64A4.67,4.67,0,0,1,359,43.87a2.77,2.77,0,0,1,2.56,1.53,3,3,0,0,1,.25,1.22v7.91Z"/><path class="cls-1" d="M376.37,54.53V46.83c0-1-.46-1.53-1.34-1.53s-1.68.61-2.77,1.61v7.63h-1.65V47.12a2.12,2.12,0,0,0-.3-1.34,1.28,1.28,0,0,0-1.07-.42,4.06,4.06,0,0,0-2.66,1.38v7.79H365V46.45a5.11,5.11,0,0,0-.38-2.22l1.59-.38a4.43,4.43,0,0,1,.38,1.56,4.66,4.66,0,0,1,3-1.57,2.56,2.56,0,0,1,2.43,1.73,5,5,0,0,1,3.35-1.73A2.61,2.61,0,0,1,378,46.66v7.88Z"/><path class="cls-1" d="M386.83,46a2.24,2.24,0,0,0-1.89-.92c-1.49,0-2.33,1.09-2.41,3.25h4.78a4.51,4.51,0,0,0-.48-2.33Zm-4.3,3.56v.25a4.14,4.14,0,0,0,.49,2.29,2.94,2.94,0,0,0,2.6,1.27,3.59,3.59,0,0,0,2.56-1l.62,1.06a5.22,5.22,0,0,1-3.52,1.29c-2.89,0-4.63-2.1-4.63-5.55a5.56,5.56,0,0,1,1.26-3.94A3.87,3.87,0,0,1,385,43.83,3.83,3.83,0,0,1,387.85,45c.9.92,1.19,1.91,1.19,4.4v.23Z"/><path class="cls-1" d="M398,54.53V47.48c0-1.11-.09-1.38-.38-1.74a1.53,1.53,0,0,0-1.15-.44,4.77,4.77,0,0,0-2.89,1.47v7.77H392v-8a4.88,4.88,0,0,0-.4-2.2l1.59-.44a4.26,4.26,0,0,1,.37,1.64,4.7,4.7,0,0,1,3.29-1.61,2.77,2.77,0,0,1,2.56,1.53,3,3,0,0,1,.25,1.22v7.91Z"/><path class="cls-1" d="M406.66,45.34h-2.18v6.72c0,1.15.32,1.55,1.34,1.55a2.06,2.06,0,0,0,1-.21l.23,1a3.84,3.84,0,0,1-1.85.42,3,3,0,0,1-1.36-.29c-.73-.36-1-1-1-2.07V45.34h-1.36V44.1h1.36c0-1,.16-2.64.16-2.64l1.72-.37a27.9,27.9,0,0,0-.21,3h2.62l-.5,1.24Z"/></g></g></svg>