<svg xmlns="http://www.w3.org/2000/svg" xmlns:xlink="http://www.w3.org/1999/xlink" viewBox="0 0 418.62 225.59"><defs><style>.cls-1{fill:none;}.cls-2{clip-path:url(#clip-path);}.cls-3{fill:#1d1d1b;}.cls-4{fill:#c6d333;}</style><clipPath id="clip-path"><rect class="cls-1" width="418.62" height="225.59"/></clipPath></defs><title>makers-title</title><g id="Layer_2" data-name="Layer 2"><g id="Layer_1-2" data-name="Layer 1"><g class="cls-2"><path class="cls-3" d="M5.52,157.2a1.85,1.85,0,0,1-2.18-1.88,2.58,2.58,0,0,1,1.85-2.47s1.09-.27,1.09-2L6.27,86c-.11-1.52-1.09-1.38-1.09-1.38a1.9,1.9,0,0,1-1.85-2A2.63,2.63,0,0,1,5.5,80l10.25-1.5a1.87,1.87,0,0,1,2.18,1.55l9.93,31.2L38,76.81A2.7,2.7,0,0,1,40.07,75l10.36-1.51a1.85,1.85,0,0,1,2.18,1.88,2.71,2.71,0,0,1-1.85,2.58s-1.09.16-1.09,1.92l0,64.87c.11,1.52,1.09,1.49,1.09,1.49a1.75,1.75,0,0,1,1.85,1.93,2.63,2.63,0,0,1-2.18,2.52L39,152.3a1.85,1.85,0,0,1-2.18-1.88A2.58,2.58,0,0,1,38.67,148s1.09-.27,1.09-2V102.72l-8.06,26.58a4.88,4.88,0,0,1-3.81,3.31,3.24,3.24,0,0,1-3.6-1.89L16.2,106.6v43c.11,1.52,1.2,1.47,1.2,1.47A1.81,1.81,0,0,1,19.26,153,2.75,2.75,0,0,1,17,155.52Z"/><path class="cls-3" d="M77.92,114l5.56-.81L80.64,99.38Zm24,36.73a2.13,2.13,0,0,0,2,1.58,1.8,1.8,0,0,1,1.85,1.93,2.63,2.63,0,0,1-2.18,2.52l-5.78.84a5.24,5.24,0,0,1-5.89-4.2,2.34,2.34,0,0,1-.22-.85L85.56,123l-9.49,1.39L72,145.6v.22a2.73,2.73,0,0,1-2.18,2l-8.72,1.28A1.85,1.85,0,0,1,59,147.19a2.58,2.58,0,0,1,1.85-2.47,3.27,3.27,0,0,0,1.74-1.46l3.27-17.52-5.89.86c-5.34.56-6.11-3.83-6.11-3.83l-1.2-5.54a2.66,2.66,0,0,1,1.74-2.89,2,2,0,0,1,2.51,1,2.11,2.11,0,0,0,2.18,1.33l8.72-1.28,7.3-38.45c.43-2-1.2-2.35-1.2-2.35a2,2,0,0,1-1.85-2A2.66,2.66,0,0,1,74.31,70l8.61-1.26a1.88,1.88,0,0,1,2.29,1.86Z"/><path class="cls-3" d="M134.25,93.52a2.86,2.86,0,0,0,2.18-1.86A2.4,2.4,0,0,1,138.94,90a1.92,1.92,0,0,1,1.75,2.38l-1.2,5.89a7.38,7.38,0,0,1-5.67,5.56v22.43a14.64,14.64,0,0,1-12.21,14l-5,.73a10.29,10.29,0,0,1-12.11-10.43V77.86a14.64,14.64,0,0,1,12.1-14.08l5-.73c6.76-1,12.21,3.71,12.22,10.42v5.72a2,2,0,0,1-1.09,1.59l-6.43,3.91a1.79,1.79,0,0,1-.76.33,1.34,1.34,0,0,1-1.64-1.3v-8.8a2,2,0,0,0-2.29-2l-5,.73v.11a2.77,2.77,0,0,0-2.29,2.64v52.66a2,2,0,0,0,2.29,2l5-.73a2.77,2.77,0,0,0,2.29-2.64V105.26l-.44.06a3.09,3.09,0,0,0-2.18,2,2.53,2.53,0,0,1-2.51,1.69,1.92,1.92,0,0,1-1.75-2.38l1.2-5.89a7.71,7.71,0,0,1,6.1-5.73Z"/><path class="cls-3" d="M181.15,125.48c.11,1.52,1.2,1.47,1.2,1.47a1.81,1.81,0,0,1,1.85,1.93,2.66,2.66,0,0,1-2.29,2.53l-10.25,1.5a1.88,1.88,0,0,1-2.18-1.33l-.11.13-11.9-39.38-1.2-6.42v43.21c.11,1.52,1.2,1.47,1.2,1.47a1.81,1.81,0,0,1,1.85,1.93,2.75,2.75,0,0,1-2.29,2.53l-11.45,1.67a1.85,1.85,0,0,1-2.18-1.88,2.58,2.58,0,0,1,1.85-2.47s1.09-.27,1.09-2l0-64.87c-.11-1.52-1.09-1.38-1.09-1.38a1.9,1.9,0,0,1-1.85-2,2.63,2.63,0,0,1,2.18-2.52L155.83,58a1.88,1.88,0,0,1,2.07,1.24l12.22,41.31,1.09,6.33V49.31a7.56,7.56,0,0,1,4.8-6.86l5.45-2a1.92,1.92,0,0,1,2.62,1.38,2.52,2.52,0,0,1-1.31,2.72,3.15,3.15,0,0,0-1.63,2.55V60.5a.09.09,0,0,0,.11.09V84l-.11,0Z"/><path class="cls-3" d="M192.48,129.87A1.85,1.85,0,0,1,190.3,128a2.58,2.58,0,0,1,1.85-2.47s1.09-.27,1.09-2l0-64.87c-.11-1.52-1.09-1.38-1.09-1.38a1.9,1.9,0,0,1-1.85-2,2.63,2.63,0,0,1,2.18-2.52L203.91,51a1.93,1.93,0,0,1,2.29,1.86,2.85,2.85,0,0,1-1.85,2.58s-1.2.18-1.2,1.93l0,64.87c.11,1.52,1.2,1.47,1.2,1.47a1.81,1.81,0,0,1,1.85,1.93,2.75,2.75,0,0,1-2.29,2.53Z"/><path class="cls-3" d="M238.51,46l.33,0a1.88,1.88,0,0,1,2.29,1.86v8.58a2.66,2.66,0,0,1-2.29,2.53,1.87,1.87,0,0,1-2.18-1.55s0-1.1-1.74-.84l-.11,0-7.63,1.12V80l7.74-1.13a1.88,1.88,0,0,1,2.18,2v5.5a2.63,2.63,0,0,1-2.18,2.52l-7.74,1.13v28.69c.11,1.52,1.09,1.49,1.09,1.49a1.75,1.75,0,0,1,1.85,1.93,2.63,2.63,0,0,1-2.18,2.52l-11.45,1.67a1.88,1.88,0,0,1-2.29-1.86,2.7,2.7,0,0,1,1.85-2.47s1.2-.29,1.2-2V91.17l-.22,0a3.15,3.15,0,0,0-2.29,2,2.53,2.53,0,0,1-2.51,1.69,1.92,1.92,0,0,1-1.75-2.38l1.2-5.89a7.48,7.48,0,0,1,5.56-5.54V55.33c0-1.76-1.2-1.58-1.2-1.58a2,2,0,0,1-1.85-2,2.66,2.66,0,0,1,2.29-2.53Z"/><path class="cls-3" d="M248.78,121.64a1.85,1.85,0,0,1-2.18-1.88,2.58,2.58,0,0,1,1.85-2.47s1.09-.27,1.09-2l0-64.87c-.11-1.52-1.09-1.38-1.09-1.38a1.9,1.9,0,0,1-1.85-2,2.63,2.63,0,0,1,2.18-2.52l11.45-1.67a1.93,1.93,0,0,1,2.29,1.86,2.85,2.85,0,0,1-1.85,2.58s-1.2.18-1.2,1.93l0,64.87c.11,1.52,1.2,1.47,1.2,1.47a1.81,1.81,0,0,1,1.85,1.93,2.75,2.75,0,0,1-2.29,2.53Z"/><path class="cls-3" d="M279.27,117.18a10.29,10.29,0,0,1-12.11-10.43V54.08A14.64,14.64,0,0,1,279.25,40l5-.73c6.76-1,12.21,3.71,12.22,10.42V55.4a.13.13,0,0,0-.11.13v.11a7.32,7.32,0,0,1-4.69,6.84l-5.34,2a2.07,2.07,0,0,1-2.73-1.36A2.7,2.7,0,0,1,285,60.37,2.85,2.85,0,0,0,286.56,58V51.13a2,2,0,0,0-2.29-2l-5,.73V50A2.77,2.77,0,0,0,277,52.65v52.66a2,2,0,0,0,2.29,2l5-.73a2.77,2.77,0,0,0,2.29-2.64V90.6c-.22-1.84-1.53-2-1.53-2a2.08,2.08,0,0,1-1.42-2.43,2.65,2.65,0,0,1,2.73-2l5.34.43s4.47.12,4.69,5.47l.11,6.69v5.72a14.64,14.64,0,0,1-12.21,14Z"/><path class="cls-3" d="M328.55,32.79l.33,0a1.85,1.85,0,0,1,2.18,1.88V43.2a2.63,2.63,0,0,1-2.18,2.52,1.8,1.8,0,0,1-2.18-1.55s-.11-1.08-1.85-.83l-7.74,1.13V66.9l7.74-1.13a1.9,1.9,0,0,1,2.29,2v5.5a2.66,2.66,0,0,1-2.29,2.53l-7.74,1.13v24.74l7.74-1.13c1.74-.26,1.85-1.37,1.85-1.37a2.58,2.58,0,0,1,2.18-2.19,1.85,1.85,0,0,1,2.18,1.88v8.58a2.63,2.63,0,0,1-2.18,2.52l-.33,0-13.3,1.94-.33,0-8.51,1.24a1.85,1.85,0,0,1-2.18-1.88,2.58,2.58,0,0,1,1.85-2.47s1.09-.27,1.09-2V78l-.22,0a3.15,3.15,0,0,0-2.29,2,2.53,2.53,0,0,1-2.51,1.69,1.92,1.92,0,0,1-1.75-2.38l1.2-5.89a7.48,7.48,0,0,1,5.56-5.54V42.18c0-1.76-1.09-1.6-1.09-1.6a1.9,1.9,0,0,1-1.85-2A2.63,2.63,0,0,1,306.41,36Z"/><path class="cls-3" d="M374.26,97.25c.11,1.52,1.2,1.47,1.2,1.47a1.81,1.81,0,0,1,1.85,1.93,2.66,2.66,0,0,1-2.29,2.53l-10.25,1.5a1.88,1.88,0,0,1-2.18-1.33l-.11.13-11.9-39.38-1.2-6.42v43.21c.11,1.52,1.2,1.47,1.2,1.47a1.81,1.81,0,0,1,1.85,1.93,2.75,2.75,0,0,1-2.29,2.53l-11.45,1.67a1.85,1.85,0,0,1-2.18-1.88,2.58,2.58,0,0,1,1.85-2.47s1.09-.27,1.09-2l0-64.87c-.11-1.52-1.09-1.38-1.09-1.38a1.9,1.9,0,0,1-1.85-2,2.63,2.63,0,0,1,2.18-2.52l10.25-1.5A1.88,1.88,0,0,1,351,31l12.22,41.31,1.09,6.33,0-67.23a7.56,7.56,0,0,1,4.8-6.86l5.45-2A1.92,1.92,0,0,1,377.18,4a2.52,2.52,0,0,1-1.31,2.72,3.15,3.15,0,0,0-1.63,2.55V22.64a.09.09,0,0,0,.11.09v33l-.11,0Z"/><path class="cls-3" d="M416.11,20l.33,0a1.85,1.85,0,0,1,2.18,1.88V30.4a2.63,2.63,0,0,1-2.18,2.52,1.87,1.87,0,0,1-2.18-1.55s0-1.1-1.85-.83l-8.07,1.18,0,61.13c0,1.54,1.09,1.49,1.09,1.49a1.75,1.75,0,0,1,1.85,1.93,2.63,2.63,0,0,1-2.18,2.52l-11.45,1.67a1.88,1.88,0,0,1-2.29-1.86,2.7,2.7,0,0,1,1.85-2.47s1.2-.29,1.2-2l0-60.91-8.07,1.18-.11,0c-1.74.26-1.85,1.37-1.85,1.37a2.58,2.58,0,0,1-2.18,2.19A1.85,1.85,0,0,1,380,36V27.47a2.63,2.63,0,0,1,2.18-2.52l.44-.06,10.69-1.56.33,0L405.1,21.6l.33,0Z"/><path class="cls-3" d="M114.05,225.57a1.85,1.85,0,0,1-2.18-1.88,2.58,2.58,0,0,1,1.85-2.47s1.09-.27,1.09-2l0-64.87c-.11-1.52-1.09-1.38-1.09-1.38a1.9,1.9,0,0,1-1.85-2,2.63,2.63,0,0,1,2.18-2.52l10.25-1.5a1.87,1.87,0,0,1,2.18,1.55l9.93,31.2,10.13-34.47a2.7,2.7,0,0,1,2.07-1.84L159,141.82a1.85,1.85,0,0,1,2.18,1.88,2.71,2.71,0,0,1-1.85,2.58s-1.09.16-1.09,1.92l0,64.87c.11,1.52,1.09,1.49,1.09,1.49a1.75,1.75,0,0,1,1.85,1.93A2.63,2.63,0,0,1,159,219l-11.45,1.67a1.85,1.85,0,0,1-2.18-1.88,2.58,2.58,0,0,1,1.85-2.47s1.09-.27,1.09-2V171.09l-8.06,26.58A4.88,4.88,0,0,1,136.4,201a3.24,3.24,0,0,1-3.6-1.89L124.73,175v43c.11,1.52,1.2,1.47,1.2,1.47a1.81,1.81,0,0,1,1.85,1.93,2.75,2.75,0,0,1-2.29,2.53Z"/><path class="cls-3" d="M182.85,182.86l5.23-.77-2.62-13.14ZM166.07,218a1.85,1.85,0,0,1-2.18-1.88,2.58,2.58,0,0,1,1.85-2.47,3.28,3.28,0,0,0,1.75-1.46L179.9,145.9c.55-2.06-1.09-2.48-1.09-2.48a2,2,0,0,1-1.85-2,2.66,2.66,0,0,1,2.29-2.53l8.61-1.26a1.88,1.88,0,0,1,2.29,1.86l13.1,66.8a2.13,2.13,0,0,0,2,1.58,1.8,1.8,0,0,1,1.85,1.93,2.63,2.63,0,0,1-2.18,2.52l-8.72,1.28A1.87,1.87,0,0,1,194,212l-3.93-20.1L181,193.24l-4,21.26v.22a2.73,2.73,0,0,1-2.18,2Z"/><path class="cls-3" d="M212,211.25a1.85,1.85,0,0,1-2.18-1.88,2.58,2.58,0,0,1,1.85-2.47s1.09-.27,1.09-2l0-64.87c-.11-1.52-1.09-1.38-1.09-1.38a1.9,1.9,0,0,1-1.85-2,2.63,2.63,0,0,1,2.18-2.52l11.45-1.67a1.93,1.93,0,0,1,2.29,1.86,2.85,2.85,0,0,1-1.85,2.58s-1.2.18-1.2,1.93v21.66l11.12-23.62c.11-1-.33-1.38-1.2-1.25a1.9,1.9,0,0,1-1.85-2,2.63,2.63,0,0,1,2.18-2.52l13.52-2a1.85,1.85,0,0,1,2.18,1.88,2.66,2.66,0,0,1-2.18,2.63s-.87.13-1.64,1.67c0,.11-.11.24-.22.36l-13.41,27,19.75,50v.11c.55,2.12,2.18,2,2.18,2a1.88,1.88,0,0,1,1.85,1.93,2.66,2.66,0,0,1-2.29,2.53l-6,.88A5.12,5.12,0,0,1,241.2,217l-.11-.09a.36.36,0,0,0-.11-.31l-16.26-41.16-2.07,4.15v24.08c.11,1.52,1.2,1.47,1.2,1.47a1.81,1.81,0,0,1,1.85,1.93,2.75,2.75,0,0,1-2.29,2.53Z"/><path class="cls-3" d="M277.6,124.48l.33,0a1.85,1.85,0,0,1,2.18,1.88v8.58a2.63,2.63,0,0,1-2.18,2.52,1.8,1.8,0,0,1-2.18-1.55s-.11-1.08-1.85-.83l-7.74,1.13v22.43l7.74-1.13a1.9,1.9,0,0,1,2.29,2v5.5a2.66,2.66,0,0,1-2.29,2.53l-7.74,1.13v24.74l7.74-1.13c1.74-.26,1.85-1.37,1.85-1.37a2.58,2.58,0,0,1,2.18-2.19,1.85,1.85,0,0,1,2.18,1.88v8.58a2.63,2.63,0,0,1-2.18,2.52l-.33,0-13.3,1.94-.33,0-8.51,1.24A1.85,1.85,0,0,1,253.3,203a2.58,2.58,0,0,1,1.85-2.47s1.09-.27,1.09-2V169.71l-.22,0a3.16,3.16,0,0,0-2.29,2,2.53,2.53,0,0,1-2.51,1.69,1.92,1.92,0,0,1-1.75-2.38l1.2-5.89a7.48,7.48,0,0,1,5.56-5.54V133.87c0-1.76-1.09-1.6-1.09-1.6a1.9,1.9,0,0,1-1.85-2,2.63,2.63,0,0,1,2.18-2.52Z"/><path class="cls-3" d="M311.74,131.8a1.9,1.9,0,0,0-2.29-2l-11,1.61v25.73l11.45-1.67a2.68,2.68,0,0,0,1.85-2.47Zm11.25,71a2.31,2.31,0,0,0,2.07,1.57,2,2,0,0,1,1.85,1.93,2.66,2.66,0,0,1-2.29,2.53l-5.78.84a5.11,5.11,0,0,1-5.89-4.09c-.11-.31-.11-.64-.22-1l-7.86-38.43-6.43.94v25.4c.11,1.52,1.2,1.47,1.2,1.47A1.81,1.81,0,0,1,301.5,196a2.75,2.75,0,0,1-2.29,2.53l-11.45,1.67a1.85,1.85,0,0,1-2.18-1.88,2.58,2.58,0,0,1,1.85-2.47s1.09-.27,1.09-2l0-64.65c0-1.76-1.09-1.6-1.09-1.6a1.9,1.9,0,0,1-1.85-2,2.63,2.63,0,0,1,2.18-2.52l21.81-3.19a10.34,10.34,0,0,1,12,10.56v21.22a14.8,14.8,0,0,1-6.76,12Z"/><path class="cls-3" d="M345.32,114.58A10.29,10.29,0,0,1,357.42,125v5.72a1.82,1.82,0,0,1-1.09,1.59L350,136.21a2.3,2.3,0,0,1-.87.35,1.27,1.27,0,0,1-1.53-1.32v-8.8a2,2,0,0,0-2.29-2l-5,.73v.11A2.68,2.68,0,0,0,338,128v12.75c0,3.3,19.41,13.66,19.42,18.49v18.47a14.64,14.64,0,0,1-12.1,14.08l-5,.73a10.24,10.24,0,0,1-12.11-10.43V171.83a2.06,2.06,0,0,0-1.64-1.85l.11,0a2,2,0,0,1-1.42-2.32,2.63,2.63,0,0,1,2.62-2l5.45.41s4.36.13,4.69,5.25v9.34a2,2,0,0,0,2.29,2l5-.73v-.11a2.68,2.68,0,0,0,2.29-2.64V164c0-3.3-19.41-13.32-19.42-18.49V129.39a14.55,14.55,0,0,1,12.1-14.08Z"/><path class="cls-4" d="M2.2,154.73A1.85,1.85,0,0,1,0,152.85a2.58,2.58,0,0,1,1.85-2.47s1.09-.27,1.09-2l0-64.87C2.84,82,1.85,82.11,1.85,82.11a1.9,1.9,0,0,1-1.85-2,2.63,2.63,0,0,1,2.18-2.52l10.25-1.5a1.87,1.87,0,0,1,2.18,1.55l9.93,31.2L34.68,74.34a2.7,2.7,0,0,1,2.07-1.84L47.11,71a1.85,1.85,0,0,1,2.18,1.88,2.71,2.71,0,0,1-1.85,2.58s-1.09.16-1.09,1.92l0,64.87c.11,1.52,1.09,1.49,1.09,1.49a1.75,1.75,0,0,1,1.85,1.93,2.63,2.63,0,0,1-2.18,2.52l-11.45,1.67A1.85,1.85,0,0,1,33.5,148a2.58,2.58,0,0,1,1.85-2.47s1.09-.27,1.09-2V100.25l-8.06,26.58a4.88,4.88,0,0,1-3.81,3.31,3.24,3.24,0,0,1-3.6-1.89l-8.08-24.11v43c.11,1.52,1.2,1.47,1.2,1.47a1.81,1.81,0,0,1,1.85,1.93,2.75,2.75,0,0,1-2.29,2.53Z"/><path class="cls-4" d="M74.6,111.5l5.56-.81L77.32,96.91Zm24,36.73a2.13,2.13,0,0,0,2,1.58,1.8,1.8,0,0,1,1.85,1.93,2.63,2.63,0,0,1-2.18,2.52l-5.78.84a5.24,5.24,0,0,1-5.89-4.2,2.34,2.34,0,0,1-.22-.85l-6.11-29.56-9.49,1.39-4,21.26v.22a2.73,2.73,0,0,1-2.18,2l-8.72,1.28a1.85,1.85,0,0,1-2.18-1.88,2.58,2.58,0,0,1,1.85-2.47,3.27,3.27,0,0,0,1.74-1.46l3.27-17.52-5.89.86c-5.34.56-6.11-3.83-6.11-3.83l-1.2-5.54A2.66,2.66,0,0,1,51,111.86a2,2,0,0,1,2.51,1,2.11,2.11,0,0,0,2.18,1.33l8.72-1.28,7.3-38.45c.43-2-1.2-2.35-1.2-2.35a2,2,0,0,1-1.85-2A2.66,2.66,0,0,1,71,67.49l8.61-1.26a1.88,1.88,0,0,1,2.29,1.86Z"/><path class="cls-4" d="M130.93,91.06a2.86,2.86,0,0,0,2.18-1.86,2.4,2.4,0,0,1,2.51-1.69,1.92,1.92,0,0,1,1.75,2.38l-1.2,5.89a7.38,7.38,0,0,1-5.67,5.56v22.43a14.64,14.64,0,0,1-12.21,14l-5,.73a10.29,10.29,0,0,1-12.11-10.43V75.4a14.64,14.64,0,0,1,12.1-14.08l5-.73c6.76-1,12.21,3.71,12.22,10.42v5.72a2,2,0,0,1-1.09,1.59L123,82.22a1.79,1.79,0,0,1-.76.33,1.34,1.34,0,0,1-1.64-1.3v-8.8a2,2,0,0,0-2.29-2l-5,.73v.11A2.77,2.77,0,0,0,111,74v52.66a2,2,0,0,0,2.29,2l5-.73a2.77,2.77,0,0,0,2.29-2.64V102.8l-.44.06a3.09,3.09,0,0,0-2.18,2,2.53,2.53,0,0,1-2.51,1.69,1.92,1.92,0,0,1-1.75-2.38l1.2-5.89a7.71,7.71,0,0,1,6.1-5.73Z"/><path class="cls-4" d="M177.83,123c.11,1.52,1.2,1.47,1.2,1.47a1.81,1.81,0,0,1,1.85,1.93,2.66,2.66,0,0,1-2.29,2.53l-10.25,1.5a1.88,1.88,0,0,1-2.18-1.33l-.11.13-11.9-39.38L153,83.44v43.21c.11,1.52,1.2,1.47,1.2,1.47A1.81,1.81,0,0,1,156,130a2.75,2.75,0,0,1-2.29,2.53l-11.45,1.67a1.85,1.85,0,0,1-2.18-1.88,2.58,2.58,0,0,1,1.85-2.47s1.09-.27,1.09-2L143,63c-.11-1.52-1.09-1.38-1.09-1.38a1.9,1.9,0,0,1-1.85-2,2.63,2.63,0,0,1,2.18-2.52l10.25-1.5a1.88,1.88,0,0,1,2.07,1.24l12.22,41.31,1.09,6.33V46.84a7.56,7.56,0,0,1,4.8-6.86l5.45-2a1.92,1.92,0,0,1,2.62,1.38,2.52,2.52,0,0,1-1.31,2.72,3.15,3.15,0,0,0-1.63,2.55V58a.09.09,0,0,0,.11.09V81.55l-.11,0Z"/><path class="cls-4" d="M189.16,127.4a1.85,1.85,0,0,1-2.18-1.88,2.58,2.58,0,0,1,1.85-2.47s1.09-.27,1.09-2l0-64.87c-.11-1.52-1.09-1.38-1.09-1.38a1.9,1.9,0,0,1-1.85-2,2.63,2.63,0,0,1,2.18-2.52l11.45-1.67a1.93,1.93,0,0,1,2.29,1.86A2.85,2.85,0,0,1,201,53s-1.2.18-1.2,1.93l0,64.87c.11,1.52,1.2,1.47,1.2,1.47a1.81,1.81,0,0,1,1.85,1.93,2.75,2.75,0,0,1-2.29,2.53Z"/><path class="cls-4" d="M235.19,43.49l.33,0a1.88,1.88,0,0,1,2.29,1.86v8.58a2.66,2.66,0,0,1-2.29,2.53,1.87,1.87,0,0,1-2.18-1.55s0-1.1-1.74-.84l-.11,0-7.63,1.12V77.58l7.74-1.13a1.88,1.88,0,0,1,2.18,2v5.5a2.63,2.63,0,0,1-2.18,2.52l-7.74,1.13v28.69c.11,1.52,1.09,1.49,1.09,1.49a1.75,1.75,0,0,1,1.85,1.93,2.63,2.63,0,0,1-2.18,2.52l-11.45,1.67a1.88,1.88,0,0,1-2.29-1.86,2.7,2.7,0,0,1,1.85-2.47s1.2-.29,1.2-2V88.71l-.22,0a3.15,3.15,0,0,0-2.29,2,2.53,2.53,0,0,1-2.51,1.69A1.92,1.92,0,0,1,207.17,90l1.2-5.89a7.48,7.48,0,0,1,5.56-5.54V52.87c0-1.76-1.2-1.58-1.2-1.58a2,2,0,0,1-1.85-2,2.66,2.66,0,0,1,2.29-2.53Z"/><path class="cls-4" d="M245.46,119.17a1.85,1.85,0,0,1-2.18-1.88,2.58,2.58,0,0,1,1.85-2.47s1.09-.27,1.09-2l0-64.87c-.11-1.52-1.09-1.38-1.09-1.38a1.9,1.9,0,0,1-1.85-2A2.63,2.63,0,0,1,245.44,42l11.45-1.67a1.93,1.93,0,0,1,2.29,1.86,2.85,2.85,0,0,1-1.85,2.58s-1.2.18-1.2,1.93l0,64.87c.11,1.52,1.2,1.47,1.2,1.47A1.81,1.81,0,0,1,259.2,115a2.75,2.75,0,0,1-2.29,2.53Z"/><path class="cls-4" d="M275.95,114.72a10.29,10.29,0,0,1-12.11-10.43V51.62a14.64,14.64,0,0,1,12.1-14.08l5-.73c6.76-1,12.21,3.71,12.22,10.42v5.72a.13.13,0,0,0-.11.13v.11A7.32,7.32,0,0,1,288.36,60L283,62a2.07,2.07,0,0,1-2.73-1.36,2.7,2.7,0,0,1,1.42-2.74,2.85,2.85,0,0,0,1.53-2.42V48.67a2,2,0,0,0-2.29-2l-5,.73v.11a2.77,2.77,0,0,0-2.29,2.64v52.66a2,2,0,0,0,2.29,2l5-.73a2.77,2.77,0,0,0,2.29-2.64V88.14c-.22-1.84-1.53-2-1.53-2a2.08,2.08,0,0,1-1.42-2.43,2.65,2.65,0,0,1,2.73-2l5.34.43s4.47.12,4.69,5.47l.11,6.69V100A14.64,14.64,0,0,1,281,114Z"/><path class="cls-4" d="M325.22,30.33l.33,0a1.85,1.85,0,0,1,2.18,1.88v8.58a2.63,2.63,0,0,1-2.18,2.52,1.8,1.8,0,0,1-2.18-1.55s-.11-1.08-1.85-.83L313.78,42V64.44l7.74-1.13a1.9,1.9,0,0,1,2.29,2v5.5a2.66,2.66,0,0,1-2.29,2.53l-7.74,1.13V99.18L321.53,98c1.74-.26,1.85-1.37,1.85-1.37a2.58,2.58,0,0,1,2.18-2.19,1.85,1.85,0,0,1,2.18,1.88v8.58a2.63,2.63,0,0,1-2.18,2.52l-.33,0-13.3,1.94-.33,0-8.51,1.24a1.85,1.85,0,0,1-2.18-1.88,2.58,2.58,0,0,1,1.85-2.47s1.09-.27,1.09-2V75.56l-.22,0a3.15,3.15,0,0,0-2.29,2,2.53,2.53,0,0,1-2.51,1.69,1.92,1.92,0,0,1-1.75-2.38L298.3,71a7.48,7.48,0,0,1,5.56-5.54V39.72c0-1.76-1.09-1.6-1.09-1.6a1.9,1.9,0,0,1-1.85-2,2.63,2.63,0,0,1,2.18-2.52Z"/><path class="cls-4" d="M370.93,94.78c.11,1.52,1.2,1.47,1.2,1.47A1.81,1.81,0,0,1,374,98.18a2.66,2.66,0,0,1-2.29,2.53l-10.25,1.5a1.88,1.88,0,0,1-2.18-1.33l-.11.13-11.9-39.38-1.2-6.42V98.42c.11,1.52,1.2,1.47,1.2,1.47a1.81,1.81,0,0,1,1.85,1.93,2.75,2.75,0,0,1-2.29,2.53L335.38,106a1.85,1.85,0,0,1-2.18-1.88,2.58,2.58,0,0,1,1.85-2.47s1.09-.27,1.09-2l0-64.87C336,33.26,335,33.4,335,33.4a1.9,1.9,0,0,1-1.85-2,2.63,2.63,0,0,1,2.18-2.52l10.25-1.5a1.88,1.88,0,0,1,2.07,1.24L359.91,69.9,361,76.22,361,9a7.56,7.56,0,0,1,4.8-6.86l5.45-2a1.92,1.92,0,0,1,2.62,1.38,2.52,2.52,0,0,1-1.31,2.72,3.15,3.15,0,0,0-1.63,2.55V20.18a.09.09,0,0,0,.11.09v33l-.11,0Z"/><path class="cls-4" d="M412.79,17.53l.33,0a1.85,1.85,0,0,1,2.18,1.88v8.58a2.63,2.63,0,0,1-2.18,2.52,1.87,1.87,0,0,1-2.18-1.55s0-1.1-1.85-.83L401,29.25l0,61.13c0,1.54,1.09,1.49,1.09,1.49A1.75,1.75,0,0,1,404,93.8a2.63,2.63,0,0,1-2.18,2.52L390.34,98a1.88,1.88,0,0,1-2.29-1.86,2.7,2.7,0,0,1,1.85-2.47s1.2-.29,1.2-2l0-60.91L383,31.88l-.11,0c-1.74.26-1.85,1.37-1.85,1.37a2.58,2.58,0,0,1-2.18,2.19,1.85,1.85,0,0,1-2.18-1.88V25a2.63,2.63,0,0,1,2.18-2.52l.44-.06L390,20.86l.33,0,11.45-1.67.33,0Z"/><path class="cls-4" d="M110.73,223.1a1.85,1.85,0,0,1-2.18-1.88,2.58,2.58,0,0,1,1.85-2.47s1.09-.27,1.09-2l0-64.87c-.11-1.52-1.09-1.38-1.09-1.38a1.9,1.9,0,0,1-1.85-2,2.63,2.63,0,0,1,2.18-2.52l10.25-1.5a1.87,1.87,0,0,1,2.18,1.55l9.93,31.2,10.13-34.47a2.7,2.7,0,0,1,2.07-1.84l10.36-1.51a1.85,1.85,0,0,1,2.18,1.88,2.71,2.71,0,0,1-1.85,2.58s-1.09.16-1.09,1.92l0,64.87c.11,1.52,1.09,1.49,1.09,1.49a1.75,1.75,0,0,1,1.85,1.93,2.63,2.63,0,0,1-2.18,2.52l-11.45,1.67a1.85,1.85,0,0,1-2.18-1.88,2.58,2.58,0,0,1,1.85-2.47s1.09-.27,1.09-2V168.62L136.9,195.2a4.88,4.88,0,0,1-3.81,3.31,3.24,3.24,0,0,1-3.6-1.89l-8.08-24.11v43c.11,1.52,1.2,1.47,1.2,1.47a1.81,1.81,0,0,1,1.85,1.93,2.75,2.75,0,0,1-2.29,2.53Z"/><path class="cls-4" d="M179.53,180.39l5.23-.77-2.62-13.14ZM162.75,215.5a1.85,1.85,0,0,1-2.18-1.88,2.58,2.58,0,0,1,1.85-2.47,3.28,3.28,0,0,0,1.75-1.46l12.41-66.24c.55-2.06-1.09-2.48-1.09-2.48a2,2,0,0,1-1.85-2,2.66,2.66,0,0,1,2.29-2.53l8.61-1.26a1.88,1.88,0,0,1,2.29,1.86l13.1,66.8a2.13,2.13,0,0,0,2,1.58,1.8,1.8,0,0,1,1.85,1.93,2.63,2.63,0,0,1-2.18,2.52l-8.72,1.28a1.87,1.87,0,0,1-2.18-1.55l-3.93-20.1-9.05,1.32-4,21.26v.22a2.73,2.73,0,0,1-2.18,2Z"/><path class="cls-4" d="M208.65,208.79a1.85,1.85,0,0,1-2.18-1.88,2.58,2.58,0,0,1,1.85-2.47s1.09-.27,1.09-2l0-64.87c-.11-1.52-1.09-1.38-1.09-1.38a1.9,1.9,0,0,1-1.85-2,2.63,2.63,0,0,1,2.18-2.52l11.45-1.67a1.93,1.93,0,0,1,2.29,1.86,2.85,2.85,0,0,1-1.85,2.58s-1.2.18-1.2,1.93V158l11.12-23.62c.11-1-.33-1.38-1.2-1.25a1.9,1.9,0,0,1-1.85-2,2.63,2.63,0,0,1,2.18-2.52l13.52-2a1.85,1.85,0,0,1,2.18,1.88,2.66,2.66,0,0,1-2.18,2.63s-.87.13-1.64,1.67c0,.11-.11.24-.22.36l-13.41,27,19.75,50v.11c.55,2.12,2.18,2,2.18,2a1.88,1.88,0,0,1,1.85,1.93,2.66,2.66,0,0,1-2.29,2.53l-6,.88a5.12,5.12,0,0,1-5.45-3.05l-.11-.09a.36.36,0,0,0-.11-.31L221.4,173l-2.07,4.15v24.08c.11,1.52,1.2,1.47,1.2,1.47a1.81,1.81,0,0,1,1.85,1.93,2.75,2.75,0,0,1-2.29,2.53Z"/><path class="cls-4" d="M274.28,122l.33,0a1.85,1.85,0,0,1,2.18,1.88v8.58a2.63,2.63,0,0,1-2.18,2.52,1.8,1.8,0,0,1-2.18-1.55s-.11-1.08-1.85-.83l-7.74,1.13v22.43l7.74-1.13a1.9,1.9,0,0,1,2.29,2v5.5a2.66,2.66,0,0,1-2.29,2.53l-7.74,1.13v24.74l7.74-1.13c1.74-.26,1.85-1.37,1.85-1.37a2.58,2.58,0,0,1,2.18-2.19,1.85,1.85,0,0,1,2.18,1.88v8.58a2.63,2.63,0,0,1-2.18,2.52l-.33,0L261,201.14l-.33,0-8.51,1.24a1.85,1.85,0,0,1-2.18-1.88,2.58,2.58,0,0,1,1.85-2.47s1.09-.27,1.09-2V167.24l-.22,0a3.16,3.16,0,0,0-2.29,2,2.53,2.53,0,0,1-2.51,1.69,1.92,1.92,0,0,1-1.75-2.38l1.2-5.89a7.48,7.48,0,0,1,5.56-5.54V131.4c0-1.76-1.09-1.6-1.09-1.6a1.9,1.9,0,0,1-1.85-2,2.63,2.63,0,0,1,2.18-2.52Z"/><path class="cls-4" d="M308.41,129.34a1.9,1.9,0,0,0-2.29-2l-11,1.61V154.7L306.57,153a2.68,2.68,0,0,0,1.85-2.47Zm11.25,71a2.31,2.31,0,0,0,2.07,1.57,2,2,0,0,1,1.85,1.93,2.66,2.66,0,0,1-2.29,2.53l-5.78.84a5.11,5.11,0,0,1-5.89-4.09c-.11-.31-.11-.64-.22-1l-7.86-38.43-6.43.94v25.4c.11,1.52,1.2,1.47,1.2,1.47a1.81,1.81,0,0,1,1.85,1.93,2.75,2.75,0,0,1-2.29,2.53l-11.45,1.67a1.85,1.85,0,0,1-2.18-1.88,2.58,2.58,0,0,1,1.85-2.47s1.09-.27,1.09-2l0-64.65c0-1.76-1.09-1.6-1.09-1.6a1.9,1.9,0,0,1-1.85-2,2.63,2.63,0,0,1,2.18-2.52l21.81-3.19a10.34,10.34,0,0,1,12,10.56v21.22a14.8,14.8,0,0,1-6.76,12Z"/><path class="cls-4" d="M342,112.11a10.29,10.29,0,0,1,12.11,10.43v5.72a1.82,1.82,0,0,1-1.09,1.59l-6.32,3.89a2.3,2.3,0,0,1-.87.35,1.27,1.27,0,0,1-1.53-1.32V124a2,2,0,0,0-2.29-2l-5,.73v.11a2.68,2.68,0,0,0-2.29,2.64v12.75c0,3.3,19.41,13.66,19.42,18.49v18.47A14.64,14.64,0,0,1,342,189.29l-5,.73a10.24,10.24,0,0,1-12.11-10.43V169.37a2.06,2.06,0,0,0-1.64-1.85l.11,0a2,2,0,0,1-1.42-2.32,2.63,2.63,0,0,1,2.62-2l5.45.41s4.36.13,4.69,5.25v9.34a2,2,0,0,0,2.29,2l5-.73v-.11a2.68,2.68,0,0,0,2.29-2.64V161.58c0-3.3-19.41-13.32-19.42-18.49V126.93A14.55,14.55,0,0,1,337,112.85Z"/></g></g></g></svg>