<svg xmlns="http://www.w3.org/2000/svg" xmlns:xlink="http://www.w3.org/1999/xlink" viewBox="0 0 134.37 134.01"><defs><style>.cls-1{fill:none;}.cls-2{clip-path:url(#clip-path);}.cls-3{fill:#fff;}</style><clipPath id="clip-path"><rect class="cls-1" width="134.36" height="134.01"/></clipPath></defs><title>makers-subtitle</title><g id="Layer_2" data-name="Layer 2"><g id="Layer_1-2" data-name="Layer 1"><g class="cls-2"><path class="cls-3" d="M118.7,115.25c2.38,0,4-1.23,4-3.42v0c0-1.92-1.26-2.72-3.5-3.31-1.9-.49-2.38-.72-2.38-1.45v0c0-.54.49-1,1.42-1a5.17,5.17,0,0,1,2.86,1.09l1.26-1.83a6.38,6.38,0,0,0-4.09-1.4c-2.25,0-3.86,1.32-3.86,3.32v0c0,2.19,1.43,2.8,3.65,3.37,1.84.47,2.22.79,2.22,1.4v0c0,.65-.6,1-1.59,1a5.05,5.05,0,0,1-3.29-1.34L114,113.49a7,7,0,0,0,4.68,1.76m-18.54-.16h2.39v-7l5.34,7h2.06v-11h-2.39v6.79l-5.16-6.79h-2.24ZM90,113a3.35,3.35,0,0,1-3.34-3.46v0A3.3,3.3,0,0,1,90,106.12a3.35,3.35,0,0,1,3.34,3.46v0A3.3,3.3,0,0,1,90,113m0,2.24a5.7,5.7,0,0,0,5.87-5.7v0a5.86,5.86,0,0,0-11.71,0v0A5.65,5.65,0,0,0,90,115.28m-12.59-.19h2.42v-11H77.41Zm-9.62,0h2.42v-8.78h3.35v-2.24H64.44v2.24H67.8Zm-12.21-4.61L57,106.91l1.46,3.57Zm-4.34,4.61h2.47l1-2.47h4.66l1,2.47h2.53L58.2,104H56Zm-11.89,0h8.39v-2.16h-6v-2.31H47v-2.16h-5.2v-2.24h5.9v-2.16H39.35Zm-11.16-5.67v-3.16h2.41c1.18,0,1.9.54,1.9,1.57v0c0,.93-.68,1.56-1.86,1.56Zm-2.43,5.67h2.43v-3.53h1.9l2.36,3.53h2.83l-2.69-3.94A3.42,3.42,0,0,0,35,107.74v0a3.46,3.46,0,0,0-.94-2.52,4.39,4.39,0,0,0-3.21-1.12h-5Zm-8.44.19a5.64,5.64,0,0,0,4.52-2l-1.54-1.56A4,4,0,0,1,17.4,113a3.27,3.27,0,0,1-3.2-3.46v0a3.27,3.27,0,0,1,3.2-3.43,4.07,4.07,0,0,1,2.82,1.24l1.54-1.78a5.68,5.68,0,0,0-4.34-1.7,5.6,5.6,0,0,0-5.75,5.7v0a5.56,5.56,0,0,0,5.65,5.67"/><path class="cls-3" d="M106.46,95.11c2.38,0,4-1.23,4-3.42v0c0-1.92-1.26-2.72-3.5-3.31-1.9-.49-2.38-.72-2.38-1.45v0c0-.54.49-1,1.42-1A5.17,5.17,0,0,1,108.92,87l1.26-1.83a6.38,6.38,0,0,0-4.09-1.4c-2.25,0-3.86,1.32-3.86,3.32v0c0,2.19,1.43,2.8,3.65,3.37,1.84.47,2.22.79,2.22,1.4v0c0,.65-.6,1-1.59,1a5,5,0,0,1-3.29-1.34l-1.43,1.72a7,7,0,0,0,4.68,1.76m-13.33,0c3,0,4.83-1.64,4.83-5V83.94H95.54v6.31c0,1.75-.9,2.64-2.38,2.64s-2.38-.93-2.38-2.72V83.94H88.36v6.3c0,3.24,1.81,4.9,4.77,4.9M78.39,92.91a3.35,3.35,0,0,1-3.34-3.46v0A3.3,3.3,0,0,1,78.36,86a3.35,3.35,0,0,1,3.34,3.46v0a3.3,3.3,0,0,1-3.31,3.43m0,2.24a5.7,5.7,0,0,0,5.87-5.7v0a5.86,5.86,0,0,0-11.71,0v0a5.65,5.65,0,0,0,5.84,5.67M65.77,95h2.42v-11H65.77Zm-11.2-5.67V86.12H57c1.18,0,1.91.54,1.91,1.57v0c0,.93-.68,1.56-1.86,1.56ZM52.14,95h2.42V91.43h1.91L58.83,95h2.83L59,91a3.42,3.42,0,0,0,2.36-3.42v0a3.46,3.46,0,0,0-.94-2.52,4.39,4.39,0,0,0-3.21-1.12h-5Zm-9.59.17c3,0,4.83-1.64,4.83-5V83.94H45v6.31c0,1.75-.9,2.64-2.38,2.64s-2.38-.93-2.38-2.72V83.94H37.78v6.3c0,3.24,1.81,4.9,4.77,4.9m-13,0a5.64,5.64,0,0,0,4.52-2l-1.54-1.56a4,4,0,0,1-2.9,1.29,3.27,3.27,0,0,1-3.2-3.46v0A3.27,3.27,0,0,1,29.64,86a4.07,4.07,0,0,1,2.82,1.24L34,85.45a5.68,5.68,0,0,0-4.34-1.7,5.6,5.6,0,0,0-5.75,5.7v0a5.56,5.56,0,0,0,5.65,5.67"/><path class="cls-3" d="M119.3,50.24c2.38,0,4-1.23,4-3.42v0c0-1.92-1.26-2.72-3.49-3.31-1.91-.49-2.38-.72-2.38-1.45v0c0-.54.49-1,1.42-1a5.17,5.17,0,0,1,2.86,1.09L123,40.3a6.38,6.38,0,0,0-4.09-1.4c-2.25,0-3.86,1.32-3.86,3.32v0c0,2.19,1.43,2.8,3.65,3.37,1.84.47,2.22.79,2.22,1.4v0c0,.65-.6,1-1.59,1a5.06,5.06,0,0,1-3.29-1.34l-1.43,1.72a7,7,0,0,0,4.68,1.76m-15-5.82V41.25h2.41c1.18,0,1.91.54,1.91,1.57v0c0,.93-.68,1.56-1.86,1.56Zm-2.42,5.67h2.42V46.55h1.91l2.36,3.53h2.83l-2.69-3.94a3.42,3.42,0,0,0,2.36-3.42v0a3.46,3.46,0,0,0-.94-2.52A4.39,4.39,0,0,0,107,39.06h-5ZM91.8,48a3.35,3.35,0,0,1-3.34-3.46v0a3.3,3.3,0,0,1,3.31-3.43,3.35,3.35,0,0,1,3.34,3.46v0A3.3,3.3,0,0,1,91.8,48m0,2.24a5.7,5.7,0,0,0,5.87-5.7v0a5.86,5.86,0,0,0-11.71,0v0a5.65,5.65,0,0,0,5.84,5.67m-14.7-.19h2.43V41.29h3.35V39.06H73.71v2.24h3.35Zm-16.94,0h2.39v-7l5.34,7h2.06v-11H67.53v6.79l-5.16-6.79H60.13Zm-12.85,0h8.39V47.92h-6V45.61h5.2V43.45h-5.2V41.22h5.9V39.06H47.28ZM37,50.16H39.1l4.45-11.1H40.94l-2.88,7.76-2.88-7.76H32.5Zm-18-.08h2.39v-7l5.34,7h2.06v-11H26.39v6.79l-5.16-6.79H19Zm-7.32,0h2.42v-11H11.67Z"/><path class="cls-3" d="M126.64,27.75V21.11h1.87a3.17,3.17,0,0,1,3.32,3.32v0a3.14,3.14,0,0,1-3.32,3.29Zm-2.42,2.19h4.3a5.52,5.52,0,0,0,5.86-5.51v0c0-3.1-2.39-5.48-5.86-5.48h-4.3Zm-14.67,0h2.39v-7l5.34,7h2.06v-11h-2.39V25.7l-5.16-6.78h-2.24ZM98.48,25.33l1.46-3.57,1.46,3.57Zm-4.34,4.61h2.47l1-2.47h4.66l1,2.47h2.53l-4.72-11.1H98.86Zm-11.27,0h7.92v-2.2H85.29V18.92H82.86Zm-8.33.16c2.38,0,4-1.23,4-3.42v0c0-1.92-1.26-2.72-3.49-3.31-1.91-.49-2.38-.72-2.38-1.45v0c0-.54.49-1,1.42-1A5.18,5.18,0,0,1,77,22l1.26-1.83a6.38,6.38,0,0,0-4.09-1.4c-2.25,0-3.86,1.32-3.86,3.32v0c0,2.19,1.43,2.8,3.65,3.37,1.84.47,2.22.79,2.22,1.4v0c0,.65-.6,1-1.59,1a5.06,5.06,0,0,1-3.29-1.34l-1.43,1.72a7,7,0,0,0,4.67,1.76M56,29.94h2.39v-7l5.34,7h2.06v-11H63.38V25.7l-5.16-6.78H56Zm-12.85,0h8.39V27.78h-6V25.47h5.2V23.31h-5.2V21.08h5.9V18.92H43.13Zm-12.85,0h8.39V27.78h-6V25.47h5.2V23.31h-5.2V21.08h5.9V18.92H30.28Zm-9.59.17c3,0,4.83-1.64,4.83-5V18.92H23.1v6.31c0,1.75-.9,2.64-2.38,2.64s-2.38-.93-2.38-2.72V18.92H15.93v6.3c0,3.24,1.81,4.9,4.77,4.9M5.87,27.89a3.35,3.35,0,0,1-3.34-3.46v0A3.3,3.3,0,0,1,5.84,21a3.35,3.35,0,0,1,3.34,3.46v0A3.65,3.65,0,0,1,8.88,26L7.07,24.33,5.53,26.07l1.79,1.53a3.55,3.55,0,0,1-1.45.3m4.45,2.38,1.54-1.72-1.13-1a5.57,5.57,0,0,0,1-3.16v0a5.65,5.65,0,0,0-5.84-5.67A5.7,5.7,0,0,0,0,24.43v0a5.65,5.65,0,0,0,5.84,5.67,6,6,0,0,0,3.27-.94Z"/><path class="cls-3" d="M92,61.06a.38.38,0,0,1-.27.35l-1.65.23V57.95l1.59-.22A.28.28,0,0,1,92,58Zm1.61,5.39s-.11,0-.19-.18l-.8-3.81a2.06,2.06,0,0,0,.8-1.59v-3a1.5,1.5,0,0,0-1.73-1.53l-3.15.43a.37.37,0,0,0-.31.36.28.28,0,0,0,.27.29s.16,0,.16.23v9.26c0,.25-.16.29-.16.29a.37.37,0,0,0-.27.35.27.27,0,0,0,.31.27l1.65-.23a.39.39,0,0,0,.33-.36.26.26,0,0,0-.27-.28s-.16,0-.17-.21V63.07l1.12-.15L92,66.45a.26.26,0,0,1-.22.27.35.35,0,0,0-.27.35.27.27,0,0,0,.31.27l1.9-.26a.37.37,0,0,0,.31-.36.27.27,0,0,0-.31-.29Zm-7,1.6a.39.39,0,0,0,.33-.36.26.26,0,0,0-.27-.28s-.16,0-.17-.21V57.9c0-.25.17-.28.17-.28a.4.4,0,0,0,.27-.37.28.28,0,0,0-.33-.27L85,57.21a.37.37,0,0,0-.31.36.27.27,0,0,0,.27.29s.14,0,.16.2v9.29c0,.25-.16.29-.16.29a.36.36,0,0,0-.27.35.27.27,0,0,0,.31.27ZM79.84,57.92a.37.37,0,0,0-.31.36.27.27,0,0,0,.27.29s.16,0,.16.23v9.26c0,.25-.16.29-.16.29a.36.36,0,0,0-.27.35.27.27,0,0,0,.31.27l1.23-.17h.06l1.9-.26h0a.37.37,0,0,0,.31-.36V66.94a.27.27,0,0,0-.31-.27.38.38,0,0,0-.31.31s0,.16-.27.19l-1.12.15V63.78l1.13-.15a.37.37,0,0,0,.31-.36v-.79a.27.27,0,0,0-.31-.29l-1.13.15V59.14L82.5,59c.27,0,.27.12.27.12a.27.27,0,0,0,.31.22A.37.37,0,0,0,83.4,59V57.75a.27.27,0,0,0-.31-.27h0ZM75,64.65l1.32-.18v4.08c0,.25-.16.29-.16.29a.38.38,0,0,0-.27.35.27.27,0,0,0,.33.27l1.64-.22a.38.38,0,0,0,.33-.36.26.26,0,0,0-.27-.28s-.16,0-.16-.21V59.09c0-.25.16-.27.16-.27a.4.4,0,0,0,.27-.37.27.27,0,0,0-.33-.27l-1.64.22a.38.38,0,0,0-.33.36.29.29,0,0,0,.27.29s.16,0,.16.2V63L75,63.22V59.47c0-.25.17-.28.17-.28a.4.4,0,0,0,.27-.37.28.28,0,0,0-.33-.27l-1.65.23a.37.37,0,0,0-.31.36.27.27,0,0,0,.27.29s.14,0,.16.2v9.29c0,.25-.16.29-.16.29a.36.36,0,0,0-.27.35.27.27,0,0,0,.31.27l1.65-.23a.39.39,0,0,0,.33-.36.26.26,0,0,0-.27-.28s-.16,0-.17-.21ZM70,59.26h0l-1.65.23h0l-1.54.21h0a.39.39,0,0,0-.33.36V61.3a.28.28,0,0,0,.33.27.38.38,0,0,0,.31-.31s0-.16.25-.19h0l1.16-.16v8.72c0,.25-.16.29-.16.29a.36.36,0,0,0-.27.35.27.27,0,0,0,.31.27l1.65-.23a.37.37,0,0,0,.31-.36.25.25,0,0,0-.27-.28s-.14,0-.16-.22V60.72L71,60.56c.27,0,.27.12.27.12a.27.27,0,0,0,.31.22.38.38,0,0,0,.33-.36V59.31a.27.27,0,0,0-.33-.27h0ZM57.87,62.34a.28.28,0,0,1,.33.29v7.53a.4.4,0,0,1-.27.37l-1,.14V62.47Zm1.75.09a1.5,1.5,0,0,0-1.73-1.53l-2.5.34a.37.37,0,0,0-.31.36.27.27,0,0,0,.27.29s.16,0,.16.23v9.26c0,.25-.16.29-.16.29a.36.36,0,0,0-.27.35.27.27,0,0,0,.31.27L57.87,72a2.08,2.08,0,0,0,1.75-2ZM49.86,73.06a.39.39,0,0,0,.33-.36.26.26,0,0,0-.27-.28s-.16,0-.17-.21V66l.17.92,1.72,5.65,0,0a.27.27,0,0,0,.31.19l1.48-.2a.38.38,0,0,0,.33-.36.26.26,0,0,0-.27-.28s-.16,0-.17-.21V62.43c0-.25.17-.28.17-.28a.4.4,0,0,0,.27-.37.27.27,0,0,0-.33-.27l-1.65.23a.37.37,0,0,0-.31.36.27.27,0,0,0,.27.29s.16,0,.16.2V69l-.16-.91L50,62.21a.27.27,0,0,0-.3-.18l-1.48.2a.37.37,0,0,0-.31.36.27.27,0,0,0,.27.29s.14,0,.16.2v9.29c0,.25-.16.29-.16.29a.36.36,0,0,0-.27.35.27.27,0,0,0,.31.27Zm-6.38-5.74.38,1.88-.76.1Zm-1.54,6.82a.39.39,0,0,0,.31-.28v0l.58-3,1.31-.18.57,2.88a.27.27,0,0,0,.31.22l1.26-.17a.37.37,0,0,0,.31-.36.26.26,0,0,0-.27-.28.31.31,0,0,1-.28-.23L44.16,63.1a.27.27,0,0,0-.33-.27L42.59,63a.38.38,0,0,0-.33.36.29.29,0,0,0,.27.29.26.26,0,0,1,.16.36l-1.79,9.47a.47.47,0,0,1-.25.21.36.36,0,0,0-.27.35.27.27,0,0,0,.31.27Z"/><path class="cls-3" d="M90.51,6.08l-.93-2.52a3.49,3.49,0,0,0-3.17-2.22H64l-.05,0H53.17a0,0,0,0,1,0,.05H46.93A1.45,1.45,0,0,1,45.75.63,1.16,1.16,0,0,0,44.49,0a.89.89,0,0,0-.63,1.21l.93,2.52A3.5,3.5,0,0,0,48,6H70.33l0,0H81.2a0,0,0,0,1,0-.05h6.19a1.46,1.46,0,0,1,1.18.76,1.16,1.16,0,0,0,1.26.6.89.89,0,0,0,.64-1.21"/><path class="cls-3" d="M90.51,132.78l-.93-2.52a3.49,3.49,0,0,0-3.17-2.22H64L64,128H53.17a0,0,0,0,1,0,.05H46.93a1.45,1.45,0,0,1-1.18-.76,1.16,1.16,0,0,0-1.26-.6.89.89,0,0,0-.63,1.21l.93,2.52A3.5,3.5,0,0,0,48,132.67H70.33l0,0H81.2a0,0,0,0,1,0,0h6.19a1.46,1.46,0,0,1,1.18.75,1.16,1.16,0,0,0,1.26.6.89.89,0,0,0,.64-1.21"/></g></g></g></svg>