<svg xmlns="http://www.w3.org/2000/svg" xmlns:xlink="http://www.w3.org/1999/xlink" viewBox="0 0 529.62 267"><defs><style>.cls-1{fill:none;}.cls-2{clip-path:url(#clip-path);}.cls-3{fill:#1d1d1b;}.cls-4{fill:#c6d333;}.cls-5{clip-path:url(#clip-path-2);}.cls-6{fill:#fff;}</style><clipPath id="clip-path"><rect class="cls-1" width="462.06" height="249"/></clipPath><clipPath id="clip-path-2"><rect class="cls-1" x="408.13" y="145.82" width="121.49" height="121.18"/></clipPath></defs><title>makers-title-subtitle-right</title><g id="Layer_2" data-name="Layer 2"><g id="Layer_1-2" data-name="Layer 1"><g class="cls-2"><path class="cls-3" d="M6.1,173.51a2,2,0,0,1-2.41-2.07,2.84,2.84,0,0,1,2-2.73s1.2-.3,1.2-2.24l0-71.6c-.12-1.68-1.2-1.52-1.2-1.52a2.09,2.09,0,0,1-2-2.25,2.9,2.9,0,0,1,2.41-2.78l11.31-1.65a2.06,2.06,0,0,1,2.41,1.71l11,34.44,11.18-38a3,3,0,0,1,2.29-2l11.43-1.67a2,2,0,0,1,2.41,2.07A3,3,0,0,1,56,86s-1.2.18-1.2,2.12l0,71.6c.12,1.68,1.2,1.64,1.2,1.64a1.93,1.93,0,0,1,2,2.13,2.9,2.9,0,0,1-2.41,2.78L43,168.11A2,2,0,0,1,40.64,166a2.84,2.84,0,0,1,2-2.73s1.2-.3,1.2-2.24V113.38L35,142.71a5.39,5.39,0,0,1-4.21,3.65,3.57,3.57,0,0,1-4-2.09l-8.91-26.61v47.45c.12,1.68,1.32,1.63,1.32,1.63a2,2,0,0,1,2,2.13,3,3,0,0,1-2.53,2.8Z"/><path class="cls-3" d="M86,125.79l6.14-.9L89,109.69Zm26.49,40.54a2.35,2.35,0,0,0,2.17,1.75,2,2,0,0,1,2,2.13A2.9,2.9,0,0,1,114.3,173l-6.38.93a5.78,5.78,0,0,1-6.5-4.63,2.59,2.59,0,0,1-.24-.94l-6.75-32.63L84,137.25l-4.45,23.47V161a3,3,0,0,1-2.41,2.17l-9.63,1.41a2,2,0,0,1-2.41-2.07,2.84,2.84,0,0,1,2-2.73A3.61,3.61,0,0,0,69,158.12l3.61-19.34-6.5,1c-5.9.62-6.74-4.23-6.74-4.23l-1.33-6.12A2.93,2.93,0,0,1,60,126.19a2.18,2.18,0,0,1,2.77,1.05,2.33,2.33,0,0,0,2.41,1.47l9.63-1.41,8.05-42.44c.48-2.25-1.32-2.6-1.32-2.6a2.18,2.18,0,0,1-2-2.25A2.94,2.94,0,0,1,82,77.22l9.51-1.39a2.07,2.07,0,0,1,2.53,2.06Z"/><path class="cls-3" d="M148.18,103.22a3.15,3.15,0,0,0,2.41-2.05,2.65,2.65,0,0,1,2.77-1.86,2.12,2.12,0,0,1,1.93,2.63l-1.32,6.5a8.15,8.15,0,0,1-6.26,6.13v24.75a16.16,16.16,0,0,1-13.48,15.44l-5.54.81a11.35,11.35,0,0,1-13.36-11.52V85.94A16.16,16.16,0,0,1,128.68,70.4l5.54-.81c7.46-1.09,13.48,4.1,13.48,11.5V87.4a2.22,2.22,0,0,1-1.2,1.75l-7.1,4.31a2,2,0,0,1-.84.37,1.48,1.48,0,0,1-1.81-1.43V82.69a2.15,2.15,0,0,0-2.53-2.18l-5.54.81v.12a3.06,3.06,0,0,0-2.53,2.92v58.13a2.21,2.21,0,0,0,2.53,2.18l5.54-.81a3.06,3.06,0,0,0,2.53-2.92V116.18l-.48.07a3.41,3.41,0,0,0-2.41,2.17,2.79,2.79,0,0,1-2.77,1.86,2.12,2.12,0,0,1-1.93-2.63l1.32-6.5a8.51,8.51,0,0,1,6.74-6.33Z"/><path class="cls-3" d="M199.95,138.5c.12,1.68,1.32,1.63,1.32,1.63a2,2,0,0,1,2,2.13,2.93,2.93,0,0,1-2.53,2.8l-11.31,1.65a2.07,2.07,0,0,1-2.41-1.47l-.12.14L173.82,101.9l-1.33-7.09v47.69c.12,1.68,1.33,1.63,1.33,1.63a2,2,0,0,1,2,2.13,3,3,0,0,1-2.53,2.8l-12.64,1.85a2,2,0,0,1-2.41-2.07,2.84,2.84,0,0,1,2-2.73s1.2-.3,1.2-2.24l0-71.6c-.12-1.68-1.2-1.52-1.2-1.52a2.09,2.09,0,0,1-2-2.25,2.9,2.9,0,0,1,2.41-2.78L172,64.06a2.07,2.07,0,0,1,2.29,1.36L187.79,111l1.21,7,0-63.59a8.35,8.35,0,0,1,5.29-7.57l6-2.21a2.12,2.12,0,0,1,2.89,1.52,2.78,2.78,0,0,1-1.44,3,3.47,3.47,0,0,0-1.8,2.81v14.8a.1.1,0,0,0,.12.1V92.73l-.12,0Z"/><path class="cls-3" d="M212.46,143.34a2,2,0,0,1-2.41-2.07,2.84,2.84,0,0,1,2-2.73s1.2-.3,1.2-2.24l0-71.6c-.12-1.68-1.2-1.52-1.2-1.52a2.09,2.09,0,0,1-2-2.25,2.9,2.9,0,0,1,2.41-2.78l12.64-1.85a2.13,2.13,0,0,1,2.53,2.06,3.14,3.14,0,0,1-2,2.85s-1.32.19-1.32,2.13l0,71.6c.12,1.68,1.32,1.63,1.32,1.63a2,2,0,0,1,2,2.13,3,3,0,0,1-2.53,2.8Z"/><path class="cls-3" d="M263.26,50.72l.36-.05a2.07,2.07,0,0,1,2.53,2.06v9.47a2.93,2.93,0,0,1-2.53,2.8,2.06,2.06,0,0,1-2.41-1.71s0-1.21-1.93-.93l-.12,0-8.43,1.23V88.35l8.55-1.25a2.07,2.07,0,0,1,2.41,2.2v6.07a2.9,2.9,0,0,1-2.41,2.78l-8.55,1.25v31.67c.12,1.68,1.2,1.64,1.2,1.64a1.93,1.93,0,0,1,2,2.13,2.9,2.9,0,0,1-2.41,2.78L239,139.47a2.07,2.07,0,0,1-2.53-2.06,3,3,0,0,1,2-2.73s1.32-.31,1.32-2.26v-31.8l-.24,0a3.48,3.48,0,0,0-2.53,2.19,2.79,2.79,0,0,1-2.77,1.86,2.12,2.12,0,0,1-1.93-2.63l1.32-6.5a8.26,8.26,0,0,1,6.14-6.12V61.07c0-1.94-1.32-1.75-1.32-1.75a2.18,2.18,0,0,1-2-2.25,2.93,2.93,0,0,1,2.53-2.8Z"/><path class="cls-3" d="M274.6,134.26a2,2,0,0,1-2.41-2.07,2.84,2.84,0,0,1,2-2.73s1.2-.3,1.2-2.24l0-71.6c-.12-1.68-1.2-1.52-1.2-1.52a2.09,2.09,0,0,1-2-2.25,2.9,2.9,0,0,1,2.41-2.78l12.64-1.85a2.13,2.13,0,0,1,2.53,2.06,3.14,3.14,0,0,1-2,2.85s-1.32.19-1.32,2.13l0,71.6c.12,1.68,1.32,1.63,1.32,1.63a2,2,0,0,1,2,2.13,3,3,0,0,1-2.53,2.8Z"/><path class="cls-3" d="M308.25,129.34a11.36,11.36,0,0,1-13.36-11.52V59.69a16.16,16.16,0,0,1,13.36-15.54l5.54-.81c7.46-1.09,13.48,4.1,13.48,11.5v6.31a.14.14,0,0,0-.12.14v.12A8.08,8.08,0,0,1,322,69l-5.9,2.2a2.28,2.28,0,0,1-3-1.5,3,3,0,0,1,1.56-3A3.15,3.15,0,0,0,316.3,64V56.44a2.15,2.15,0,0,0-2.53-2.18l-5.54.81v.12a3.06,3.06,0,0,0-2.53,2.92v58.13a2.22,2.22,0,0,0,2.53,2.18l5.54-.81a3.06,3.06,0,0,0,2.53-2.92V100c-.24-2-1.69-2.18-1.69-2.18a2.3,2.3,0,0,1-1.56-2.68,2.92,2.92,0,0,1,3-2.26l5.9.47s4.93.13,5.18,6l.12,7.38v6.31a16.16,16.16,0,0,1-13.48,15.44Z"/><path class="cls-3" d="M362.64,36.19l.36-.05a2,2,0,0,1,2.41,2.07v9.47A2.9,2.9,0,0,1,363,50.46a2,2,0,0,1-2.41-1.71s-.12-1.2-2-.91L350,49.09V73.84l8.55-1.25a2.1,2.1,0,0,1,2.53,2.18v6.07a2.94,2.94,0,0,1-2.53,2.8L350,84.88v27.3l8.55-1.25c1.93-.28,2-1.51,2-1.51A2.84,2.84,0,0,1,363,107a2,2,0,0,1,2.41,2.08v9.47a2.9,2.9,0,0,1-2.41,2.78l-.36.05L348,123.53l-.36.05L338.23,125a2,2,0,0,1-2.41-2.07,2.84,2.84,0,0,1,2-2.73s1.2-.3,1.2-2.24V86.12l-.24,0a3.48,3.48,0,0,0-2.53,2.19,2.79,2.79,0,0,1-2.77,1.86,2.12,2.12,0,0,1-1.93-2.63l1.32-6.5A8.26,8.26,0,0,1,339.06,75V46.56c0-1.94-1.2-1.76-1.2-1.76a2.09,2.09,0,0,1-2-2.25,2.9,2.9,0,0,1,2.41-2.78Z"/><path class="cls-3" d="M413.09,107.34c.12,1.68,1.32,1.63,1.32,1.63a2,2,0,0,1,2,2.13,2.94,2.94,0,0,1-2.53,2.8l-11.31,1.65a2.07,2.07,0,0,1-2.41-1.47l-.12.14L387,70.74l-1.33-7.09v47.69C385.77,113,387,113,387,113a2,2,0,0,1,2,2.13,3,3,0,0,1-2.53,2.8l-12.64,1.85a2,2,0,0,1-2.41-2.07,2.84,2.84,0,0,1,2-2.73s1.2-.3,1.2-2.24l0-71.6c-.12-1.68-1.2-1.52-1.2-1.52a2.09,2.09,0,0,1-2-2.25,2.9,2.9,0,0,1,2.41-2.78l11.31-1.65a2.07,2.07,0,0,1,2.29,1.36l13.49,45.6,1.21,7,0-74.21a8.35,8.35,0,0,1,5.29-7.57l6-2.21a2.12,2.12,0,0,1,2.89,1.52,2.78,2.78,0,0,1-1.44,3,3.48,3.48,0,0,0-1.8,2.81V25a.1.1,0,0,0,.12.1V61.57l-.12,0Z"/><path class="cls-3" d="M459.29,22.07l.36-.05a2,2,0,0,1,2.41,2.07v9.47a2.9,2.9,0,0,1-2.41,2.78,2.06,2.06,0,0,1-2.41-1.71s0-1.21-2-.91L446.3,35l0,67.47c0,1.7,1.2,1.64,1.2,1.64a1.93,1.93,0,0,1,2,2.13,2.9,2.9,0,0,1-2.41,2.78l-12.64,1.85a2.07,2.07,0,0,1-2.53-2.06,3,3,0,0,1,2-2.73s1.32-.31,1.32-2.26l0-67.23-8.91,1.3-.12,0c-1.93.28-2,1.51-2,1.51a2.85,2.85,0,0,1-2.41,2.41,2,2,0,0,1-2.41-2.07V30.32a2.9,2.9,0,0,1,2.41-2.78l.48-.07,11.79-1.72.36-.05,12.64-1.85.36-.05Z"/><path class="cls-3" d="M125.89,249a2,2,0,0,1-2.41-2.07,2.84,2.84,0,0,1,2-2.73s1.2-.3,1.2-2.24l0-71.6c-.12-1.68-1.2-1.52-1.2-1.52a2.1,2.1,0,0,1-2-2.25,2.9,2.9,0,0,1,2.41-2.78l11.31-1.65a2.06,2.06,0,0,1,2.41,1.71l11,34.44,11.18-38a3,3,0,0,1,2.29-2l11.43-1.67a2,2,0,0,1,2.41,2.07,3,3,0,0,1-2,2.85s-1.2.18-1.2,2.12l0,71.6c.12,1.68,1.2,1.64,1.2,1.64a1.93,1.93,0,0,1,2,2.13,2.9,2.9,0,0,1-2.41,2.78l-12.64,1.85a2,2,0,0,1-2.41-2.07,2.84,2.84,0,0,1,2-2.73s1.2-.3,1.2-2.24V188.84l-8.9,29.33a5.39,5.39,0,0,1-4.21,3.65,3.57,3.57,0,0,1-4-2.09l-8.91-26.61v47.45c.12,1.68,1.32,1.63,1.32,1.63a2,2,0,0,1,2,2.13,3,3,0,0,1-2.53,2.8Z"/><path class="cls-3" d="M201.83,201.83l5.78-.84-2.89-14.5ZM183.3,240.58a2,2,0,0,1-2.41-2.07,2.84,2.84,0,0,1,2-2.73,3.63,3.63,0,0,0,1.93-1.62L198.57,161c.6-2.27-1.2-2.74-1.2-2.74a2.18,2.18,0,0,1-2-2.25,2.93,2.93,0,0,1,2.53-2.8l9.51-1.39a2.07,2.07,0,0,1,2.53,2.06l14.46,73.73a2.35,2.35,0,0,0,2.17,1.75,2,2,0,0,1,2,2.13,2.9,2.9,0,0,1-2.41,2.78l-9.63,1.41a2.06,2.06,0,0,1-2.41-1.71l-4.34-22.18-10,1.46-4.45,23.47V237a3,3,0,0,1-2.41,2.17Z"/><path class="cls-3" d="M234,233.17a2,2,0,0,1-2.41-2.07,2.84,2.84,0,0,1,2-2.73s1.2-.3,1.2-2.24l0-71.6c-.12-1.68-1.2-1.52-1.2-1.52a2.1,2.1,0,0,1-2-2.25A2.9,2.9,0,0,1,234,148l12.64-1.85a2.13,2.13,0,0,1,2.53,2.06,3.14,3.14,0,0,1-2,2.85s-1.33.19-1.32,2.13v23.91L258,151c.12-1.11-.36-1.52-1.32-1.38a2.1,2.1,0,0,1-2-2.25,2.9,2.9,0,0,1,2.41-2.78L272,142.43a2,2,0,0,1,2.41,2.07,2.93,2.93,0,0,1-2.41,2.9s-1,.14-1.81,1.84c0,.12-.12.26-.24.4l-14.8,29.83,21.8,55.19v.12c.6,2.34,2.41,2.2,2.41,2.2a2.07,2.07,0,0,1,2,2.13,2.93,2.93,0,0,1-2.53,2.8l-6.62,1a5.65,5.65,0,0,1-6-3.37l-.12-.1a.4.4,0,0,0-.12-.35L248,193.62l-2.29,4.58v26.58c.12,1.68,1.33,1.63,1.33,1.63a2,2,0,0,1,2,2.13,3,3,0,0,1-2.53,2.8Z"/><path class="cls-3" d="M306.41,137.39l.36-.05a2,2,0,0,1,2.41,2.07v9.47a2.9,2.9,0,0,1-2.41,2.78,2,2,0,0,1-2.41-1.71s-.12-1.2-2-.91l-8.55,1.25V175l8.55-1.25a2.1,2.1,0,0,1,2.53,2.18V182a2.94,2.94,0,0,1-2.53,2.8l-8.55,1.25v27.3l8.55-1.25c1.93-.28,2-1.51,2-1.51a2.84,2.84,0,0,1,2.41-2.42,2,2,0,0,1,2.41,2.08v9.47a2.9,2.9,0,0,1-2.41,2.78l-.36.05-14.68,2.15-.36.05L282,226.15a2,2,0,0,1-2.41-2.07,2.85,2.85,0,0,1,2-2.73s1.2-.3,1.2-2.24v-31.8l-.24,0a3.48,3.48,0,0,0-2.53,2.19,2.79,2.79,0,0,1-2.77,1.86,2.12,2.12,0,0,1-1.93-2.63l1.32-6.5a8.26,8.26,0,0,1,6.14-6.12v-28.4c0-1.94-1.2-1.76-1.2-1.76a2.09,2.09,0,0,1-2-2.25A2.9,2.9,0,0,1,282,141Z"/><path class="cls-3" d="M344.09,145.48a2.1,2.1,0,0,0-2.53-2.18l-12.16,1.78v28.4L342,171.62a3,3,0,0,0,2-2.73Zm12.42,78.4a2.55,2.55,0,0,0,2.29,1.73,2.15,2.15,0,0,1,2,2.13,2.93,2.93,0,0,1-2.53,2.8l-6.38.93a5.64,5.64,0,0,1-6.5-4.51c-.12-.35-.12-.71-.24-1.06l-8.68-42.42-7.1,1v28c.12,1.68,1.33,1.63,1.33,1.63a2,2,0,0,1,2,2.13,3,3,0,0,1-2.53,2.8l-12.64,1.85a2,2,0,0,1-2.41-2.07,2.85,2.85,0,0,1,2-2.73s1.2-.3,1.2-2.24l0-71.36c0-1.94-1.2-1.76-1.2-1.76a2.09,2.09,0,0,1-2-2.25,2.9,2.9,0,0,1,2.41-2.78l24.07-3.52a11.41,11.41,0,0,1,13.24,11.66v23.42a16.33,16.33,0,0,1-7.46,13.23Z"/><path class="cls-3" d="M381.15,126.47A11.35,11.35,0,0,1,394.52,138v6.31a2,2,0,0,1-1.2,1.75l-7,4.3a2.54,2.54,0,0,1-1,.38,1.4,1.4,0,0,1-1.69-1.45v-9.71a2.15,2.15,0,0,0-2.53-2.18l-5.54.81v.12a3,3,0,0,0-2.53,2.92v14.08c0,3.64,21.43,15.07,21.43,20.41v20.39a16.16,16.16,0,0,1-13.36,15.54l-5.54.81a11.3,11.3,0,0,1-13.36-11.52V189.66a2.27,2.27,0,0,0-1.81-2l.12,0A2.17,2.17,0,0,1,359,185a2.91,2.91,0,0,1,2.89-2.24l6,.45s4.81.15,5.18,5.8v10.31a2.15,2.15,0,0,0,2.53,2.18l5.54-.81v-.12a3,3,0,0,0,2.53-2.92V181.07c0-3.64-21.43-14.71-21.43-20.41V142.82a16.06,16.06,0,0,1,13.36-15.55Z"/><path class="cls-4" d="M2.43,170.79A2,2,0,0,1,0,168.72a2.84,2.84,0,0,1,2-2.73s1.2-.3,1.2-2.24l0-71.6C3.13,90.47,2,90.63,2,90.63a2.1,2.1,0,0,1-2-2.25A2.9,2.9,0,0,1,2.41,85.6l11.31-1.65a2.06,2.06,0,0,1,2.41,1.71l11,34.44,11.18-38a3,3,0,0,1,2.29-2L52,78.35a2,2,0,0,1,2.41,2.07,3,3,0,0,1-2,2.85s-1.2.18-1.2,2.12l0,71.6c.12,1.68,1.2,1.64,1.2,1.64a1.93,1.93,0,0,1,2,2.13A2.9,2.9,0,0,1,52,163.54l-12.64,1.85A2,2,0,0,1,37,163.31a2.84,2.84,0,0,1,2-2.73s1.2-.3,1.2-2.24V110.66L31.31,140a5.39,5.39,0,0,1-4.21,3.65,3.57,3.57,0,0,1-4-2.09l-8.91-26.61v47.45c.12,1.68,1.32,1.63,1.32,1.63a2,2,0,0,1,2,2.13,3,3,0,0,1-2.53,2.8Z"/><path class="cls-4" d="M82.34,123.07l6.14-.9L85.34,107Zm26.49,40.54a2.35,2.35,0,0,0,2.17,1.75,2,2,0,0,1,2,2.13,2.9,2.9,0,0,1-2.41,2.78l-6.38.93a5.78,5.78,0,0,1-6.5-4.63,2.59,2.59,0,0,1-.24-.94L90.77,133,80.3,134.53,75.85,158v.24a3,3,0,0,1-2.41,2.17l-9.63,1.41a2,2,0,0,1-2.41-2.07,2.84,2.84,0,0,1,2-2.73,3.61,3.61,0,0,0,1.93-1.62L69,136.06l-6.5,1c-5.9.62-6.74-4.23-6.74-4.23l-1.33-6.12a2.93,2.93,0,0,1,1.92-3.19,2.18,2.18,0,0,1,2.77,1.05A2.33,2.33,0,0,0,61.52,126l9.63-1.41L79.2,82.14c.48-2.25-1.32-2.6-1.32-2.6a2.18,2.18,0,0,1-2-2.25,2.94,2.94,0,0,1,2.53-2.8l9.51-1.39a2.07,2.07,0,0,1,2.53,2.06Z"/><path class="cls-4" d="M144.51,100.51a3.15,3.15,0,0,0,2.41-2.05,2.65,2.65,0,0,1,2.77-1.86,2.12,2.12,0,0,1,1.93,2.63l-1.32,6.5a8.15,8.15,0,0,1-6.26,6.13v24.75a16.16,16.16,0,0,1-13.48,15.44l-5.54.81a11.35,11.35,0,0,1-13.36-11.52V83.22A16.16,16.16,0,0,1,125,67.68l5.54-.81C138,65.78,144,71,144,78.37v6.31a2.22,2.22,0,0,1-1.2,1.75l-7.1,4.31a2,2,0,0,1-.84.37,1.48,1.48,0,0,1-1.81-1.43V80a2.15,2.15,0,0,0-2.53-2.18L125,78.6v.12a3.06,3.06,0,0,0-2.53,2.92v58.13a2.21,2.21,0,0,0,2.53,2.18l5.54-.81a3.06,3.06,0,0,0,2.53-2.92V113.46l-.48.07a3.41,3.41,0,0,0-2.41,2.17,2.79,2.79,0,0,1-2.77,1.86,2.12,2.12,0,0,1-1.93-2.63l1.32-6.5a8.51,8.51,0,0,1,6.74-6.33Z"/><path class="cls-4" d="M196.28,135.78c.12,1.68,1.32,1.63,1.32,1.63a2,2,0,0,1,2,2.13,2.93,2.93,0,0,1-2.53,2.8L185.81,144a2.07,2.07,0,0,1-2.41-1.47l-.12.14L170.15,99.19l-1.33-7.09v47.69c.12,1.68,1.33,1.63,1.33,1.63a2,2,0,0,1,2,2.13,3,3,0,0,1-2.53,2.8L157,148.19a2,2,0,0,1-2.41-2.07,2.84,2.84,0,0,1,2-2.73s1.2-.3,1.2-2.24l0-71.6c-.12-1.68-1.2-1.52-1.2-1.52a2.09,2.09,0,0,1-2-2.25A2.9,2.9,0,0,1,157,63l11.31-1.65a2.07,2.07,0,0,1,2.29,1.36l13.49,45.6,1.21,7,0-63.59a8.35,8.35,0,0,1,5.29-7.57l6-2.21a2.12,2.12,0,0,1,2.89,1.52,2.78,2.78,0,0,1-1.44,3,3.47,3.47,0,0,0-1.8,2.81v14.8a.1.1,0,0,0,.12.1V90l-.12,0Z"/><path class="cls-4" d="M208.79,140.62a2,2,0,0,1-2.41-2.07,2.84,2.84,0,0,1,2-2.73s1.2-.3,1.2-2.24l0-71.6c-.12-1.68-1.2-1.52-1.2-1.52a2.1,2.1,0,0,1-2-2.25,2.9,2.9,0,0,1,2.41-2.78l12.64-1.85a2.13,2.13,0,0,1,2.53,2.06,3.14,3.14,0,0,1-2,2.85s-1.32.19-1.32,2.13l0,71.6c.12,1.68,1.32,1.63,1.32,1.63a2,2,0,0,1,2,2.13,3,3,0,0,1-2.53,2.8Z"/><path class="cls-4" d="M259.59,48,260,48A2.07,2.07,0,0,1,262.48,50v9.47a2.93,2.93,0,0,1-2.53,2.8,2.06,2.06,0,0,1-2.41-1.71s0-1.21-1.93-.93l-.12,0-8.43,1.23V85.63l8.55-1.25a2.07,2.07,0,0,1,2.41,2.2v6.07a2.9,2.9,0,0,1-2.41,2.78l-8.55,1.25v31.67c.12,1.68,1.2,1.64,1.2,1.64a1.93,1.93,0,0,1,2,2.13,2.9,2.9,0,0,1-2.41,2.78l-12.64,1.85a2.07,2.07,0,0,1-2.53-2.06,3,3,0,0,1,2-2.73s1.32-.31,1.32-2.26V97.91l-.24,0a3.48,3.48,0,0,0-2.53,2.19A2.79,2.79,0,0,1,230.6,102a2.12,2.12,0,0,1-1.93-2.63l1.32-6.5a8.26,8.26,0,0,1,6.14-6.12V58.35c0-1.94-1.32-1.75-1.32-1.75a2.18,2.18,0,0,1-2-2.25,2.93,2.93,0,0,1,2.53-2.8Z"/><path class="cls-4" d="M270.93,131.54a2,2,0,0,1-2.41-2.07,2.84,2.84,0,0,1,2-2.73s1.2-.3,1.2-2.24l0-71.6c-.12-1.68-1.2-1.52-1.2-1.52a2.1,2.1,0,0,1-2-2.25,2.9,2.9,0,0,1,2.41-2.78l12.64-1.85a2.13,2.13,0,0,1,2.53,2.06,3.14,3.14,0,0,1-2,2.85s-1.32.19-1.32,2.13l0,71.6c.12,1.68,1.32,1.63,1.32,1.63a2,2,0,0,1,2,2.13,3,3,0,0,1-2.53,2.8Z"/><path class="cls-4" d="M304.58,126.62a11.36,11.36,0,0,1-13.36-11.52V57a16.16,16.16,0,0,1,13.36-15.54l5.54-.81c7.46-1.09,13.48,4.1,13.48,11.5v6.31a.14.14,0,0,0-.12.14v.12a8.08,8.08,0,0,1-5.17,7.55l-5.9,2.2a2.28,2.28,0,0,1-3-1.5,3,3,0,0,1,1.56-3,3.15,3.15,0,0,0,1.69-2.67V53.72a2.15,2.15,0,0,0-2.53-2.18l-5.54.81v.12A3.06,3.06,0,0,0,302,55.39v58.13a2.22,2.22,0,0,0,2.53,2.18l5.54-.81a3.06,3.06,0,0,0,2.53-2.92V97.29c-.24-2-1.69-2.18-1.69-2.18a2.3,2.3,0,0,1-1.56-2.68,2.92,2.92,0,0,1,3-2.26l5.9.47s4.93.13,5.18,6l.12,7.38v6.31a16.16,16.16,0,0,1-13.48,15.44Z"/><path class="cls-4" d="M359,33.48l.36-.05a2,2,0,0,1,2.41,2.07V45a2.9,2.9,0,0,1-2.41,2.78A2,2,0,0,1,356.93,46s-.12-1.2-2-.91l-8.55,1.25V71.12l8.55-1.25a2.1,2.1,0,0,1,2.53,2.18v6.07a2.94,2.94,0,0,1-2.53,2.8l-8.55,1.25v27.3l8.55-1.25c1.93-.28,2-1.51,2-1.51a2.84,2.84,0,0,1,2.41-2.42,2,2,0,0,1,2.41,2.08v9.47a2.9,2.9,0,0,1-2.41,2.78l-.36.05-14.68,2.15-.36.05-9.39,1.37a2,2,0,0,1-2.41-2.07,2.84,2.84,0,0,1,2-2.73s1.2-.3,1.2-2.24V83.4l-.24,0a3.48,3.48,0,0,0-2.53,2.19,2.79,2.79,0,0,1-2.77,1.86,2.12,2.12,0,0,1-1.93-2.63l1.32-6.5a8.26,8.26,0,0,1,6.14-6.12V43.84c0-1.94-1.2-1.76-1.2-1.76a2.09,2.09,0,0,1-2-2.25A2.9,2.9,0,0,1,334.54,37Z"/><path class="cls-4" d="M409.43,104.62c.12,1.68,1.32,1.63,1.32,1.63a2,2,0,0,1,2,2.13,2.94,2.94,0,0,1-2.53,2.8L399,112.82a2.07,2.07,0,0,1-2.41-1.47l-.12.14L383.3,68,382,60.94v47.69c.12,1.68,1.32,1.63,1.32,1.63a2,2,0,0,1,2,2.13,3,3,0,0,1-2.53,2.8L370.19,117a2,2,0,0,1-2.41-2.07,2.84,2.84,0,0,1,2-2.73s1.2-.3,1.2-2.24l0-71.6c-.12-1.68-1.2-1.52-1.2-1.52a2.09,2.09,0,0,1-2-2.25,2.9,2.9,0,0,1,2.41-2.78l11.31-1.65a2.07,2.07,0,0,1,2.29,1.36l13.49,45.6,1.21,7,0-74.21a8.35,8.35,0,0,1,5.29-7.57l6-2.21a2.12,2.12,0,0,1,2.89,1.52,2.78,2.78,0,0,1-1.44,3,3.48,3.48,0,0,0-1.8,2.81v14.8a.1.1,0,0,0,.12.1V58.85l-.12,0Z"/><path class="cls-4" d="M455.62,19.35l.36-.05a2,2,0,0,1,2.41,2.07v9.47A2.9,2.9,0,0,1,456,33.61a2.06,2.06,0,0,1-2.41-1.71s0-1.21-2-.91l-8.91,1.3,0,67.47c0,1.7,1.2,1.64,1.2,1.64a1.93,1.93,0,0,1,2,2.13,2.9,2.9,0,0,1-2.41,2.78l-12.64,1.85a2.07,2.07,0,0,1-2.53-2.06,3,3,0,0,1,2-2.73s1.32-.31,1.32-2.26l0-67.23-8.91,1.3-.12,0c-1.93.28-2,1.51-2,1.51a2.85,2.85,0,0,1-2.41,2.41,2,2,0,0,1-2.41-2.07V27.6a2.9,2.9,0,0,1,2.41-2.78l.48-.07L430.47,23l.36-.05,12.64-1.85.36-.05Z"/><path class="cls-4" d="M122.22,246.26a2,2,0,0,1-2.41-2.07,2.84,2.84,0,0,1,2-2.73s1.2-.3,1.2-2.24l0-71.6c-.12-1.68-1.2-1.52-1.2-1.52a2.09,2.09,0,0,1-2-2.25,2.9,2.9,0,0,1,2.41-2.78l11.31-1.65a2.06,2.06,0,0,1,2.41,1.71l11,34.44,11.18-38a3,3,0,0,1,2.29-2l11.43-1.67a2,2,0,0,1,2.41,2.07,3,3,0,0,1-2,2.85s-1.2.18-1.2,2.12l0,71.6c.12,1.68,1.2,1.64,1.2,1.64a1.93,1.93,0,0,1,2,2.13,2.9,2.9,0,0,1-2.41,2.78l-12.64,1.85a2,2,0,0,1-2.41-2.07,2.84,2.84,0,0,1,2-2.73s1.2-.3,1.2-2.24V186.12l-8.9,29.33a5.39,5.39,0,0,1-4.21,3.65,3.57,3.57,0,0,1-4-2.09L134,190.41v47.45c.12,1.68,1.32,1.63,1.32,1.63a2,2,0,0,1,2,2.13,3,3,0,0,1-2.53,2.8Z"/><path class="cls-4" d="M198.16,199.11l5.78-.84L201,183.76Zm-18.53,38.75a2,2,0,0,1-2.41-2.07,2.84,2.84,0,0,1,2-2.73,3.63,3.63,0,0,0,1.93-1.62l13.7-73.12c.6-2.27-1.2-2.74-1.2-2.74a2.18,2.18,0,0,1-2-2.25,2.93,2.93,0,0,1,2.53-2.8l9.51-1.39a2.07,2.07,0,0,1,2.53,2.06l14.46,73.73a2.35,2.35,0,0,0,2.17,1.75,2,2,0,0,1,2,2.13,2.9,2.9,0,0,1-2.41,2.78L212.85,233a2.06,2.06,0,0,1-2.41-1.71l-4.34-22.18-10,1.46L191.67,234v.24a3,3,0,0,1-2.41,2.17Z"/><path class="cls-4" d="M230.31,230.46a2,2,0,0,1-2.41-2.07,2.84,2.84,0,0,1,2-2.73s1.2-.3,1.2-2.24l0-71.6c-.12-1.68-1.2-1.52-1.2-1.52a2.09,2.09,0,0,1-2-2.25,2.9,2.9,0,0,1,2.41-2.78l12.64-1.85a2.13,2.13,0,0,1,2.53,2.06,3.14,3.14,0,0,1-2,2.85s-1.33.19-1.32,2.13v23.91l12.27-26.07c.12-1.11-.36-1.52-1.32-1.38a2.1,2.1,0,0,1-2-2.25,2.9,2.9,0,0,1,2.41-2.78l14.93-2.18a2,2,0,0,1,2.41,2.07,2.93,2.93,0,0,1-2.41,2.9s-1,.14-1.81,1.84c0,.12-.12.26-.24.4l-14.8,29.83,21.8,55.19v.12c.6,2.34,2.41,2.2,2.41,2.2a2.07,2.07,0,0,1,2,2.13,2.93,2.93,0,0,1-2.53,2.8l-6.62,1a5.65,5.65,0,0,1-6-3.37l-.12-.1a.4.4,0,0,0-.12-.35L244.38,190.9l-2.29,4.58v26.58c.12,1.68,1.33,1.63,1.33,1.63a2,2,0,0,1,2,2.13,3,3,0,0,1-2.53,2.8Z"/><path class="cls-4" d="M302.74,134.67l.36-.05a2,2,0,0,1,2.41,2.07v9.47a2.9,2.9,0,0,1-2.41,2.78,2,2,0,0,1-2.41-1.71s-.12-1.2-2-.91l-8.55,1.25v24.76l8.55-1.25a2.1,2.1,0,0,1,2.53,2.18v6.07a2.94,2.94,0,0,1-2.53,2.8l-8.55,1.25v27.3l8.55-1.25c1.93-.28,2-1.51,2-1.51a2.84,2.84,0,0,1,2.41-2.42,2,2,0,0,1,2.41,2.08V217a2.9,2.9,0,0,1-2.41,2.78l-.36.05L288.08,222l-.36.05-9.39,1.37a2,2,0,0,1-2.41-2.07,2.85,2.85,0,0,1,2-2.73s1.2-.3,1.2-2.24V184.6l-.24,0a3.48,3.48,0,0,0-2.53,2.19,2.79,2.79,0,0,1-2.77,1.86,2.12,2.12,0,0,1-1.93-2.63l1.32-6.5a8.26,8.26,0,0,1,6.14-6.12V145c0-1.94-1.2-1.76-1.2-1.76a2.09,2.09,0,0,1-2-2.25,2.9,2.9,0,0,1,2.41-2.78Z"/><path class="cls-4" d="M340.42,142.76a2.1,2.1,0,0,0-2.53-2.18l-12.16,1.78v28.4l12.64-1.85a3,3,0,0,0,2-2.73Zm12.42,78.4a2.55,2.55,0,0,0,2.29,1.73,2.15,2.15,0,0,1,2,2.13,2.93,2.93,0,0,1-2.53,2.8l-6.38.93a5.64,5.64,0,0,1-6.5-4.51c-.12-.35-.12-.71-.24-1.06l-8.68-42.42-7.1,1v28c.12,1.68,1.33,1.63,1.33,1.63a2,2,0,0,1,2,2.13,3,3,0,0,1-2.53,2.8L314,218.23a2,2,0,0,1-2.41-2.07,2.85,2.85,0,0,1,2-2.73s1.2-.3,1.2-2.24l0-71.36c0-1.94-1.2-1.76-1.2-1.76a2.09,2.09,0,0,1-2-2.25,2.9,2.9,0,0,1,2.41-2.78L338,129.52a11.41,11.41,0,0,1,13.24,11.66v23.42a16.33,16.33,0,0,1-7.46,13.23Z"/><path class="cls-4" d="M377.49,123.75a11.35,11.35,0,0,1,13.36,11.52v6.31a2,2,0,0,1-1.2,1.75l-7,4.3a2.54,2.54,0,0,1-1,.38,1.4,1.4,0,0,1-1.69-1.45v-9.71a2.15,2.15,0,0,0-2.53-2.18l-5.54.81v.12a3,3,0,0,0-2.53,2.92v14.08c0,3.64,21.43,15.07,21.43,20.41v20.39a16.16,16.16,0,0,1-13.36,15.54l-5.54.81a11.3,11.3,0,0,1-13.36-11.52V186.94a2.27,2.27,0,0,0-1.81-2l.12,0a2.17,2.17,0,0,1-1.57-2.56,2.91,2.91,0,0,1,2.89-2.24l6,.45s4.81.15,5.18,5.8v10.31a2.15,2.15,0,0,0,2.53,2.18l5.54-.81v-.12A3,3,0,0,0,380,195V178.35c0-3.64-21.43-14.71-21.43-20.41V140.1a16.06,16.06,0,0,1,13.36-15.55Z"/></g><g class="cls-5"><path class="cls-6" d="M515.46,250c2.15,0,3.66-1.11,3.66-3.09v0c0-1.74-1.14-2.46-3.16-3-1.72-.44-2.15-.65-2.15-1.31v0c0-.48.44-.87,1.28-.87a4.67,4.67,0,0,1,2.59,1l1.14-1.65a5.77,5.77,0,0,0-3.7-1.27c-2,0-3.49,1.19-3.49,3v0c0,2,1.3,2.53,3.3,3,1.66.43,2,.71,2,1.27v0c0,.58-.54.94-1.44.94a4.57,4.57,0,0,1-3-1.21l-1.3,1.55a6.34,6.34,0,0,0,4.23,1.59m-16.77-.14h2.16v-6.33l4.83,6.33h1.86v-10h-2.16v6.14l-4.67-6.14h-2ZM489.54,248a3,3,0,0,1-3-3.13v0a3,3,0,0,1,3-3.1,3,3,0,0,1,3,3.13v0a3,3,0,0,1-3,3.1m0,2a5.15,5.15,0,0,0,5.31-5.15v0a5.3,5.3,0,0,0-10.59,0v0a5.1,5.1,0,0,0,5.28,5.12m-11.38-.17h2.19v-10h-2.19Zm-8.7,0h2.19V242h3v-2H466.4v2h3Zm-11-4.17,1.32-3.23,1.32,3.23Zm-3.93,4.17h2.23l.91-2.23h4.21l.91,2.23H465l-4.27-10h-2Zm-10.75,0h7.59v-2h-5.41v-2.09h4.7V243.9h-4.7v-2h5.34v-2h-7.52Zm-10.09-5.12v-2.86h2.18c1.07,0,1.72.48,1.72,1.42v0c0,.84-.61,1.41-1.68,1.41Zm-2.19,5.12h2.19v-3.19h1.72l2.14,3.19H440l-2.43-3.56a3.09,3.09,0,0,0,2.14-3.09v0a3.13,3.13,0,0,0-.85-2.28,4,4,0,0,0-2.9-1h-4.56Zm-7.63.17a5.1,5.1,0,0,0,4.09-1.78l-1.39-1.41a3.6,3.6,0,0,1-2.62,1.17,3,3,0,0,1-2.89-3.13v0a3,3,0,0,1,2.89-3.1,3.68,3.68,0,0,1,2.55,1.12l1.39-1.61a5.14,5.14,0,0,0-3.93-1.54,5.06,5.06,0,0,0-5.2,5.15v0a5,5,0,0,0,5.11,5.12"/><path class="cls-6" d="M504.39,231.83c2.15,0,3.66-1.11,3.66-3.09v0c0-1.74-1.14-2.46-3.16-3-1.72-.44-2.15-.65-2.15-1.31v0c0-.48.44-.87,1.28-.87a4.67,4.67,0,0,1,2.59,1l1.14-1.65a5.77,5.77,0,0,0-3.7-1.27c-2,0-3.49,1.19-3.49,3v0c0,2,1.3,2.53,3.3,3,1.66.43,2,.71,2,1.27v0c0,.58-.54.94-1.44.94a4.57,4.57,0,0,1-3-1.21l-1.3,1.55a6.34,6.34,0,0,0,4.23,1.59m-12.06,0c2.68,0,4.37-1.48,4.37-4.5v-5.62h-2.19v5.71c0,1.58-.81,2.39-2.15,2.39s-2.15-.84-2.15-2.46v-5.64H488v5.69c0,2.93,1.64,4.43,4.31,4.43m-13.33-2a3,3,0,0,1-3-3.13v0a3,3,0,0,1,3-3.1,3,3,0,0,1,3,3.13v0a3,3,0,0,1-3,3.1m0,2a5.15,5.15,0,0,0,5.31-5.15v0a5.3,5.3,0,0,0-10.59,0v0a5.11,5.11,0,0,0,5.28,5.12m-11.38-.17h2.19v-10H467.6Zm-10.13-5.12V223.7h2.18c1.07,0,1.72.48,1.72,1.42v0c0,.84-.61,1.41-1.68,1.41Zm-2.19,5.12h2.19v-3.19h1.72l2.13,3.19h2.56l-2.43-3.56a3.09,3.09,0,0,0,2.14-3.09v0a3.13,3.13,0,0,0-.85-2.28,4,4,0,0,0-2.9-1h-4.56Zm-8.67.16c2.68,0,4.37-1.48,4.37-4.5v-5.62h-2.19v5.71c0,1.58-.81,2.39-2.15,2.39s-2.15-.84-2.15-2.46v-5.64h-2.19v5.69c0,2.93,1.64,4.43,4.31,4.43m-11.75,0a5.1,5.1,0,0,0,4.09-1.78l-1.39-1.41a3.6,3.6,0,0,1-2.62,1.17A3,3,0,0,1,432,226.7v0a3,3,0,0,1,2.89-3.1,3.68,3.68,0,0,1,2.55,1.12l1.39-1.61a5.14,5.14,0,0,0-3.93-1.54,5.06,5.06,0,0,0-5.2,5.15v0a5,5,0,0,0,5.11,5.12"/><path class="cls-6" d="M516,191.25c2.15,0,3.66-1.11,3.66-3.09v0c0-1.74-1.14-2.46-3.16-3-1.72-.44-2.15-.65-2.15-1.31v0c0-.48.44-.87,1.28-.87a4.67,4.67,0,0,1,2.59,1l1.14-1.65a5.77,5.77,0,0,0-3.7-1.27c-2,0-3.49,1.2-3.49,3v0c0,2,1.3,2.53,3.3,3,1.67.43,2,.71,2,1.27v0c0,.58-.54.94-1.44.94a4.57,4.57,0,0,1-3-1.21l-1.3,1.55a6.34,6.34,0,0,0,4.23,1.59M502.47,186v-2.86h2.18c1.07,0,1.72.48,1.72,1.42v0c0,.84-.61,1.41-1.68,1.41Zm-2.19,5.12h2.19v-3.19h1.72l2.13,3.19h2.56l-2.43-3.56a3.09,3.09,0,0,0,2.14-3.09v0a3.13,3.13,0,0,0-.85-2.28,4,4,0,0,0-2.9-1h-4.56Zm-9.15-1.85a3,3,0,0,1-3-3.13v0a3,3,0,0,1,3-3.1,3,3,0,0,1,3,3.13v0a3,3,0,0,1-3,3.1m0,2a5.15,5.15,0,0,0,5.31-5.15v0a5.3,5.3,0,0,0-10.59,0v0a5.11,5.11,0,0,0,5.28,5.12m-13.29-.17H480v-7.94h3v-2h-8.26v2h3Zm-15.31,0h2.16v-6.34l4.83,6.34h1.87v-10h-2.16v6.14l-4.67-6.14h-2Zm-11.62,0h7.59v-2h-5.41v-2.09h4.7v-1.95h-4.7v-2h5.34v-1.95h-7.52Zm-9.34.07h1.94l4-10h-2.36l-2.6,7-2.61-7h-2.42Zm-16.25-.07h2.16v-6.34l4.83,6.34h1.86v-10H432v6.14l-4.67-6.14h-2Zm-6.62,0h2.19v-10h-2.19Z"/><path class="cls-6" d="M522.63,170.92v-6h1.69a2.86,2.86,0,0,1,3,3v0a2.84,2.84,0,0,1-3,3Zm-2.19,2h3.89a5,5,0,0,0,5.3-5v0a5,5,0,0,0-5.3-5h-3.89Zm-13.26,0h2.16v-6.33l4.83,6.33H516v-10h-2.16v6.13l-4.67-6.13h-2Zm-10-4.17,1.32-3.23,1.32,3.23Zm-3.93,4.17h2.23l.91-2.23h4.21l.91,2.23h2.29l-4.27-10h-2Zm-10.19,0h7.16v-2h-5v-8h-2.19Zm-7.54.14c2.15,0,3.66-1.11,3.66-3.09v0c0-1.74-1.14-2.46-3.16-3-1.72-.44-2.15-.65-2.15-1.31v0c0-.48.44-.87,1.28-.87a4.68,4.68,0,0,1,2.59,1l1.14-1.65a5.77,5.77,0,0,0-3.7-1.27c-2,0-3.49,1.2-3.49,3v0c0,2,1.3,2.53,3.3,3,1.67.43,2,.71,2,1.27v0c0,.58-.54.94-1.44.94a4.57,4.57,0,0,1-3-1.21l-1.3,1.55a6.34,6.34,0,0,0,4.23,1.59m-16.77-.14h2.16v-6.33l4.83,6.33h1.87v-10h-2.16v6.13l-4.67-6.13h-2Zm-11.62,0h7.59v-1.95h-5.41v-2.09H454v-2h-4.7v-2h5.34v-1.95h-7.52Zm-11.62,0h7.59v-1.95h-5.41v-2.09h4.7v-2h-4.7v-2H443v-1.95h-7.52Zm-8.67.16c2.68,0,4.37-1.48,4.37-4.5v-5.62H429v5.71c0,1.58-.81,2.39-2.15,2.39s-2.15-.84-2.15-2.46v-5.64h-2.19v5.69c0,2.93,1.64,4.43,4.31,4.43m-13.4-2a3,3,0,0,1-3-3.13v0a3,3,0,0,1,3-3.1,3,3,0,0,1,3,3.13v0a3.3,3.3,0,0,1-.27,1.37l-1.64-1.48-1.39,1.57,1.62,1.38a3.21,3.21,0,0,1-1.31.27m4,2.15,1.39-1.55-1-.87a5,5,0,0,0,.88-2.86v0a5.3,5.3,0,0,0-10.59,0v0a5.1,5.1,0,0,0,5.28,5.12,5.43,5.43,0,0,0,3-.85Z"/><path class="cls-6" d="M491.34,201a.34.34,0,0,1-.24.32l-1.49.2v-3.33L491,198a.25.25,0,0,1,.3.26Zm1.45,4.87s-.1,0-.17-.16l-.73-3.45a1.86,1.86,0,0,0,.73-1.44v-2.75a1.36,1.36,0,0,0-1.57-1.38l-2.85.39a.34.34,0,0,0-.28.32.25.25,0,0,0,.24.27s.14,0,.14.21v8.37c0,.23-.14.26-.14.26a.33.33,0,0,0-.24.32.24.24,0,0,0,.28.25l1.5-.2a.35.35,0,0,0,.3-.33.24.24,0,0,0-.24-.25s-.14,0-.16-.19v-3.29l1-.14.65,3.2a.23.23,0,0,1-.2.24.32.32,0,0,0-.24.32.24.24,0,0,0,.28.25l1.72-.23a.34.34,0,0,0,.28-.32.25.25,0,0,0-.28-.26Zm-6.32,1.45a.35.35,0,0,0,.3-.33.24.24,0,0,0-.24-.25s-.14,0-.16-.19v-8.4c0-.23.16-.25.16-.25a.36.36,0,0,0,.24-.33.25.25,0,0,0-.3-.24l-1.49.2a.34.34,0,0,0-.28.32.25.25,0,0,0,.24.27s.13,0,.14.18v8.4c0,.23-.14.26-.14.26a.33.33,0,0,0-.24.32.24.24,0,0,0,.28.25Zm-6.16-9.15a.34.34,0,0,0-.28.32.25.25,0,0,0,.24.27s.14,0,.14.21v8.37c0,.23-.14.26-.14.26a.33.33,0,0,0-.24.32.24.24,0,0,0,.28.25l1.11-.15h.06l1.72-.23h0a.34.34,0,0,0,.28-.32v-1.11a.24.24,0,0,0-.28-.25.35.35,0,0,0-.28.28s0,.14-.24.18l-1,.14v-3.2l1-.14A.34.34,0,0,0,483,203v-.71a.25.25,0,0,0-.28-.26l-1,.14v-2.9l1-.14c.24,0,.24.11.24.11a.25.25,0,0,0,.28.2.34.34,0,0,0,.28-.32V198a.24.24,0,0,0-.28-.25h0ZM476,204.28l1.2-.16v3.69c0,.23-.14.26-.14.26a.34.34,0,0,0-.24.32.25.25,0,0,0,.3.24l1.48-.2a.34.34,0,0,0,.3-.33.24.24,0,0,0-.24-.25s-.14,0-.14-.19v-8.4c0-.23.14-.25.14-.25a.36.36,0,0,0,.24-.33.25.25,0,0,0-.3-.24l-1.48.2a.34.34,0,0,0-.3.33.26.26,0,0,0,.24.27s.14,0,.14.18v3.42L476,203V199.6c0-.23.16-.25.16-.25a.36.36,0,0,0,.24-.33.25.25,0,0,0-.3-.24l-1.5.2a.34.34,0,0,0-.28.32.25.25,0,0,0,.24.27s.13,0,.14.18v8.4c0,.23-.14.26-.14.26a.33.33,0,0,0-.24.32.24.24,0,0,0,.28.25l1.5-.2a.35.35,0,0,0,.3-.33.24.24,0,0,0-.24-.25s-.14,0-.16-.19Zm-4.58-4.87h0l-1.5.2h0l-1.39.19h0a.35.35,0,0,0-.3.33v1.11a.25.25,0,0,0,.3.24.35.35,0,0,0,.28-.28s0-.14.23-.17h0l1.05-.14v7.89c0,.23-.14.26-.14.26a.33.33,0,0,0-.24.32.24.24,0,0,0,.28.25l1.5-.2a.34.34,0,0,0,.28-.32.23.23,0,0,0-.24-.25s-.13,0-.14-.19v-7.91l1.05-.14c.24,0,.24.11.24.11a.25.25,0,0,0,.28.2.34.34,0,0,0,.3-.33v-1.11a.25.25,0,0,0-.3-.24h0Zm-10.95,2.79a.26.26,0,0,1,.3.26v6.8a.36.36,0,0,1-.24.33l-.91.12v-7.4Zm1.58.08a1.36,1.36,0,0,0-1.57-1.38l-2.26.31a.34.34,0,0,0-.28.32.25.25,0,0,0,.24.27s.14,0,.14.21v8.37c0,.23-.14.26-.14.26a.33.33,0,0,0-.24.32.24.24,0,0,0,.28.25l2.25-.31a1.88,1.88,0,0,0,1.58-1.81Zm-8.83,9.6a.35.35,0,0,0,.3-.33.24.24,0,0,0-.24-.25s-.14,0-.16-.19v-5.59l.16.83,1.55,5.11v0a.25.25,0,0,0,.28.17l1.34-.18a.34.34,0,0,0,.3-.33.24.24,0,0,0-.24-.25s-.14,0-.16-.19v-8.4c0-.23.16-.25.16-.25a.36.36,0,0,0,.24-.33.25.25,0,0,0-.3-.24l-1.49.2a.34.34,0,0,0-.28.32.25.25,0,0,0,.24.27s.14,0,.14.18v5.84l-.14-.82-1.59-5.36a.25.25,0,0,0-.27-.16l-1.34.18a.34.34,0,0,0-.28.32.25.25,0,0,0,.24.27s.13,0,.14.18v8.4c0,.23-.14.26-.14.26a.33.33,0,0,0-.24.32.24.24,0,0,0,.28.25Zm-5.77-5.19.34,1.7-.68.09Zm-1.39,6.17a.35.35,0,0,0,.28-.25h0l.53-2.75,1.18-.16.51,2.61a.25.25,0,0,0,.28.2l1.14-.16a.34.34,0,0,0,.28-.32.24.24,0,0,0-.24-.25.28.28,0,0,1-.26-.21l-1.71-8.66a.25.25,0,0,0-.3-.24l-1.12.15a.34.34,0,0,0-.3.33.26.26,0,0,0,.24.27.24.24,0,0,1,.14.32l-1.62,8.56a.42.42,0,0,1-.23.19.33.33,0,0,0-.24.32.24.24,0,0,0,.28.25Z"/><path class="cls-6" d="M490,151.32l-.84-2.28a3.16,3.16,0,0,0-2.86-2H466l0,0H456.2a0,0,0,0,1,0,0h-5.6a1.32,1.32,0,0,1-1.06-.68,1.05,1.05,0,0,0-1.14-.55.8.8,0,0,0-.57,1.09l.84,2.28a3.16,3.16,0,0,0,2.86,2h20.24l0,0h9.78a0,0,0,0,1,0,0h5.6a1.32,1.32,0,0,1,1.06.68,1.05,1.05,0,0,0,1.14.55.8.8,0,0,0,.57-1.09"/><path class="cls-6" d="M490,265.89l-.84-2.28a3.16,3.16,0,0,0-2.86-2H466l0,0H456.2a0,0,0,0,1,0,0h-5.6a1.32,1.32,0,0,1-1.06-.68,1.05,1.05,0,0,0-1.14-.55.8.8,0,0,0-.57,1.09l.84,2.28a3.16,3.16,0,0,0,2.86,2h20.24l0,0h9.78a0,0,0,0,1,0,0h5.6a1.32,1.32,0,0,1,1.06.68,1.05,1.05,0,0,0,1.14.55.8.8,0,0,0,.57-1.09"/></g></g></g></svg>