<svg xmlns="http://www.w3.org/2000/svg" xmlns:xlink="http://www.w3.org/1999/xlink" viewBox="0 0 473.27 325.43"><defs><style>.cls-1{fill:none;}.cls-2{clip-path:url(#clip-path);}.cls-3{fill:#1d1d1b;}.cls-4{fill:#c6d333;}.cls-5{clip-path:url(#clip-path-2);}.cls-6{fill:#fff;}</style><clipPath id="clip-path"><rect class="cls-1" x="54.65" width="418.62" height="225.59"/></clipPath><clipPath id="clip-path-2"><rect class="cls-1" y="191.41" width="134.36" height="134.01"/></clipPath></defs><title>makers-title-and-subtitle</title><g id="Layer_2" data-name="Layer 2"><g id="Layer_1-2" data-name="Layer 1"><g class="cls-2"><path class="cls-3" d="M60.17,157.2A1.85,1.85,0,0,1,58,155.32a2.58,2.58,0,0,1,1.85-2.47s1.09-.27,1.09-2l0-64.87c-.11-1.52-1.09-1.38-1.09-1.38a1.9,1.9,0,0,1-1.85-2A2.63,2.63,0,0,1,60.15,80l10.25-1.5a1.87,1.87,0,0,1,2.18,1.55l9.93,31.2L92.65,76.81A2.7,2.7,0,0,1,94.72,75l10.36-1.51a1.85,1.85,0,0,1,2.18,1.88,2.71,2.71,0,0,1-1.85,2.58s-1.09.16-1.09,1.92l0,64.87c.11,1.52,1.09,1.49,1.09,1.49a1.75,1.75,0,0,1,1.85,1.93,2.63,2.63,0,0,1-2.18,2.52L93.65,152.3a1.85,1.85,0,0,1-2.18-1.88A2.58,2.58,0,0,1,93.32,148s1.09-.27,1.09-2V102.72l-8.06,26.58a4.88,4.88,0,0,1-3.81,3.31,3.24,3.24,0,0,1-3.6-1.89L70.85,106.6v43c.11,1.52,1.2,1.47,1.2,1.47A1.81,1.81,0,0,1,73.91,153a2.75,2.75,0,0,1-2.29,2.53Z"/><path class="cls-3" d="M132.57,114l5.56-.81-2.84-13.77Zm24,36.73a2.13,2.13,0,0,0,2,1.58,1.8,1.8,0,0,1,1.85,1.93,2.63,2.63,0,0,1-2.18,2.52l-5.78.84a5.24,5.24,0,0,1-5.89-4.2,2.34,2.34,0,0,1-.22-.85L140.21,123l-9.49,1.39-4,21.26v.22a2.73,2.73,0,0,1-2.18,2l-8.72,1.28a1.85,1.85,0,0,1-2.18-1.88,2.58,2.58,0,0,1,1.85-2.47,3.27,3.27,0,0,0,1.74-1.46l3.27-17.52-5.89.86c-5.34.56-6.11-3.83-6.11-3.83l-1.2-5.54a2.66,2.66,0,0,1,1.74-2.89,2,2,0,0,1,2.51,1,2.11,2.11,0,0,0,2.18,1.33l8.72-1.28,7.3-38.45c.43-2-1.2-2.35-1.2-2.35a2,2,0,0,1-1.85-2A2.66,2.66,0,0,1,129,70l8.61-1.26a1.88,1.88,0,0,1,2.29,1.86Z"/><path class="cls-3" d="M188.9,93.52a2.86,2.86,0,0,0,2.18-1.86A2.4,2.4,0,0,1,193.59,90a1.92,1.92,0,0,1,1.75,2.38l-1.2,5.89a7.38,7.38,0,0,1-5.67,5.56v22.43a14.64,14.64,0,0,1-12.21,14l-5,.73a10.29,10.29,0,0,1-12.11-10.43V77.86a14.64,14.64,0,0,1,12.1-14.08l5-.73c6.76-1,12.21,3.71,12.22,10.42v5.72a2,2,0,0,1-1.09,1.59l-6.43,3.91a1.79,1.79,0,0,1-.76.33,1.34,1.34,0,0,1-1.64-1.3v-8.8a2,2,0,0,0-2.29-2l-5,.73v.11a2.77,2.77,0,0,0-2.29,2.64v52.66a2,2,0,0,0,2.29,2l5-.73a2.77,2.77,0,0,0,2.29-2.64V105.26l-.44.06a3.09,3.09,0,0,0-2.18,2,2.53,2.53,0,0,1-2.51,1.69,1.92,1.92,0,0,1-1.75-2.38l1.2-5.89A7.71,7.71,0,0,1,179,95Z"/><path class="cls-3" d="M235.8,125.48c.11,1.52,1.2,1.47,1.2,1.47a1.81,1.81,0,0,1,1.85,1.93,2.66,2.66,0,0,1-2.29,2.53l-10.25,1.5a1.88,1.88,0,0,1-2.18-1.33l-.11.13-11.9-39.38-1.2-6.42v43.21c.11,1.52,1.2,1.47,1.2,1.47a1.81,1.81,0,0,1,1.85,1.93A2.75,2.75,0,0,1,211.7,135l-11.45,1.67a1.85,1.85,0,0,1-2.18-1.88,2.58,2.58,0,0,1,1.85-2.47s1.09-.27,1.09-2l0-64.87c-.11-1.52-1.09-1.38-1.09-1.38a1.9,1.9,0,0,1-1.85-2,2.63,2.63,0,0,1,2.18-2.52L210.48,58a1.88,1.88,0,0,1,2.07,1.24l12.22,41.31,1.09,6.33V49.31a7.56,7.56,0,0,1,4.8-6.86l5.45-2a1.92,1.92,0,0,1,2.62,1.38,2.52,2.52,0,0,1-1.31,2.72,3.15,3.15,0,0,0-1.63,2.55V60.5a.09.09,0,0,0,.11.09V84l-.11,0Z"/><path class="cls-3" d="M247.13,129.87a1.85,1.85,0,0,1-2.18-1.88,2.58,2.58,0,0,1,1.85-2.47s1.09-.27,1.09-2l0-64.87c-.11-1.52-1.09-1.38-1.09-1.38a1.9,1.9,0,0,1-1.85-2,2.63,2.63,0,0,1,2.18-2.52L258.56,51a1.93,1.93,0,0,1,2.29,1.86A2.85,2.85,0,0,1,259,55.46s-1.2.18-1.2,1.93l0,64.87c.11,1.52,1.2,1.47,1.2,1.47a1.81,1.81,0,0,1,1.85,1.93,2.75,2.75,0,0,1-2.29,2.53Z"/><path class="cls-3" d="M293.16,46l.33,0a1.88,1.88,0,0,1,2.29,1.86v8.58a2.66,2.66,0,0,1-2.29,2.53,1.87,1.87,0,0,1-2.18-1.55s0-1.1-1.74-.84l-.11,0-7.63,1.12V80l7.74-1.13a1.88,1.88,0,0,1,2.18,2v5.5a2.63,2.63,0,0,1-2.18,2.52l-7.74,1.13v28.69c.11,1.52,1.09,1.49,1.09,1.49a1.75,1.75,0,0,1,1.85,1.93,2.63,2.63,0,0,1-2.18,2.52l-11.45,1.67a1.88,1.88,0,0,1-2.29-1.86,2.7,2.7,0,0,1,1.85-2.47s1.2-.29,1.2-2V91.17l-.22,0a3.15,3.15,0,0,0-2.29,2,2.53,2.53,0,0,1-2.51,1.69,1.92,1.92,0,0,1-1.75-2.38l1.2-5.89a7.48,7.48,0,0,1,5.56-5.54V55.33c0-1.76-1.2-1.58-1.2-1.58a2,2,0,0,1-1.85-2,2.66,2.66,0,0,1,2.29-2.53Z"/><path class="cls-3" d="M303.43,121.64a1.85,1.85,0,0,1-2.18-1.88,2.58,2.58,0,0,1,1.85-2.47s1.09-.27,1.09-2l0-64.87c-.11-1.52-1.09-1.38-1.09-1.38a1.9,1.9,0,0,1-1.85-2,2.63,2.63,0,0,1,2.18-2.52l11.45-1.67a1.93,1.93,0,0,1,2.29,1.86,2.85,2.85,0,0,1-1.85,2.58s-1.2.18-1.2,1.93l0,64.87c.11,1.52,1.2,1.47,1.2,1.47a1.81,1.81,0,0,1,1.85,1.93,2.75,2.75,0,0,1-2.29,2.53Z"/><path class="cls-3" d="M333.92,117.18a10.29,10.29,0,0,1-12.11-10.43V54.08A14.64,14.64,0,0,1,333.9,40l5-.73c6.76-1,12.21,3.71,12.22,10.42V55.4a.13.13,0,0,0-.11.13v.11a7.32,7.32,0,0,1-4.69,6.84l-5.34,2a2.07,2.07,0,0,1-2.73-1.36,2.7,2.7,0,0,1,1.42-2.74A2.85,2.85,0,0,0,341.21,58V51.13a2,2,0,0,0-2.29-2l-5,.73V50a2.77,2.77,0,0,0-2.29,2.64v52.66a2,2,0,0,0,2.29,2l5-.73a2.77,2.77,0,0,0,2.29-2.64V90.6c-.22-1.84-1.53-2-1.53-2a2.08,2.08,0,0,1-1.42-2.43,2.65,2.65,0,0,1,2.73-2l5.34.43s4.47.12,4.69,5.47l.11,6.69v5.72a14.64,14.64,0,0,1-12.21,14Z"/><path class="cls-3" d="M383.2,32.79l.33,0a1.85,1.85,0,0,1,2.18,1.88V43.2a2.63,2.63,0,0,1-2.18,2.52,1.8,1.8,0,0,1-2.18-1.55s-.11-1.08-1.85-.83l-7.74,1.13V66.9l7.74-1.13a1.9,1.9,0,0,1,2.29,2v5.5a2.66,2.66,0,0,1-2.29,2.53l-7.74,1.13v24.74l7.74-1.13c1.74-.26,1.85-1.37,1.85-1.37a2.58,2.58,0,0,1,2.18-2.19,1.85,1.85,0,0,1,2.18,1.88v8.58a2.63,2.63,0,0,1-2.18,2.52l-.33,0-13.3,1.94-.33,0-8.51,1.24a1.85,1.85,0,0,1-2.18-1.88,2.58,2.58,0,0,1,1.85-2.47s1.09-.27,1.09-2V78l-.22,0a3.15,3.15,0,0,0-2.29,2,2.53,2.53,0,0,1-2.51,1.69,1.92,1.92,0,0,1-1.75-2.38l1.2-5.89a7.48,7.48,0,0,1,5.56-5.54V42.18c0-1.76-1.09-1.6-1.09-1.6a1.9,1.9,0,0,1-1.85-2A2.63,2.63,0,0,1,361.06,36Z"/><path class="cls-3" d="M428.91,97.25c.11,1.52,1.2,1.47,1.2,1.47a1.81,1.81,0,0,1,1.85,1.93,2.66,2.66,0,0,1-2.29,2.53l-10.25,1.5a1.88,1.88,0,0,1-2.18-1.33l-.11.13-11.9-39.38L404,57.67v43.21c.11,1.52,1.2,1.47,1.2,1.47a1.81,1.81,0,0,1,1.85,1.93,2.75,2.75,0,0,1-2.29,2.53l-11.45,1.67a1.85,1.85,0,0,1-2.18-1.88,2.58,2.58,0,0,1,1.85-2.47s1.09-.27,1.09-2l0-64.87C394,35.72,393,35.86,393,35.86a1.9,1.9,0,0,1-1.85-2,2.63,2.63,0,0,1,2.18-2.52l10.25-1.5A1.88,1.88,0,0,1,405.66,31l12.22,41.31L419,78.69l0-67.23a7.56,7.56,0,0,1,4.8-6.86l5.45-2A1.92,1.92,0,0,1,431.83,4a2.52,2.52,0,0,1-1.31,2.72,3.15,3.15,0,0,0-1.63,2.55V22.64a.09.09,0,0,0,.11.09v33l-.11,0Z"/><path class="cls-3" d="M470.76,20l.33,0a1.85,1.85,0,0,1,2.18,1.88V30.4a2.63,2.63,0,0,1-2.18,2.52,1.87,1.87,0,0,1-2.18-1.55s0-1.1-1.85-.83L459,31.72l0,61.13c0,1.54,1.09,1.49,1.09,1.49a1.75,1.75,0,0,1,1.85,1.93,2.63,2.63,0,0,1-2.18,2.52l-11.45,1.67A1.88,1.88,0,0,1,446,98.59a2.7,2.7,0,0,1,1.85-2.47s1.2-.29,1.2-2l0-60.91L441,34.35l-.11,0c-1.74.26-1.85,1.37-1.85,1.37a2.58,2.58,0,0,1-2.18,2.19A1.85,1.85,0,0,1,434.67,36V27.47a2.63,2.63,0,0,1,2.18-2.52l.44-.06L448,23.32l.33,0,11.45-1.67.33,0Z"/><path class="cls-3" d="M168.7,225.57a1.85,1.85,0,0,1-2.18-1.88,2.58,2.58,0,0,1,1.85-2.47s1.09-.27,1.09-2l0-64.87c-.11-1.52-1.09-1.38-1.09-1.38a1.9,1.9,0,0,1-1.85-2,2.63,2.63,0,0,1,2.18-2.52l10.25-1.5a1.87,1.87,0,0,1,2.18,1.55l9.93,31.2,10.13-34.47a2.7,2.7,0,0,1,2.07-1.84l10.36-1.51a1.85,1.85,0,0,1,2.18,1.88,2.71,2.71,0,0,1-1.85,2.58s-1.09.16-1.09,1.92l0,64.87c.11,1.52,1.09,1.49,1.09,1.49a1.75,1.75,0,0,1,1.85,1.93,2.63,2.63,0,0,1-2.18,2.52l-11.45,1.67a1.85,1.85,0,0,1-2.18-1.88,2.58,2.58,0,0,1,1.85-2.47s1.09-.27,1.09-2V171.09l-8.06,26.58a4.88,4.88,0,0,1-3.81,3.31,3.24,3.24,0,0,1-3.6-1.89L179.38,175v43c.11,1.52,1.2,1.47,1.2,1.47a1.81,1.81,0,0,1,1.85,1.93,2.75,2.75,0,0,1-2.29,2.53Z"/><path class="cls-3" d="M237.5,182.86l5.23-.77-2.62-13.14ZM220.72,218a1.85,1.85,0,0,1-2.18-1.88,2.58,2.58,0,0,1,1.85-2.47,3.28,3.28,0,0,0,1.75-1.46l12.41-66.24c.55-2.06-1.09-2.48-1.09-2.48a2,2,0,0,1-1.85-2,2.66,2.66,0,0,1,2.29-2.53l8.61-1.26a1.88,1.88,0,0,1,2.29,1.86l13.1,66.8a2.13,2.13,0,0,0,2,1.58,1.8,1.8,0,0,1,1.85,1.93,2.63,2.63,0,0,1-2.18,2.52l-8.72,1.28a1.87,1.87,0,0,1-2.18-1.55l-3.93-20.1-9.05,1.32-4,21.26v.22a2.73,2.73,0,0,1-2.18,2Z"/><path class="cls-3" d="M266.63,211.25a1.85,1.85,0,0,1-2.18-1.88,2.58,2.58,0,0,1,1.85-2.47s1.09-.27,1.09-2l0-64.87c-.11-1.52-1.09-1.38-1.09-1.38a1.9,1.9,0,0,1-1.85-2,2.63,2.63,0,0,1,2.18-2.52l11.45-1.67a1.93,1.93,0,0,1,2.29,1.86,2.85,2.85,0,0,1-1.85,2.58s-1.2.18-1.2,1.93v21.66l11.12-23.62c.11-1-.33-1.38-1.2-1.25a1.9,1.9,0,0,1-1.85-2,2.63,2.63,0,0,1,2.18-2.52l13.52-2a1.85,1.85,0,0,1,2.18,1.88,2.66,2.66,0,0,1-2.18,2.63s-.87.13-1.64,1.67c0,.11-.11.24-.22.36l-13.41,27,19.75,50v.11c.55,2.12,2.18,2,2.18,2a1.88,1.88,0,0,1,1.85,1.93,2.66,2.66,0,0,1-2.29,2.53l-6,.88a5.12,5.12,0,0,1-5.45-3.05l-.11-.09a.36.36,0,0,0-.11-.31l-16.26-41.16-2.07,4.15v24.08c.11,1.52,1.2,1.47,1.2,1.47a1.81,1.81,0,0,1,1.85,1.93,2.75,2.75,0,0,1-2.29,2.53Z"/><path class="cls-3" d="M332.25,124.48l.33,0a1.85,1.85,0,0,1,2.18,1.88v8.58a2.63,2.63,0,0,1-2.18,2.52,1.8,1.8,0,0,1-2.18-1.55s-.11-1.08-1.85-.83l-7.74,1.13v22.43l7.74-1.13a1.9,1.9,0,0,1,2.29,2v5.5a2.66,2.66,0,0,1-2.29,2.53l-7.74,1.13v24.74l7.74-1.13c1.74-.26,1.85-1.37,1.85-1.37a2.58,2.58,0,0,1,2.18-2.19,1.85,1.85,0,0,1,2.18,1.88v8.58a2.63,2.63,0,0,1-2.18,2.52l-.33,0L319,203.6l-.33,0-8.51,1.24A1.85,1.85,0,0,1,308,203a2.58,2.58,0,0,1,1.85-2.47s1.09-.27,1.09-2V169.71l-.22,0a3.16,3.16,0,0,0-2.29,2,2.53,2.53,0,0,1-2.51,1.69,1.92,1.92,0,0,1-1.75-2.38l1.2-5.89a7.48,7.48,0,0,1,5.56-5.54V133.87c0-1.76-1.09-1.6-1.09-1.6a1.9,1.9,0,0,1-1.85-2,2.63,2.63,0,0,1,2.18-2.52Z"/><path class="cls-3" d="M366.39,131.8a1.9,1.9,0,0,0-2.29-2l-11,1.61v25.73l11.45-1.67a2.68,2.68,0,0,0,1.85-2.47Zm11.25,71a2.31,2.31,0,0,0,2.07,1.57,2,2,0,0,1,1.85,1.93,2.66,2.66,0,0,1-2.29,2.53l-5.78.84a5.11,5.11,0,0,1-5.89-4.09c-.11-.31-.11-.64-.22-1l-7.86-38.43-6.43.94v25.4c.11,1.52,1.2,1.47,1.2,1.47a1.81,1.81,0,0,1,1.85,1.93,2.75,2.75,0,0,1-2.29,2.53l-11.45,1.67a1.85,1.85,0,0,1-2.18-1.88,2.58,2.58,0,0,1,1.85-2.47s1.09-.27,1.09-2l0-64.65c0-1.76-1.09-1.6-1.09-1.6a1.9,1.9,0,0,1-1.85-2,2.63,2.63,0,0,1,2.18-2.52l21.81-3.19a10.34,10.34,0,0,1,12,10.56v21.22a14.8,14.8,0,0,1-6.76,12Z"/><path class="cls-3" d="M400,114.58A10.29,10.29,0,0,1,412.07,125v5.72a1.82,1.82,0,0,1-1.09,1.59l-6.32,3.89a2.3,2.3,0,0,1-.87.35,1.27,1.27,0,0,1-1.53-1.32v-8.8a2,2,0,0,0-2.29-2l-5,.73v.11a2.68,2.68,0,0,0-2.29,2.64v12.75c0,3.3,19.41,13.66,19.42,18.49v18.47A14.64,14.64,0,0,1,400,191.76l-5,.73a10.24,10.24,0,0,1-12.11-10.43V171.83a2.06,2.06,0,0,0-1.64-1.85l.11,0a2,2,0,0,1-1.42-2.32,2.63,2.63,0,0,1,2.62-2L388,166s4.36.13,4.69,5.25v9.34a2,2,0,0,0,2.29,2l5-.73v-.11a2.68,2.68,0,0,0,2.29-2.64V164c0-3.3-19.41-13.32-19.42-18.49V129.39A14.55,14.55,0,0,1,395,115.31Z"/><path class="cls-4" d="M56.85,154.73a1.85,1.85,0,0,1-2.18-1.88,2.58,2.58,0,0,1,1.85-2.47s1.09-.27,1.09-2l0-64.87c-.11-1.52-1.09-1.38-1.09-1.38a1.9,1.9,0,0,1-1.85-2,2.63,2.63,0,0,1,2.18-2.52l10.25-1.5a1.87,1.87,0,0,1,2.18,1.55l9.93,31.2L89.33,74.34A2.7,2.7,0,0,1,91.4,72.5L101.76,71a1.85,1.85,0,0,1,2.18,1.88,2.71,2.71,0,0,1-1.85,2.58s-1.09.16-1.09,1.92l0,64.87c.11,1.52,1.09,1.49,1.09,1.49a1.75,1.75,0,0,1,1.85,1.93,2.63,2.63,0,0,1-2.18,2.52l-11.45,1.67A1.85,1.85,0,0,1,88.15,148,2.58,2.58,0,0,1,90,145.49s1.09-.27,1.09-2V100.25L83,126.83a4.88,4.88,0,0,1-3.81,3.31,3.24,3.24,0,0,1-3.6-1.89l-8.08-24.11v43c.11,1.52,1.2,1.47,1.2,1.47a1.81,1.81,0,0,1,1.85,1.93,2.75,2.75,0,0,1-2.29,2.53Z"/><path class="cls-4" d="M129.25,111.5l5.56-.81L132,96.91Zm24,36.73a2.13,2.13,0,0,0,2,1.58,1.8,1.8,0,0,1,1.85,1.93,2.63,2.63,0,0,1-2.18,2.52l-5.78.84a5.24,5.24,0,0,1-5.89-4.2,2.34,2.34,0,0,1-.22-.85l-6.11-29.56-9.49,1.39-4,21.26v.22a2.73,2.73,0,0,1-2.18,2l-8.72,1.28a1.85,1.85,0,0,1-2.18-1.88,2.58,2.58,0,0,1,1.85-2.47,3.27,3.27,0,0,0,1.74-1.46l3.27-17.52-5.89.86c-5.34.56-6.11-3.83-6.11-3.83l-1.2-5.54a2.66,2.66,0,0,1,1.74-2.89,2,2,0,0,1,2.51,1,2.11,2.11,0,0,0,2.18,1.33l8.72-1.28,7.3-38.45c.43-2-1.2-2.35-1.2-2.35a2,2,0,0,1-1.85-2,2.66,2.66,0,0,1,2.29-2.53l8.61-1.26a1.88,1.88,0,0,1,2.29,1.86Z"/><path class="cls-4" d="M185.58,91.06a2.86,2.86,0,0,0,2.18-1.86,2.4,2.4,0,0,1,2.51-1.69A1.92,1.92,0,0,1,192,89.9l-1.2,5.89a7.38,7.38,0,0,1-5.67,5.56v22.43a14.64,14.64,0,0,1-12.21,14l-5,.73a10.29,10.29,0,0,1-12.11-10.43V75.4a14.64,14.64,0,0,1,12.1-14.08l5-.73c6.76-1,12.21,3.71,12.22,10.42v5.72A2,2,0,0,1,184,78.31l-6.43,3.91a1.79,1.79,0,0,1-.76.33,1.34,1.34,0,0,1-1.64-1.3v-8.8a2,2,0,0,0-2.29-2l-5,.73v.11A2.77,2.77,0,0,0,165.62,74v52.66a2,2,0,0,0,2.29,2l5-.73a2.77,2.77,0,0,0,2.29-2.64V102.8l-.44.06a3.09,3.09,0,0,0-2.18,2,2.53,2.53,0,0,1-2.51,1.69,1.92,1.92,0,0,1-1.75-2.38l1.2-5.89a7.71,7.71,0,0,1,6.1-5.73Z"/><path class="cls-4" d="M232.48,123c.11,1.52,1.2,1.47,1.2,1.47a1.81,1.81,0,0,1,1.85,1.93,2.66,2.66,0,0,1-2.29,2.53L223,130.45a1.88,1.88,0,0,1-2.18-1.33l-.11.13L208.8,89.86l-1.2-6.42v43.21c.11,1.52,1.2,1.47,1.2,1.47a1.81,1.81,0,0,1,1.85,1.93,2.75,2.75,0,0,1-2.29,2.53l-11.45,1.67a1.85,1.85,0,0,1-2.18-1.88,2.58,2.58,0,0,1,1.85-2.47s1.09-.27,1.09-2l0-64.87c-.11-1.52-1.09-1.38-1.09-1.38a1.9,1.9,0,0,1-1.85-2,2.63,2.63,0,0,1,2.18-2.52l10.25-1.5a1.88,1.88,0,0,1,2.07,1.24l12.22,41.31,1.09,6.33V46.84a7.56,7.56,0,0,1,4.8-6.86l5.45-2a1.92,1.92,0,0,1,2.62,1.38,2.52,2.52,0,0,1-1.31,2.72,3.15,3.15,0,0,0-1.63,2.55V58a.09.09,0,0,0,.11.09V81.55l-.11,0Z"/><path class="cls-4" d="M243.81,127.4a1.85,1.85,0,0,1-2.18-1.88,2.58,2.58,0,0,1,1.85-2.47s1.09-.27,1.09-2l0-64.87c-.11-1.52-1.09-1.38-1.09-1.38a1.9,1.9,0,0,1-1.85-2,2.63,2.63,0,0,1,2.18-2.52l11.45-1.67a1.93,1.93,0,0,1,2.29,1.86A2.85,2.85,0,0,1,255.68,53s-1.2.18-1.2,1.93l0,64.87c.11,1.52,1.2,1.47,1.2,1.47a1.81,1.81,0,0,1,1.85,1.93,2.75,2.75,0,0,1-2.29,2.53Z"/><path class="cls-4" d="M289.84,43.49l.33,0a1.88,1.88,0,0,1,2.29,1.86v8.58a2.66,2.66,0,0,1-2.29,2.53A1.87,1.87,0,0,1,288,54.87s0-1.1-1.74-.84l-.11,0-7.63,1.12V77.58l7.74-1.13a1.88,1.88,0,0,1,2.18,2v5.5a2.63,2.63,0,0,1-2.18,2.52l-7.74,1.13v28.69c.11,1.52,1.09,1.49,1.09,1.49a1.75,1.75,0,0,1,1.85,1.93,2.63,2.63,0,0,1-2.18,2.52l-11.45,1.67a1.88,1.88,0,0,1-2.29-1.86,2.7,2.7,0,0,1,1.85-2.47s1.2-.29,1.2-2V88.71l-.22,0a3.15,3.15,0,0,0-2.29,2,2.53,2.53,0,0,1-2.51,1.69A1.92,1.92,0,0,1,261.82,90l1.2-5.89a7.48,7.48,0,0,1,5.56-5.54V52.87c0-1.76-1.2-1.58-1.2-1.58a2,2,0,0,1-1.85-2,2.66,2.66,0,0,1,2.29-2.53Z"/><path class="cls-4" d="M300.11,119.17a1.85,1.85,0,0,1-2.18-1.88,2.58,2.58,0,0,1,1.85-2.47s1.09-.27,1.09-2l0-64.87c-.11-1.52-1.09-1.38-1.09-1.38a1.9,1.9,0,0,1-1.85-2A2.63,2.63,0,0,1,300.09,42l11.45-1.67a1.93,1.93,0,0,1,2.29,1.86A2.85,2.85,0,0,1,312,44.76s-1.2.18-1.2,1.93l0,64.87c.11,1.52,1.2,1.47,1.2,1.47a1.81,1.81,0,0,1,1.85,1.93,2.75,2.75,0,0,1-2.29,2.53Z"/><path class="cls-4" d="M330.6,114.72a10.29,10.29,0,0,1-12.11-10.43V51.62a14.64,14.64,0,0,1,12.1-14.08l5-.73c6.76-1,12.21,3.71,12.22,10.42v5.72a.13.13,0,0,0-.11.13v.11A7.32,7.32,0,0,1,343,60l-5.34,2a2.07,2.07,0,0,1-2.73-1.36,2.7,2.7,0,0,1,1.42-2.74,2.85,2.85,0,0,0,1.53-2.42V48.67a2,2,0,0,0-2.29-2l-5,.73v.11a2.77,2.77,0,0,0-2.29,2.64v52.66a2,2,0,0,0,2.29,2l5-.73a2.77,2.77,0,0,0,2.29-2.64V88.14c-.22-1.84-1.53-2-1.53-2a2.08,2.08,0,0,1-1.42-2.43,2.65,2.65,0,0,1,2.73-2l5.34.43s4.47.12,4.69,5.47l.11,6.69V100a14.64,14.64,0,0,1-12.21,14Z"/><path class="cls-4" d="M379.87,30.33l.33,0a1.85,1.85,0,0,1,2.18,1.88v8.58a2.63,2.63,0,0,1-2.18,2.52A1.8,1.8,0,0,1,378,41.7s-.11-1.08-1.85-.83L368.43,42V64.44l7.74-1.13a1.9,1.9,0,0,1,2.29,2v5.5a2.66,2.66,0,0,1-2.29,2.53l-7.74,1.13V99.18L376.18,98c1.74-.26,1.85-1.37,1.85-1.37a2.58,2.58,0,0,1,2.18-2.19,1.85,1.85,0,0,1,2.18,1.88v8.58a2.63,2.63,0,0,1-2.18,2.52l-.33,0-13.3,1.94-.33,0-8.51,1.24a1.85,1.85,0,0,1-2.18-1.88,2.58,2.58,0,0,1,1.85-2.47s1.09-.27,1.09-2V75.56l-.22,0a3.15,3.15,0,0,0-2.29,2,2.53,2.53,0,0,1-2.51,1.69,1.92,1.92,0,0,1-1.75-2.38l1.2-5.89a7.48,7.48,0,0,1,5.56-5.54V39.72c0-1.76-1.09-1.6-1.09-1.6a1.9,1.9,0,0,1-1.85-2,2.63,2.63,0,0,1,2.18-2.52Z"/><path class="cls-4" d="M425.58,94.78c.11,1.52,1.2,1.47,1.2,1.47a1.81,1.81,0,0,1,1.85,1.93,2.66,2.66,0,0,1-2.29,2.53l-10.25,1.5a1.88,1.88,0,0,1-2.18-1.33l-.11.13-11.9-39.38-1.2-6.42V98.42c.11,1.52,1.2,1.47,1.2,1.47a1.81,1.81,0,0,1,1.85,1.93,2.75,2.75,0,0,1-2.29,2.53L390,106a1.85,1.85,0,0,1-2.18-1.88,2.58,2.58,0,0,1,1.85-2.47s1.09-.27,1.09-2l0-64.87c-.11-1.52-1.09-1.38-1.09-1.38a1.9,1.9,0,0,1-1.85-2A2.63,2.63,0,0,1,390,28.85l10.25-1.5a1.88,1.88,0,0,1,2.07,1.24L414.56,69.9l1.09,6.33,0-67.23a7.56,7.56,0,0,1,4.8-6.86l5.45-2A1.92,1.92,0,0,1,428.5,1.5a2.52,2.52,0,0,1-1.31,2.72,3.15,3.15,0,0,0-1.63,2.55V20.18a.09.09,0,0,0,.11.09v33l-.11,0Z"/><path class="cls-4" d="M467.44,17.53l.33,0a1.85,1.85,0,0,1,2.18,1.88v8.58a2.63,2.63,0,0,1-2.18,2.52,1.87,1.87,0,0,1-2.18-1.55s0-1.1-1.85-.83l-8.07,1.18,0,61.13c0,1.54,1.09,1.49,1.09,1.49a1.75,1.75,0,0,1,1.85,1.93,2.63,2.63,0,0,1-2.18,2.52L445,98a1.88,1.88,0,0,1-2.29-1.86,2.7,2.7,0,0,1,1.85-2.47s1.2-.29,1.2-2l0-60.91-8.07,1.18-.11,0c-1.74.26-1.85,1.37-1.85,1.37a2.58,2.58,0,0,1-2.18,2.19,1.85,1.85,0,0,1-2.18-1.88V25a2.63,2.63,0,0,1,2.18-2.52l.44-.06,10.69-1.56.33,0,11.45-1.67.33,0Z"/><path class="cls-4" d="M165.38,223.1a1.85,1.85,0,0,1-2.18-1.88,2.58,2.58,0,0,1,1.85-2.47s1.09-.27,1.09-2l0-64.87c-.11-1.52-1.09-1.38-1.09-1.38a1.9,1.9,0,0,1-1.85-2,2.63,2.63,0,0,1,2.18-2.52l10.25-1.5a1.87,1.87,0,0,1,2.18,1.55l9.93,31.2,10.13-34.47a2.7,2.7,0,0,1,2.07-1.84l10.36-1.51a1.85,1.85,0,0,1,2.18,1.88,2.71,2.71,0,0,1-1.85,2.58s-1.09.16-1.09,1.92l0,64.87c.11,1.52,1.09,1.49,1.09,1.49a1.75,1.75,0,0,1,1.85,1.93,2.63,2.63,0,0,1-2.18,2.52l-11.45,1.67a1.85,1.85,0,0,1-2.18-1.88,2.58,2.58,0,0,1,1.85-2.47s1.09-.27,1.09-2V168.62l-8.06,26.58a4.88,4.88,0,0,1-3.81,3.31,3.24,3.24,0,0,1-3.6-1.89l-8.08-24.11v43c.11,1.52,1.2,1.47,1.2,1.47a1.81,1.81,0,0,1,1.85,1.93,2.75,2.75,0,0,1-2.29,2.53Z"/><path class="cls-4" d="M234.18,180.39l5.23-.77-2.62-13.14ZM217.39,215.5a1.85,1.85,0,0,1-2.18-1.88,2.58,2.58,0,0,1,1.85-2.47,3.28,3.28,0,0,0,1.75-1.46l12.41-66.24c.55-2.06-1.09-2.48-1.09-2.48a2,2,0,0,1-1.85-2,2.66,2.66,0,0,1,2.29-2.53l8.61-1.26a1.88,1.88,0,0,1,2.29,1.86l13.1,66.8a2.13,2.13,0,0,0,2,1.58,1.8,1.8,0,0,1,1.85,1.93,2.63,2.63,0,0,1-2.18,2.52l-8.72,1.28a1.87,1.87,0,0,1-2.18-1.55l-3.93-20.1-9.05,1.32-4,21.26v.22a2.73,2.73,0,0,1-2.18,2Z"/><path class="cls-4" d="M263.3,208.79a1.85,1.85,0,0,1-2.18-1.88,2.58,2.58,0,0,1,1.85-2.47s1.09-.27,1.09-2l0-64.87c-.11-1.52-1.09-1.38-1.09-1.38a1.9,1.9,0,0,1-1.85-2,2.63,2.63,0,0,1,2.18-2.52l11.45-1.67A1.93,1.93,0,0,1,277,131.8a2.85,2.85,0,0,1-1.85,2.58s-1.2.18-1.2,1.93V158l11.12-23.62c.11-1-.33-1.38-1.2-1.25a1.9,1.9,0,0,1-1.85-2,2.63,2.63,0,0,1,2.18-2.52l13.52-2a1.85,1.85,0,0,1,2.18,1.88,2.66,2.66,0,0,1-2.18,2.63s-.87.13-1.64,1.67c0,.11-.11.24-.22.36l-13.41,27,19.75,50v.11c.55,2.12,2.18,2,2.18,2a1.88,1.88,0,0,1,1.85,1.93A2.66,2.66,0,0,1,304,216.7l-6,.88a5.12,5.12,0,0,1-5.45-3.05l-.11-.09a.36.36,0,0,0-.11-.31L276.05,173,274,177.1v24.08c.11,1.52,1.2,1.47,1.2,1.47a1.81,1.81,0,0,1,1.85,1.93,2.75,2.75,0,0,1-2.29,2.53Z"/><path class="cls-4" d="M328.93,122l.33,0a1.85,1.85,0,0,1,2.18,1.88v8.58a2.63,2.63,0,0,1-2.18,2.52,1.8,1.8,0,0,1-2.18-1.55s-.11-1.08-1.85-.83l-7.74,1.13v22.43l7.74-1.13a1.9,1.9,0,0,1,2.29,2v5.5a2.66,2.66,0,0,1-2.29,2.53l-7.74,1.13v24.74l7.74-1.13c1.74-.26,1.85-1.37,1.85-1.37a2.58,2.58,0,0,1,2.18-2.19,1.85,1.85,0,0,1,2.18,1.88v8.58a2.63,2.63,0,0,1-2.18,2.52l-.33,0-13.3,1.94-.33,0-8.51,1.24a1.85,1.85,0,0,1-2.18-1.88,2.58,2.58,0,0,1,1.85-2.47s1.09-.27,1.09-2V167.24l-.22,0a3.16,3.16,0,0,0-2.29,2,2.53,2.53,0,0,1-2.51,1.69,1.92,1.92,0,0,1-1.75-2.38l1.2-5.89a7.48,7.48,0,0,1,5.56-5.54V131.4c0-1.76-1.09-1.6-1.09-1.6a1.9,1.9,0,0,1-1.85-2,2.63,2.63,0,0,1,2.18-2.52Z"/><path class="cls-4" d="M363.06,129.34a1.9,1.9,0,0,0-2.29-2l-11,1.61V154.7L361.21,153a2.68,2.68,0,0,0,1.85-2.47Zm11.25,71a2.31,2.31,0,0,0,2.07,1.57,2,2,0,0,1,1.85,1.93,2.66,2.66,0,0,1-2.29,2.53l-5.78.84a5.11,5.11,0,0,1-5.89-4.09c-.11-.31-.11-.64-.22-1l-7.86-38.43-6.43.94v25.4c.11,1.52,1.2,1.47,1.2,1.47a1.81,1.81,0,0,1,1.85,1.93,2.75,2.75,0,0,1-2.29,2.53l-11.45,1.67a1.85,1.85,0,0,1-2.18-1.88,2.58,2.58,0,0,1,1.85-2.47s1.09-.27,1.09-2l0-64.65c0-1.76-1.09-1.6-1.09-1.6a1.9,1.9,0,0,1-1.85-2,2.63,2.63,0,0,1,2.18-2.52l21.81-3.19a10.34,10.34,0,0,1,12,10.56v21.22a14.8,14.8,0,0,1-6.76,12Z"/><path class="cls-4" d="M396.64,112.11a10.29,10.29,0,0,1,12.11,10.43v5.72a1.82,1.82,0,0,1-1.09,1.59l-6.32,3.89a2.3,2.3,0,0,1-.87.35,1.27,1.27,0,0,1-1.53-1.32V124a2,2,0,0,0-2.29-2l-5,.73v.11a2.68,2.68,0,0,0-2.29,2.64v12.75c0,3.3,19.41,13.66,19.42,18.49v18.47a14.64,14.64,0,0,1-12.1,14.08l-5,.73a10.24,10.24,0,0,1-12.11-10.43V169.37a2.06,2.06,0,0,0-1.64-1.85l.11,0a2,2,0,0,1-1.42-2.32,2.63,2.63,0,0,1,2.62-2l5.45.41s4.36.13,4.69,5.25v9.34a2,2,0,0,0,2.29,2l5-.73v-.11a2.68,2.68,0,0,0,2.29-2.64V161.58c0-3.3-19.41-13.32-19.42-18.49V126.93a14.55,14.55,0,0,1,12.1-14.08Z"/></g><g class="cls-5"><path class="cls-6" d="M118.7,306.67c2.38,0,4-1.23,4-3.42v0c0-1.92-1.26-2.72-3.5-3.31-1.9-.49-2.38-.72-2.38-1.45v0c0-.54.49-1,1.42-1a5.17,5.17,0,0,1,2.86,1.09l1.26-1.83a6.38,6.38,0,0,0-4.09-1.4c-2.25,0-3.86,1.32-3.86,3.32v0c0,2.19,1.43,2.8,3.65,3.37,1.84.47,2.22.79,2.22,1.4v0c0,.65-.6,1-1.59,1a5.05,5.05,0,0,1-3.29-1.34L114,304.9a7,7,0,0,0,4.68,1.76m-18.54-.16h2.39v-7l5.34,7h2.06v-11h-2.39v6.79l-5.16-6.79h-2.24Zm-10.12-2A3.35,3.35,0,0,1,86.7,301v0A3.3,3.3,0,0,1,90,297.54,3.35,3.35,0,0,1,93.34,301v0A3.3,3.3,0,0,1,90,304.46m0,2.24a5.7,5.7,0,0,0,5.87-5.7v0a5.86,5.86,0,0,0-11.71,0v0A5.65,5.65,0,0,0,90,306.7m-12.59-.19h2.42v-11H77.41Zm-9.62,0h2.42v-8.78h3.35v-2.24H64.44v2.24H67.8ZM55.58,301.9,57,298.32l1.46,3.57Zm-4.34,4.61h2.47l1-2.47h4.66l1,2.47h2.53l-4.72-11.1H56Zm-11.89,0h8.39v-2.16h-6V302H47v-2.16h-5.2v-2.24h5.9v-2.16H39.35Zm-11.16-5.67v-3.16h2.41c1.18,0,1.9.54,1.9,1.57v0c0,.93-.68,1.56-1.86,1.56Zm-2.43,5.67h2.43V303h1.9l2.36,3.53h2.83l-2.69-3.94A3.42,3.42,0,0,0,35,299.16v0a3.46,3.46,0,0,0-.94-2.52,4.39,4.39,0,0,0-3.21-1.12h-5Zm-8.44.19a5.64,5.64,0,0,0,4.52-2l-1.54-1.56a4,4,0,0,1-2.9,1.29A3.27,3.27,0,0,1,14.2,301v0a3.27,3.27,0,0,1,3.2-3.43,4.07,4.07,0,0,1,2.82,1.24L21.76,297a5.68,5.68,0,0,0-4.34-1.7,5.6,5.6,0,0,0-5.75,5.7v0a5.56,5.56,0,0,0,5.65,5.67"/><path class="cls-6" d="M106.46,286.53c2.38,0,4-1.23,4-3.42v0c0-1.92-1.26-2.72-3.5-3.31-1.9-.49-2.38-.72-2.38-1.45v0c0-.54.49-1,1.42-1a5.17,5.17,0,0,1,2.86,1.09l1.26-1.83a6.38,6.38,0,0,0-4.09-1.4c-2.25,0-3.86,1.32-3.86,3.32v0c0,2.19,1.43,2.8,3.65,3.37,1.84.47,2.22.79,2.22,1.4v0c0,.65-.6,1-1.59,1a5,5,0,0,1-3.29-1.34l-1.43,1.72a7,7,0,0,0,4.68,1.76m-13.33,0c3,0,4.83-1.64,4.83-5v-6.22H95.54v6.31c0,1.75-.9,2.64-2.38,2.64s-2.38-.93-2.38-2.72v-6.23H88.36v6.3c0,3.24,1.81,4.9,4.77,4.9m-14.74-2.22a3.35,3.35,0,0,1-3.34-3.46v0a3.3,3.3,0,0,1,3.31-3.43,3.35,3.35,0,0,1,3.34,3.46v0a3.3,3.3,0,0,1-3.31,3.43m0,2.24a5.7,5.7,0,0,0,5.87-5.7v0a5.86,5.86,0,0,0-11.71,0v0a5.65,5.65,0,0,0,5.84,5.67m-12.59-.19h2.42v-11H65.77Zm-11.2-5.67v-3.16H57c1.18,0,1.91.54,1.91,1.57v0c0,.93-.68,1.56-1.86,1.56Zm-2.42,5.67h2.42v-3.53h1.91l2.36,3.53h2.83L59,282.43A3.42,3.42,0,0,0,61.33,279v0a3.46,3.46,0,0,0-.94-2.52,4.39,4.39,0,0,0-3.21-1.12h-5Zm-9.59.17c3,0,4.83-1.64,4.83-5v-6.22H45v6.31c0,1.75-.9,2.64-2.38,2.64s-2.38-.93-2.38-2.72v-6.23H37.78v6.3c0,3.24,1.81,4.9,4.77,4.9m-13,0a5.64,5.64,0,0,0,4.52-2L32.53,283a4,4,0,0,1-2.9,1.29,3.27,3.27,0,0,1-3.2-3.46v0a3.27,3.27,0,0,1,3.2-3.43,4.07,4.07,0,0,1,2.82,1.24L34,276.86a5.68,5.68,0,0,0-4.34-1.7,5.6,5.6,0,0,0-5.75,5.7v0a5.56,5.56,0,0,0,5.65,5.67"/><path class="cls-6" d="M119.3,241.65c2.38,0,4-1.23,4-3.42v0c0-1.92-1.26-2.72-3.49-3.31-1.91-.49-2.38-.72-2.38-1.45v0c0-.54.49-1,1.42-1a5.17,5.17,0,0,1,2.86,1.09l1.26-1.83a6.38,6.38,0,0,0-4.09-1.4c-2.25,0-3.86,1.32-3.86,3.32v0c0,2.19,1.43,2.8,3.65,3.37,1.84.47,2.22.79,2.22,1.4v0c0,.65-.6,1-1.59,1a5.06,5.06,0,0,1-3.29-1.34l-1.43,1.72a7,7,0,0,0,4.68,1.76m-15-5.82v-3.16h2.41c1.18,0,1.91.54,1.91,1.57v0c0,.93-.68,1.56-1.86,1.56Zm-2.42,5.67h2.42V238h1.91l2.36,3.53h2.83l-2.69-3.94a3.42,3.42,0,0,0,2.36-3.42v0a3.46,3.46,0,0,0-.94-2.52,4.39,4.39,0,0,0-3.21-1.12h-5Zm-10.12-2A3.35,3.35,0,0,1,88.46,236v0a3.3,3.3,0,0,1,3.31-3.43A3.35,3.35,0,0,1,95.1,236v0a3.3,3.3,0,0,1-3.31,3.43m0,2.24a5.7,5.7,0,0,0,5.87-5.7v0a5.86,5.86,0,0,0-11.71,0v0a5.65,5.65,0,0,0,5.84,5.67m-14.7-.19h2.43v-8.79h3.35v-2.24H73.71v2.24h3.35Zm-16.94,0h2.39v-7l5.34,7h2.06v-11H67.53v6.79l-5.16-6.79H60.13Zm-12.85,0h8.39v-2.16h-6V237h5.2v-2.16h-5.2v-2.24h5.9v-2.16H47.28ZM37,241.57H39.1l4.45-11.1H40.94l-2.88,7.76-2.88-7.76H32.5Zm-18-.08h2.39v-7l5.34,7h2.06v-11H26.39v6.79l-5.16-6.79H19Zm-7.32,0h2.42v-11H11.67Z"/><path class="cls-6" d="M126.64,219.16v-6.64h1.87a3.17,3.17,0,0,1,3.32,3.32v0a3.14,3.14,0,0,1-3.32,3.29Zm-2.42,2.19h4.3a5.52,5.52,0,0,0,5.86-5.51v0c0-3.1-2.39-5.48-5.86-5.48h-4.3Zm-14.67,0h2.39v-7l5.34,7h2.06v-11h-2.39v6.78l-5.16-6.78h-2.24Zm-11.07-4.61,1.46-3.57,1.46,3.57Zm-4.34,4.61h2.47l1-2.47h4.66l1,2.47h2.53l-4.72-11.1H98.86Zm-11.27,0h7.92v-2.2H85.29v-8.81H82.86Zm-8.33.16c2.38,0,4-1.23,4-3.42v0c0-1.92-1.26-2.72-3.49-3.31-1.91-.49-2.38-.72-2.38-1.45v0c0-.54.49-1,1.42-1A5.18,5.18,0,0,1,77,213.4l1.26-1.83a6.38,6.38,0,0,0-4.09-1.4c-2.25,0-3.86,1.32-3.86,3.32v0c0,2.19,1.43,2.8,3.65,3.37,1.84.47,2.22.79,2.22,1.4v0c0,.65-.6,1-1.59,1A5.06,5.06,0,0,1,71.29,218l-1.43,1.72a7,7,0,0,0,4.67,1.76M56,221.35h2.39v-7l5.34,7h2.06v-11H63.38v6.78l-5.16-6.78H56Zm-12.85,0h8.39V219.2h-6v-2.31h5.2v-2.16h-5.2v-2.24h5.9v-2.16H43.13Zm-12.85,0h8.39V219.2h-6v-2.31h5.2v-2.16h-5.2v-2.24h5.9v-2.16H30.28Zm-9.59.17c3,0,4.83-1.64,4.83-5v-6.22H23.1v6.31c0,1.75-.9,2.64-2.38,2.64s-2.38-.93-2.38-2.72v-6.23H15.93v6.3c0,3.24,1.81,4.9,4.77,4.9M5.87,219.31a3.35,3.35,0,0,1-3.34-3.46v0a3.3,3.3,0,0,1,3.31-3.43,3.35,3.35,0,0,1,3.34,3.46v0a3.65,3.65,0,0,1-.3,1.51l-1.81-1.64-1.54,1.73L7.32,219a3.55,3.55,0,0,1-1.45.3m4.45,2.38L11.87,220l-1.13-1a5.57,5.57,0,0,0,1-3.16v0a5.65,5.65,0,0,0-5.84-5.67A5.7,5.7,0,0,0,0,215.84v0a5.65,5.65,0,0,0,5.84,5.67,6,6,0,0,0,3.27-.94Z"/><path class="cls-6" d="M92,252.47a.38.38,0,0,1-.27.35l-1.65.23v-3.68l1.59-.22a.28.28,0,0,1,.33.29Zm1.61,5.39s-.11,0-.19-.18l-.8-3.81a2.06,2.06,0,0,0,.8-1.59v-3a1.5,1.5,0,0,0-1.73-1.53l-3.15.43a.37.37,0,0,0-.31.36.28.28,0,0,0,.27.29s.16,0,.16.23v9.26c0,.25-.16.29-.16.29a.37.37,0,0,0-.27.35.27.27,0,0,0,.31.27l1.65-.23a.39.39,0,0,0,.33-.36.26.26,0,0,0-.27-.28s-.16,0-.17-.21v-3.64l1.12-.15.72,3.54a.26.26,0,0,1-.22.27.35.35,0,0,0-.27.35.27.27,0,0,0,.31.27l1.9-.26a.37.37,0,0,0,.31-.36.27.27,0,0,0-.31-.29Zm-7,1.6a.39.39,0,0,0,.33-.36.26.26,0,0,0-.27-.28s-.16,0-.17-.21v-9.29c0-.25.17-.28.17-.28a.4.4,0,0,0,.27-.37.28.28,0,0,0-.33-.27l-1.65.23a.37.37,0,0,0-.31.36.27.27,0,0,0,.27.29s.14,0,.16.2v9.29c0,.25-.16.29-.16.29a.36.36,0,0,0-.27.35.27.27,0,0,0,.31.27Zm-6.81-10.12a.37.37,0,0,0-.31.36.27.27,0,0,0,.27.29s.16,0,.16.23v9.26c0,.25-.16.29-.16.29a.36.36,0,0,0-.27.35.27.27,0,0,0,.31.27l1.23-.17h.06l1.9-.26h0a.37.37,0,0,0,.31-.36v-1.23a.27.27,0,0,0-.31-.27.38.38,0,0,0-.31.31s0,.16-.27.19l-1.12.15V255.2l1.13-.15a.37.37,0,0,0,.31-.36v-.79a.27.27,0,0,0-.31-.29l-1.13.15v-3.21l1.12-.15c.27,0,.27.12.27.12a.27.27,0,0,0,.31.22.37.37,0,0,0,.31-.36v-1.23a.27.27,0,0,0-.31-.27h0ZM75,256.06l1.32-.18V260c0,.25-.16.29-.16.29a.38.38,0,0,0-.27.35.27.27,0,0,0,.33.27l1.64-.22a.38.38,0,0,0,.33-.36A.26.26,0,0,0,78,260s-.16,0-.16-.21V250.5c0-.25.16-.27.16-.27a.4.4,0,0,0,.27-.37.27.27,0,0,0-.33-.27l-1.64.22a.38.38,0,0,0-.33.36.29.29,0,0,0,.27.29s.16,0,.16.2v3.78l-1.32.18v-3.75c0-.25.17-.28.17-.28a.4.4,0,0,0,.27-.37.28.28,0,0,0-.33-.27l-1.65.23a.37.37,0,0,0-.31.36.27.27,0,0,0,.27.29s.14,0,.16.2v9.29c0,.25-.16.29-.16.29a.36.36,0,0,0-.27.35.27.27,0,0,0,.31.27l1.65-.23a.39.39,0,0,0,.33-.36.26.26,0,0,0-.27-.28s-.16,0-.17-.21ZM70,250.68h0l-1.65.23h0l-1.54.21h0a.39.39,0,0,0-.33.36v1.23a.28.28,0,0,0,.33.27.38.38,0,0,0,.31-.31s0-.16.25-.19h0l1.16-.16V261c0,.25-.16.29-.16.29a.36.36,0,0,0-.27.35.27.27,0,0,0,.31.27l1.65-.23a.37.37,0,0,0,.31-.36.25.25,0,0,0-.27-.28s-.14,0-.16-.22v-8.75L71,252c.27,0,.27.12.27.12a.27.27,0,0,0,.31.22.38.38,0,0,0,.33-.36v-1.23a.27.27,0,0,0-.33-.27h0Zm-12.11,3.08a.28.28,0,0,1,.33.29v7.53a.4.4,0,0,1-.27.37l-1,.14v-8.19Zm1.75.09a1.5,1.5,0,0,0-1.73-1.53l-2.5.34a.37.37,0,0,0-.31.36.27.27,0,0,0,.27.29s.16,0,.16.23v9.26c0,.25-.16.29-.16.29a.36.36,0,0,0-.27.35.27.27,0,0,0,.31.27l2.49-.34a2.08,2.08,0,0,0,1.75-2Zm-9.76,10.62a.39.39,0,0,0,.33-.36.26.26,0,0,0-.27-.28s-.16,0-.17-.21v-6.19l.17.92L51.64,264l0,0a.27.27,0,0,0,.31.19l1.48-.2a.38.38,0,0,0,.33-.36.26.26,0,0,0-.27-.28s-.16,0-.17-.21v-9.29c0-.25.17-.28.17-.28a.4.4,0,0,0,.27-.37.27.27,0,0,0-.33-.27l-1.65.23a.37.37,0,0,0-.31.36.27.27,0,0,0,.27.29s.16,0,.16.2v6.45l-.16-.91L50,253.62a.27.27,0,0,0-.3-.18l-1.48.2a.37.37,0,0,0-.31.36.27.27,0,0,0,.27.29s.14,0,.16.2v9.29c0,.25-.16.29-.16.29a.36.36,0,0,0-.27.35.27.27,0,0,0,.31.27Zm-6.38-5.74.38,1.88-.76.1Zm-1.54,6.82a.39.39,0,0,0,.31-.28v0l.58-3,1.31-.18.57,2.88a.27.27,0,0,0,.31.22l1.26-.17a.37.37,0,0,0,.31-.36.26.26,0,0,0-.27-.28.31.31,0,0,1-.28-.23l-1.89-9.58a.27.27,0,0,0-.33-.27l-1.24.17a.38.38,0,0,0-.33.36.29.29,0,0,0,.27.29.26.26,0,0,1,.16.36l-1.79,9.47a.47.47,0,0,1-.25.21.36.36,0,0,0-.27.35.27.27,0,0,0,.31.27Z"/><path class="cls-6" d="M90.51,197.49,89.58,195a3.49,3.49,0,0,0-3.17-2.22H64l-.05,0H53.17a0,0,0,0,1,0,.05H46.93a1.45,1.45,0,0,1-1.18-.76,1.16,1.16,0,0,0-1.26-.6.89.89,0,0,0-.63,1.21l.93,2.52A3.5,3.5,0,0,0,48,197.38H70.33l0,0H81.2a0,0,0,0,1,0-.05h6.19a1.46,1.46,0,0,1,1.18.76,1.16,1.16,0,0,0,1.26.6.89.89,0,0,0,.64-1.21"/><path class="cls-6" d="M90.51,324.2l-.93-2.52a3.49,3.49,0,0,0-3.17-2.22H64l-.05,0H53.17a0,0,0,0,1,0,.05H46.93a1.45,1.45,0,0,1-1.18-.76,1.16,1.16,0,0,0-1.26-.6.89.89,0,0,0-.63,1.21l.93,2.52A3.5,3.5,0,0,0,48,324.09H70.33l0,0H81.2a0,0,0,0,1,0,0h6.19a1.46,1.46,0,0,1,1.18.75,1.16,1.16,0,0,0,1.26.6.89.89,0,0,0,.64-1.21"/></g></g></g></svg>