<?xml version="1.0" encoding="utf-8"?>
    <!-- Generator: Adobe Illustrator 22.0.1, SVG Export Plug-In . SVG Version: 6.00 Build 0)  -->
    <svg version="1.1" id="Layer_0_2_" xmlns="http://www.w3.org/2000/svg" xmlns:xlink="http://www.w3.org/1999/xlink" x="0px" y="0px" viewBox="0 0 522.6 542.8" style="enable-background:new 0 0 522.6 542.8;" xml:space="preserve">
        <defs>
            <path id="SVGID_1_" style="enable-background:new    ;" d="M521.3,167.9c-0.2-0.2-0.3-0.4-0.6-0.5c0-0.3,0-0.6,0.1-0.8
		c-0.2-0.3-0.4-0.6-0.6-0.8c0.1-0.1-0.1-2.5,0.1-3v-0.1h-0.4c-0.1,0-0.1,0-0.2-0.1c0.1-0.5,0.2-0.7-0.1-1.1c0.1,0,0.2-0.1,0.2-0.1
		c-0.4-1.4,0.4-4.1-0.2-5.1c0.3-0.3,0.1-2.2,0.1-2.3c0.1-0.3,0-0.2,0.3-0.2c0.6-0.7-0.1-1.8,0.4-2.6c-0.1-0.1-0.2-0.2-0.2-0.2
		c0.1-0.1,0.2-0.2,0.3-0.2c-0.2-0.2-0.2-0.1-0.3-0.4c0.4-0.4-0.2-2-0.1-2.8c0.3-1.5-0.2-3.1-0.4-4.6c-0.3-1.5,0.4-2.8,0-4
		c0.6-0.5,0.2-1.1,0.7-1.6v-0.1c-0.1-0.1-0.4-2.6-0.2-3.1c0.1-0.2,0.4-0.2,0.4-0.5c0.1-0.6-0.4-0.5-0.5-0.8c-0.2-0.3,0-0.7,0.1-1
		h0.3c0.1-0.2,0.3-0.5,0.4-0.7c-0.1-0.1-0.2-0.2-0.3-0.2c0.4-0.8-0.3-2.2,0.2-3.2c-0.2-0.1-0.2-0.1-0.5-0.1c0,0,0-0.1-0.1-0.1
		c0.4-0.7-0.2-2,0.1-3.2h-0.5c0,0-0.1-0.1-0.1-0.1c0-0.4,0-0.8,0.1-1.2c-0.1-0.1-0.3-0.1-0.4-0.2c0-0.4,0.1-0.8-0.1-1
		c0.2-0.1,0.4-0.2,0.5-0.2v-4.7c-0.2-0.1-0.3-0.1-0.5-0.2c0-0.2,0-0.4-0.1-0.5h-0.4c0.2-0.3,0.2-3.4,0.1-3.7
		c-0.1-0.5-0.6-0.4-0.5-0.9c-0.2-0.2-0.2-0.2-0.5-0.1c0,0,0-0.1-0.1-0.1c0.1,0,0.2,0,0.2-0.1c-0.1-1-0.9-2-2.2-2.2
		c0.1-0.4,0.2-0.3,0-0.5c0.1-0.3,0.2-0.2,0.3-0.5c-0.8-0.1-0.4-0.9-1.2-1c0.1-0.7-0.7-0.9-0.5-1.8c-1-0.4-1.2-1.9-2.3-2.5
		c0.1-1-0.1-2.1-0.1-3.5c0.1,0,0.1-0.1,0.2-0.1c1.1-0.2,2.9,0.4,4,0.8c0.1,0.1,0.2,0.3,0.4,0.4c0.6,0.2,1.6-0.2,2-0.1
		c0,0,0.1,0,0.1-0.1c0.1-0.2,0.2-0.4,0.3-0.7c-0.1-0.1-0.2-0.2-0.2-0.3c0.3-0.2,0.1-0.9,0.1-1.6c0.1,0,0.2,0,0.4,0.1
		c0.1-0.3,0.6-0.8,0.7-1c0.1-0.5,0-5.4-0.1-5.6c0.3-0.3,1.1-1.2,0.1-1.4c-0.1-0.3,0.4-0.3-0.1-0.5c0.5-0.9,0.7-1,0.4-2
		c0.1-0.1,0.3-0.2,0.4-0.2c0.2-0.8,0.3-1.7-0.4-2.2c0.2-0.3,0.1-0.2,0-0.5c1-1,0.2-3.7,0.7-4c-0.3-0.6-0.2-1-0.2-1.7
		c0.1-0.1,0.2-0.2,0.3-0.2c-0.1-0.1-0.2-0.1-0.3-0.2c0.4-1.8-0.8-8.1-0.2-8.9c-0.1-0.1-0.2-0.2-0.2-0.2c0.1-0.1,0.2-0.2,0.3-0.2
		c-0.3-0.3-0.2-0.4-0.4-0.7c0.1-0.1,0.2-0.2,0.3-0.2c-0.3-0.4-0.5-1.2-0.7-1.6c0.2-0.3,0.2-4.7-0.1-5.3l0.2-0.2
		c-0.2-0.4,0-0.7-0.1-1c-0.2-0.2-0.4-0.5-0.5-0.7c0.1,0,0.2,0,0.2-0.1c-0.1-0.2-0.1-0.2-0.2-0.4c0.1,0,0.2,0,0.2-0.1
		c0-0.1,0.1-0.1,0.1-0.2c-0.1-0.2-0.1-0.1-0.4-0.2c0.1-0.4-0.1-1.3-0.1-1.5c0.5-0.9,0-3.4,0-5c-0.2-0.1-0.2-0.1-0.4-0.2
		c-0.1-0.5,0-4.2,0.2-4.6c-0.2-0.2-0.3-2.9-0.3-3.4c-0.1-0.1-0.3-0.2-0.4-0.2c0.2-0.4,0.1-1-0.1-1.4c0.3-0.5,0.1-1.1,0-1.4
		c0-0.1,0.2-4.1,0.2-4.1c-0.2-0.2-0.3-0.1-0.5-0.2c0-0.2,0-0.5-0.1-0.7c-0.2-0.1-0.3-0.2-0.5-0.2c-0.2-0.2,0-0.7-0.1-1
		c0,0,0-0.1,0.1-0.1l0.4,0.1v-0.4c0.3-0.4,0.4,0,0.8-0.2c1.1-0.7,0.7-1.5,0.7-2.5c-0.8-0.5-1.6-2.5-1.9-2.5c0.1-0.2,0.1-0.2,0.1-0.4
		h-0.5c0-0.7-0.4-1.1-0.6-1.6c0-0.3,0-0.4-0.3-0.3c-0.1-0.2-1.2-2.2-1.2-2.5c-0.3,0-0.6,0-0.8,0.1c-0.1-0.3-0.1-0.5-0.2-0.8
		c-0.4,0-0.8,0-1.1-0.1c-0.5-0.2-0.3-0.7-1.1-0.6c0-0.1,0-0.3-0.1-0.4h-0.4c-0.3-0.3-0.6-0.8-1-1c-0.2-0.2-0.2-0.1-0.5-0.1
		c0-0.1,0-0.1-0.1-0.2c0-0.1,0-0.1,0.1-0.2c-0.1,0-0.2-0.1-0.2-0.1c-0.6-0.1-1-1.1-1.6-1.4h-0.5c-0.1-0.1-0.1-0.3-0.2-0.4h-0.6
		c-0.5-0.5-1-1-1.6-1.4c-0.3,0-0.5-0.1-0.8-0.1c-1.7-1.1-3.5-2.6-5.5-2.2c-0.3,0-0.6,0-1-0.1c-0.1,0.2-0.3,0.4-0.4,0.5h-0.7
		c-0.7,0.4-1.5,2.2-2.3,2.5c0,0.2,0,0.2,0.1,0.4c-0.3,0.3-0.2,0.4-0.5,0.2c-0.1,0.2,0,0.5-0.1,0.7c-0.3,0.4-1.5,0.4-1.8,0.2
		c-0.7,0.9-2,1.5-3.2,1.8c-0.4,0.1-1-0.2-1.5-0.1c-0.5-1.2-0.2-3.2-1.5-3.8c-0.1-0.3-0.1-0.1,0.1-0.4c-0.2-0.3-0.3-0.5-0.7-0.7v-0.4
		h-0.3c-0.4-0.4-0.9-1.3-1.5-1.4c0-0.1-0.1-0.3-0.1-0.4c-0.5-0.1-0.4-0.4-0.8-0.5c-1.5-0.4-2.5,1.3-3.2,1.8
		c-0.4,0.2-0.8,0.1-1.1,0.2c-0.1,0.1-0.2,0.3-0.4,0.4c-0.9,0.4-2.5-0.8-3.5-0.6c-0.1-0.1-2-1.5-2-1.5h-1.6c-0.3-0.1-0.7-0.8-1-0.9
		c-0.7-0.3-1.3,0.2-2,0c-0.3-0.1-1-0.5-1.3-0.6c-0.5-0.2-2.5,0.2-2.8,0.1c-0.1-0.1-0.2-0.2-0.4-0.3c-0.6-0.1-1.2,0.9-1.9,0.7
		c-0.6,0.6-1.5,1.2-2,1.9c0,0.1,0,0.3-0.1,0.4c-0.3,0.2-0.7,0.2-0.8,0.5c-0.1,0.5-0.1,0.9-0.2,1.4c-0.4,0.4-0.7,0.4-0.8,1.1
		c-0.4,0.1-0.6,0.3-1.1,0.4c-0.6-0.8-1.6-1.3-2.6-1.2c-0.3-0.8-2.2-2.3-2.9-2.8c-0.5-0.3-1.1,0.1-1.5-0.2c-0.6-0.5-1.1-1.5-1.9-1.8
		c0-0.1,0.1-0.2,0.1-0.3c-0.2-0.2-0.2-0.1-0.5-0.1c0,0-0.1,0-0.1-0.1c0.1-0.1,0.1-0.2,0.2-0.4c-0.6-0.7-1.3-0.8-2-1.1
		c-0.4-0.2-1.5-1-1.9-1c-0.8-0.1-0.9,0.1-1.6-0.2c-0.3-0.1-0.6,0.2-0.8,0.3c-0.6,0.2-1.2-0.1-1.7,0.1c-1.3,0.5-2.9,1.3-4.4,1.4
		c-0.4-0.4-0.8-1.2-1.3-1.4c-0.3-0.1-0.6-0.1-0.8-0.2c-0.3-0.2-0.6-0.7-1-0.8c-0.3,0-0.6,0.1-0.8,0.1c-0.6-0.3-1.2-0.8-1.9-1
		c-0.2-0.3-0.2-0.5-0.2-1c-0.7,0-1.1-0.1-1.7,0.1c-0.2-0.3-0.4-0.5-0.6-0.8c0.1-0.3-3.6-1.4-4.3-2.4c-0.1,0-0.2,0.1-0.4,0.1
		c-0.1-0.1-0.1-0.1-0.2-0.3c-0.4-0.2-0.9,0.2-1.4-0.1c-0.2-0.2-0.4-0.3-0.6-0.5c-0.4,0-0.8-0.1-1.2-0.1c-0.1-0.1-0.1-0.2-0.2-0.4
		c-0.4-0.2-1,0.1-1.3,0c-1.1,0-2.3,0-3.4,0.1c-0.6-0.2-2.7-0.2-3.4-0.1c-0.2,0.1-0.4,0.1-0.7,0.2c-1-0.3-2.6,0.1-3.5-0.1
		c-2.2-0.4-4.9,0-7.4-0.2c-1.4-0.1-3.4,0.5-5.2-0.1c-1.2,0.9-1.1,0-1.9,0.2c-0.3,0-0.7,0.4-1,0.4c-1.1,0.2-1.7-0.6-3.2,0.2
		c0-0.1-0.1-0.2-0.1-0.2c-0.5-0.2-0.6,0.2-1,0.3c-1,0.2-2.2-0.2-3.1,0c-0.2,0.1-0.3,0.2-0.5,0.3c-0.5,0-1.4-0.2-2.1-0.1
		c-0.2,0-0.5,0.3-0.9,0.2c-0.6-0.1-1.8-0.2-2.6-0.1c-0.5,0.1-2.4,0.4-2.9,0.3c-1-0.2-2.5-0.3-3.6-0.3c-0.4,0.1-0.7,0.1-1.1,0.2
		c-1.4-0.1-2.2-0.7-3.6-0.7c-1.1,1.1-1.7,0.5-3.1,0.6c-2.1,0.2-3.8,0.6-6.1,0.3c-0.2,0-0.5,0.1-0.7,0.1c-0.8-0.2-1.8-0.8-2.8-0.9
		c-0.3,0-0.8,0.3-1.1,0.4c-0.8,0.3-3.4,0.1-3.8,0.1c-0.6,0-1.2,0-1.8,0.1c-0.6-0.1-1.1-0.2-1.7-0.2c-0.5,0.1-1.4,0.5-2.1,0.2
		c0-0.1-0.1-0.2-0.1-0.2c-0.3-0.1-0.2,0.2-0.4,0.2c-0.5,0.1-0.9-0.1-1.1-0.2c-0.3,0-0.6,0.2-1.1,0.2c-1.6-0.2-3.1,0.1-4.6,0
		c-0.6-0.1-2-0.2-2.5-0.1c-1.2,0.2-3.1,0.3-4.3,0.1c-1.1,0-2.2,0.1-3.4,0.1c-0.4-0.1-1.2-0.5-1.7-0.3c-0.2,0.1-0.5,0.3-1,0.2
		c-0.3-0.1-0.6-0.1-0.8-0.2c-0.2,0.1-0.8,0.3-1.3,0.2c-0.7-0.2-2.3-0.3-3.1-0.2c-0.7,0.1-2.3,0.4-3.1,0.1c-0.2-0.1-0.5-0.5-1.1-0.3
		c-0.2,0.1-0.4,0.5-0.8,0.3c-0.7-0.3-5-0.2-6.3-0.2c-0.3,0.1-0.6,0.2-0.8,0.3c-2.1-0.5-4.3-0.3-6.3-0.1c-0.4,0-1.8,0-2.2-0.1
		c-0.1-0.1-0.2-0.2-0.4-0.2c-3.8,0.5-8.8,0.6-12.3,0.2c-0.3,0-0.7,0.4-1.1,0.4c-0.7-0.1-1.3-0.2-2-0.4c-0.6,0.1-1.1-0.1-1.6,0
		c-0.2,0.1-0.7,0.5-1,0.4c-0.5-0.1-1.2-0.5-1.6-0.5c-0.3-0.1-0.8,0.1-1.1-0.1c-0.2,0.1-0.3,0.3-0.5,0.4c-1-0.2-2.5-0.6-3.1,0.1
		c-0.4-0.1-0.9-0.3-1.6-0.2c-0.6,0.1-1,0.7-1.9,0.5c-1.9-0.4-5.3-0.3-6.9,0c-0.8,0.2-1.3-0.4-2.1-0.3c-2,0.4-5.2,0.3-7.3,0.1
		c-0.3,0-0.5,0.3-1,0.2c-0.8-0.1-1.6-0.2-2.5-0.3c-1.3-0.1-2.4,0.4-3.6-0.1c-0.2,0.1-0.3,0.3-0.5,0.4h-0.2c-0.4,0-0.8-0.4-1.5-0.2
		c-0.6,0.1-1.2,0.4-1.9,0.1c-0.1,0.1-0.1,0.2-0.2,0.3c-1,0-1.7-0.2-2.5-0.1c-0.2,0.1-0.4,0.2-0.7,0.2c-1.6-0.4-5.2-0.2-6.1,0.1
		c-0.7,0.2-1.1-0.4-1.6-0.2c-0.2,0.1-0.6,0.3-0.9,0.3c-0.2-0.1-0.5-0.2-0.7-0.3c-1.7,0.5-3.4-0.1-4.7,0.5c-0.1-0.1-0.2-0.2-0.4-0.2
		c-0.3,0.1-0.6,0.2-0.8,0.4c-0.9-0.2-2.1-0.5-2.8-0.7c-0.5-0.1-1.2,0.4-1.6,0.5c-0.8,0-1.6,0-2.3-0.1c-0.5,0.1-1.5,0.3-2.2,0.4
		c-0.4,0.1-2.6-0.5-2.9-0.4c-0.8,0.2-1.6,0.2-2.5,0.3c-0.2-0.1-0.5-0.1-0.7-0.2c-1.7,0.3-3.7,0.2-5.5-0.1l-0.4,0.2
		c-0.4-0.1-0.8-0.2-1.3-0.2c-1.4-0.3-2.7,0.3-3.5,0.7c-1.4-0.9-1.6,0.4-3.3-0.1c0,0-2.3-0.3-2.3-0.3l-0.6,0.5c-0.1,0-3-0.1-3.1-0.1
		c-0.1-0.1-0.2-0.2-0.4-0.3c-0.7-0.1-0.8,0.6-1.7,0c-0.7,0.6-5.8,0.6-6.2,0.2c-0.1,0.1-0.3,0.3-0.4,0.4c-0.7-0.2-1.2,0.1-1.7,0.1
		c-2.3-0.4-4.4,0.3-6.8-0.4c-1.1-0.3-2.2,0.1-3.2-0.5c-1.5,1-6.5,1.2-8.2,1c-0.5,0-0.9,0.1-1.4,0.1c-0.5-0.1-1.6-0.3-1.9-0.4
		C155,5,154.8,5,154.6,5.1c-0.3-0.1-0.5-0.4-0.8-0.5h-0.1c-0.5-0.1-0.5,0.3-0.8,0.4h-1c-0.2,0.2-0.4,0.3-0.5,0.5h-1.6
		c-1.1-0.9-2.6-0.1-4.1-0.3c-0.5-0.1-1.5-0.4-2-0.3c-0.4,0.1-0.8,0.2-1.2,0.2c-0.3-0.1-0.6-0.2-0.8-0.3c-1,0.2-1.9,0.3-2.5,0.4
		c-0.7,0-1.2-0.3-1.9-0.3c-1.1,0-2.1,0.3-3.2,0.1c-0.5-0.1-1.3,0.2-1.9,0c-0.1,0-0.1-0.3-0.4-0.2c-0.3,0.1-0.4,0.4-1,0.3
		c-0.4-0.1-0.7-0.4-1-0.5c-0.7-0.3-1.1,0.1-1.6,0.1c-1.4,0.1-2.5-0.3-3.6-0.2c-0.6,0.1-1.9-0.3-2.5-0.1c-0.1,0.1-0.1,0.3-0.4,0.2
		c-0.3,0-1-0.4-1.2-0.4L120,4.7c-0.5,0.1-1-0.2-1.6-0.1c-0.1,0.1-0.2,0.2-0.4,0.3c-0.2-0.1-0.5-0.2-0.7-0.3
		c-1.2,0.3-2.1,0.5-3.4,0.2c-0.4-0.1-1.1,0.1-1.3,0.2c-0.5,0.1-1.4-0.2-1.6-0.2c-0.2,0.1-0.5,0.2-0.7,0.2c-0.7,0.1-2.4-0.3-3.1-0.1
		c-0.2,0-2.3,0.3-2.5,0.2c-1-0.4-1.6,0-2.6-0.1c-0.3-0.1-0.6-0.2-0.9-0.4c-0.5,0-0.9,0.1-1.4,0.1c-1.4-0.3-3.3,0.1-4.6-0.3
		c0,0.1-0.1,0.1-0.1,0.2c-0.4-0.1-0.8-0.2-1.1-0.2c-0.1,0-0.5,0.2-0.7,0.3c-0.1,0-0.1,0.1-0.2,0.1c-0.2-0.1-0.6-0.4-0.9-0.4
		c-0.3,0.1-2.2,0.8-2.4,0.7c-0.1-0.1-0.2-0.2-0.3-0.3h-0.1C88.7,5,87.9,5,87.2,5c-0.3-0.1-0.2-0.4-0.8-0.4h-0.1
		c-0.6,0.3-1.1,0.6-1.7,0.9c-0.7-0.2-1.3,0-1.7,0.1c-0.7-0.1-1.5-0.2-2.2-0.3c-0.4,0.1-0.7,0.5-1.2,0.7c-0.4,0.2-0.9-0.1-1.2,0
		c-0.4,0.2-0.9,0.5-1.4,0.6c-0.5,0.1-1.5-0.1-1.7,0C75,6.7,74.8,7,74.6,7.1c-0.3,0.1-2.1,0-2.2,0.1c-0.8,0.4-1.4,0.7-2.2,1
		C70.1,8.1,70.1,8,70,7.9c-1.2,0.3-2.9,0.6-3.9,1.2c-0.2-0.1-0.3-0.3-0.5-0.4c-1.1,0.3-2.1,0.9-3,1.3c-0.6,0.3-1.3,0-1.8,0.2
		c-0.5,0.2-0.9,0.7-1.3,0.8h-1c-0.1,0.1-0.2,0.2-0.2,0.4c-0.4,0.1-0.9,0.2-1.3,0.2c-0.5,0.2-1.1,0.8-1.5,0.9
		c-0.6,0.1-1.6,0.1-2.2,0.4c-0.3,0.3-0.5,0.5-0.8,0.8c-0.3,0.2-0.5-0.2-0.7-0.1c-0.4,0.2-0.8,0.7-1.3,0.8c-0.2-0.1-0.4-0.2-0.5-0.4
		c-0.1,0.2-0.3,0.4-0.4,0.7c-0.3,0-0.5,0.1-0.8,0.1c-0.9,0.6-5.2,2.9-6.1,2.9c-0.2,0.2-0.2,0.2-0.1,0.5c-0.4,0.2-1.2,0.4-1.4,1
		c-0.2-0.1-0.4-0.1-0.5-0.2c-0.4,0.1-3.8,2.5-3.9,2.9c-0.3,0.1-0.5,0.2-0.8,0.1c-0.2,0.3,0,0.4-0.2,0.7c-0.4,0.6-1.9,2.1-2.6,2.3
		C33.1,25.1,33.1,25,33,25c-0.4,0.1-0.6,0.4-0.9,0.5c-0.4,0.2-2.1,0.2-2.5,0.2c0,0.2,0,0.3-0.1,0.5c-0.3-0.1-0.2-0.1-0.4-0.2
		c-1,0.7-1.5,1.1-2.8,1.4c0-0.1,0-0.2-0.1-0.3c-0.1,0-0.2,0.1-0.3,0.1c-0.1-0.2,0-0.3-0.2-0.4c-0.2-0.1-0.2-0.1-0.4-0.1
		c-0.2-0.2-0.2-0.2-0.2-0.5c-0.4-0.1-0.6-0.4-1-0.5c-0.7-0.1-3.3,0.5-3.7,0.7c-0.3,0.2-0.5,0.6-0.7,0.8c-0.5,0.4-1.3,0.2-1.2,1.1
		c-0.3,0.2-0.4,0-0.6,0.1c-0.7,0.4-0.8,1.4-1.9,1.4c0,0.3-0.1,0.5-0.1,0.8c-0.3,0.1-0.5,0.1-0.9,0.1c0,0.1,0,0.2,0.1,0.4
		c-0.2,0.2-0.1,0.1-0.5,0.1c-0.1,0.8-0.9,1.7-1.6,2c-0.1,0-0.2-0.1-0.3-0.1c-0.4,0.2-0.3,0.9-1,1v0.4c-0.2,0.2-0.1,0.1-0.5,0.1
		c-0.5,1.2-1.9,2.4-3.1,2c-0.4,0.3-2.2,3.9-2.2,4.1C6,40.8,5.7,40.9,5.6,41c1,1.8-1.9,3.2-1.4,4.7c-0.5,0-0.6,0.3-1,0.5
		c0.1,0.1,0.1,0.2,0.2,0.4c-0.3,0.3-0.7,0.8-1.1,1c0,2,0.3,4.3-0.1,6.4c0.2,0.2,0.4,0.2,0.5,0.5c0.4,0,1.1,0.2,1.5,0
		c0.2,0.2,0.4,0.4,0.7,0.6C4.9,55,5,55,5.1,54.9c0.2,0.1,0.4,0.3,0.7,0.4c0.6,0.1,1-0.7,1.4-1c0-0.3-0.1-0.6-0.1-0.9
		c0.2-0.1,0.2-0.1,0.5-0.1c0-0.1,0-0.2-0.1-0.2c0.2-0.1,0.1-0.2,0.5-0.2C8,52.4,8.1,52.4,8,52V52l0.5-0.1c0-0.3-0.1-0.5-0.1-0.8
		c0,0,0-0.1,0.1-0.1c0.1,0,0.2,0.1,0.4,0.1C8.9,51.1,8.9,51,9,51c0-0.3,0.1-0.6-0.1-0.9c0.4-0.2,0.4-0.3,0.7-0.5
		c0.3,0.1,0.9-1,0.8-1.4c0.2-0.1,0.2-0.1,0.4-0.1c0.1-1,0.6-1.1,0.5-1.9c0.1,0,0.1-0.1,0.2-0.1c0.1,0.1,0.2,0.2,0.2,0.2
		c0.2-0.3,0.1-0.3,0.1-0.7c0.4-0.2,0.4-0.5,0.8-0.5c0.2-0.3,0.3-0.5,0.2-0.8c0.3-0.2,0.7-0.5,1.1-0.8c0.4,0.3,0.5,0.8,0.8,1.3
		c0.2-0.1,0.2-0.1,0.3-0.2c0.5,0.4,1.1,0.9,1.1,1.6c0.8,0.2,0.9,0.6,1.5,1c0.4,0.2,0.7,0,1.2,0.2c0.3,0.3,0.7,0.6,1,1
		c-0.1,0.1-0.1,0.1-0.4,0.1v2.6c0.4,0.9,0.5,0.7,0.4,1.8c0.3,0.1,0.6,0.1,0.8,0.2c0.2,0.4,0.4,0.8,0.6,1.3c0.2,0.1,0.4,0,0.5,0.1
		c0.1,0,0.1,0.1,0.2,0.1C22,54.8,22,54.8,21.9,55c0.1,0,0.3,0,0.4,0.1c0,0.3,0,0.6,0.1,0.8h0.4c0.1,0.1,0.1,0.2,0.1,0.5
		c0.3,0.1,0.9,0,1.1,0.1c0.6,0.3,0.7,0.8,1.4,1c-0.2,0.3,0,0.8-0.1,1.2c-0.1,0.3-0.4,0.4-0.5,0.8c-0.5,0.1-0.5,0.5-0.4,1l-0.4-0.1
		c-0.2,0.5-0.6,1.3-1.1,1.6v0.4c-0.2,0-0.5,0-0.7,0.1c-0.1,0.1-0.6,1.3-0.6,1.4c-0.3,0.1-0.2,0.1-0.5,0c0,0.2,0,0.4-0.1,0.5
		c0,0-0.1,0-0.1,0.1c-0.1,0-0.2-0.1-0.2-0.1c-0.2,0.3,0.1,1-0.1,1.4c-0.3,0.6-1.1,1.3-1,2h-0.1c-0.5,0-0.5,0.8-1,1.1
		c0,0.1,0.1,0.2,0.1,0.4c-0.2,0.4-1,1.4-1.4,1.4c-0.1,0.3,0,0.1,0.1,0.4c-0.2,0.3-0.1,0.5-0.5,0.5c0,0.1-0.1,0.3-0.1,0.4
		c-0.1,0-0.3,0-0.4,0.1c0,0.6-0.6,1.4-1.1,1.9c-0.1,0-0.2-0.1-0.2-0.1c-0.2,0.3,0.1,0.6-0.1,1.1c-0.1,0.2-0.3,0.3-0.4,0.5
		c0,0.1,0,0.1-0.1,0.2c0,0,0,0.1,0.1,0.1c-0.2,0.2-0.1,0.1-0.5,0.1c0,0.3-0.1,0.6-0.1,0.9c-0.1,0.1-0.3,0.1-0.4,0.2
		c-0.2,0.3,0.1,0.8-0.1,1.1c-0.1,0.2,0,0.1-0.3,0.2c0,0.3,0,0.6-0.1,1h-0.4c0,0,0,0.1-0.1,0.1c0.1,0.1,0.1,0.2,0.2,0.2
		c-0.1,0.2-0.3,0.4-0.5,0.5c-0.1,0.3-0.1,0.7-0.2,1h-0.3c-0.3,0.3-0.2,0.4-0.6,0.5c0.2,1.6,0.1,3.4,0,4.9c0,0,0,0,0.1,0.1
		c0.1,0,0.2-0.1,0.3-0.1c0.1,0.2,0.5,2,0.6,2.4c0.2,0.2,0.1,0.1,0.4,0.1c0.1,0.7,1.2,2.3,1.6,2.9h0.4v0.5c0.1,0,0.1,0,0.2,0.1
		c0.1-0.1,0.2-0.1,0.2-0.2c0.8,0.5,2.4,2.4,2,3.4c0.1,0.3,0.3,0.2,0.4,0.5c0.3,0.1,0.2,0.1,0.5,0c0.1,0.3,0.1,0.2,0,0.5
		c0.4,0.2,0.5,0.5,1,0.8c-0.1,0.3,0.1,0.6,0,1c-0.2,0.5-0.6,0.2-0.5,0.8c-0.2,0.1-0.1,0.1-0.4,0h-0.1c-0.1,0.6-1.3,3.6-2,3.9
		c0.2,0.8,0.3,2,0.1,2.9c0.2,0.1,0.1,0.1,0.4,0.1c0.1,0.7,0.1,0.8,0.5,1.4c0.3,0.4,0,2.2-0.1,2.9c-0.1,0-0.2-0.1-0.4-0.1
		c-0.1,0.3-0.2,0.6-0.4,0.9c-0.2,0-0.4,0-0.5,0.1c-0.1,0.3-0.1,0.6-0.2,0.9h-0.3c-0.2,0.3-0.2,0.4-0.5,0.5c-0.3,0.5-0.2,1.4-1,1.4
		c-0.2,0.8-1.3,2-1,2.8h-0.3c-0.3,0.2-0.3,0.5-0.7,0.7c0,0.4,0,0.5,0.2,0.8c-0.2,0.2-0.4,0.5-0.7,0.7c0.1,0.3,0,0.5,0,1
		c0,0-0.1,0-0.1,0.1l-0.1-0.2c-0.3,0.1-0.4,1.2-0.4,1.9H10c-0.4,0.6-0.6,1-0.6,1.9c-0.1,0-0.2,0.1-0.4,0.1c-0.3,1.7-0.9,1.4-1.7,2.8
		c-1.2-0.1-1.8-0.1-3.1-0.1c0-0.1,0-0.3-0.1-0.4c-0.3-0.1-0.5-0.2-0.7-0.3c-0.2,0.3-0.1,0.4-0.5,0.4c-0.1,0.1-0.7,3.2-0.7,3.3
		c-0.2,0.2-0.3,0.1-0.5,0.3c0.4,1-0.1,2.8-0.1,4.6c-0.1,0-0.2,0-0.4,0.1c0.1,0.3,0.4,0.3,0.4,0.5v2.9c-0.1,0.1-0.1,0.2-0.2,0.3
		c0.4,2.2,0.3,5.1,0.1,7.7c-0.1,0-0.3,0.1-0.4,0.1c0.2,1.9-0.2,3.3,0.3,4.7c-0.1,0-0.2,0-0.3,0.1c0.4,2.1-0.1,4.2,0.1,6
		c0.1,0.9-0.4,1.8,0.1,2.5c-0.6,0.5,0,1.7-0.1,2.5c-0.3,2.1,0.2,4.3-0.2,6.2c-0.1,0.3,0.2,0.9,0.2,1c-0.2,0.7,0,1.2,0.1,1.9
		c-0.2,0.6-0.4,3.9-0.3,4.5c0.1,0.3,0.3,1.1,0.2,1.4c-0.2,1.2-0.3,2.9,0,4c0,0.1,0,0.1,0.1,0.2c-0.6,1,0.2,3.1-0.1,4.3
		c-0.1,0.4-0.2,1.8,0.1,2.3C1,188,1.5,192,1.3,193c-0.1,0.6,0.1,1.4,0.1,1.8c0,0.5-0.2,1.3-0.1,1.7c0.3,1.1,0.2,2.3,0,3.2
		c-0.2,0.9,0.5,1.7-0.1,2.3c0.1,0.3,0.2,0.2,0.4,0.4c-0.1,0.1-0.3,0.2-0.4,0.2c0.4,2.1,0.1,4.1,0.1,6.6c-0.1,0-0.3,0.1-0.4,0.1
		c0.6,1.6,0.2,3.4,0.4,5.5c0.1,1,0.1,2,0.2,3.1c-0.1,0.7-0.1,1.5-0.2,2.2c0.3,1.6,0.2,3.5,0.1,4.9c-0.2,1.3,0.3,2.4,0.1,3.4
		c-0.4,1.7,0.6,5.4,0,6.4c0.1,0,0.2,0,0.3,0.1c0,0,0,0.1,0.1,0.1c-0.1,0.2-0.1,0.2-0.4,0.2c0.1,0.2,0.1,0.2,0.4,0.1v3.8
		c0,1.8,0.3,3.4,0.1,4.8c-0.2,0.8,0.5,1.8,0,2.3c0.1,0.4,0.4,0.4,0.5,0.7v5.3c-0.1,0.2-0.1,0.2-0.4,0.2c0,0.1-0.1,0.9-0.1,1.1
		c0.1,0.2,0.5,0.3,0.5,0.6c0.1,0.9-0.1,2.8-0.1,4c-0.2,0.1-0.3,0.2-0.5,0.2c0.1,0.1,0.2,0.2,0.2,0.2c-0.1,0.1-0.2,0.2-0.2,0.2
		c0.4,0.7-0.2,1.6,0,2.5c0.1,0.5,0.3,5.2,0,5.7c0.1,0.1,0.2,0.2,0.4,0.2c-0.1,0.1-0.2,0.1-0.4,0.2v0.1c0.2,0.1,0.3,0.2,0.5,0.2
		c0,3.3,0.3,5.9,0.1,8.5h0.3c0.3,1.2,0.1,2.8,0,4c-0.1,1,0,2.1,0.2,3.2c-0.1,0.1-0.1,0.3-0.2,0.4c0.6,1.8,0,3.7,0.2,5.4
		c0,0.2-0.2,0.6-0.2,0.8c0.3,0.4,0.1,2.1,0.4,2.8c-0.2,0-0.2,0-0.3,0.1c0.2,0.5-0.1,1.2,0.2,1.7c-0.1,0.1-0.2,0.1-0.2,0.2
		c0.1,0.1,0.2,0.2,0.3,0.3c-0.1,0.1-0.2,0.1-0.3,0.2c0,0.5,0.1,4.1,0,4.3c0.2,0.3,0.4,0.5,0.5,0.8c0.1,0.5-0.1,1.8-0.4,2
		c-0.1,0.2,0,0.7,0.1,0.9c-0.1,0-0.1,0.1-0.2,0.1c0,0,0,0-0.1,0.1c0.1,0.1,0.2,0.1,0.4,0.2c-0.1,0.3,0,0.2-0.3,0.2
		c0.1,0.3,0.1,0.2,0.2,0.4c-0.1,0.1-0.1,0.1-0.3,0.1c0.1,0.8-0.1,5.3,0.2,5.5c-0.1,0.2-0.1,0.2-0.2,0.4c0.2,0.3,0.2,2.3,0,2.8
		c0.1,0.2,0,0.1,0.3,0.2c0.7,1.3,0,5.2,0.1,6.7c0.1,0.5,0.5,0.6,0.6,1v0.9l0.4,0.1c0.3,0.4,0,0.8,0,1.2c-0.1,1,0.4,2.9,0.1,3.4
		l0.7,1.2c-0.1,0.2-0.1,0.2-0.2,0.3c0,0.1,0,0.1,0.1,0.2c0.1,0,0.2-0.1,0.3-0.1c0.1,0,0.1,0,0.2,0.1v1.4c0.3-0.1,0.2-0.1,0.5,0
		c0,0.6-0.3,2.3-0.2,2.9c0.2,0.8,0.2,2.2,0.1,2.8c0.4,0.4,0.7,1.6,0.5,2.3c0.2,0.4,0.5,0.7,1,0.7v0.5c0.6,0,0.8-0.1,1.6-0.1
		c0.5,0.4,0.8,0.6,1,1.3c-1.1,1.2-3,1.8-4.4,2.5c-0.4,0.2-0.5,0.7-1,0.9c0.1,1,0.1,1.2-0.5,1.6c0.1,0,0.2,0.1,0.2,0.1
		c-0.1,0.3-0.1,0.2-0.2,0.4c0.1,0,0.2,0.1,0.4,0.1c0.2,0.6,0,0.7,0.4,1.1c-0.1,0-0.2,0.1-0.3,0.1c0.1,0.4,0.1,0.3,0.1,0.7h0.3
		c0.3,0.6,0.1,0.9,0.1,1.7c-0.1,0-0.2,0-0.4,0.1c-0.2,0.9,0.1,1.7-0.1,2.7c0.6,0.3,0.6,1.2,1.4,1.3c0.1,0.4,0.2,0.7,0.2,1.1
		c0.6,0.1,1.1,0.1,1.5,0.5c-0.3,0.5,0,1.4-0.3,1.9c-0.2,0.3-0.6,0.4-0.8,0.8c0.3,0.2-0.1,1-0.5,1.3v0.7c0,0,0,0,0.1,0.1
		c0.1,0,0.3-0.1,0.4-0.1c1.1,1.2,0.4,4.6-1,5.1c0.1,0.9-0.7,4.2-1.2,4.6c-0.2,0.4-0.2,0.7-0.2,1.3c0.4,0.3,0.6,0.6,1.1,1
		c-0.1,0.1-0.1,0.2-0.2,0.4c0.3,0.2,0.5,0.3,0.7,0.6c0.5-0.1,0.6-0.3,1.1-0.4c0.1,0.2,0.2,0.3,0.4,0.5c-0.3,0.6-0.2,1.1-0.1,1.8
		c0.1,0.1,0.2,0.1,0.3,0.2c0.5-0.1,0.5-0.4,1.1-0.4c0-0.3-0.1-0.4,0.1-0.8c0.4-0.1,0.8-0.2,1.2-0.2c0.3,0.3,0.5,0.5,1,0.5
		c0.2-0.4,0.4-0.5,0.6-0.9c1.1,0.2,1.2,0.5,2.3,0.2c0.2-0.2,0.4-0.3,0.6-0.5c0.4-0.1,0.7,0.2,1.1,0c0.4-0.2,1.2-2,1.3-2.5
		c0.3-0.2,0.3-0.3,0.8-0.4c0.1,0.2,0.2,0.4,0.2,0.5c0.8-0.2,1-0.8,0.8-1.6c0,0,0.1-0.1,0.1-0.1c0.1,0.1,0.2,0.1,0.2,0.2
		c0.4-0.6,0.2-1.6,0.8-2.1c0.4,0,0.8,0,1.1,0.1c0.5,0.8,0.8,2.8,0.1,3.4c0.2,0.4,0.2,1,0,1.5c0.6,0.4,1.1,1.2,1.9,1.4
		c0.2-0.2,0.4-0.4,0.5-0.5c0.4,0.1,0.8,0.1,1.1,0.2c-0.1-0.1-0.1-0.1-0.2-0.2c0.3-0.3,0.8-0.7,0.7-1.1c0.8-0.5,1.5,0.1,2.6,0.2
		c0.3-0.4,1.2-1.3,1.1-1.8c0.2-0.2,0.2-0.1,0.5-0.1c0-0.1,0-0.3,0.1-0.4H29c0.4,0.8,0.1,1.6,0.3,2.3v0.2c0.5-0.1,0.7-0.2,1.1,0
		c0.4-0.3,0.8-0.5,0.7-1.1c0.1-0.1,0.3-0.2,0.4-0.3c0.7,4.2,5.8,4.2,8.7,6.2v0.2c0,0-0.1,0.1-0.1,0.1h-0.4v0.4h-0.4
		c0,0,0,0.1-0.1,0.1l0.1,0.2c-0.5,0.6-0.9,1.2-1.6,1.6c-0.1,0.5,0,0.6,0,1.1c0.2,0.1,0.3,0.1,0.5,0.2c0,0.3,0,0.6,0.1,0.9h0.6
		c0.3,0.6,0.7,1.3,0.9,1.9c0.2-0.1,0.4-0.1,0.5-0.2c0.3,0.2,0.5,0.8,0.8,1c0.2,0,0.4,0,0.7,0.1c0.3,0.3,0.7,0.6,1,0.8
		c0.3,0.1,0.6-0.3,1-0.4c0,0,0.1,0,0.1,0.1c0.1,0.5,0.1,0.5,0,1c0,0.1,0.1,0.1,0.1,0.2c0.7-0.1,1-0.2,1.7-0.2c0,0,0,0.1,0.1,0.1
		c0.3,0.3,0.1,1.2,0.1,1.5c0.1,0.1,0.2,0.1,0.2,0.2c0.7-0.2,0.9-0.7,1.4-1l0.4-0.4c0.3-0.1,0.7,0.1,1,0.1c0.7-0.1,1-0.7,1.6-0.8
		c0.3-0.1,0.9,0.2,1.1,0.3c0.3-0.6,0.8-1.3,1.4-1.4c0.5,0.5,0.7,0.8,0.6,1.6c0.1,0.1,0.2,0.2,0.4,0.2c0.3-0.1,0.7-0.2,1-0.3
		c1.1,0.6,1.6,0.6,1.6,2c0.1,0.1,0.2,0.1,0.3,0.2c0.5,0,0.9,0,1.1-0.4c0.2,0,0.3,0.1,0.5,0.1c0.1,0.3,0.2,0.6,0.1,0.9
		c0.3,0.3,0.9,0.4,1.3,0.4c0.2,0.3,0.1,0.9,0.2,1.3c0.2,0.2,0,0.1,0.2,0.1c0.2,0.3-0.1,0.3,0.1,0.5c-0.1,0.2,0,0.2-0.2,0.3h-0.3
		c0,0.1,0.1,0.1,0.1,0.2c-0.1,0.3,0.1,0.2-0.2,0.3c0.1,0.2,0.1,0.1,0.2,0.2c-0.1,0.1-0.3,0.3-0.4,0.4c0.1,0.6,0.6,1.2,1.4,1.1
		l0.1,0.1c-0.1,0.5-0.2,0.6,0,1c-0.2,0.4-0.5,0.8-0.7,1.1c0.2,0.6,0.8,1.4,0.5,2.2c-0.2,0.1-0.3,0.3-0.5,0.4c0,0.1,0.1,0.3,0,0.5
		c-0.3,0.3-0.6,0.5-0.9,0.8c-0.2,0.3,0.1,0.6-0.4,0.8c-0.1,0.2-0.1,0.4-0.1,0.8c0.3,0.1,0.4,0.1,0.5,0.4c-0.1,0.4,0,0.4-0.1,0.8
		l0.3,0.3c0.7-0.1,0.9-0.4,1.4-0.7c0.3,0.2,0.7,0.5,1,0.7c-0.2,0.8-1,2.7-1.6,3.2c0.1,0.3,0.1,0.3,0.1,0.7c0.4,0.3,0.8,0.7,0.8,1.3
		c0.3,0.2,0.6,0.3,1.1,0.3c0.1,0.2,0.2,0.4,0.2,0.5c0.4,0.1,0.7,0.2,1.1,0.4c0,0.4,0,0.8-0.1,1.1c-0.2,0-0.2,0-0.4-0.1
		c0,0-0.1,0-0.1,0.1c0.1,0.3,0,0.5,0.1,0.8c-0.2,0.2-0.3,0.1-0.5,0.2v0.6c0.4,0.2,0.6,0.3,1,0.4c0.2,0.4,0.2,2.5,0,2.9v0.6
		c0.1,0,0.3-0.1,0.4-0.1h0.1c0.1,0.5,0,0.8,0.5,1c-0.1,0.2,0,0.1-0.2,0.1v0.2c0.4,0.2,0.4,0.3,1,0.4c0.2,0.6,0.6,1.8,1.2,2
		c-0.1,0.3,0,0.2-0.3,0.2v0.3h0.3c0.1,0.8,0.1,0.9-0.4,1.4c0.2,0.1,0,0.1,0.2,0h0.1c0,0.8,0.1,1.6,0.1,2.5c-0.2,0.2-0.4,0.7-0.7,0.8
		c0.1,0.2,0.1,0.3,0.2,0.5h-0.4c-0.2,0.3-0.4,0.5-0.7,0.7c0.2,0.5,0.2,1.7-0.1,2.2c-0.2,0.2-0.1,0.2-0.4,0.1
		c-0.4,0.4-0.2,1.5-0.4,1.9c0.4,0.4,1.2,0.3,1.9,0.1c0-0.3,0.1-0.1-0.2-0.2c0.1-0.2,0.6-0.6,0.8-0.7c0.3,0,0.6,0.1,0.9,0.1
		c0.4,0.5,0.5,2.7,0.3,3.4c0.4,0.4,2.1,0.7,2.7,0.9c0.2-0.2,0.5-0.6,0.5-0.9c0.2,0,0.4-0.1,0.6-0.1l-0.1-0.4
		c0.2-0.2,0.4-0.4,0.6-0.5c0.6,0.1,0.7,0.4,1,0.7c0.8-0.3,0.9-0.7,1.4-1.1c0.8-0.5,2.2-0.4,3.1-0.2c0.3-0.2,0.5-0.5,0.7-0.8
		c1.1-0.2,2.2-0.1,2.9-0.4c0.5,0.4,2,1.1,2,1.1c0,0.4-0.1,0.7-0.1,1.1c0.2,0.9,0.2,2.8,0.2,4.1c0.2,0,0.1,0,0.2-0.1
		c0.2,0.2,0.1,0.6,0.4,0.8c0.5,0.3,1.5,0,1.4,0.7c0.3,0.7,0.2,3.4,0.1,4c0.2,0.1,0.4,0.1,0.6,0.2c0.6-0.5,0.9-0.1,1.7-0.4
		c0.5,0.6-0.1,0.8,1,0.5c0.4-0.1,0.2,0.2,0.5,0.1c0.2,0.1,1,1.4,1.2,1.7c1.4-0.7,1.5-1.5,2.5-2.6c-0.1,0-0.1-0.1-0.2-0.1
		c0.2-0.1,0.5,0.1,0.8,0.2c1.3-0.2,2-1.9,1.4-2.6c0.8-0.6,1.8-1.3,3.2-1c0.3,0.5,0.4,1.8,0.1,2.5c0.3,0.2,1.3,0.8,1.4,0.9
		c0.5,0.6,0.7,2.3,1.8,1.9c0.3,0.3,0.1,0.6,0.2,1.1c0.3,0,0.4,0,0.7,0.1c0.4-0.4,0.7-0.6,0.9-1.2h0.2c0.1,0.1,0.2,0.2,0.2,0.3
		c-0.1,0.2,0,0.1-0.1,0.2c0.1,0.3,0.1,0.3,0.4,0.4c0.5-0.3,0.8-0.5,1.4-0.7c0.6,0.3,1.1,0.7,1.5,1.1c-0.1,0.3,0,0.4-0.4,0.5
		c0.5,0.7,0.4,1,1,1.7c-0.4,0.7-0.2,2-0.2,3c-0.1,0-0.3,0-0.4,0.1v1.8c-0.2,0.2-0.2,0.1-0.5,0.1l-0.1,0.1c0.1,0.9-0.2,2.8-1,3.4
		c0.4,0.8-0.1,3,0,3.8c-0.2,0-0.2,0-0.4-0.1c-0.7,1.9,0.8,3.4-1,5.4c0.1,0.3-0.2,0.9,0.2,1.1v0.2c-0.5,0.2-0.1,0.6-0.2,1
		c-0.1,0.2-0.5,0.4-0.5,0.5c-0.2,0.4,0.3,1.2,0,1.7c-0.6,0.9-1.2,2.8-0.8,4c-0.9,1.3-0.5,3.2-0.5,4.7c0,1-0.4,3,0.1,3.9
		c-0.1,0.2-0.1,0.2-0.2,0.4c-0.4,0.2-0.4,0.2-0.9,0.1c-0.1,0.3-0.2,0.4-0.5,0.5c0,0.3,0,0.3-0.1,0.6c0.1,0.1,0.2,0.2,0.3,0.2
		c-0.1,0-0.1,0.1-0.2,0.1c-0.1,0.3-0.2,1.7-0.1,2.3c-0.1,0.1-0.2,0.1-0.5,0.1c-0.1,0.7,0.4,2.5-0.5,2.9v1.9
		c-0.1,0.3-0.4,0.4-0.5,0.6c-0.2,0.6,0.1,1.1,0,1.6c0.5,0.2,0.7,0.7,1.1,1c0.3,0,0.5,0,0.8,0.1c0.3,0.2,0.7,0.7,1,0.8
		c1,0.4,1.7,0,2.4,0.8c-0.2,0.6-0.7,0.9-0.5,1.6c-0.1,0-0.3-0.1-0.4-0.1c-0.1,0.2-0.1,0.3-0.3,0.4c-0.1,0.3-0.3,0.2,0.1,0.4
		c-0.2,0.5-0.3,1-0.3,1.7h-0.4c-0.1,0.7,0.2,1.5-0.4,1.9c-0.1,0.2-0.1,0.6-0.1,1c-0.2,0-0.3,0-0.5,0.1c0,0.8,0.4,2-0.4,2.3
		c0,0.1-0.1,0.1-0.1,0.2c0.1,0.1,0.2,0.1,0.4,0.1c-0.1,0.3,0,0.2-0.3,0.2c-0.1,0.3,0,0.7-0.1,1c-0.2,0.5-0.5,0.5-0.5,1.4h-0.4
		c-0.1,0.3-0.2,0.7-0.1,1c-0.2,0.2-0.2,0.1-0.5,0.1v0.1c0.2,0.6-0.4,0.5-0.5,0.9c0,0.1,0,0.3,0.1,0.4c-0.1,0.2-0.4,0.4-0.5,0.5
		c-0.1,0.3,0.1,0.6,0.1,0.9c-0.1,0.5-0.8,1-1,1.5c-0.1,0.4-0.1,0.8-0.2,1.3c-0.2,0.4-0.9,1-0.9,1.6c-0.8-0.2-2.3,2.5-3.2,2.8
		c-0.6,0.2-1.9,0.6-2.5,1c0,0.2-0.1,0.3-0.1,0.5h-0.1c-0.3,0.1-0.4,0.3-0.6,0.4c-0.4,0.1-0.8,0.1-1.2,0.2c0,0.1-0.1,0.2-0.1,0.4
		c-0.4,0.2-1,0-1.3,0.1c-0.1,0.1-0.2,0.2-0.3,0.3c-0.4,0-0.8,0.1-1.2,0.1c-0.2,0.1-0.2,0.4-0.5,0.5c-0.2,0-2.6,0.1-2.8,0.1
		c-0.1-0.1-0.2-0.2-0.4-0.3c-1-0.3-1.8,0.1-2.6-0.1c0-0.2,0-0.4-0.1-0.5c-1.5-0.4-6.5-0.1-8,0.4c-0.7,0.3-1.4,1.3-2,1.4
		c-0.1,0.4,0,0.7-0.5,1c0,0.5,0,1.1,0.1,1.6c0.2,0.5,0.6,1.1,0.4,1.8c0.2,0.3,0.5,0.5,0.7,0.8c-0.1,0.1-0.1,0.2-0.2,0.2
		c0.2,0.2,0.3,0.2,0.4,0.5c0.2,0.1,0.2,0.1,0.5,0c0.2,0.4,0.9,1.6,1.5,1.5c0.3,0.6,1.2,1.9,2,2.2c0.3,0.1,0.7,0,1,0.1
		c0.4,0.2,0.6,1,1,1.2c1.4,0.9,3,1.4,4.6,2c0.2,0.2,0.4,0.4,0.6,0.7c0.4,0.2,3.5,0.8,3.5,0.8c0.1,0,0.8-1,0.9-1.1
		c1.7,0.4,3.7,0.1,5.4-0.4c0.2,0.1,0.3,0.3,0.5,0.4c0.6,0.2,0.9-0.3,1.3-0.4c0.7,0.1,1.4,0.1,2,0.2c0,0,0,0,0.1-0.1h0.1v-0.1h0.1
		c1.3,0.6,1,1.7,1.6,2c0,0.2,0.1,0.1-0.1,0.2c0.3,0.3,0.6,0.1,0.7,0.7c0.2,0,0.1,0.2,0.2,0c0.2,0.2,0.1,0.1,0.1,0.2
		c0.2,0.2,0.1,0.1,0.4,0.1l-0.1,0.2c0.2,0.1,0.6-0.1,0.9,0.2c0,0.2,0.1,0.3,0.1,0.5c0.3,0.4,1,0.3,1.1,0.9c0.6,0,1.3,0.1,1.9,0.1
		c0.4,0.1,1.2,0.6,1.6,0.8c1,0.3,3.8,0.5,4.8,0.3c0.3-0.2,0.7-0.5,0.8-0.9c0.1-0.2,0.1-0.1-0.1-0.4c0.4-0.3,0.6-0.6,1-0.8
		c0.5,0.1,1.4,0.2,1.7,0.7c0.2,0,0.3,0,0.5-0.1c0.1-0.3,0.1-0.6,0.2-0.8c0.2-0.4,0.8-0.5,1-1c0.5-0.2,0.8,0.1,1.2,0.5
		c0.6-0.2,1-0.4,1.6-0.2c0.1-0.4,0.2-0.3,0.5-0.3c0-0.2,0-0.3,0.1-0.5c0.5-0.1,0.9-0.3,1.6-0.4c0.2,0.2,0.4,0.4,0.7,0.6
		c0.3,0,0.2,0.1,0.2-0.2c0.5,0.1,0.8,0.3,1.1,0.5v-0.2c0.6,0.1,1.2,0,1.8,0.4c0.5,0.3,0.4,0.9,1,1.1c0.6,0.4,0.9-0.8,1.4-0.9
		c0.5-0.1,1.9,0.3,2.2,0.4c0.8-0.4,1.4-0.8,1.8-1.6c-0.1-0.3,0-0.1-0.2-0.2c0.5-0.9,1-1.8,0.9-2.9c0.2-0.2,0.5-0.4,0.7-0.6
		c-0.4-0.7,0.1-1.8-0.2-2.3c0.3-0.3,0.7-0.6,1-1c0.8,0.1,1.5,0.7,1.7,1.4c0.2,0.1,0.2-0.2,0.4,0.2c0.5-0.1,0.4-0.2,0.8-0.3
		c0.1,0.2,0.3,0.3,0.4,0.5c0.5,0.2,1.1-0.1,1.5,0.1c1,0.5,2,3.6,1.4,4.4c0.4,0.4,0.6,0.7,0.8,1.2c1.3,0.3,1.9-0.5,3.1-0.2v1
		c0.1,0,0.2,0.1,0.2,0.1c0.3-0.1,2.3-0.8,2.6-0.7c0.3,0.1,0.7,0.2,1,0.2c0.2-0.1,0.4-0.2,0.7-0.3c1.5,0.2,2.9,1,4.4,0.7
		c0.4-0.5,0.4-1.1,0.7-1.7c0.4,0.1,0.7,0.2,1.2,0.3c0.1-0.1,0.1-0.2,0.2-0.3c0.4,0,0.7,0.1,1.1,0.1c0.1-0.2,0-0.2,0.2-0.4
		c-0.2-0.8-0.7-1.5-0.9-2.1v-0.1c0.3-0.2,0.4-0.5,0.8-0.5V533c0.2-0.2,0.4-0.4,0.6-0.7c0.5-0.1,2-0.5,2.4,0.2
		c0.5-0.3,0.8-0.4,1.3-0.7c0-0.4,0.1-0.7,0.1-1.1c0.5-0.3,0.7-0.3,1.3-0.2l0.2-0.4c0.3-0.2,0.7-0.2,1.3-0.2c0.3,0.3,0.6,0.5,0.7,0.9
		c0.8-0.1,1-0.6,1.6-0.8c0.4,0.3,0.6,1,0.9,1.6c0.4-0.1,0.4-0.1,0.8-0.1l0.2-0.4h0.2c0.3,0.5,0.4,0.7,0.9,1c0.3,0,0.3,0.2,0.3,0.5
		c-0.1,0.2-0.3,0.3-0.4,0.5c0,0.1,0,0.2,0.1,0.3c0.1,0.1,1.4,1.6,1.5,1.7c0.3,0.2,0.5-0.2,0.9-0.3c0.1,0.1,0.2,0.3,0.3,0.4
		c1.1-0.1,1.4-0.3,2.4-0.4c0.4,0,0.5,0.4,0.8,0.4c0.5,0.1,1.3-0.4,1.9-0.1c0.1,0.1,0.2,0.3,0.3,0.4c0.5,0.2,0.9,0.1,0.8,0.8
		c0.2,0.1,0.3,0.1,0.6,0.1c0,0.1-0.1,0.3-0.1,0.4c0.1,0.1,0.2,0.2,0.4,0.4c0.4-0.2,0.8-0.4,1.1-0.6c0.4,0.3,0.2,0.4,0.8,0.4
		c0,0.1,0,0.2,0.1,0.4c0.7,0.2,1.6-0.1,2.2,0.6c0.5-0.2,1-0.4,1.6-0.4h0.1v0.4c0,0,0,0.1,0.1,0.1c0.4-0.1,0.4-0.1,0.9-0.1
		c0.1-0.2,0.2-0.4,0.5-0.5h0.1v0.5c1.8,0.3,3.2,0,5.2,0c0,0.3,0,0.6,0.1,0.9c0,0,0,0.1,0.1,0.1c0.9-0.2,0.9-0.5,1.6-1
		c0.6,0.2,1,0.3,1.7,0.4c0,0.2,0,0.4-0.1,0.5c0.6,0.2,1.1,0.9,1.6,1.1c1.1,0.5,2,0.4,2.8,1.2c1.1-0.1,1.5-0.2,2.8-0.2
		c0.2-0.6,1.7-1.2,2.5-1.4c0-0.1,0-0.1,0.1-0.2c0-0.4-0.2-0.5-0.5-0.7v-0.1c0.7-0.8,2.4-0.6,3.5-0.9c0.3-0.3,0.6-0.5,0.8-0.8
		c0.7,0.1,0.7,0.6,1.5,0.3c0-0.2,0-0.3-0.1-0.5c0.7-0.5,1.3-0.5,2.2-0.5c0.3-1.1,0.6-1.5,1.6-1.9c0.1,0,0.1,0,0.2-0.1
		c-0.1-0.4,0-0.5-0.2-0.8v-0.1l0.4,0.1c0.1-0.2,0.2-0.4,0.2-0.7c0.9-0.1,1.7-0.2,2.6-0.1c0.2-0.9,0.5-0.9,1.1-1.3l0.1,0.2
		c0.3-0.1,0.2,0,0.3-0.2c0.3,0.1,0.2,0.1,0.4,0.2c0,0,0.1,0,0.1-0.1c0.1-0.6,0.1-0.9,0.3-1.3c-0.1-0.1-0.2-0.2-0.3-0.2
		c0.3-0.4,0.7-0.7,1-1.1c0.5-0.3,0.6,0.1,0.9-0.4c0.6,0.1,1.2,0.2,1.8,0.4c0.2-0.4,0.1-0.4,0.6-0.4c0.1-0.5,0.5-1.5,1-1.8
		c3,1.2,3.5,0.1,5.2-1.3c0.4-0.3,1-0.3,1.2-0.8c0-0.3-0.1-0.6-0.1-0.8c0.1-0.3,0.5-0.3,0.5-0.8c0-0.1,0.1-0.2,0.1-0.2
		c0.1,0,0.2,0.1,0.4,0.1h0.1c0-0.2,0-0.1-0.1-0.2c0.2,0,0.1,0,0.4,0.1c0.2-0.4,0.5-0.9,0.8-1.1c0.7,0.2,0.5-0.3,1-0.5
		c0.3-0.1,0.7,0.2,1,0.1c0.5-0.2,1.2-1.4,1.6-1.8h0.3c0.2,0.3,0.2,0.3,0.2,0.7c0.2,0.1,0.4,0.1,0.8,0.1c0.1-0.1,0.1-0.2,0.2-0.3
		c0.4,0.1,0.4,0.1,0.9,0.1c0.1-0.4,0.4-0.4,0.7-0.6h0.2c0.2,0.4,1,1.5,1.3,1.7c0.5,0.2,0.8-0.2,1.2-0.2c0.1-0.4,0.2-1.2,0.1-1.3
		c0.1-0.3,0.2-0.2,0.5-0.3c0.4-0.3,0.1-0.4,0.4-0.8c0.4-0.8,1.5-0.9,2.4-0.8c0,0.1,0,0.1,0.1,0.2c-0.1,0.5,0.1,0.3,0.5,0.2
		c0.3,0.3,0.6,0.7,1,1v0.7c-0.3,0.2-1.1,0.6-1.2,1c-0.5,0.6,0.1,1.5-0.2,2.2c0.3,0.3,2.2,1.6,3.1,1.2c0.6-0.4,0.7-0.6,1.3-0.8
		c0-0.3,0-0.6-0.1-0.9c0.5-0.2,0.7-0.5,1-0.9c0.7-0.3,1.3,0.4,2.2,0.1c0.2-0.1,0.8-0.3,1.1-0.5c0.1,0.1,0.2,0.2,0.4,0.3
		c0.8-0.4,1.1-1,1.7-1.5c0.5,0,1.8,0.4,1.9,0.7c0.9-0.1,0.9,1.5,0.8,2.3c0.5,0.3,1.1,0.7,1.7,1c-0.1,0.7,0,1.5-0.1,1.9
		c0.1,0.2,0.3,0.4,0.4,0.5h0.2c0.9-0.8,1.8-2.1,2.9-2.6c0.2,0.2,0.2,0.2,0.3,0.5c0.4,0.3,0.9,0.2,1.3,0.2c0.5-0.7,0.8-1.3,1.6-1.7
		c0.1,0,0.6,0.1,0.7,0.2c0.1,0.2,0.1,0.4,0.1,0.6c1.4,0.2,1.6-0.5,2.8,0.5c0.6-0.2,1.9-0.1,2-0.1c0.3-0.2,0.6-0.4,1-0.7
		c0,0.1-0.1,0.2-0.1,0.2c0.6,0.1,1.8,0,1.6,0.5c0.7,0.3,1.6,0.2,2.2,0.7c0.5-0.2,1-0.1,1.5-0.4c0.2-0.1,0.2-0.4,0.5-0.5
		c0.2,0,0.2,0,0.4,0.1h0.1c0.4-1.1-0.3-2.4,0.1-3.9c-0.1-0.3-0.2-0.3-0.5-0.4c0.3-1.6,0.3-3.1,0.6-5c0.1-0.5-0.3-1.4-0.1-1.9
		c0.2-0.2,0.3-0.3,0.5-0.5c0.1-0.4,0.1-0.8,0.2-1.2c0.4-0.2,0.7,0,1.1,0.1c0.9-0.6,1-1.4,1.5-2.2c0.4,0,0.4,0,1-0.1
		c0.1-0.3,0.1-0.6,0-0.9c0.5-0.4,1-1.2,1.6-1.5c0.2-0.1,0.3,0.2,0.5-0.1c0-0.3-0.1-0.5-0.1-0.8c0.3-1,1.8-1.5,1.1-3.1
		c0-0.1,0.1-0.1,0.1-0.2c0.5-0.1,1-0.1,1.3-0.2c0.1,0,0.1-0.1,0.2-0.1c-0.4-0.7-0.2-1.2-0.7-1.8c0-0.2,0.1-0.4,0.1-0.5
		c0.2-0.1,0.5-0.2,0.7-0.3c0.5,0.1,0.6,0.3,0.9,0.6c0.2-0.2,0.2-0.2,0.7-0.2c0.1-0.3,0.1-0.2,0-0.5c0.5-0.2,1.5-0.4,1.8-0.2
		c0.1-0.1,0.2-0.2,0.4-0.3c0-0.4-0.1-0.7-0.1-1.1c0.8-0.4,1.6-0.2,2.2,0.1c0.3,0,0.2,0,0.4-0.1c0.4-0.5,0.1-1.7,0.3-2.2
		c0.1-0.1,0.2-0.2,0.4-0.2v-0.8c0.2-0.2,0.4-0.4,0.5-0.5c0.3,0.1,0.4,0.4,0.6,0.4c0.4,0.1,1.2-0.9,1.3-1.1c0.2,0.1,0.2,0.1,0.4,0.2
		c0.3-0.1,0.3-0.3,0.4-0.3c0.2-0.1,0.1,0.2,0.1,0.2c0.1,0,1.1-0.2,1.3-0.3c0.4-0.2,0.8-0.7,1.4-0.7c0.3-0.5,0.4-1.9,0.2-2.8
		c0.2-0.2,0.2-0.2,0.4-0.2c0.1,0,0.2,0,0.3-0.1c0.5,0.4,1.2,0.8,1.2,1.7c0.1,0,0.3,0,0.4,0.1c0.1,0.6,0.2,1.2,0.8,1.5
		c0.3-0.5,0.6-0.9,1.1-1.1c0.1,0.2,0.2,0.4,0.3,0.5c0.3,0,0.6-0.1,1-0.1c0.3-0.4,0.4-1,0.9-1.2c0.2-0.2,0.3-0.1,0.5,0
		c0.4-0.4,0.9-1,1.6-0.8c0-0.1,0-0.1-0.1-0.2c0.1-0.1,0.2-0.2,0.3-0.3c0.6,0.1,1.3,0.2,1.8,0.5c1-0.7,1.2-2.2,0.8-3.2
		c0.2-0.2,0.4-0.5,0.7-0.7c-0.1-0.1-0.1-0.1-0.2-0.3c0.3-0.3,0.7-0.6,1-0.9c0.7-0.3,1.7,0.3,2,0.7c0.3-0.2,0.2-0.4,0.4-0.7
		c0.4-0.2,0.9-0.4,1.3-0.5c0-0.5,0.2-0.7,0.6-1h0.2c0.3,0.2,0.5,0.5,0.8,0.7c0.4,0.1,0.7-0.3,1.1-0.4c0.2,0.2,0.3,0.3,0.4,0.5
		c0.1,0.1,0.2,0.1,0.2,0.2c0.3-0.3,0.4-0.5,0.4-1.1c0.4-0.2,0.6-0.3,1-0.5c0.5,0.2,1.1,0.6,1.7,0.6c0.3-0.6,1.5-1.6,2.2-1.5
		c0-0.4,0.1-0.5,0.4-0.7h0.1c0.5,0.4,0.6,0.5,1.2,0.7l0.4-0.2c0.1-0.2,0.1-0.2,0.1-0.5h0.1c0.4,0,0.5-0.7,0.8-0.8
		c-0.1-0.2,0-0.1-0.2-0.2c0.1-0.3,0.4-0.3,0.7-0.3c0.6,0.6,0.8,1.1,1.7,1.6c0.3,0,0.5-0.1,0.7-0.4c0.1,0,0.2,0,0.3,0.1
		c0.3,0.5,0.6,1.4,1.1,1.7c0,0,0.1,0.1,0.1,0.1c0.1-0.1,0.2-0.1,0.3-0.2c0.3-0.2,0.6-0.4,0.8-0.7c0.5-0.1,0.8,0.2,1.3-0.1
		c0.2-0.1,0.6-0.8,0.7-1c1.3,0,1.2,0.7,2.4,0.7c0-0.3,0-0.2,0.3-0.2c0.3-0.4,0.3-1.1,0.2-1.6c0.1-0.1,0.2-0.2,0.4-0.4
		c0.2,0,0.5,0.1,0.7,0.1c0.2,1.5,0.9,2,0.7,3.9c0.8,0.4,1.8,0.7,2.7,1c0.1,0.2,0.1,0.1,0,0.3c0.2,0.1,0,0.1,0.2,0
		c0.1,0.2,0,0.3,0.1,0.5c0.2,0.4,0.9,0.6,0.8,1c0.2,0.1,0.1,0.1,0.3-0.1c0.1,0.2,0.2,0.4,0.2,0.6c0.1,0,0.2,0,0.3,0.1
		c0.3-0.5,1.2-1.5,1.9-1.7c0.1,0,0.2,0.1,0.4,0.1c0.2,0.4,0.4,1.2,0.4,1.5c1.5-0.4,0.5-1.2,2,0.1c0.7-0.2,1.4-1.1,1.2-1.6
		c0.1-0.2,0.2-0.3,0.3-0.5c0.4,0.1,0.8,0.1,1.1,0.2c0.3-0.5,0.4-1,1-1.3c0.4-0.3,0.8,0,1.2,0.2c0.4-0.4,0.4-1.9,0.2-2.5h0.4
		c0.2-0.2,0.2-0.2,0.2-0.5c0.6-0.1,1.1,0.5,1.5,0.7c0.4,0.2,0.8,0,1.2,0.1c0.3-0.9-0.2-1.6,0.1-2.8c0.7-1.4,1.8-0.9,3.2-1.3
		c0.2-0.2,0.4-0.4,0.6-0.6c0.2-0.1,1.1-0.3,1.3-0.4c0.3-0.6,0.4-4.4,0.1-5c-0.2-0.6-0.7-0.7-1-1.7c0.1-0.2,0-0.2,0.3-0.2
		c-0.1-0.1-0.2-0.3-0.3-0.4v-0.1c0.1,0,0.2,0,0.3,0.1c-0.1-0.3,0.1-0.2-0.2-0.3v-0.4c0.1,0.1,0.2,0.1,0.2,0.2
		c0.3-0.9,0.2-1.9,0.4-2.7c-0.1-0.1-0.1-0.2-0.2-0.4c0.1-0.3,0.3-0.6,0.3-1.1c0.1,0,0.1-0.1,0.2-0.1c0.2,0.3,0.4,0.5,0.8,0.6
		c0.4-0.2,0.9-0.7,1.1-1.1c0.8-0.4,1.7,0.2,2.5,0.2v0.4c0,0,0,0,0.1,0.1c0.4-0.1,0.7-0.2,1.1-0.4c0.3-0.3,0.4-0.7,0.9-1
		c0.2,0.1,0.4,0.2,0.5,0.5c0.8-0.1,0.8-0.5,1.7-0.5c-0.1-0.4,0-0.5-0.1-0.8c0.1-0.1,0.2-0.2,0.3-0.2c-0.1-0.1-0.2-0.1-0.3-0.2
		c0.1-1,0.3-1.8,0.1-2.5c0.1-0.1,0.2-0.2,0.3-0.4h0.2c0.3,0.6,0.9,0.6,0.8,1.4c0.4,0,0.5-0.1,1-0.1c0.1-0.4,0.1-0.3,0.2-0.7
		c0.1-0.2-0.1-0.9-0.2-1c0.4-0.8,1-2.1,1.4-2.9c0.5,0,0.9-0.1,1.1-0.6c0.2,0,2,0.9,2.1,1.1c0.2-0.1,0.2-0.1,0.3-0.4
		c0.3,0.1,0.2,0,0.2,0.3c0.3-0.1,1-0.2,1.5-0.2c1.1,0.8,1.5,1.8,2.1,2.8c0.1-0.1,0.2-0.1,0.4-0.2l0.2,0.1c0,1.1,0.2,0.8,0.4,1.5
		c0.2,0.9,0,2.5-0.1,3.4c0.5,0.3,0.7,0.9,1.1,1.3c-0.1,0.2,0,0.1-0.2,0.1c0.1,0.3,0.1,0.2,0.3,0.3v0.2h-0.3c0.1,0.2,0,0.1,0.2,0.2
		c-0.1,0.3-0.2,0.2-0.5,0.3c-0.1,0.9,0.4,1.6,0.3,2.2c1.2,0.7,1.6,1.6,3.3,1.8c0.2-0.2,0.2-0.4,0.5-0.5c0-0.6,0.1-1.2,0.2-1.5
		c0.2-0.2,0.3-0.3,0.5-0.5c0.6-0.2,1.4,0.5,1.7,0.7h0.5c0.5-0.7,0.4-1.3,0.5-2.2c0.4-0.1,0.8-0.2,1.2-0.3c0.7,0.5,2.3,1.1,2.7,1.6
		c0.4-0.1,0.6-0.2,0.8-0.4c0.1,0.1,0.2,0.2,0.2,0.4c0.7,0,0.7-0.2,1.1-0.1c0.3-0.4,1-0.9,1.2-1.3c0.3-0.6,0.7-3.7,0.5-4
		c0.6-0.6,0.7-1.5,1-2.5c0.6-0.2,1.3,0,1.9,0.2c0.2,0.5,0.2,0.8,0.1,1.3c0.2,0.1,0.6,0.4,0.7,0.7c-0.6,0.2,0.1,1.9,0.5,2.2
		c0,0,0.1,0,0.1,0.1c0.3-0.2,0.3-0.5,0.7-0.7c0.5,0.2,1,0.4,1.5,0.7c0.5,0,0.7-0.2,0.8-0.5h0.2c-0.1,0.6,0,1.1-0.1,2l0.1,0.1
		c0.3-0.1,0.3-0.2,0.7-0.1c0.1,0.4,0.2,0.5,0.3,0.8c0,0.5,0,0.6-0.2,0.8h0.2c0,0.3,0,0.3-0.1,0.5c0.1,0.3,0,0.3-0.3,0.3
		c0,0.3,0,0.2,0.2,0.2c0.2,0.2,0.2,0.2-0.1,0.2c0.1,0.2,0,0.1,0.2,0.2c0,0.3,0,0.3-0.2,0.4c0.1,0.3,0,0.1,0.2,0.2
		c0,0.5,0.4,0.7,1.1,0.7c0.3-0.3,0.5-0.7,0.9-0.8c0.3-0.1,0.8-0.1,1,0.1c0.4,0.3,0.3,1.1,0.2,1.7c0.1,0.1,0.2,0.1,0.2,0.2
		c0.3-0.1,1-0.2,1.4,0c0.1,0.1,0.3,0.2,0.4,0.3c-0.1,0.4-0.1,0.5-0.2,0.8c0.1,0.2,0.1,0.1,0.3,0.2v0.1c-1.2,0.7,0,3,1,3.2
		c0.3-0.2,0.4-0.3,0.5-0.7c0.3,0.1,0.6,0.3,0.8,0.4c0.4-0.1,0.7-0.2,1.1-0.2c1.1,0.2,2.5,1.9,3.7,0.7c0.8,0.2,1.4,0.8,2.1,1.1
		c0.3-0.2,1.3-0.8,1.4-1.1c0.1,0.1,0.3,0.1,0.4,0.2c0.3-0.4,0.3-0.7,0.2-1.1c0.2-0.1,0.3-0.2,0.5-0.3c0.1,0,0.2-0.1,0.2-0.1
		c0.2,0.2,0.4,0.4,0.7,0.5c0.2,0.4,0.3,0.8,0.7,1.1c0.8,0.1,1.5-0.1,2.2,0c0.1-0.1,0.2-0.3,0.3-0.4c-0.2-0.3-0.1-0.4-0.1-0.8
		c0.2-0.2,0.4-0.3,0.6-0.5c0.6,0.2,1.2,0.2,1.9,0.4l0.4,0.4c0.5,0.2,1.3-0.2,1.7-0.2c0.1-0.8,0.2-1.6,0.3-2.3
		c0.2-0.1,0.5-0.2,0.7-0.3c0.6,0.4,1,0.3,1.7,0.5c0.1-0.2,0.2-0.3,0.4-0.5c-0.1-0.1-0.1-0.2-0.2-0.2c0.2-0.2,0.3-0.4,0.5-0.5
		c0.2-0.2,0.1-0.1,0-0.4v-0.2c0.1,0,0.2,0,0.4,0.1c0.3-0.3,0.3-0.5,0.7-0.7c0.5,0.1,1.1,0.6,1.8,0.4c0.4-0.1,0.6-0.9,1.2-0.8
		c1,0.2,2.5,1.3,3.3,1.9c0.2-0.1,0.3-0.2,0.4-0.4c0.3,0.1,0.3,0.3,0.7,0.3c0.3-0.4,0.5-0.6,1-0.8c0.7,0.5,1.7,0.9,2.4,1.3
		c0.6-0.6,0.7-1.6,1.7-1.9c0.4,0.4,1.4,0.6,1.5,1.3c0.2,0,0.4,0,0.7,0.1c0.2-0.2,0.3-0.5,0.5-0.7c0.5,0.1,0.5,0.2,1.1,0.3
		c0.1-0.2,0-0.2,0.2-0.3c-0.1-0.3-0.3-0.9-0.1-1.3c0.5-0.5,1-1,1.6-1.6c0.4-0.1,0.6,0.4,0.8,0.5c0.4,0.1,0.7,0,1,0
		c0.1,0,0.1,0,0.2,0.1c0,0,0.1,0,0.1,0.1c0.2-0.2,0.1-0.2,0.1-0.5c0.2,0,0.4-0.1,0.5-0.1c0-0.6,0-1.2-0.1-1.8
		c0.2-0.2,0.4-0.4,0.5-0.5c0.7,0,1.7,0.2,1.8,1c0.3,0.1,0.6,0.1,1,0.2c0.5,0.4,0.6,1.1,1.3,1.4c-0.1,0.2,0,0.1-0.2,0.2
		c0.4,1,2.4,0.5,3.5,0.7c0.3,0.5,0.7,2,1.1,1.9c0.2,0.1,0.2,0.3,0.2,0.5c0.4-0.1,0.7,0,1.1-0.2l0.4-0.6c-0.6-1,1.3-2.8,1.3-3.7
		c1,0.3,1.2,1.2,2.5,1.4c0.3-0.2,0.4-0.2,0.7-0.4c0.2-0.2,0.1-0.1,0.1-0.4c0.2-0.2,0.2-0.2,0.5-0.2v-1.3c0.3-0.4,0.7-0.7,1-1.1
		c0.6,0.1,0.9,0.1,1.6,0.3c2-0.4,0.8-0.7,1.3-1.7c0.1-0.1,0.2-0.2,0.4-0.2c0.3-0.4,0.3-1.3,0.1-1.7c0,0,0-0.1,0.1-0.1
		c0.7-0.1,1.5,0,1.9-0.2c0.4,0.2,0.7,0.5,0.7,0.9c0.4-0.1,0.8-0.2,1.2-0.2c0.1,0.1,0.1,0.2,0.2,0.2c0.2,0.3,0.1,1.1,0.1,1.6
		c0.3,0.2,0.5,0.3,0.8,0.5c-0.1,0.3-0.1,0.2-0.2,0.4l0.2,0.2c-0.2,0.3-0.3,0.6-0.4,1.1c0.1,0.2,0.1,0.2,0.3,0.2
		c-0.1,0.7-0.4,1.5,0.2,2c0,0.1,0,0.1-0.1,0.2c-0.2,0.2-0.1,0.6,0.4,0.7c-0.2,0.7-1.1,0.5-1.4,1.2c-0.6,0.9,0.9,2.7,0.8,3.6h0.4v0.4
		c0.1,0,0.3,0.1,0.4,0.1c0.2,0.4,0.2,0.5,0.1,0.9h0.2c0.2,0.2,0,0.3,0.2,0.6c0.5,0.8,1.3,0.4,1.6,1.9c-0.5,0.7,0,1-0.1,1.8
		c0.7,0.4,0.9,1.2,1.6,1.6c0.7,0.3,1.4,0,2.1,0.5c0.4,0.3,0.7,1,1.1,1.3c0.2,0,0.5,0,0.7,0.1c0.1,0.1,0.2,0.3,0.4,0.4
		c0.8,0.4,1.8-0.1,2.3,0.1c0.2,0.1,0.3,0.3,0.5,0.4c0.8,0.2,1.6-0.1,2.4-0.1c1.5,0,3.8,0.1,5.4-0.5c0.5,0.2,2,0,2.2-0.1
		c0.2-0.2,0.4-0.4,0.5-0.5c0.3-0.1,1.7-0.5,2-0.5c0-0.1,0-0.3,0.1-0.4c0.8-0.4,1.8-0.5,2.6-0.9c1-0.5,1.4-2.1,2.8-2
		c0.1-0.4,1.9-3.1,2.3-3.4c0-0.8-0.2-1.9-0.8-2.2l0.1-0.4c-0.2-0.2-0.4-0.4-0.5-0.6c-0.3-1.7,1.6-2.3,2.3-3.1c0.1-0.1,0-0.1,0-0.4
		c0.1,0,0.3,0,0.4-0.1c0-1,0-1.8,0.2-2.6c-0.2-0.2-0.1-0.3-0.5-0.4c-0.4-1,0.6-2.6-0.6-3.5c0.2-1.1,0.4-2.5,0.7-3.5
		c0.1-0.6-0.3-2.4-0.2-2.8c0.2-0.1,0.3-0.3,0.5-0.4c0.2-0.5,0.2-2.3,0.2-2.5c0-0.1,0-1.4-0.1-1.7c-0.1-0.2-0.4-0.3-0.5-0.4v-0.1
		c0-0.2-0.2-1.2-0.1-1.4l0.2-0.2c0-0.4-0.2-0.5,0-1c-0.3-0.4-0.6-0.7-0.9-1c-1.2,0.2-1.2-0.1-2-0.2c-0.6,0.1-1.2,0.2-1.8,0.4
		c-0.7-0.5-0.9-1.1-1.2-1.7c0.3-0.4,0.9-0.8,1.3-1.1c0.3,0.1,0.3,0.1,0.5,0.2c0.4-0.1,0.7-0.3,1.1-0.4c0.5-0.5,0.5-1.1,1.4-1.1
		c0.2-0.4,0.1-1,0.3-1.2c-0.1-0.3-0.2-0.2-0.2-0.7c-0.6-0.1-0.8-0.4-1.3-0.1c-0.1-0.1-0.2-0.2-0.2-0.4c-0.2-0.5,0.6-2.9,0.8-3.4
		c0.2-0.1,0.3-0.2,0.7-0.1c-0.2-2.1,0.5-2.6,2.2-3c-0.1-0.4-0.6-0.7-0.7-1.1h-0.8c-0.3-1.1,0.2-2-0.1-3.1c0.5-0.5,0.7-1.2,0.5-1.9
		c0.4-0.4,0.5-0.6,0.5-1.4c-0.3-0.1-0.6-0.3-0.9-0.4c-0.2-0.7,0.1-1.5,0.1-2c0.1-0.1,0.2-0.1,0.4-0.1c0-0.3,0-0.5-0.1-1
		c0.1,0,0.2,0,0.4-0.1c0.1-0.2,0.2-0.6,0.1-0.9c-0.1-0.2-0.1-0.2-0.4-0.2c-0.1-0.3,0-2,0.1-2.2c-0.3-0.3,0-4.1-0.2-5.1
		c-0.3-1.3,1.7-2.7-0.4-3.7c0-0.5,0.2-0.8,0-1c0.1-0.3,0.4-0.4,0.5-0.7c0.4-1.1-0.4-2.6,0.2-3.5c-0.2-0.3-0.3-0.5-0.7-0.6
		c-0.1-0.6,0.1-1.2,0-1.7c0.1,0,0.2,0,0.3,0.1c0.1-0.1,0.5-2.4,0.4-2.6c-0.1-0.2-0.4-0.4-0.3-0.7c0.1-0.3,0.4-1,0.3-1.3
		c-0.2-0.9-0.9-1.2-0.8-2.3c-0.4-0.3-1.1,0-1.7-0.1c-0.1-0.4-0.1-0.5-0.2-0.8c-0.3,0.1-0.3,0.3-0.8,0.3c-0.1-0.3-0.2-1.1,0.1-1.4
		c-0.1-0.2-0.1-0.2-0.2-0.4c-0.5,0.1-0.9,0-1.3-0.2c0.1-0.5,0.5-1.2,0.8-1.5c-0.1-0.2-0.2-0.3-0.2-0.5c0.6-0.7,1.6-0.3,1.6-1.6
		c-0.4-0.1-0.4-0.1-0.4-0.5c0.5-0.6,0.8-1.4,0.5-2.1c0.2-0.1,0.1-0.1,0.3-0.1c0.6-0.9,0.6-1.5,2-1.4c0.4-0.7-0.3-1.3,0.2-2.3
		c-0.2-0.2-0.4-0.4-0.6-0.6c0.2-0.9-0.2-1.5-1-1.9c0-0.4,0-1.8,0.1-2c0.1-0.2,0.3-0.3,0.5-0.4c0.3,0.1,0.6,0.2,0.8,0.3
		c0.4-0.4,0.2-1.6,0.1-2.3c0.1-0.1,0.2-0.2,0.4-0.2c0-0.4-0.2-0.5-0.4-0.7c0.1-0.4,0.2-0.5,0.4-0.8v-1.5c-0.1,0-0.2,0-0.2,0.1
		c0,0-0.1,0-0.1-0.1c0.1-1-0.1-1.4,0.1-2.3c-0.4-0.2-0.7-0.1-1.2-0.1c-0.8-0.6-1.7-1.1-1.9-2.3v-2c0.4-0.7,1.2-1,2-1.1
		c0.1-0.6,0.7-0.8,1-1.4c0.2-0.2,0-3-0.1-4.1c-0.1,0-0.2,0-0.4-0.1c-0.3-1,0.3-2-1.3-2.3c-0.1-0.2-0.2-0.5-0.2-0.7
		c0.4-0.4,0.8-0.7,1.1-1.1c-0.4-2.3,0.2-3.7,0.8-5.5c0.3-0.9-0.2-1.6,0.2-2.3c-0.1-0.1-0.2-0.1-0.2-0.2c0.1-0.5,0.1-2.1,0.1-2.1
		c1-1.3,0-2.7,0.4-4.3c0.4-1.5,0.1-4.2,0-6.4c-0.6-0.3-2,0-2.8,0.2v0.4c-0.2,0.1-0.1,0.1-0.4,0.1c-0.1,0.3-0.3,0.5-0.4,0.8
		c-0.6,0.1-1,0.2-1.4,0.4c-0.1,0-0.1,0-0.2-0.1c-0.2-0.4-0.2-0.2-0.5-0.1c-0.4-0.8-1.3-0.8-1.4-1.9c-0.3-0.1-0.2,0-0.5,0
		c-0.4-0.6-0.7-1.3-1.7-1.4c-0.1-0.3-0.2-0.4-0.2-0.8c-0.2-0.1-0.3-0.2-0.5-0.2c0.1-0.1,0.1-0.1,0.4-0.1c0.6-2.1-1.3-2.1-1.4-3.5
		c-0.5,0-0.8,0-1.3-0.1c0-0.7-0.4-1.7-0.1-2.3c0.1-0.3,0.6-1,0.7-1.3c-0.1-0.5-0.1-0.9-0.2-1.4c0-0.8,0.1-1.6,0.1-2.3
		c0.2-0.2,0.3-0.4,0.5-0.6c0.1-0.3-0.1-0.7-0.1-1.3c0.8-0.5,3.5,0.2,3.7,0.8c0.8-0.3,0.1-3.5,0.4-4.4c-0.3-0.4-0.5-0.6-0.7-1.1
		c-0.1,0-0.2,0.1-0.4,0.1h-0.1c-0.2-0.6-0.4-0.9-0.5-1.4c0.5-1.1,1.6-0.8,2.6-1.4c0.3-0.2,0.4-0.7,0.8-0.8c0.5-0.1,0.8,0.4,1,0.7
		c0,0.3-0.1,0.6-0.1,0.8c0,0,0,0.1,0.1,0.1c0.1,0,0.3-0.1,0.4-0.1c0,0.2,0,0.3-0.1,0.5c0.1,0.1,0.3,0.2,0.4,0.3
		c1.1-0.2,2.2-0.7,3.4-0.5c0.1-0.2,0.1-0.2,0.2-0.4c-0.1-0.1-0.1-0.2-0.2-0.4c0.1,0,0.2-0.1,0.2-0.1c-0.2-0.6-0.3-1.6,0-2
		c-0.6-0.8,0.1-2.3-0.3-3.4c-0.2-0.2,0-0.1-0.4-0.1c0.1-0.5,0.1-1,0-1.5c0.5-0.5,0.8-2.1,0.6-2.8c-0.1-0.2-0.1-0.4-0.2-0.7l0.5-0.5
		c0.1-0.4,0-3.6-0.1-3.7c0.1-0.1,0.2-0.1,0.2-0.2c-0.2-0.4-0.3-0.9-0.1-1.6c-0.3-0.2-0.6-0.3-0.9-0.4c0.1-0.2,0.2-0.3-0.1-0.5
		c0.4-0.3,0.7-0.5,1-1c-0.6-0.7,0.7-3-0.5-3.5c-0.5-1.1,0.4-2.6-0.1-3.5c0.2-0.3,0.3-0.2,0-0.4c0.1-0.4,0.3-1.9,0.1-2.5h0.2
		c0.4-0.7,0-1.2,0.1-1.9c0.2-0.7,0.3-6.6,0-7.2c1.1-0.8,0-2.8,0.7-3.5c-0.1-0.2-0.2-0.4-0.2-0.5c-0.7-0.3-0.9-0.1-1.3-0.7
		c0.3-0.7,0.8-1.3,0.4-2c0.5-0.3,0.7-0.8,1.2-1.1c-0.7-1.3-0.1-3.9-0.2-5.3h0.4c0.1-0.7,0.1-1.4-0.4-1.7c0.1-0.7-0.3-1.9,0.1-2.7
		c-0.1-0.2-0.2-0.4-0.5-0.5c-0.1-0.4,0.1-1.1-0.1-1.6c0.1-0.1,0.2-0.2,0.3-0.2c-0.1-0.1-0.2-0.2-0.2-0.3c0.1-0.2,0.3-0.4,0.4-0.5
		c0.2-0.6-0.3-0.9-0.4-1.3c-0.1-0.4,0.1-1.2,0-1.9c-0.1-0.4-0.9-1.1-1-1.4c-0.2-0.5,0.1-0.6-0.4-1c0-0.4-0.1-0.5,0.1-0.7
		c0.3-0.4,0.9-0.5,1.5-0.5c0.1-0.2,0.3-0.4,0.4-0.5c-0.3-0.9,0.3-1.9-0.2-2.9c-0.1-0.1-0.1-0.1-0.3-0.1c0.1-0.5,0.1-1.2-0.1-1.6
		c0.5-0.6,0.7-3.6,0.6-4.1c0-0.1-0.2-0.5-0.1-0.8c0.4-0.9-0.3-2.2,0-3.3c0.2-0.9-0.3-2.2,0-3.4c0-0.1,0.2-0.5,0.2-0.7
		c-0.1-0.3-0.3-0.9-0.2-1.2c0.2-0.8,0.2-2.5,0.1-3.2c-0.2-0.8,0.4-3.3,0-3.8v-0.2c0.2,0,0.4,0,0.5-0.1c0,0,0-0.1,0.1-0.1
		c-0.5-0.9,0-4-0.2-5.5c0.1-0.1,0.1-0.1,0.4-0.1c-0.1-0.2-0.2-0.2-0.4-0.3c0.1-0.7,0-1.1,0-1.7c-0.1-0.1-0.2-0.1-0.4-0.2
		c-0.2-1.1,0.4-4-0.1-4.9c0.6-0.5,0.8-1,1.1-1.6c-0.5-0.7,0-2.9-0.2-4.1v-0.1h0.4c0.1-1.4,0.3-1.7,0.1-2.9l0.4,0.1
		c0.1-0.7-0.1-1.1,0.3-1.6v-0.1c-0.4-0.1-0.2-4.3-0.2-5.2c0-0.6-0.3-1.5,0.1-1.9c-0.1-0.2-0.1-0.2-0.2-0.4c0.7-0.9-0.2-1.5,0.1-2.5
		c0.1-0.6,0.3-5-0.1-5.7c0.2-0.1,0.3-0.1,0.4-0.3c-0.1-0.1-0.1-0.1-0.3-0.1c0.4-2.7-0.5-4.9,0.1-7.6c-0.7-0.6-0.3-1-0.6-1.6
		c0.6-0.6,2.7-1.4,2.5-2.3c0.1,0,0.2,0,0.4-0.1C522,170,520.6,169,521.3,167.9z M40.4,356.6c0,0-0.1,0-0.1,0.1c0,0,0-0.1-0.1-0.1
		c-0.3-0.4-0.1-0.7-0.2-1.1c0.3-0.2,0.7-0.6,0.6-1c0.1-0.2,0.1-0.2,0.4-0.2c0.1-0.5,0.5-0.8,0.8-1.1h0.1
		C43,354.4,40.8,355.7,40.4,356.6z M68.9,319.1L68.9,319.1l0.2-0.3c0.2,0,0.3,0,0.5-0.1h0.1c0,0,0,0.1,0.1,0.1
		C69.4,318.9,69.2,319,68.9,319.1z M84.8,321.7c-0.1,0.3-0.1,0.3,0,0.7c-3.2,0.6-4.1,2.3-6.1,4c-0.1-0.5-0.3-1-0.4-1.6
		c-0.5-1.2-1.3-2.4-1.9-3.6c0,0,0.1-0.1,0.1-0.1c0.4,0.2,0.7,0.4,1.1,0.6c0.3-0.1,1.6,0.1,1.7,0.2c0.2-0.2,0.2-0.3,0.6-0.3v-0.4
		c0.2,0,0.2,0,0.3,0.1c0.5-0.3,0.1-1.4-0.1-2l0.7-0.7c1.7,0,1.7,0.9,3.4,0.8v0.4c0.6,0.2,1.1,0.4,1.5,0.4c0.2,0.2,0.2,0.3,0.2,0.8
		C85.7,321.4,85.3,321.6,84.8,321.7z M158.6,529l-0.1,0.1c-1.5-0.1-2.2,0.6-2-1.9c0.1-0.1,0.1-0.2,0.2-0.2h1.7
		C158.6,527.4,158.6,528.2,158.6,529z M214,532.5c0.1,0,0.2,0.1,0.2,0.1C214,532.6,214.1,532.6,214,532.5z M518.8,174.8h0.1
		c0,0,0,0.1,0.1,0.1c0,0-0.1,0-0.1,0.1C518.8,174.9,518.7,174.9,518.8,174.8C518.7,174.8,518.7,174.8,518.8,174.8z M24.3,371.8
		c0.3-0.1,0.1-0.1,0.2-0.2C24.4,371.7,24.4,371.7,24.3,371.8z M9.1,373.1c0,0,0.1-0.1,0.1-0.1H9.1V373.1z M66.4,421v0.2
		C66.5,421.1,66.6,421.1,66.4,421z M83.8,435.4l0.1-0.1h-0.1V435.4z M377.9,455.4c0.1,0,0.1,0,0.2-0.1v-0.1h-0.2V455.4z
		 M407.9,466.9c0,0.1,0,0.1-0.1,0.2C407.9,467,407.9,467,407.9,466.9z M133.8,531.2l0.1,0.1h0.1C133.9,531.2,134,531.3,133.8,531.2z
		" />
        </defs>
        <clipPath id="SVGID_2_">
            <use xlink:href="#SVGID_1_" style="overflow:visible;" />
        </clipPath>
        <g style="clip-path:url(#SVGID_2_);">

            <image style="overflow:visible;" width="8710" height="9046" id="Layer_0_xA0_Image" xlink:href="moth-invasion.jpg" transform="matrix(6.000000e-02 0 0 6.000000e-02 0 0)">
            </image>
        </g>
    </svg>
