<svg xmlns="http://www.w3.org/2000/svg" xmlns:xlink="http://www.w3.org/1999/xlink" width="961px" height="524px">
<path fill-rule="evenodd"  fill="rgb(255, 255, 255)"
 d="M489.000,0.000 C497.196,0.240 499.354,2.669 504.000,6.000 C506.803,16.390 506.581,36.730 511.000,48.000 C514.000,51.333 517.000,54.667 520.000,58.000 C527.372,69.955 519.742,80.528 517.000,90.000 C514.806,97.578 518.521,111.444 523.000,111.000 C537.033,117.171 535.170,111.797 549.000,125.000 C573.046,114.520 600.225,101.485 622.000,92.000 C638.167,84.958 652.165,91.614 665.000,88.000 C691.711,80.479 716.133,76.190 740.000,73.000 C772.459,68.661 808.928,48.680 838.000,51.000 C872.698,53.769 909.967,31.571 937.000,60.000 C936.514,72.535 953.083,89.162 958.000,100.000 C961.295,107.262 960.636,147.152 957.000,157.000 C927.153,158.317 925.774,184.697 908.000,200.000 C903.334,198.333 898.666,196.666 894.000,195.000 C889.169,198.242 880.433,200.384 878.000,206.000 C874.456,226.402 898.123,236.924 881.000,270.000 C872.329,286.749 853.958,301.228 840.000,313.000 C828.329,322.843 826.582,343.855 813.000,352.000 C808.675,354.594 759.984,366.839 759.000,366.000 C746.349,373.751 730.861,380.972 713.000,383.000 C709.000,382.333 705.000,381.667 701.000,381.000 C691.378,382.576 671.154,394.597 659.000,391.000 C641.944,385.952 632.856,379.648 619.000,371.000 C613.110,367.323 610.232,356.073 596.000,350.000 C589.217,347.105 582.997,354.644 579.000,357.000 C574.209,359.824 549.204,349.445 543.000,345.000 C540.000,346.667 537.000,348.333 534.000,350.000 C535.339,358.019 536.910,369.373 534.000,376.000 C532.000,376.667 530.000,377.333 528.000,378.000 C532.298,387.276 531.115,402.990 533.000,413.000 C531.127,413.967 527.899,413.709 530.000,416.000 C528.059,431.522 535.475,454.812 529.000,474.000 C523.776,489.481 514.051,497.277 509.000,519.000 C506.000,520.666 503.000,522.333 500.000,524.000 C494.625,521.000 494.490,523.907 489.000,523.000 C481.376,521.741 467.020,505.921 463.000,500.000 C454.303,487.191 460.802,474.497 457.000,457.000 C454.667,448.334 452.333,439.666 450.000,431.000 C446.748,416.346 453.008,399.084 449.000,379.000 C446.667,373.001 444.333,366.999 442.000,361.000 C439.918,347.417 449.634,334.769 444.000,320.000 C441.334,319.667 438.666,319.333 436.000,319.000 C427.653,337.054 417.964,329.516 402.000,334.000 C394.220,336.185 393.863,346.337 388.000,349.000 C383.127,351.213 336.027,368.571 327.000,366.000 C316.638,363.049 295.472,344.599 283.000,350.000 C286.283,351.403 283.263,351.480 282.000,354.000 C272.101,350.605 264.156,360.837 253.000,356.000 C245.202,352.619 239.500,343.288 231.000,340.000 C227.334,340.333 223.666,340.667 220.000,341.000 C213.809,339.160 202.459,335.501 196.000,332.000 C194.667,329.667 193.333,327.333 192.000,325.000 C180.177,319.253 164.014,317.883 151.000,310.000 C148.526,308.502 130.868,288.776 129.000,286.000 C127.334,281.000 125.666,276.000 124.000,271.000 C118.334,268.334 112.666,265.666 107.000,263.000 C97.373,256.533 84.607,233.943 92.000,217.000 C99.097,200.738 120.779,200.503 131.000,188.000 C131.000,187.667 131.000,187.333 131.000,187.000 C126.334,183.000 121.666,179.000 117.000,175.000 C101.855,169.792 92.605,171.048 82.000,165.000 C81.000,166.333 80.000,167.667 79.000,169.000 C77.215,166.395 77.404,167.389 78.000,164.000 C74.371,158.102 76.673,155.850 75.000,150.000 C74.667,150.000 74.333,150.000 74.000,150.000 C65.550,151.537 66.236,155.998 58.000,158.000 C52.814,149.662 38.427,137.516 37.000,133.000 C38.804,130.350 28.352,105.779 23.000,94.000 C25.000,91.667 27.000,89.333 29.000,87.000 C22.186,79.695 25.056,70.849 20.000,65.000 C14.001,59.334 7.999,53.666 2.000,48.000 C2.333,46.667 2.667,45.333 3.000,44.000 C-1.757,33.088 2.062,24.189 5.000,14.000 C5.333,13.667 5.667,13.333 6.000,13.000 C13.666,14.000 21.334,15.000 29.000,16.000 C32.208,15.351 37.714,9.440 44.000,12.000 C63.867,20.091 100.419,15.960 126.000,21.000 C134.999,25.666 144.001,30.334 153.000,35.000 C174.234,42.742 197.996,37.789 224.000,44.000 C238.884,47.555 249.037,55.749 261.000,59.000 C265.666,58.333 270.334,57.667 275.000,57.000 C280.666,60.000 286.334,63.000 292.000,66.000 C294.666,65.667 297.334,65.333 300.000,65.000 C302.666,67.333 305.334,69.667 308.000,72.000 L331.000,73.000 C385.154,69.387 424.385,128.644 462.000,99.000 C462.601,76.526 479.599,61.939 467.000,47.000 C474.374,33.395 477.535,23.820 481.000,5.000 C483.666,3.334 486.334,1.667 489.000,0.000 Z"/>
</svg>
