<?xml version="1.0" encoding="utf-8"?>
<!-- Generator: Adobe Illustrator 21.1.0, SVG Export Plug-In . SVG Version: 6.00 Build 0)  -->
<svg version="1.1" id="steampunk-airship" xmlns="http://www.w3.org/2000/svg" xmlns:xlink="http://www.w3.org/1999/xlink" x="0px"
	 y="0px" viewBox="0 0 1847 1368.2" style="enable-background:new 0 0 1847 1368.2;" xml:space="preserve">
<style type="text/css">
	.st0{enable-background:new    ;}
</style>
<defs>
	<path id="SVGID_1_" class="st0" d="M1845.1,635.3c-1.1-6.9-0.4-15-4.8-18.5c-1.4-1.2-23.1-1.1-27.4-1.4c-1.6,1.4-2.5,4.5-2.6,7.2
		c-1.8,0.5-2.4-0.2-3.6-1c-3.4,2.8-10.2,1.4-15.6,1.4c-13.3,0-23.6-1.1-36.2-1.2c-0.2,1.2-0.3,2.4-0.5,3.6c-0.1-0.9-0.2-1.8-0.2-2.6
		c-12.2-0.1-24.3-0.2-36.5-0.2c-1-2.2-3.3-1.3-3.8-4.1c-0.5-0.1-1-0.2-1.4-0.2c-0.2,0.7-0.5,1.4-0.7,2.2c-1.6-0.4-3.3-0.2-4.8,0.7
		c-1.1-0.3-1.2,0.5-1.4,1.7c-0.4,0-0.8,0-1.2,0c-0.1-0.2-0.2-0.3-0.2-0.5c3.1-11.6-4.3-17.7-5-27.4c1-2.5,1.9-5,2.9-7.4
		c-0.5-3-1-6.1-1.4-9.1c-0.5-2.9,1-4.7,1.2-6.2c-0.6-2.6-1.1-5.3-1.7-7.9c0.2-1.4,0.3-1.3,1.2-1.9c-1.1-2.8-2.2-5.6-3.4-8.4
		c-0.8-0.8-1.7-0.3-2.2-1.4c-1.1-5.3-2.2-10.6-3.4-15.8c-4.5-16.4-7.8-33.8-13.4-49.4c0.6-0.3,1.3-0.6,1.9-1
		c-3.3-6.8-5.8-15-8.2-22.8c-1-3.5-1.9-7-2.9-10.6c-1.4-0.7-2.7-1.4-4.1-2.2c-1.5-4-3-8-4.6-12c-3.1-7.4-6.2-14.9-9.4-22.3
		c-2-6.6-4-13.3-6-19.9c-3.4-7.5-6.7-15-10.1-22.6c-1.4-2.1-2.7-4.2-4.1-6.2c-1.2-0.7-1.7-0.5-3.1,0.2c-3.7-6-7.4-12-11-18
		c-8.7-13.4-17.4-26.7-26.2-40.1c-25.8-36.4-58.2-68.2-93.6-95c-12.3-9.3-23.4-19.5-36.7-27.8c-3.4-2.2-6.7-4.3-10.1-6.5
		c-0.6-1.5,0.9-3.3,1.4-5.3c-4.8-5.8-12-9.1-18.5-13.2c-9.1-5.7-18.2-11.4-27.4-17c-7.8-4.8-15.5-9.6-23.3-14.4
		c-14.5-6.3-30-10.5-46.1-15.6c-19.4-6.1-40.8-11.4-61.9-16.1c-15.9-3.5-31.6-3.6-48.5-6.7c-9.3-1.7-20.3-0.2-30.5-1.9
		c-6-1-14.8-1.5-20.9-0.5c-5,0-10.1,0-15.1,0c-12.6,0-26.2-0.4-37.9,1.4c-7.8,0.3-15.5,0.6-23.3,1c-20,3.5-39.8,3.8-58.8,7.9
		c-6.7,1.1-13.4,2.2-20.2,3.4c-30.1,8.9-57.4,19.7-84.2,31.4c-9.9,4.4-19.8,8.8-29.8,13.2c-2.3,1.7-5.4,5.3-8.4,7.2
		c-9.2,4.9-18.4,9.8-27.6,14.6c-13.3,9.2-26.6,18.4-39.8,27.6c-13.4,9.5-25,21.3-37.7,31.4c-5.3,5.8-10.6,11.7-15.8,17.5
		c-4.6,5-9.3,9.9-13.9,14.9c-7.4,9.4-14.9,18.7-22.3,28.1c-7.3,9.9-14.6,19.8-21.8,29.8c-0.7,0.8-1.9,0.3-2.9,1
		c-3.4,4.5-6.7,9-10.1,13.4c-7.1,10-14.9,19.8-21.4,30.5c-2,4.3-4,8.6-6,13c-11.6,23.2-20.6,49.1-31,73.4c-5.1,12-10.8,23-16.1,35.3
		c-2.7,6.3-6.6,11.9-7.4,19.9c0.7,0.5,1.4,1,2.2,1.4c-0.8,3.6-1.6,7.2-2.4,10.8c-1.7,12.9-3.4,25.8-5,38.6
		c-1.3,13.5-2.6,27-3.8,40.6c0.2,5.8,0.3,11.7,0.5,17.5c0.1,5.1,0.2,10.2,0.2,15.4c0.8,7.8,1.6,15.7,2.4,23.5
		c-64.9-0.1-129.8-0.2-194.6-0.2c-0.3-1.7-0.6-3.4-1-5c-2-1.1-7.2-0.9-9.6-0.7c-0.1-0.2-0.2-0.3-0.2-0.5c0.7-1.6,1-4.1,1-6.5
		c0.7-0.6,0.5-0.7,1.7-1c0.1-3.7,0.2-7.4,0.2-11c0.5-1,1.3-0.5,1.7-2.2c0-0.1,0-0.2,0-0.2c-1.1-0.6-2.8-0.9-4.6-1
		c0.5-4,0.2-8.6,2.2-11c-2.1-5.9-1.6-16.2-1.7-24.2c-0.3-14-0.6-28-1-42c-0.9-6.2,0.4-13.5-0.7-18.7c0-0.1,0-0.2,0-0.2
		c0.5-0.1,1-0.2,1.4-0.2c0.2,0.4,0.5,0.8,0.7,1.2c7.3-4.7,24.8-4.3,34.8-6.2c30.6-4.5,61.3-9,91.9-13.4c13.5-2.5,30.7-1.6,40.1-8.4
		c0-0.3,0-0.6,0-1c-9.9-4.9-15.4-16.6-21.8-25.7c-2.2-3.1-6.1-6.6-7.2-10.6c1.8-0.3,1.8-0.7,3.1,0c0.2-0.5,0.3-1,0.5-1.4
		c1.4-0.1,1.2-0.1,2.2,0.5c2-5,7.2-0.4,7.2-8.9c-1.7-0.9-3.5-0.1-5.8,0.5c-0.1,0-0.2,0-0.2,0c-0.9-8.6-1.8-17.3-2.6-25.9
		c-2.6-21.9-5.1-43.8-7.7-65.8c-2.2-13.5-4.3-27-6.5-40.6c-10.2-44.4-16.5-88.7-29-130.3c-12-40-24.8-78.1-40.6-114.2
		c-6.8-15.2-13.6-30.4-20.4-45.6c-3.2-6.3-6.4-12.6-9.6-19c-1-3.1,0.3-7.5-0.2-10.8c-0.8-0.6-0.9-0.8-2.2-1
		c-1.4,4.7-2.1,11.6-2.2,17.3c-4.5,1.5,0.6,7.2-1,11.3c-2.2,5.6-0.5,14.1-2.6,20.9c-0.7,2.2,1.4,5.7,0,8.4c-0.4,0.2-0.8,0.5-1.2,0.7
		c-0.7,2,1.7,8.9,0,12c-0.9,1.8,0,5.9-0.7,9.6c-1.3,6.9-1,16.9-3.1,25.2c-0.7,2.6,0.7,6.8,0,10.1c-3.9,18.2-1.1,42.4-6.2,61
		c0.2,1.1,0.3,2.2,0.5,3.4c-0.9,5.6-0.6,11.2-2.4,15.8c-0.7,1.9,0.9,3.4,0.5,5.8c-1.2,7-0.9,13.9-2.9,19.7c0.2,1,0.5,2.1,0.7,3.1
		c-0.3,2.9-0.6,5.8-1,8.6c-0.4,0.2-0.8,0.5-1.2,0.7c0.2,1.2,0.5,2.4,0.7,3.6c-1.1,7-1.6,14.9-3.4,21.6c-0.4,1.7,1.3,2,0.5,3.8
		c-2.6-7.5-1.4-19.2-1.4-29.3c0.3-19.2,0.6-38.4,1-57.6c0.5-1,1-1.9,1.4-2.9c-4.5-5.9,1.7-21-11-18c-2.6,4.3,0,14-2.9,18
		c1.8,7.7,2.5,23.6,1,33.6c-0.2,18.6-0.5,37.3-0.7,55.9c-0.2,0.1-0.3,0.2-0.5,0.2c-0.1-0.1-0.2-0.2-0.2-0.2
		c-0.4-3.4-0.8-6.9-1.2-10.3c0.2-1.4,0.3-2.9,0.5-4.3c-4.3-16.3-2.7-36.8-5.3-54.2c-0.7-4.7,0.5-10.9-0.5-15.4
		c-3.1-14.4-1.9-33-4.6-46.6c-0.5-2.5,0.4-10,0.2-10.6c-0.9-2.5-1.5-6.9-1.9-10.6c-0.2-1.8,0.9-2.5,0.7-3.8
		c-0.4-0.6-0.8-1.3-1.2-1.9c-0.2-2.8-0.5-5.6-0.7-8.4c0.2-2.2,0.5-4.3,0.7-6.5c-0.6-2-1.7-5.3-1.9-8.4c0.2-1.3,0.3-2.6,0.5-3.8
		c-0.7-2.7-1.7-7.6-1.7-11c0-1.5,1.5-2.2,0.7-4.6c-0.6-1.7-2.3-5.7-1.7-8.6c0.2-0.8,1.2-2,0.7-3.6c-0.5-1.8-2.6-5.9-1.7-9.1
		c0.4-1.4,1.9-3.6,1.2-6.5c-0.7-1-1.4-2.1-2.2-3.1c-0.2-3-0.3-5.9-0.5-8.9c-0.9-5.4-1.6-12.1-2.2-17c-0.6-0.2-1.1-0.3-1.7-0.5
		c-3.1,5.2,1.1,11.7-1.2,17.8c-4.5,11.8-10,23.9-14.9,36.2c-1.8,4.7-3.5,9.4-5.3,14.2c-0.2,0.1-0.3,0.2-0.5,0.2
		c-0.8-3.5,0.2-3.9,0.7-6.7c-0.6-0.7-0.8-0.9-2.2-1c-0.7-3.2-1.1-5.5-0.2-8.2c-1.7-2.3-2.6-5.3-2.9-9.1c0.5-0.5,1-1,1.4-1.4
		c-0.1-0.5-0.2-1-0.2-1.4c-0.6-0.2-1.3-0.5-1.9-0.7c-1.1-3.4-0.3-5.1,0.2-7.9c-1.8-2.1-2.5-3.2-3.1-6.7c1.9-1.6,3.2-2,2.2-5.3
		c-1.1-0.5-2.2-1-3.4-1.4c-1-6.2-2.6-12.7-4.3-17.8c-1-0.6-2-0.8-3.8-0.7c-0.7,0.6-1.4,1.3-2.2,1.9c0,3.5,1.8,6.3,0.7,9.1
		c-9.3,8-18.6,16-27.8,24c-8.4,8.2-16.8,16.5-25.2,24.7c-10.7,8.7-21.6,19.7-30.2,30.5c-5.2,5.4-10.4,10.9-15.6,16.3
		c-17,21.3-35.2,42.4-49.9,65.8c-14,22.3-26.3,46.3-39.6,69.4c-6.1,10.6-10.4,22.1-15.4,33.6c-6.2,14.4-12.5,28.8-18.7,43.2
		c-5.7,14.4-9.7,29.1-15.4,43.9C89.5,393,85,419.8,78.7,446.4c-1.5,7-3,13.9-4.6,20.9c-1,4-3.2,8.2-2.6,13c-5.1,1.2-14-2.1-16.6,1.4
		c0,0.7,0,1.4,0,2.2c1.9,5.2,12.2,2.7,18,4.1c0.8,0.4,1,1,1.4,1.7c2-0.4,2.3-1.5,4.8-0.7c1.6,0.1,1.4,0.1,1.9,1.2
		c2.6-0.4,7.2-1.7,11-0.5c1.5,0.5,1.1,1.7,3.4,1.9c0.2-0.5,0.5-1,0.7-1.4c3.6,0.5,6.3,1.6,8.9,2.4c2.7-2,8.1-0.6,12.5-0.5
		c0.4,0.8,0.8,1.6,1.2,2.4c0.6,0.1,1.3,0.2,1.9,0.2c0.8-0.6,1.3-1.1,1.7-2.2c2.7,0,4.1,0.4,5.3,1.9c3.3-1.7,6.2-0.9,11.3-0.7
		c0.2,0.5,0.5,1,0.7,1.4c1.6-0.2,1.1-0.9,1.9-1.2c2.2,0.2,4.5,0.5,6.7,0.7c0.7,1.3,1,2.5,2.4,3.1c0.5,0.1,1,0.2,1.4,0.2
		c0.8-0.7,1.1-1.3,1.2-2.6c1.9-0.8,5.8,0,8.4,0c0.6,0.7,1.1,1.4,1.7,2.2c0.3,0,0.6,0,1,0c0.2-0.5,0.5-1,0.7-1.4
		c4.5-0.1,8.6,0.3,10.8,2.4c2-0.2,1.6-1,2.6-1.4c2.9,0.2,5.8,0.5,8.6,0.7c0.2,0.6,0.3,1.1,0.5,1.7c2,0,5.8-2.2,9.4-0.5
		c1.2,0.6,0.7,1.6,2.6,1.9c0.2-0.5,0.5-1,0.7-1.4c2.4,0.2,4.8,0.3,7.2,0.5c0.2,0.3,0.3,0.6,0.5,1c0.1,0.1,0.2,0.2,0.2,0.2
		c1.2,0.4,0.8-0.7,1.7-1c2.9,0.2,5.8,0.5,8.6,0.7c0.4,0.5,0.4,0.5,0.5,1.4c1.6,0.2,0.7-0.5,1.7-1c4.1,0.2,8.2,0.5,12.2,0.7
		c0.3,0.6,0.6,1.1,1,1.7c3.8-1.2,6.4-1.5,9.8,1c1.4,0.4,5.6-1.6,9.6-0.5c1,0.4,0.9,0.4,1.2,1.4c4.4-1,13.3-1.9,16.8,1.4
		c5-1.5,12.5,0.1,17,1.7c0.3-0.4,0.6-0.8,1-1.2c2.5,0.4,5,0.8,7.4,1.2c0.4,0.4,0.5,0.8,0.7,1.4c2.8-1.1,11.1-2.5,13.2,1.2
		c3.1-1,9.1-1.5,13.4-0.2c1.2,0.4,1.2,1.1,1.7,2.2c1.8-0.6,8.4-2.7,10.1,0.5c0.2,0,0.5,0,0.7,0c0.2-0.3,0.3-0.6,0.5-1
		c3,0,5.9,0,8.9,0c0.6,0.6,1.3,1.3,1.9,1.9c1.4,0.4,3.2-0.7,4.1-1c3.2,0.2,6.4,0.5,9.6,0.7c1.9,0.6,1.7,2.2,4.6,2.4
		c0.4-0.6,0.8-1.1,1.2-1.7c1.3-0.6,3.2-0.3,5.3-0.2c0.6,1.3,0.8,3.3,1.4,4.3c0.4,0,0.8,0,1.2,0c0.6-1.2,0.6-1.6,0.5-3.4
		c0.1-0.1,0.2-0.2,0.2-0.2c7,1,12.2,2.5,18,3.6c1.7,0.3,3.6-0.5,5.5,0.5c0.8,0.9,0.1,2.5,0.5,4.1c0.6,1,1.3,2.1,1.9,3.1
		c-0.1,4.2-0.2,8.5-0.2,12.7c0.4,17.7,0.8,35.4,1.2,53c1,6.4,0.9,17.5-1.4,21.1c1.5,2.6,1.8,6.9,1.7,11.3c-1.4,0.2-2.9,0.5-4.3,0.7
		c-0.2,0.6-0.3,1.1-0.5,1.7c0.5,0.2,1,0.5,1.4,0.7c0.6,2-0.6,9.1,0.5,11.3c0.3,0.7,1.4,1,1.9,1.9c0,0.5,0,1,0,1.4
		c-1.7-0.4-2.5-0.3-4.1,0c-0.7-1.8-0.6-3.3-1.4-4.6c-1.5-0.2-3-0.3-4.6-0.5c-1.2,1.1-1.4,1.5-1.9,3.4c-0.1,0-0.2,0-0.2,0
		c-0.5-1.8-0.8-3.3-2.4-4.6c-1.7-0.7-6.8-0.5-8.6-0.5c-0.3,0.6-0.4,0.8-0.5,1.9c-0.2,0.1-0.3,0.2-0.5,0.2c-0.2-0.6-0.3-1.3-0.5-1.9
		c-2.5,0.4-7.4,0.4-9.1,1.2c-0.8,0.5-0.8,0.5-1,1.7c-0.1,0-0.2,0-0.2,0c-0.2-0.6-0.3-1.1-0.5-1.7c-1.7,0.2-3.4,0.5-5,0.7
		c-0.2,0.2-0.5,0.3-0.7,0.5c0.5,1.3,1,2.6,1.4,3.8c-0.1,0.2-0.2,0.3-0.2,0.5c-0.2,0-0.5,0-0.7,0c-0.9-1.8-1.3-2.3-1.2-4.8
		c-1.6-1.2-2.9-1.4-4.6-2.6c-1.1-1.4-2.2-2.7-3.4-4.1c-1.8-0.8-3.5-1.6-5.3-2.4c-1.9-1.6-3.3-4.4-5.5-5.8c-1-0.6-1.2-0.2-2.4,0
		c-0.6-9.8-19.7-5.9-29.3-5.8c-0.1-2.4-0.2-4.8-0.2-7.2c6.5,0.1,16.3,1,20.4-1.7c1.6-7.5,0.5-17.8,0.5-26.2c0.1-3,0.2-6.1,0.2-9.1
		c-0.5-2.5-2.2-2-2.4-5c-18.2,0-36.3,0-54.5,0c-2.2,2.5-4.2,35.7-1.7,40.3c2,3.2,14.9,1.8,19.9,1.7c-0.2,2.6-0.5,5.1-0.7,7.7
		c-9.2,0-20.9-1.3-28.1,1.2c-1.1,1.9-0.1,4.7-1.2,7.2c-1,1-2.1,2.1-3.1,3.1c-1.4,2.7-2.7,5.4-4.1,8.2c-4.4,6.1-7.9,1.8-10.3,12.5
		c-2.4,0.1-4.8,0.2-7.2,0.2c-0.1-1.3-0.2-2.6-0.2-3.8c-1.2-1.4-4-1.3-6.2-1c-1.7,3-3.1,4.8-7.9,4.8c-0.1-0.2-0.2-0.3-0.2-0.5
		c0.1-1.5,0.2-3,0.2-4.6c0.8-0.1,1.6-0.2,2.4-0.2c1.1-4.3-0.2-10.2,1.9-13.2c-0.1-0.6-0.2-1.1-0.2-1.7c-3.7-0.8-13-2.1-17-0.5
		c-0.8,0.5-0.7,0.4-1,1.4c2.6,4,0.2,8.4,1.4,13.4c0.6,0.1,1.3,0.2,1.9,0.2c-0.1,2.2,0,4.1,0.7,5.3c0,0.1,0,0.2,0,0.2
		c-3.2,0.1-6.4,0.2-9.6,0.2c-0.9,1.6-1.1,3.8-1,6.5c-1,0.1-1.9,0.2-2.9,0.2c-0.4-1.1-0.1-4.5-1-5.8c-0.6-0.7-0.8-0.7-2.2-0.7
		c0.7-1.3,0.8-3.3,0.7-5.5c-0.5-0.5-1-1-1.4-1.4c-1.1,0.1-0.8,0.2-1.7,1c-0.3-0.5-0.6-1-1-1.4c-2.6-0.1-4.6,0.5-4.8,2.9
		c-0.3-0.2-0.6-0.5-1-0.7c1.5-20.7,1.5-42.6,6.7-61.4c1.3-4.8,6.8-19,4.6-23.8c0-0.2,0-0.3,0-0.5c-0.3,0-0.6,0-1,0
		c-2.2,4.3-4.5,8.6-6.7,13c-3.2,7.5-5.7,18.4-6.5,27.4c-2-4.9-0.3-11.5-1.2-16.8c-1-6.3-1.4-11-2.4-17.5c0.3-5.4,0.6-10.9,1-16.3
		c1.3-8.3-1.8-27.8-5.3-32.9c-1.5-2.2-4.2-3.1-7-4.1c-8.8,0.4-9.8,24-7.9,34.6c0.6,3.1-0.4,5.1,0.2,8.6c1.9,10.6,1.9,20,2.9,32.2
		c0.2,5.7,0.3,11.4,0.5,17c1.2,6.4,3,12.6,4.3,19.4c2.2,11.4,1.6,23.3,5.5,32.4c-0.5,0.9-1.2,0.9-2.4,1c-0.6,2.2-0.4,5.2,0,7.7
		c0.8,0.1,1.6,0.2,2.4,0.2c0.2,1.5,0.3,3,0.5,4.6c-1-0.9-1.3-1.5-3.1-1.7c-2.2,1.9-6.8,4.6-7.9,7.2c-4.5,10.3,2.8,37.4,4.6,48.2
		c-0.7,6-1.4,12-2.2,18c-0.9,5.7,0.7,10.8,1.4,15.4c0.9,5.6-1.2,13.4-0.5,18.5c2.1,14.7,0.2,26.3,11.8,31.4c1.2,0.5,2.7,1.9,4.6,1.7
		c8.5-1.1,10.8-19.3,13.7-26.9c1-2.6,3.5-5.9,2.9-9.6c-1.8-5.8-3.7-11.5-5.5-17.3c-0.9-3.7,0.6-7.7-0.7-11c-2.7-6.7-9.6-24.8-7.7-35
		c2.2-12.1,8.5-22.7,8.6-36.7c0.9-0.1,1.8-0.2,2.6-0.2c0.2,0,0.3,0,0.5,0c0.9-1.6,1.2-4.7,0.7-6.5c1-0.1,2.1-0.2,3.1-0.2
		c0.2,2,0.3,4,0.5,6c10.7,2.8,24.2-4.6,27.8,5c2,0.2,4,0.3,6,0.5c0.2-1.8,0.3-3.5,0.5-5.3c4.6-0.3,9.1-0.6,13.7-1
		c-0.8,0.8-4.3,0.7-5.8,0.7c-0.1,0.1-0.2,0.2-0.2,0.2c0.6,1.3,0.7,1.2,0,2.4c6.9,5.7,9.6,11.6,15.1,18.5c1,0.9,2.1,1.8,3.1,2.6
		c0.8,0.9,1.2,6.1,1.4,7.2c3.3,1.9,7.7,1.1,11.5,1c-0.1,2.3-0.2,4.6-0.2,7c-1.5,1.3-3,2.6-4.6,3.8c-1.7,2.2-1.8,4.2-3.1,7
		c-2.2,2.6-4.3,5.3-6.5,7.9c-7.7,13.3-9.7,35.9-2.4,50.6c0,0.1,0,0.2,0,0.2c-2.4-0.1-3.4-1.6-4.6-2.9c-1.4,0.2-1.2,0.3-1.9,1
		c-0.5-0.8-0.4-0.9-1.4-1.2c-1.3,0.7-2,2.5-3.1,3.1c-1.8,0.2-3.7,0.5-5.5,0.7c-4.1,1.7-5.3,9.2-4.1,13.9c-2.7,2-7.9,6.2-11.8,6.5
		c-0.8,1.1-1.2,1.6-1.2,3.6c0.3,0.4,0.6,0.8,1,1.2c1.6,0.3,5.3,0.1,5.8,0.7c0.4-0.3,0.8-0.6,1.2-1c0.3-0.2,0.6-0.3,1-0.5
		c-0.1,9.2,0.2,16.6-1.9,23.3c-1.2,3.6-5.2,6.1-4.6,10.6c1.6,0.9,6,1.4,7.9,1c0.1,0.1,0.2,0.2,0.2,0.2c-2.5,8.5-16,2.8-25,5.3
		c-7.1,2-16.6,13.1-22.6,12c-10-1.9-5.4-9-11-13.2c-2.4-1.8-23.2-2.1-27.4-1c-5.6,1.5-3.6,11-8.6,13.2c-2.2,0.4-4.3,0.8-6.5,1.2
		c-5.6,1.6-11.2,3.2-16.8,4.8c-20.8,8.5-47.8,27.7-55,49.4c-2.9,8.9-3.5,21.6-5.5,32.2c-1.2,6.1,0.1,10.4-1.2,15.4
		c-0.9,1.6-1.8,3.2-2.6,4.8c-0.4,2.1,1.2,4.1,1.2,5.5c0,2-1.1,5.9-1.2,8.6c0.3,1.6,0.6,3.2,1,4.8c-0.3,1.1-1.6,3-1,5.3
		c0.4,1.6,2.1,2.8,2.6,4.1c0.8,1.8,0.7,7.1,1,9.1c-3.8,2.4-7.7,4.8-11.5,7.2c-9.6,5.4-19.2,10.7-28.8,16.1c0,0.2,0,0.5,0,0.7
		c1.8,2.1,3.7,4.2,5.5,6.2c-4.7,3.9-9.4,10.5-11,17.3c-0.6,0.2-1.1,0.3-1.7,0.5c-2.6,0.8-10.3-5.1-10.1,6c1.9,2.3,2.8,4.5,7,3.8
		c2.1,3.6,1,11,1.9,15.4c1.2,5.6,4.6,9.9,5.5,15.1c-1.5,1.9-3.3,2.9-3.8,5.8c1,1.5,1.6,2.8,3.4,3.6c2.1,0.9,4.3-0.8,6.2-1.7
		c4.4,4.3,9.3,8.8,15.4,11.3c3.2,1.3,6.9,1.8,9.4,3.8c-1.2,1.8-2.4,3.5-2.4,6.5c2.3,2.6,4.6,5.3,7,7.9c2.4,1.9,4.8,3.8,7.2,5.8
		c7.7,9.2,19,24.3,29,30.5c8.2,3.3,16.3,6.6,24.5,9.8c19,7.5,38.1,15,57.1,22.6c19.1,7.6,38.2,15.2,57.4,22.8c-3.3,1-15.4-2-21.6-1
		c-15.1,2.6-27.1,5.6-37.7,12.2c-23,14.4-43.9,50-30.5,87.6c5.9,16.4,18.2,30.4,32.2,38.9c5.9,3.6,13.5,6.2,20.6,8.2
		c4.2,0.6,8.5,1.1,12.7,1.7c37.1,6.6,67.1-20.3,77.8-42.5c3.9-8,9.7-22.9,7.4-36.2c-2.4-14.3-5.1-24.8-11.3-34.8
		c-3.2-4-6.4-8-9.6-12c0.3,0.2,0.6,0.3,1,0.5c0.2-0.2,0.5-0.5,0.7-0.7c-0.7-0.6-1.4-1.1-2.2-1.7c0.9,0.2,1.8,0.3,2.6,0.5
		c0.1-0.1,0.2-0.2,0.2-0.2c-0.3-1.1-0.4-1-1.2-1.4c0.6-2.4,2.1-3,3.1-4.6c0.5-1.9,1-3.8,1.4-5.8c0-0.2,0-0.3,0-0.5
		c2.2,1.1,5.8,1,8.6,1.9c1.4-1.4,1.1-4.6,1.9-6.5c1.4-2,13.1,0.8,16.3,1.7c12.2,2.5,24.3,5,36.5,7.4c3.3,0.8,10.2,3.5,13.4,2.4
		c1.4-0.9,2.2-3.4,3.4-4.6c2.3-0.3,3.7,0.5,6,0.2c0.1,0.2,0.2,0.3,0.2,0.5c-0.6,0.7-1.3,1.4-1.9,2.2c0,0.2,0,0.5,0,0.7
		c0.5,1,1.1,1.1,2.2,1.4c1.5-0.9,1.9-2.5,2.2-4.6c0.1,0,0.2,0,0.2,0c0.1,0,0.2,0,0.2,0c-0.2,1.3-0.4,1.3,0.7,1.9
		c0.2-0.7,0.5-1.4,0.7-2.2c1.9,0.4,5.5,1.8,7.2,2.9c0.2-0.3,0.5-0.6,0.7-1c0.8,0.2,1.6,0.5,2.4,0.7c1.1,1.8,0.3,4.2-0.5,6.2
		c0.1,0.2,0.2,0.3,0.2,0.5c0.4,0,0.8,0,1.2,0c0.5-2,1.6-4.3,1-6.5c-0.9-1.7-3.6-1.7-3.6-3.4c-2-1-5.8-1.9-9.1-2.4c0.1-2,0.2-4,0.2-6
		c-0.4-0.2-0.8-0.5-1.2-0.7c-0.6,0-1.3,0-1.9,0c-0.2,0-0.3,0-0.5,0c0.3,1.1,0.6,2.2,1,3.4c0,0.1,0,0.2,0,0.2c-0.2,0-4.8-2.1-5.3-2.9
		c-0.3-0.5-0.6-0.3-0.2-1c0.1-0.2,0.2-0.5,0.2-0.7c3.4-0.6,6.9-0.3,10.3-1.7c0.5-0.5,0.3-0.1,0.5-1c3.2-1.5,9.9,1.6,12.7,2.6
		c12.5,4.5,19.5,14.1,28.6,22.1c18.4,16.3,35.4,34,53,51.1c5.5,5.4,11,10.7,16.6,16.1c2.7,2.9,4.7,6,7.7,7.4
		c3.6,1.8,6.1,6.5,8.2,10.1c1.5,2.7,10.7,10.5,13.2,12.2c1.1-1.6,1-1.3,2.6-1c1-1.3,1.9-2.6,2.9-3.8c-0.5-4.7-3.4-6-7-7.7
		c0.2-0.6,0.3-1.3,0.5-1.9c0.3-0.2,0.6-0.3,1-0.5c0.8,1,1.6,1.9,2.4,2.9c0.2-0.1,0.3-0.2,0.5-0.2c0-0.2,0-0.5,0-0.7
		c-1.7-2.7-3.4-1.9-5.5-3.6c-2.1-1.6-2.4-3.9-5.3-5c0.4-0.7,0.5-0.6,1.2-1c0-0.2,0-0.5,0-0.7c-3.8-2.9-2.3-0.8-5.5-1.4
		c-1.7-0.3-2.4-2.4-4.8-1.9c-0.9-1.8-1.1-2.1-0.7-4.6c-0.2-0.2-0.5-0.3-0.7-0.5c-0.2,0.1-0.3,0.2-0.5,0.2c-0.1,1-0.2,1.9-0.2,2.9
		c-0.2,0-0.5,0-0.7,0c-5.4-5-10.7-9.9-16.1-14.9c-20.6-16.5-37.9-37-57.6-54.5c-4.3-3.8-13.6-11.5-15.6-16.8
		c-1.6-4.2,1.4-9.4-3.8-10.1c-0.5,0.5-1,1-1.4,1.4c-0.6,4.3,2.9,7.2,4.3,10.6c0.2,0.2,0.5,0.5,0.7,0.7c-0.2,0.1-0.3,0.2-0.5,0.2
		c-0.8-1-1.6-2.1-2.4-3.1c-0.2-0.2-0.5-0.3-0.7-0.5c-0.2,0.1-0.3,0.2-0.5,0.2c0.2,0.5,0.5,1,0.7,1.4c-7.2-4.7-15.2-10.9-26.9-10.8
		c-0.1-0.4-0.2-0.8-0.2-1.2c-1.7-0.5-4.1,0-5-0.5c-0.2-0.4-0.5-0.8-0.7-1.2c-1.4,0.1-2.9,0.2-4.3,0.2c-1.2-0.8-2.4-1.6-3.6-2.4
		c-2.7-0.5-5.4-1-8.2-1.4c-0.8-0.5-0.8-1-0.7-2.4c-0.2-0.2-0.5-0.3-0.7-0.5c-0.3,0.6-0.6,1.1-1,1.7c-3.3,1.4-10.1-1.2-13.7-1.9
		c-12.4-2.4-24.8-4.8-37.2-7.2c-0.9-0.6-0.7-1.1-0.7-2.4c-0.4-0.1-0.8-0.2-1.2-0.2c-0.6,0.6-1.1,1.1-1.7,1.7c-4.3,1-17.1-4.3-20.6-6
		c-1.3,1.6-2.6,3.2-3.8,4.8c-3.9-1.3-17.8-16.9-21.6-20.6c-21.4-20.6-42.7-41.3-64.1-61.9c-0.7-0.8-1.4-1.6-2.2-2.4
		c3.1-1.3,5.6-1.2,7.4-4.3c2.3-3.9,0.6-8.1,5.3-9.6c2.6-0.9,6.9-1.1,9.1,0.2c5.8,3.5,9.2,9.1,17,11c8.5,2.1,20.9-3,24.2,4.6
		c0.2,0.2,0.3,0.3,0.5,0.5c0,0.1,0,0.2,0,0.2c-2.5,0.2-5,0.5-7.4,0.7c-0.2,0.1-0.5,0.2-0.7,0.2c-0.3,1.8,6.1,16.8,7.4,19.2
		c11.1,2.1,24,0.5,36.5,0.5c1.6,2.5,3.1,7.7,5.5,9.4c3.1,2.1,17.3,1.2,21.6,0.5c1.5-2.3,1.9-6.1,2.6-9.4c0.9-0.4,2.1-0.2,3.4-0.5
		c2.3,2.8,1.1,7.7,4.3,10.3c6.7,1.2,13.3,0.2,18.7-0.7c1.5-3,3-6.1,4.6-9.1c15.3-2.8,27.5,2.6,40.8-1.2c2.1-5.9,4.2-11.8,6.2-17.8
		c-0.2-0.3-0.3-0.6-0.5-1c-3-1-8.4-1.8-11.5-1.2c-0.2-0.1-0.5-0.2-0.7-0.2c3.8-19.9,16.6-21.7,29.5-31.9
		c11.2-8.8,20.9-21.8,28.3-34.3c4.2-7.1,8.9-16.1,11.5-24.2c0.8-2.6,1.4-10,2.9-11.5c0.3-0.3,5.1-1.1,6-1.7c0.3-2.4,0.6-4.8,1-7.2
		c1.6-1.3,3.2-2.6,4.8-3.8c2.4-0.5,4.8-1,7.2-1.4c2.2-0.9,2.1-2.5,3.6-3.8c2.4-2.2,10-3.4,13.7-4.3c1-2.2,1.9-4.5,2.9-6.7
		c1.4-4.7,0-14.1-3.4-16.3c-2.1-1.4-5.2-0.5-7.9-1.4l-5.5-2.6c-1-1-0.7-2.3-1.9-3.1c-4.2-2.7-8.9-1.9-12.7-5.3
		c-1.6-1.5-0.8-5.7-1.9-7.7c-0.9-1.5-3.5-1.9-5.8-1.9c-1.4-3.6-1.9-7.7-2.9-11.3c-0.9-1.7-1.8-3.4-2.6-5
		c-6.7-17.1-15.5-29.9-26.2-42.7c-5.8-7-13.7-13.4-21.4-18.5c-4.1-2.4-8.2-4.8-12.2-7.2c-3.6-4-5.1-11.8-7.2-17
		c2.9-2.1,9.9-0.4,12.7-2.2c-0.5-6.4-4.6-12.5-6.2-18.2c0-1.8,0-3.7,0-5.5c0-8.2,0.7-15.6-4.1-19c-2.4-0.6-4.8-1.3-7.2-1.9
		c-1.6-1-1.7-6.7-1.7-9.1c2.6-2.8,6.7-4.7,8.2-7.9c0.6,0.2,1.1,0.3,1.7,0.5c0.8-1.7-0.2-2.2,0-3.6c5.2-4.1-4.5-15.7-6.2-18.5
		c-10.9-17.5-38.1-50.1-10.1-67c3-1.3,6.1-2.6,9.1-3.8c1.8-1.3,3.5-2.6,5.3-3.8c1.1,0.1,2.2,0.2,3.4,0.2c5.6,0.1,9.2,1.4,13.7-0.5
		c0.3-0.4,0.6-0.8,1-1.2c-0.6,0-1.3,0-1.9,0c0-0.2,0-0.5,0-0.7c1.3-0.1,2.6-0.2,3.8-0.2c0.2,1.1,0.3,2.2,0.5,3.4
		c0.6,3.3,1.5,0.5,3.4,2.2c1.5,1.3,0.6,2,3.8,1.9c2.5-3.4,6.2-2.8,11-2.6c0.7-1.1,1.5-1.4,1.9-2.9c1.5,0.8,3.5,0.8,5.3,0.2
		c1-1.4,2.3-4.2,2.9-5c1.2-1.6,0.6-4.1,0-5.8c-0.8-0.4-0.5-0.3-1.4-0.2c0-0.1,0-0.2,0-0.2c4.8-1.5,7.2,1.6,7-6.2
		c2.6-1.2,9.1,0.1,12.7-0.2c17.8,0,35.5,0,53.3,0c43.3,0,86.6,0,129.8,0c4.9,24.4,6.7,49.4,12.7,73c9.5,37.4,21.7,74.2,36.2,107
		c5.5,12.5,15.4,21.3,23,31.7c2.6,4.6,5.1,9.3,7.7,13.9c2,2.6,2.9,1.2,5.5,2.2l8.4,7.7c0,0.9,0,1.8,0,2.6c3.7,1.1,4.1,3.2,6,6
		c0.7,0.2,1.4,0.3,2.2,0.5c0.6,1.2,1.1,2.4,1.7,3.6c1.2,0.7,2.4,1.4,3.6,2.2c1.9,3.3,3.8,6.6,5.8,9.8c6.2,7.6,12.3,15.2,18.5,22.8
		c3.3,3.3,6.6,6.6,9.8,9.8c4.1,6.9,9,12.9,15.1,17.8c9.7,8.8,19.4,17.6,29,26.4c19.4,15.6,38.4,32.6,59,46.8
		c22.4,15.4,49,26.8,73.2,40.1c6.6,2.7,13.3,5.4,19.9,8.2c3.6,2.3,5.5,9.2,9.8,11.8c16.3,9.7,37.7,13.2,57.6,19.2
		c10.3,3.1,22.4,7.4,34.6,7.7c0.3,1.9-0.5,4.6,1.7,5.8c0.5,0.1,1,0.2,1.4,0.2c0,7.5,0,15,0,22.6c-0.4,1.7-1.8,3.6-1.2,6.5
		c1.2,5.9,1.2,15,1.2,22.1c6.9,2.4,28.3,6.8,38.4,4.1c0.2,0.4,0.3,0.8,0.5,1.2c-0.5,0.4-0.9,0.5-1.7,0.7c0,0.5,0,1,0,1.4
		c3.8,0,7.5,0,11.3,0c0-0.6,0-1.1,0-1.7c-0.4,0-0.8,0-1.2,0c-0.1-0.6-0.2-1.1-0.2-1.7c2.5,0,5,0,7.4,0c0.9,2.2,3.7,3.1,6.7,3.1
		c0,0.1,0,0.2,0,0.2c-2.6,0.8-5.3,1.6-7.9,2.4c-6.8,2.2-15.5,6.5-17.8,13.2c-3.6,10.6,8.2,16.5,16.3,18.2c4.3,0.2,8.6,0.5,13,0.7
		c1-0.1,2.1-0.2,3.1-0.2c-0.2,1.7,0,5.4,0.5,7.7c2.8,1.6,8.9,1.3,13.2,1.2c-0.5,0.4-0.5,0.4-1.4,0.5c0.1,2.3,0.2,4.6,0.2,7
		c0.8,1.2,5.6,1,7.2,0.5c1.4,0.1,2.9,0.2,4.3,0.2c-0.6,5.6-1.6,12.9-0.5,18.7c0.6,0.2,1.3,0.5,1.9,0.7c-0.3,1.7,0.7,3.7-0.5,5
		c0.3,0.2,0.6,0.3,1,0.5c0,0.8,0,1.6,0,2.4c-0.7,0.7-1.4,0.9-2.9,1c0,1.5,0,3,0,4.6c1.4,0.8,3.9,0.8,6.2,0.7c0,3.5,0,7,0,10.6
		c-1.3,9.1-2.1,13-12.5,12.7c-1-13.8-12.6-24.6-24.2-27.8c-3.5,0.1-7,0.2-10.6,0.2c-16.3,2.9-27.9,13-28.8,31
		c-1.1,20.8,21.8,38.8,43.7,30.2c7.7-3,14.3-9.1,17.5-16.6c0.7-2.4,1.4-4.8,2.2-7.2c1.6-1.4,9.8-1.7,12.2-2.9c9.2-4.7,9.9-16,9.8-30
		c2.1-0.1,4.2-0.2,6.2-0.2c0-1.4,0-2.9,0-4.3c-0.6-0.8-0.9-0.7-2.4-0.7c-1.2-4,1.8-5.6,0.2-8.2c0.9-0.4,1.8-0.8,2.6-1.2
		c1.3-1.9,0.1-17-0.2-19.4c3.3,0,8,0.2,10.3-1c0.9-1,0.6-4.9,0.5-6.7c3.7,0,7.6,0,10.6-0.7c2.4-4.7,1.2-14.9-2.6-16.1
		c-4.8-1.5-11.1,2-13-2.9c-3-7.8,5.6-10.9-0.2-15.6c-0.2-3,0-5.2,2.4-5.8c0-0.5,0-1,0-1.4c1.4-0.1,2.7-0.2,4.1-0.2
		c0.4-0.5,0.3-0.3,0.5-1.2c4.3-0.1,12.9-1.7,15.8,0.5c-0.8,0.1-1.6,0.2-2.4,0.2c-0.5,0.5-0.5,0.8-0.5,1.9c2.6,0.1,5.3,0.2,7.9,0.2
		c0-0.6,0-1.3,0-1.9c-0.8-0.1-1.6-0.2-2.4-0.2c-0.1-0.2-0.2-0.3-0.2-0.5c0.9-0.2,1.8-0.3,2.6-0.5c0.5-0.5,0,0,0-0.7
		c4.4-0.2,8.8-0.3,13.2-0.5c0.2-0.6,0.5-1.3,0.7-1.9c1-0.1,2.1-0.2,3.1-0.2c-0.9,3.8,0.9,11.2,6.7,8.9c4.7-1.9,2.8-9.7-1.4-10.8
		c0-0.1,0-0.2,0-0.2c1.5-0.4,2.5-1.3,3.6-1.7c4.6-1.5,10.5,0.5,15.1-0.2c1.5-3.4-0.1-10.1,0-13.4c0.1-3,1-7.7,0.5-10.8
		c-0.2-3.8-0.3-7.7-0.5-11.5c0.7-2.6,1.1-7.3,0.5-10.3c-0.4-1.8-1.8-2-2.4-3.6c1.5-0.4,3.6-1.4,5.3-2.2c1.3-1,0.4-1.8,1.2-3.4
		c0.9-0.7,1.8-1.4,2.6-2.2c16.9,2.9,26.8-0.5,40.3-5.8c5.8-2.2,10.9-2,16.6-4.3c1.6-0.6,4.7-3.7,6.7-4.6c2.4-0.4,4.8-0.8,7.2-1.2
		c3.5-1.1,7-2.2,10.6-3.4c1.7,0,1.8,0.2,2.4,1.2c3.2-0.9,6.4-1.8,9.6-2.6c0.6-1.1,0.6-1.4,0.5-3.1c2.6-1,5.3-2.1,7.9-3.1
		c-0.5-2.6-1.1-3.5-0.7-6.5c13.7-5.7,27.4-11.4,41-17c8.8-5.1,17.6-12.8,30.5-12.5c6.1-4.5,12.7-7.7,19.7-11.8c1.7-1,3.4-3.3,5-4.1
		c2.9-1.4,5.2-1.3,6.2-4.6c0.6,0,1.3,0,1.9,0c0.1-0.6,0.2-1.3,0.2-1.9c0.6-0.5,3.6-0.9,4.6-1.2c0.2-1.2,0.3-2.4,0.5-3.6
		c4.4-1.9,9.2-5,13.4-7.9c2.3-1.6,2.8-4.2,6.7-4.6c1.4-4.3,5.7-5.5,9.4-7.7c8.7-5.1,17-9.4,24.5-15.4c5.7-5.8,11.4-11.5,17-17.3
		c4.7-3.8,9.6-8,13.2-13c2.2-4.2,4.3-8.3,6.5-12.5c1.8-1.7,3.7-3.4,5.5-5c4.2-4.6,8.3-9.1,12.5-13.7c5.8-6.9,11.5-13.8,17.3-20.6
		c2.5-2.2,3.9-1.6,6.2-4.6c-0.1-1-1.2-1.9-1-3.1c1.6-7.5,12.2-13.5,13-21.4c1.4,0.1,2.7,0.2,4.1,0.2c1.7-3.8,4.7-4.5,6.5-7
		c1.1-1.5,6-9.4,6.5-10.6c0.1-1.6,0.2-3.2,0.2-4.8c1.2-3,5.1-5.1,3.6-10.6c6.4-2.9,16.4-28.4,20.2-36.2c0.9-1.8,3.4-3.6,4.3-5.3
		c1.4-2.5,0.9-4.5,1.9-7c1.4-1.9,2.7-3.8,4.1-5.8c0.1-1.1,0.2-2.2,0.2-3.4c0.8-0.6,1.6-1.1,2.4-1.7c0-1,0-1.9,0-2.9
		c0.7-1.7,3.9-4,4.6-5.8c-0.2-0.6-0.3-1.3-0.5-1.9c0.6-0.5,1.1-1,1.7-1.4c1.3-2.8,0.9-4.4,2.2-7.2c0.6-0.5,1.3-1,1.9-1.4
		c-0.2-1-0.3-2.1-0.5-3.1c0.6-0.5,1.1-1,1.7-1.4c-0.1-1.2-0.2-2.4-0.2-3.6c0.8-2.9,1.2-5.9,2.2-8.9c1.3-1.8,2.6-3.7,3.8-5.5
		c2.8-4.8,6.1-16.2,6-23.8c0.7,0,1.4,0,2.2,0c0.2-5.5-0.3-13.6,2.2-17.3c0.5-0.8,1.4-0.9,2.6-1c1.3-5.1,7.3-24.9,2.6-27.6
		c0.3-0.8,0.6-1.6,1-2.4c1.4-0.7,4.3-0.5,6.5-0.5c1.6,3.1,4.2,2.8,6.7,2.6c0.1,0.6,0.2,1.1,0.2,1.7c0.3,0.2,0.6,0.3,1,0.5
		c3.2-3.2,7.3-4.6,12.7-3.1c1.3,0,3.1,6.4,4.3,7.7c6.8,7,20.5,2.9,20.6-7.4c6.3-0.1,12.6-0.2,19-0.2c3.6-1.2,31.3-2.8,37.2,0.7
		c0.3-0.3,0.6-0.6,1-1c4.3,0.1,2.6,5.3,5,7.2c9.3-0.1,18.6-0.2,27.8-0.2C1847.7,686,1847.7,652.1,1845.1,635.3z M436.1,23.8
		c-0.2-1.1-0.2-1.7,0.2-2.6c0.6,0.7,0.4,1.5,0.2,2.9C436.4,23.9,436.2,23.8,436.1,23.8z M414.7,299.8c0.2,0,0.3,0,0.5,0
		c0,0.4,0,0.8,0,1.2c-0.2,0.1-0.3,0.2-0.5,0.2c-0.1,0-0.2,0-0.2,0C414.6,300.7,414.6,300.2,414.7,299.8z M412.8,282
		c-0.1-6.2-0.2-12.3-0.2-18.5C416.1,267.6,413.2,276,412.8,282z M413.8,313.4c-0.2,2.2-0.3,4.3-0.5,6.5c-0.1,0-0.2,0-0.2,0
		c0-2.2,0-4.3,0-6.5C413.3,313.4,413.5,313.4,413.8,313.4z M423.1,516.7c0.6-0.2,1.1-0.3,1.7-0.5c0.1,1,0.2,1.9,0.2,2.9
		c0,0.2,0,0.3,0,0.5c1.6-0.7,1.1-2.8,1.4-4.6c0.7-0.2,1.4-0.5,2.2-0.7c0.2,0.5,0.5,1,0.7,1.4c0.2,0.2,0.5,0.3,0.7,0.5
		c2.9-2.7,3.6-4.8,8.6-4.3c1.4-1.9,2.5-2.8,5.3-3.4c0.2,0.3,0.3,0.6,0.5,1c1.2-1.2,2.2-2,4.3-2.4c0.2,0.3,0.5,0.6,0.7,1
		c0.2-0.8,0.5-1.6,0.7-2.4c1.9-0.7,3.8-1.4,5.8-2.2c0.2,0.4,0.5,0.8,0.7,1.2c1.1-2.5,2.8-2.8,5.3-3.8c0.3,0.4,0.6,0.8,1,1.2
		c0.8-1.9,2.8-3.8,4.6-2.4c1.5-2.1,4.3-3,6.7-4.1c0.2,0.2,0.3,0.5,0.5,0.7c0.2,0.1,0.3,0.2,0.5,0.2c0.8-2.4,5-4.7,7.4-3.1
		c0.1-0.3,0.2-0.6,0.2-1c3.4-1.5,8.7-0.1,13-0.7c10.2-0.3,20.5-0.6,30.7-1c3.9-0.1,7.8-0.2,11.8-0.2c12.1,0.9,31-2,35.5,7.4
		c0.8,0.8,1.6,1.6,2.4,2.4c0,0.1,0,0.2,0,0.2c-12.7,0.2-23.1,2.7-35.3,5c-42.9,5.8-85.8,11.7-128.6,17.5
		C415.1,520.4,422.7,522.5,423.1,516.7z M119.8,493.2c0-0.3,0-0.6,0-1c0.2,0,0.5,0,0.7,0c0.2,0.2,0.3,0.3,0.5,0.5
		C120.5,493.1,120.6,493,119.8,493.2z M151.9,495.8c-0.1,0-0.2,0-0.2,0c-0.5-0.6-0.2-0.2-0.2-1c0.2,0,0.3,0,0.5,0
		C151.9,495.2,151.9,495.5,151.9,495.8z M346.8,26.9c0.5,0.3,1,0.6,1.4,1c0.1,0.2,0.2,0.5,0.2,0.7c-0.3,0.5-0.6,1-1,1.4
		C346.8,29.2,346.7,27.8,346.8,26.9z M382.8,39.8c-0.1,0.2-0.2,0.3-0.2,0.5c-0.2-1.4-0.3-2.7-0.5-4.1
		C382.9,36.8,383.4,38.5,382.8,39.8z M401,266.2c0.1,1.5,0.2,3,0.2,4.6C400.7,269.5,400.8,267.6,401,266.2z M507.4,1331.8
		c0.2,0.5,0.3,1,0.5,1.4c-0.1,0.2-0.2,0.3-0.2,0.5c-0.1,0-0.2,0-0.2,0c-0.2-0.6-0.3-1.3-0.5-1.9
		C507,1331.8,507.2,1331.8,507.4,1331.8z M501.6,1327c0.8,0.7,1.6,1.4,2.4,2.2c-0.3,0.2-0.6,0.3-1,0.5c-0.5-0.5-1-1-1.4-1.4
		c-0.2,0-0.3,0-0.5,0C501.3,1327.8,501.4,1327.4,501.6,1327z M499.2,1321.4c0.6,0.1,1.1,0.2,1.7,0.2c0.2,0.4,0.3,0.8,0.5,1.2
		c-0.2,0.2-0.3,0.5-0.5,0.7c-0.2,0-0.3,0-0.5,0C499.5,1322.9,499,1322.6,499.2,1321.4z M499.2,1324.6c0,0.2,0,0.5,0,0.7
		c-0.1,0.1-0.2,0.2-0.2,0.2c-0.2,0-0.5,0-0.7,0c-0.4-0.5-0.8-1-1.2-1.4c0.2-0.2,0.3-0.5,0.5-0.7
		C498.1,1323.8,498.6,1324.2,499.2,1324.6z M496.3,1319.3c0.2,0.3,0.5,0.6,0.7,1c-1.2-0.3-1.6-0.8-2.2-1.7
		C495.4,1318.8,495.8,1319,496.3,1319.3z M494.2,1314c0.2,0,0.3,0,0.5,0c0,0.5,0,1,0,1.4c-1.1-0.6-1.1-0.7-1.2-1.7
		C493.7,1313.8,493.9,1313.9,494.2,1314z M485.5,1310.4c0.3,0.4,0.6,0.8,1,1.2c-0.4-0.3-0.8-0.6-1.2-1
		C485.4,1310.6,485.4,1310.5,485.5,1310.4z M484.6,1312.3c3.8,1.5,4.8,6.8,9.1,7.2c0.6,0.7,1.3,1.4,1.9,2.2
		c-0.2,0.2-0.5,0.3-0.7,0.5c-4.9-1.5-5.8-5.4-10.1-7.4C484.4,1313.8,484.5,1313.2,484.6,1312.3z M483.4,1310.9
		c-0.5,0.4-0.6,0.4-1.7,0.5c-16.8-16.4-33.6-32.8-50.4-49.2C448.6,1278.4,466,1294.6,483.4,1310.9z M417.4,1248.7
		c-6.8-6.5-13.6-13-20.4-19.4C400.9,1231.2,414.6,1244.9,417.4,1248.7z M393.4,1219.7c-0.1,0.2-0.2,0.5-0.2,0.7c-0.2,0-0.3,0-0.5,0
		c-1.3-1-2.1-2.3-2.2-4.6c0.2-0.3,0.5-0.6,0.7-1c0.4,0,0.8,0,1.2,0C393,1216,394,1218.2,393.4,1219.7z M272.2,1219.4
		c0.5,0.1,1,0.2,1.4,0.2c1.3,1.9,0.5,4.1,0,6.7c-0.6,0.2-1.1,0.5-1.7,0.7c-0.4-0.2-0.8-0.5-1.2-0.7
		C271.2,1224.1,271.7,1221.8,272.2,1219.4z M75.4,1109.5c4-2.6,8-5.1,12-7.7c0.6,0.3,1.1,0.6,1.7,1c-0.1,0.4-0.2,0.8-0.2,1.2
		c-1.2,0.8-1.8,1.1-3.4,0.5c-0.2,0.1-0.5,0.2-0.7,0.2c0.7,1,1.4,2.1,2.2,3.1c-0.2,0.6-0.3,1.3-0.5,1.9c-1.1,0.6-1.9,0.5-3.4,0.7
		c0,0.1,0,0.2,0,0.2c1.3,1.2,2.4,1.2,2.6,3.6c-0.6,1.1-0.9,1.6-2.6,1.7c-0.2,0.3-0.5,0.6-0.7,1c1.3,0.4,2.1,0.7,2.6,1.9
		c0.1,0.1,0.2,0.2,0.2,0.2c-0.2,2.6-1.4,2.3-2.9,3.6c1.7,1,3,0.7,3.4,3.1c-0.6,1.1-0.9,1.7-2.2,2.2c-0.2,0.2-0.3,0.5-0.5,0.7
		c1,0.1,1.9,0.2,2.9,0.2c0.4,0.6,0.8,1.3,1.2,1.9c-0.2,1.7-1.1,2.7-2.6,3.1c-2.6-7.3-13.4-13.6-14.9-20.9c-0.4-0.4-0.8-0.8-1.2-1.2
		C70.7,1111.1,73,1110.3,75.4,1109.5z M224.2,1235c3.1,1.1,6,1.7,8.4,3.4c-1,5.7-3.3,9.8-4.8,14.4c-1.6,0.4-2.7,1.1-4.1,0.7
		c-0.4,0.6-0.8,1.3-1.2,1.9c0.9,0.5,1.8,1,2.6,1.4c0.6,4.7-9.1,17.6-10.3,23.3c-0.1,0.1-0.2,0.2-0.2,0.2c-0.1,0-0.2,0-0.2,0
		c-3.6-10.8,2.8-24.3,6-34.3C221.6,1242.1,221.8,1237.8,224.2,1235z M233.3,1253.8c-0.2,0.2-0.5,0.3-0.7,0.5c2-4.5,4-9,6-13.4
		c0.5,0.2,1,0.3,1.4,0.5C237.8,1245.4,235.5,1249.6,233.3,1253.8z M241.2,1244.9c0.8,3.5-5.2,8.9-6.5,12c-0.2,0.1-0.3,0.2-0.5,0.2
		C236.6,1253,238.9,1249,241.2,1244.9z M229,1272.5c-0.2,0.2-0.5,0.3-0.7,0.5c1.2-2.2,2.4-4.3,3.6-6.5
		C232.1,1268.3,229.7,1270.7,229,1272.5z M219.1,1307c-1.2-1-1.3-3.2-1.2-5.5c0.6,2,1.3,4,1.9,6
		C219.1,1307.2,219.6,1307.5,219.1,1307z M222.2,1316.6c-2.3-1.8-4.2-5.4-3.8-9.1C220.6,1309.2,221.8,1313.4,222.2,1316.6z
		 M208.1,1305.8c-0.1,0.2-0.2,0.3-0.2,0.5c-0.2-2.2-0.5-4.3-0.7-6.5c0.6-0.2,1.1-0.5,1.7-0.7c1.3,0.5,1.8,1.6,2.4,2.6
		C210.2,1303.1,209.1,1304.5,208.1,1305.8z M210.2,1304.2c-0.6,1.7-1.3,3.4-1.9,5c-0.1,0.1-0.2,0.2-0.2,0.2
		c-0.2-0.2-0.3-0.3-0.5-0.5C207.8,1306.6,209.1,1305.6,210.2,1304.2z M204.5,1292.4c-0.5,0.6-1,1.1-1.4,1.7
		c-1.8-0.8-3.7-1.6-5.5-2.4c-0.2-0.1-0.3-0.2-0.5-0.2c1.7-0.5,3.4-1,5-1.4C203.4,1290.5,203.7,1291.4,204.5,1292.4z M203.8,1289.8
		c0.8,0.5,0.7,0.4,1,1.4c-0.2,0-0.3,0-0.5,0C204.1,1290.7,203.9,1290.2,203.8,1289.8z M204.2,1293.8c0.2,0,0.3,0,0.5,0
		c0.1,0.4,0.2,0.8,0.2,1.2c-0.1,0-0.2,0-0.2,0c-0.2-0.1-0.5-0.2-0.7-0.2C204.1,1294.5,204.2,1294.2,204.2,1293.8z M204.5,1288.3
		c-0.8-1.7-1.6-3.4-2.4-5c1.4,0.6,2.7,1.3,4.1,1.9c0,1,0,1.9,0,2.9C205.6,1288.2,205,1288.2,204.5,1288.3z M201.6,1282.6
		c-0.6-1.2-1.1-2.4-1.7-3.6c2.2,1.7,4.5,3.4,6.7,5c-0.1,0.2-0.2,0.3-0.2,0.5C204.8,1283.8,203.2,1283.2,201.6,1282.6z M203.3,1288.3
		c-0.2,0.1-0.3,0.2-0.5,0.2c-1.8-2.5-3.7-5-5.5-7.4C200.7,1281.9,202.6,1284.9,203.3,1288.3z M202.1,1289.3
		c-2.6,1.8-6.3,1.4-8.9,0.7c0-0.1,0-0.2,0-0.2c2.5-0.2,5-0.5,7.4-0.7c0.5,0,1,0,1.4,0C202.1,1289.1,202.1,1289.2,202.1,1289.3z
		 M194.4,1291c-2.8,2.3-6.9,0.1-10.3-0.5c-0.1-0.2-0.2-0.3-0.2-0.5c1.2-0.1,2.4-0.2,3.6-0.2C190.7,1289.7,192.3,1290.3,194.4,1291z
		 M192.7,1292.4c0.7-0.2,1.4-0.5,2.2-0.7c2.9,0.3,4.5,1.9,7,2.6c0.1,0.2,0.2,0.3,0.2,0.5c-3.1-0.7-6.2-1.4-9.4-2.2
		C192.7,1292.6,192.7,1292.5,192.7,1292.4z M194.6,1302.5c2.2-2.1,4.5-4.2,6.7-6.2C201.8,1298.2,197.2,1302.1,194.6,1302.5z
		 M195.8,1302.7c0.2,0.1,0.5,0.2,0.7,0.2c-1.6,2.4-4.8,3.7-7.7,4.8C190.3,1305.1,193.1,1304.2,195.8,1302.7z M202.8,1300.8
		c0.2,0,0.3,0,0.5,0c-2.2,1.1-4.5,2.2-6.7,3.4C197.7,1301.7,200.4,1302,202.8,1300.8z M199.4,1301.3c-0.2,0-0.5,0-0.7,0
		c1.4-1.8,2.7-3.7,4.1-5.5c1,0.2,2.1,0.5,3.1,0.7c-0.2,1-0.3,2.1-0.5,3.1C203.4,1300.2,201.4,1300.7,199.4,1301.3z M206.2,1300.6
		c1,1.1,0.8,5.2,1,7c-0.5,0.6-1,1.3-1.4,1.9c-0.2,0.1-0.3,0.2-0.5,0.2c-0.1,0-0.2,0-0.2,0C205.4,1306.6,205.8,1303.6,206.2,1300.6z
		 M207.8,1284.2c0.2,0.4,0.5,0.8,0.7,1.2c-0.5-0.2-1-0.5-1.4-0.7c0.1-0.2,0.2-0.3,0.2-0.5C207.5,1284.2,207.7,1284.2,207.8,1284.2z
		 M207.4,1283.5c0-0.3,0-0.6,0-1c0.2,0.3,0.3,0.6,0.5,1C207.7,1283.5,207.5,1283.5,207.4,1283.5z M210.7,1277.8
		c-0.1,0.1-0.2,0.2-0.2,0.2c-0.1,0-0.2,0-0.2,0c-1.7-4-2.1-8.4-1-13.9C212,1267.5,211.3,1273.6,210.7,1277.8z M211.2,1282.1
		c0,0.3,0,0.6,0,1c-0.2,0.2-0.5,0.3-0.7,0.5c-0.2,0-0.5,0-0.7,0c0.2-0.6,0.3-1.3,0.5-1.9C210.6,1281.8,210.9,1281.9,211.2,1282.1z
		 M210,1279c-0.3,1.5-1.2,1.8-2.1,2.6c0,0.2,0,0.3,0,0.5c0-0.2,0-0.3,0-0.5c0,0,0,0,0,0c0.1-2.1,0.1-4.2,0.2-6.2
		C208.7,1276.6,209.4,1277.8,210,1279z M209.8,1286.4c-0.6-0.6-0.4-0.3-0.5-1C209.4,1285.8,209.6,1286.1,209.8,1286.4z
		 M208.1,1286.2c0,0.2,0,0.5,0,0.7c-0.1,0.2-0.2,0.3-0.2,0.5c-0.2,0.1-0.5,0.2-0.7,0.2c-0.1,0-0.2,0-0.2,0c0.1-0.6,0.2-1.1,0.2-1.7
		C207.4,1286,207.8,1286.1,208.1,1286.2z M207.4,1297.7c0.2,0.3,0.5,0.6,0.7,1c-0.2,0.2-0.5,0.3-0.7,0.5c-0.4-0.5-0.4-0.5-0.5-1.4
		C207,1297.7,207.2,1297.7,207.4,1297.7z M206.9,1308.7c1.2,3.1-1.6,5.5-2.2,7.9c-0.2,0.1-0.3,0.2-0.5,0.2c-0.1,0-0.2,0-0.2,0
		C204.7,1313.2,205.2,1311.1,206.9,1308.7z M210.7,1299.6c0.4,0.4,0.8,0.8,1.2,1.2c0,0.1,0,0.2,0,0.2c-0.1,0-0.2,0-0.2,0
		C211.4,1300.6,211,1300.1,210.7,1299.6z M211.9,1275.1c1.1,1,1.6,4.6,1.9,6.2c0,0.1,0,0.2,0,0.2
		C210.2,1281.6,211.3,1278.1,211.9,1275.1z M216.5,1300.1c0.9,0.8,1,3.7,1,5.3c-1.5-1.4-3-2.9-4.6-4.3c0.2-0.6,0.5-1.1,0.7-1.7
		C214.6,1299.6,215.5,1299.8,216.5,1300.1z M215.8,1299.1c0.2-0.2,0.3-0.3,0.5-0.5c0.2,0,0.5,0,0.7,0c0,0.2,0,0.5,0,0.7
		C216.6,1299.3,216.2,1299.2,215.8,1299.1z M212.4,1299.4c0.1,0.2,0.2,0.3,0.2,0.5c-0.9,0.1-0.3,0.3-0.7-0.5
		C212.1,1299.4,212.2,1299.4,212.4,1299.4z M217.4,1306.8c0.2,1,0.3,2.1,0.5,3.1c-1.8-0.9-5.6-6.6-5.5-8.4
		C214.1,1303.3,215.8,1305,217.4,1306.8z M219.8,1294.6c-0.6,0.3-1.3,0.6-1.9,1c0.2-0.6,0.5-1.3,0.7-1.9
		C219,1293.9,219.4,1294.2,219.8,1294.6z M219.6,1293.1c0.5,0.3,1,0.6,1.4,1c0,0.1,0,0.2,0,0.2C220,1294,220,1294,219.6,1293.1z
		 M219.8,1295.3c0.3,0,0.6,0,1,0c0.8,0.9,1.6,1.8,2.4,2.6c0,0.1,0,0.2,0,0.2c-1.8-0.2-3.7-0.3-5.5-0.5c0-0.4,0-0.8,0-1.2
		C218.4,1296.1,219.1,1295.7,219.8,1295.3z M217.9,1298.4c5.2-0.1,7.8,1,9.8,4.1c-3-0.9-5.9-1.8-8.9-2.6
		C218.1,1299.4,218.2,1299.3,217.9,1298.4z M225.6,1299.1c5.4,0.5,6.6,3.6,10.6,5c0.2,0.2,0.3,0.5,0.5,0.7
		C231.7,1304,228.1,1302.5,225.6,1299.1z M221.3,1295c0.1-0.2,0.2-0.3,0.2-0.5c1.8,1.1,3.7,2.2,5.5,3.4c0.2,0.2,0.3,0.5,0.5,0.7
		C224.1,1298.6,222.7,1297,221.3,1295z M220.6,1293.1c-0.1-0.2-0.2-0.3-0.2-0.5c1.4-1,2.9-1.9,4.3-2.9c1.8,0.2,3.7,0.3,5.5,0.5
		c-2.8,1.2-5.6,2.4-8.4,3.6C221.4,1293.6,221,1293.4,220.6,1293.1z M222,1290.7c0.3-0.4,0.6-0.8,1-1.2c0.2,0,0.5,0,0.7,0
		C223.1,1289.9,222.6,1290.3,222,1290.7z M224.4,1289c0-0.1,0-0.2,0-0.2c0.7-0.6,1.4-1.3,2.2-1.9c0.5,0,1,0,1.4,0
		C226.8,1287.6,225.6,1288.3,224.4,1289z M203.3,1233.6c1.9-0.2,3.8-0.3,5.8-0.5c0.6,0.1,1.1,0.2,1.7,0.2c0.7,1.3,0.9,3.6,0.7,6.4
		c0.4-2.3,0.9-4.1,1.5-5.2c0.3-0.3,0.6-0.6,1-1c2.6,0.3,5.1,0.6,7.7,1c0.2,0.2,0.5,0.3,0.7,0.5c-3.3,12.2-6.6,24.3-9.8,36.5
		c-2.2-2.7-2.6-13.9-2-23.5c-0.6,3.8-1.1,7.5-1.2,10.1c-0.2,0.1-0.3,0.2-0.5,0.2c-1.9-8.1-3.8-16.2-5.8-24.2
		C203.1,1233.9,203.2,1233.8,203.3,1233.6z M192.5,1236c2.1-1.3,5.4-1.1,7.9-2.2c0.3,0.1,0.6,0.2,1,0.2c1.2,1.3,7.5,24.3,7.4,26.9
		c-0.3,3.6-0.6,7.2-1,10.8c-2.5-2.5-14.6-30.8-15.4-35.5C192.5,1236.2,192.5,1236.1,192.5,1236z M188.6,1236.7c0.7,0,1.4,0,2.2,0
		c4.8,7.5,7.8,16.7,11.5,25.2c1.8,3.8,3.5,7.5,5.3,11.3c-0.3,3.2-0.6,6.4-1,9.6c-2.6-1.9-5.3-3.8-7.9-5.8
		c-2.4-5.2-4.8-10.4-7.2-15.6c-3.1-7-7.9-13.4-9.8-21.4C183.3,1238.3,186.5,1238,188.6,1236.7z M179.5,1240.6
		c2.9,1.3,4.2,6.7,5.5,9.6c4.2,8.6,8.5,17.3,12.7,25.9c0,0.1,0,0.2,0,0.2c-1-0.4-2-1-3-1.7c2.5,1.8,4.8,4.2,5.4,7
		c-4.1-1.3-7.6-5.3-9.1-9.1c1,0.5,2.2,1.1,3.3,1.8c-8.6-6.1-17.8-20.3-22-28.5C174.4,1243.6,177.1,1242.5,179.5,1240.6z
		 M164.6,1251.6c1.8-1.6,3.5-3.2,5.3-4.8c0.5,0,1,0,1.4,0c5.4,7.4,10.7,14.7,16.1,22.1c-7.6-5.4-15.2-10.9-22.8-16.3
		C164.6,1252.2,164.6,1251.9,164.6,1251.6z M163,1253.5c4.7,0.6,21.3,13.5,25.4,16.8c2.1,2.8,4.2,5.6,6.2,8.4c0,0.1,0,0.2,0,0.2
		c-12.1-5.9-24.2-11.8-36.2-17.8c-0.2-0.4-0.3-0.8-0.5-1.2C159.3,1257.4,161.3,1255.7,163,1253.5z M157,1262.2
		c4.2,0.7,7.6,3.2,11,4.8c10,4.8,30.1,10.9,33.4,21.6c-3.4,0.2-6.7,0.3-10.1,0.5c-8.5-3.9-17-7.8-25.4-11.8
		c-4.1-1.8-11.3-3.4-13.7-7C153.4,1267.3,154.8,1264.3,157,1262.2z M147.4,1292.9c2.1-0.8,4.6-1.1,7.2-1.3c-2.8,0-5.4-0.1-7.2-0.6
		c0.2-2.4,0.5-4.8,0.7-7.2c0.2-0.4,0.5-0.8,0.7-1.2c1.7,0.2,5.2,0.8,9.3,1.7c-3.1-1-6-2-8.8-3.1c-0.3-3.1,0.9-6.6,2.2-8.9
		c9.5,2.9,18.9,8.2,28.1,12.2c3.4,1.5,6.7,3,10.1,4.6c0,0.1,0,0.2,0,0.2c-5.7,0-11.2-0.5-16.5-1.4c2.5,0.7,4.3,1.4,5,1.9
		c-4.9,0.1-12.3,1.1-18.9,1.6c3.8-0.1,7.6-0.1,11-0.6c2.8-0.2,5.6-0.3,8.4-0.5c4.3,0.1,6.7,1.4,10.3,1.9c-1.9,2.1-8.2,2.1-11.3,2.9
		c-9.3,2.4-19.8,5.8-29.3,6.5C147.2,1299.6,147.3,1296.1,147.4,1292.9z M148.8,1303.4c1.6-2.5,7.6-2.5,10.8-3.4
		c10.3-2.5,20.6-5,31-7.4c3.5,0.9,7,1.8,10.6,2.6c0,0.1,0,0.2,0,0.2c-2.6,2.5-5.3,5-7.9,7.4c-3.5,2.2-9.1,2.3-13.4,3.4
		c-9.3,2.3-19.3,5.7-28.8,6.5C149.8,1311.1,147.6,1305.6,148.8,1303.4z M151.4,1314.2c8.1-3.2,18.2-4.8,26.9-7
		c4.3-1.1,8.9-1.3,12.5-3.1c0.2,0,0.5,0,0.7,0c-3.5,4.7-28.4,16.9-35.8,18C153.9,1320.4,151.8,1317.4,151.4,1314.2z M170.9,1339.2
		c-0.4-1.6,0.8-3.6,2.4-5.6c-1.6,1.8-3.2,3.3-4.6,4.2c-2.4-1.2-4.2-3.4-6-5.3c-0.1-0.2-0.2-0.5-0.2-0.7c2.6-2.4,5.4-5.2,8.1-8
		c-3,2.7-6.1,5.3-9.3,7c-1.6-2.1-4.4-3.8-4.6-7.2c2.2-1.1,4.5-2.2,6.7-3.4c7-3.3,13.9-6.6,20.9-9.8c-1.1,1.1-2.2,2.2-3.3,3.3
		c1.8-1.6,3.6-3,5.5-4.3c2.3-1.1,4.6-2.2,7-3.4c0.7,0.5-4.1,6.5-5,7.7c-3,4.1-8.1,11.6-12.9,17.3c1.1-1.2,2.1-2.2,2.6-2.9
		c5.8-7.7,11.7-15.4,17.5-23c3.1-1.4,6.2-2.9,9.4-4.3c1.6,1.9-0.8,10.7-1.9,12.2c-7.5,10.8-16.4,21-24.2,31.4
		C176.2,1344,171.9,1341.3,170.9,1339.2z M180.2,1345.7c-0.1-0.2-0.2-0.3-0.2-0.5c7.8-10.7,15.7-21.4,23.5-32.2
		c1.2,1.7-0.9,7.8-1.7,9.4c-4.2,8.5-8.5,17-12.7,25.4C186.1,1349.2,182.8,1346.5,180.2,1345.7z M198.7,1351.4
		c-3.2-0.3-6.5-1-8.6-2.4c1.9-8.8,8.7-18.8,12.5-26.9c-1.2,9.7-2.4,19.4-3.6,29C198.9,1351.3,198.8,1351.4,198.7,1351.4z
		 M200.4,1351.7c-1-3.8,2-28.4,3.4-32.4c1-2,2.1-4,3.1-6c0.7,12.7,1.4,25.4,2.2,38.2C206.9,1352.6,203.2,1351.9,200.4,1351.7z
		 M211.2,1351.7c-0.2-0.1-0.5-0.2-0.7-0.2c-2.1-9.5-0.6-20.6-2.2-31c-0.2-3.2-0.3-6.4-0.5-9.6c1.3-2.6,2.6-5.3,3.8-7.9
		c2.1,2.9,4.2,5.8,6.2,8.6c0.9,13,1.8,26.1,2.6,39.1C218.9,1351.6,213.5,1352.7,211.2,1351.7z M230.2,1347.6c-0.7,1.8-6,2.5-7.9,3.1
		c-2.4-3.2-2.9-30.9-3.6-37.4c5.5,3.1,7.4,18.8,9.6,25.9C228.8,1341.1,231,1345.5,230.2,1347.6z M232.1,1347.4c-0.1,0-0.2,0-0.2,0
		c-4.1-7-5.1-17.8-7.7-25.9c2.5,1.5,14.4,19.5,15.1,22.8C236.9,1345.3,234.5,1346.3,232.1,1347.4z M247.7,1338c-1.7,2.2-4.4,4-7,5.3
		c-3.3-3-5.4-7.3-7.9-11c-4.6-6.9-9.3-12-11.5-21.6c2.2,2.2,4.3,4.3,6.5,6.5c6.8,6.8,13.4,13.6,19.9,20.6
		C247.7,1337.8,247.7,1337.9,247.7,1338z M248.9,1336.8c-6.9-4-14.8-13.9-20.2-19.9c-2.6-2.6-5.3-5.1-7.9-7.7
		c-0.7-2.9-1.4-5.8-2.2-8.6c3.4,0.9,6.7,1.8,10.1,2.6c2.4,2.4,4.8,4.8,7.2,7.2c6.4,6.4,14.9,12.5,19.9,20.2
		C254.2,1333,251.8,1335.6,248.9,1336.8z M262.6,1321c-1.3-0.2-5.4-2.5-9.7-5.3c2.8,2.2,5.5,4.5,8.2,6.5c-0.2,3.3-2.6,5.1-4.1,7.2
		c-0.2,0-0.3,0-0.5,0c-8.7-8.5-17.4-17-26.2-25.4c4.9,0.9,9.3,2.8,13.2,5.1c-1.3-1-2.1-1.8-2.4-2.3c8.2,2.4,16.5,4.8,24.7,7.2
		C265.9,1316.1,263.8,1319.2,262.6,1321z M266.9,1312.1c-1.4,1.8-7.6-0.6-9.6-1.2c-9.2-2.9-20.8-4.5-26.4-11
		c12.5,1.4,25,2.9,37.4,4.3C269.3,1306.2,268,1310.4,266.9,1312.1z M265.2,1298.4c0.8,1.2,3.4,1.1,4.6,1.9c-0.2,0.6-0.5,1.3-0.7,1.9
		c-0.1,0.2-0.2,0.5-0.2,0.7c-9.4,0-18.1-1.2-26.6-2.6c-4.2-0.4-8.5-0.8-12.7-1.2c-2.2-1.4-4.3-2.9-6.5-4.3c-0.1-0.2-0.2-0.3-0.2-0.5
		c3-1.4,5.9-2.7,8.9-4.1c12.8,1.2,25.6,2.4,38.4,3.6c0.1,1.1,0.2,2.2,0.2,3.4c-0.3,0.2-0.6,0.5-1,0.7c-1.1-0.3-2.2-0.6-3.4-1
		c-0.3,0.2-0.6,0.5-1,0.7C265,1297.9,265.1,1298.2,265.2,1298.4z M269.3,1282.3c-1.8,0.9-4.6,1.4-7.7,1.7c2.8-0.1,5.4-0.1,7.5,0
		c1.2,2,1.5,5.3,1.4,8.6c-12.2-1-24.3-1.9-36.5-2.9c0.5-0.5,1.1-1,1.8-1.4c-2.8,0.9-6,1-9.7,0.9c0-0.1,0-0.2,0-0.2
		c2.9-3,6.9-1.4,11.5-3.1c0.8,0,1.6,0,2.4,0c-0.5,0.5-1.1,0.9-1.7,1.3c3.7-1.4,8.9-2.2,14.2-2.7c-2.9,0.1-5.6,0.2-7.7,0.4
		c7.4-3.3,14.9-6.6,22.3-9.8C268.7,1275.9,269.4,1279.9,269.3,1282.3z M267.1,1273.7c-2.3,2.3-21.1,10.5-25,11.5
		c-3.6,0.2-7.2,0.5-10.8,0.7c0-0.2,0-0.3,0-0.5c10.4-6.5,20.8-13,31.2-19.4c0.4,0,0.8,0,1.2,0
		C265.1,1267.9,266.9,1270.9,267.1,1273.7z M262.6,1264.6c-2.9,3.8-8.8,6-13,8.6c-6.8,4.3-13.6,8.6-20.4,13c-0.5,0-1,0-1.4,0
		c2.5-2.7,5-5.4,7.4-8.2c2.2-3.6,4.3-7.2,6.5-10.8c5.3-3.4,10.6-6.9,15.8-10.3C259.8,1257.6,262.3,1261.9,262.6,1264.6z
		 M251.3,1256.4c1,0.6,1.2,1.1,2.6,1.4c0.1,0.2,0.2,0.3,0.2,0.5c-4,2.6-8,5.3-12,7.9c1.5-3,3-5.9,4.6-8.9c0.2-0.2,0.5-0.3,0.7-0.5
		c0.7,0.8,0.8,1.3,1.7,1.9C250.6,1258.5,250.9,1257.7,251.3,1256.4z M251,1228.1c0.2,0,0.3,0,0.5,0c-0.1,0.2-0.2,0.3-0.2,0.5
		C251.2,1228.4,251.1,1228.2,251,1228.1z M253.7,1224.2c-0.1,0.2-0.2,0.3-0.2,0.5c-0.1,0-0.2,0-0.2,0c0.6-1,1.1-2.1,1.7-3.1
		C254.5,1222.5,254.1,1223.4,253.7,1224.2z M256.1,1255c0.2,0.1,0.5,0.2,0.7,0.2c0.1,0.2,0.2,0.3,0.2,0.5c-0.8,0.7-1.6,1.4-2.4,2.2
		c-0.1,0-0.2,0-0.2,0C255,1256.9,255.5,1255.9,256.1,1255z M259.9,1235.8c-0.2,0.1-0.3,0.2-0.5,0.2c-0.7-0.8-0.4-0.4-0.5-1.4
		c0.3,0.2,0.6,0.3,1,0.5C259.9,1235.3,259.9,1235.5,259.9,1235.8z M259.7,1207.2c-1.8,3.4-3.7,6.9-5.5,10.3
		c-1.9,1.5-1.5,1.8-4.1,1.2c2.9-4,5.8-8,8.6-12C259,1206.9,259.4,1207,259.7,1207.2z M254.9,1202.6c-1.8,2.7-9.8,11.6-9.8,13.7
		c-18.4-7.3-36.8-14.6-55.2-21.8c-23.1-9.2-46.2-18.4-69.4-27.6c-11-4.5-23.1-7.2-32.4-13.4c-3.6-2.4-6.4-6.9-9.1-10.3
		c-7-8.8-16.6-16.5-21.1-27.6c-0.4-0.6,0-0.7-0.2-1.7c1.7-0.6,3.8,0,5.5-1c1.7,0.8,7.4,10.7,8.9,13c3.5,5.2,9.9,9.8,13.9,14.6
		c2.8,3.4,7,9.8,10.6,12c2.7,1.7,5.2,2.3,7.9,4.1c0.7,0.6,1.4,1.3,2.2,1.9c16.8,6,38.8-0.1,46.8-13.9c1-0.7,1.9-1.4,2.9-2.2
		c0.4-1.3,0.8-2.6,1.2-3.8c0.6-0.6,1.1-1.1,1.7-1.7c0.1,0,0.2,0,0.2,0c-0.1-0.9-0.2-1.8-0.2-2.6c0.8-1.1,1.6-2.2,2.4-3.4
		c-0.2-0.8-0.3-1.6-0.5-2.4c0.2-1.8,1.6-3.3,1.9-5.8c0.4-3.8-0.9-6.7-0.2-9.8c0.1,0,0.2,0,0.2,0
		C193.6,1142.8,224.2,1172.7,254.9,1202.6z M300.7,573.4c5.7,0.2,11.4,0.3,17,0.5c3.3-1.4,4.4-1.1,8.9-1c0.2,0.6,0.5,1.3,0.7,1.9
		c0.5,0,1,0,1.4,0c-0.1,5-0.2,9.9-0.2,14.9c-9.3,0.1-18.6,0.2-27.8,0.2C300.7,584.4,300.7,578.9,300.7,573.4z M275,574.6
		c0.1-0.5,0.2-1,0.2-1.4c8.2,0.1,16.5,0.2,24.7,0.2c0,5.5,0,11,0,16.6c-8.6,0.1-17.3,0.2-25.9,0.2c-0.1-5.2-0.2-10.4-0.2-15.6
		C274.2,574.6,274.6,574.6,275,574.6z M296.4,595.2c0.1,1,0.2,1.9,0.2,2.9c-0.7,0.5-1.4,1-2.2,1.4c-1.7,2-2.2,4.8-2.2,8.6
		c-6,0.1-12,0.2-18,0.2c-1.8-3.8-0.5-12.4-0.5-17.3c8.7-0.2,17.4-0.3,26.2-0.5c0.1,0.3,0.2,0.6,0.2,1
		C298.9,592.8,296.9,593.2,296.4,595.2z M306.7,599.5c-0.6-0.4-1.1-0.8-1.7-1.2c-1.4-3.6,1.6-5.9-4.3-6.5c0-0.3,0-0.6,0-1
		c9.2-0.1,18.4-0.2,27.6-0.2c0,5.8,0,11.5,0,17.3c-6.3,0.1-12.6,0.2-19,0.2C309.5,604,308.7,601.6,306.7,599.5z M358.6,753.4
		c2.6,4.1,5,8.9,8.6,12c-0.3,2.8-0.9,3.5,0.5,5.5c-1.6,3.5-4,7.7-7.4,9.4c-2.8,3.5-10.3-3.8-14.4-4.1c4.4-11.2,2.9-30.1-2.6-39.6
		c-2.1-3.7-5.5-7.2-7.2-10.8c-2.3-4.7-2.3-6.5-6.7-8.9c-0.1-4.7-0.2-9.4-0.2-14.2c3,0,6.1,0,9.1,0c0.1,0.2,0.2,0.3,0.2,0.5
		c-2.4,5.9,0.6,13.4,2.6,19.2C345,733.8,352.5,743.9,358.6,753.4z M361,669.1c0.3,0,0.6,0,1,0c-0.2,0.3-0.5,0.6-0.7,1
		c-0.1,0.2-0.2,0.3-0.2,0.5c-0.1,0-0.2,0-0.2,0C360.8,670.1,360.9,669.6,361,669.1z M364.6,679.2c-2,2.4-6.6,4-9.6,5.3
		c-0.1,0-0.2,0-0.2,0c0.6-2.4,2.5-2,3.6-3.6c1.7-2.5,1.8-5.1,3.4-7.4c1.2,1.7,1,2.2,2.9,3.4C364.6,677.6,364.6,678.4,364.6,679.2z
		 M1067,1139.3c0.9,0.4,0.6,0.1,1,1C1067.7,1139.9,1067.4,1139.6,1067,1139.3z M1145.5,1223.3c-1.9,2.4-8.1,0.7-11.8,1.4
		c-2.9,0.6-2.9,2.3-4.8,3.6c0,0.6,0,1.1,0,1.7c-13.3,0.2-33.3-0.9-30-15.1c2.5-10.8,22.2-13.5,32.4-16.8c4.4-1.4,8.2,0.9,12,1
		c2.9,3.5,4.3,6.8,0.5,10.6C1144.1,1212.9,1149.2,1219,1145.5,1223.3z M1082.6,1198.6c-0.4-0.5,0-0.2-0.7-0.5
		c0.2,0.2,0.3,0.3,0.5,0.5C1082.5,1198.6,1082.6,1198.6,1082.6,1198.6z M211.4,1239.7c-0.4,2.4-0.8,5.3-1,8.3
		C210.8,1245.2,211.2,1242.3,211.4,1239.7z M158.1,1284.2c4.7,1.5,9.7,2.7,15,3.6C169,1286.6,163.1,1285.3,158.1,1284.2z
		 M261.6,1284c-2.9,0.1-6,0.2-9.1,0.5C255.5,1284.4,258.7,1284.3,261.6,1284z M235.8,1288.4c0.9-0.3,1.7-0.7,2.5-1.2
		C237.4,1287.5,236.5,1287.9,235.8,1288.4z M154.6,1291.6c1.5,0,3-0.1,4.6-0.2C157.6,1291.4,156.1,1291.4,154.6,1291.6z
		 M173.3,1333.6c0.7-0.8,1.4-1.6,2.2-2.5C174.8,1331.9,174,1332.7,173.3,1333.6z M252.9,1315.7c-2.9-2.3-6-4.6-9.3-6.6
		C245.9,1310.9,249.4,1313.4,252.9,1315.7z M181,1313.7c-3.6,3.1-7,6.6-10.4,10c3-2.7,5.8-5.6,8.5-8.1
		C179.7,1315,180.4,1314.4,181,1313.7z"/>
</defs>
<clipPath id="SVGID_2_">
	<use xlink:href="#SVGID_1_"  style="overflow:visible;"/>
</clipPath>
<g style="clip-path:url(#SVGID_2_);">
	
		<image style="overflow:visible;" width="7696" height="5701" id="airship" xlink:href="steampunk-airship.jpg"  transform="matrix(0.24 0 0 0.24 0 0)">
	</image>
</g>
</svg>
