<?xml version="1.0" encoding="utf-8"?>
<!-- Generator: Adobe Illustrator 21.1.0, SVG Export Plug-In . SVG Version: 6.00 Build 0)  -->
<svg version="1.1" id="steampunk-tunley" xmlns="http://www.w3.org/2000/svg" xmlns:xlink="http://www.w3.org/1999/xlink" x="0px"
	 y="0px" viewBox="0 0 1466 1877.3" xml:space="preserve">
<style type="text/css">
	.st0{enable-background:new    ;}
</style>
<defs>
	<path id="SVGID_1_" class="st0" d="M1448,465.5c-3.2,0.5-4.8,2-7.4,2.7c-6.4-42.9-23.5-77-52.4-97.6c-9-6.4-20.3-14.7-33.3-16.6
		c-1.5-10.2,0.3-22.7-2-32.1c-8.8-34.9-26.8-59.8-50.9-79.2c-5.3-4.1-10.6-8.2-16-12.3c-4.2-2.3-8.3-4.6-12.5-7
		c-0.6-1.1-1.2-2.2-1.8-3.3c0.7-3.9,10.4-10.9,12.7-14.5c2.9-4.5,7.6-7.7,10.4-12.1c3.2-5,7.4-9.5,11.5-13.7
		c3.7-3.8,6.1-9.4,10.4-12.5v-0.4c-2.1-1.5-4.2-3-6.3-4.5c-0.2-0.1-0.4-0.1-0.6-0.2c-5.2,6.6-11.5,12.8-17,19.6
		c-2.6,3.3-4.6,6.8-7.4,10c-1.2,1.4-3.2,2.4-4.3,3.9c-0.7,0.9-0.8,2.2-1.6,3.1c-2.5,2.8-11,9.6-11.5,13.5h-0.2
		c-2.2-3.7-4.4-7.4-6.5-11c-1-0.6-0.9-0.3-2.5-0.2c1.8-9.3,3.5-18.7,5.3-28c0.1-0.1,0.3-0.3,0.4-0.4c4.2-1.1,11,8.2,16.4,7.4
		c2-3.9,5.6-21.1,5.3-26.2c-5.9-3.8-11.7-7.5-17.8-11.2c-2.8-1.7-5.6-3.4-8.4-5.1c-0.9-2.2,0.5-8.5,1-11.7
		c0.9-5.6-0.2-11.9-1.4-16.2c-5.6-19.3-21-25.9-42.5-29.5c-5.4-0.9-15.2,2.4-18.2,1.4c-1.8-1.3-3.5-2.6-5.3-3.9
		c-4.4-3.1-14.6-10.8-20.9-10.8c-5.7-11.4-28.3-23.4-42.8-11.7c-2.1-1-4.2-2-6.3-3.1c-5.6-1.2-15.4,12.5-20.7,14.5
		c-3.8-2.8-10.3-11.2-17.4-9.8c-2.4,0.5-4.1,2.1-5.9,2.9c-2.9,0.8-5.9,1.6-8.8,2.5c-2.4-0.5-8.4-9.6-11-11.7c0-2-1-7.2-0.6-9.4
		c1.1-5.6,7.7-9,7.8-15.7c-8-4.9-18.3,0.8-24.5-8c-2.1-3-3.8-16.2-6.5-17.2c-2.5-0.8-4.4,2.2-5.5,3.1c-4.7,3.5-7.7,8.8-14.7,9.8
		c-7.5,1.1-14.2-8.9-20.2-7.8h-0.4c-1.7,3.1-2.1,9.9-2,14.1c-2.3,1.7-4.4,3.8-7.8,4.5c-4,0.9-16.3-4.6-20.5-5.7
		c-14.6-4-37.6-8.1-56.2-4.9c-16,2.7-32.9,3.4-44.6,10.4c-4.5,2.7-9.8,7.2-13.1,11.3c-1.6,1.7-3.3,3.4-4.9,5.1
		c-1.8-0.1-3.5-0.1-5.3-0.2c-4.3,0.3-8.6,0.7-12.9,1c-13.4,2.8-27.1,6-38.7,10.2c-1.5-3.8-3-7.6-4.5-11.5c-4.3-1.7-12.7-0.6-16.6,2
		c-0.4,0.5-0.8,1.1-1.2,1.6c-2.1,1-3.2,0.3-3.9,2.7c-0.6,2.5,3.6,12.9,4.7,15.8c-3.3,2.2-6.7,4.5-10,6.7c-4.7,4.9-9.4,9.8-14.1,14.7
		c-1.1,0.1-2.2,0.3-3.3,0.4c-2.8,0.8-6.2,2.6-7.4,5.1c3,9.2-3,13.9-6.3,21.9c-1.9,6.2-3.8,12.4-5.7,18.6c-0.7,4.1-1.5,8.2-2.2,12.3
		c-1,0.1-1.9,0.3-2.9,0.4c-0.8-1-1.6-2-2.5-3.1c-8.1-0.1-3.8,8.4-2.2,13.5c2.7,7.8,5.3,15.5,8,23.3c1.8,6,2.4,12.3,4.1,17.8v0.2
		c-4.9-0.1-17.9-1.6-19.8-4.5c-1.1-1.7-0.4-5.2-0.6-7.4c-0.2-0.1-0.4-0.3-0.6-0.4c-1.5,1.5-2,7.1-2,9.6c-0.1,0.1-0.1,0.1-0.2,0.2
		c-8-0.6-17.7-2.3-23.7-5.1c-1.1-2-0.1-6.1-0.6-8.6c-7.5-1.5-9.3,19.2-7.2,26.8c1.2,0.7,1.7,0.4,3.1,0c0.8-2.4,1.6-4.8,2.5-7.2
		c2.8-2.1,19.6,2.6,24.3,2.9c0.7,3-1,6.9-1.2,10.2c0.3,0.1,0.7,0.1,1,0.2c1.1-1.7,1.4-5.8,3.1-7c1.2-0.5,2.5-1,3.7-1.4
		c7.7,1.1,15.4,2.2,23.1,3.3c1,2.2,2,4.5,3.1,6.8c2.7,4.1,5.3,8.2,8,12.3v0.2c-7.4,0.3-14.3-0.7-19.8-3.7c-2.8-2-5.6-4.1-8.4-6.1
		c-2.7,1.5-17.2,11-18,13.1c-0.5,1.3,4,6.8,4.7,7.8c5.1,7.2,10.2,14.3,15.3,21.5c-7.5,15.2-5.6,31.8,3.7,43.8c1.5,2,3.6,4.6,5.9,5.7
		c0.2,0.3,0.4,0.5,0.6,0.8c-9.9,7.3-15,15.9-13.7,31.7c-10.2,0.7-15.7,12.5-25.2,15.5c-0.9-0.7-1.5-1.5-2.9-1.8
		c-0.7-1.3,0.1-1.4,0.4-3.3c-6.7-7.5-39.4-6.3-49.5-2.5c-0.2,0.3-0.4,0.5-0.6,0.8c0.1,1.5,0.6,1.9,1.8,2.2c-1.6,2.4-0.8,7.5-3.9,9
		c-1.8,0.9-3.3-0.8-4.5-1.2c-2.3-0.7-4.1-0.5-5.9-1.6c-3.4-2-11.1-12.7-17-5.5c-1.3,1.6-1.8,3.5-2.7,5.5c-0.9,2.1-1.6,4.5-2,7.4
		c-1,6,2.2,11.4,5.7,13.1c3.4,1.6,8.3,0.3,12.7,1h29c1.4,1.9,2.1,23.1,1,26.8c-0.7,2.3-3.3,2.7-3.9,5.5c-0.3,4.2-0.5,8.3-0.8,12.5
		c-0.5,3.1-1.3,10.6,0.2,12.9c0.9,1.3,2.6,0.7,3.3,2.3c-0.3,0.1-0.5,0.1-0.8,0.2c0.5,1.7,0.9,3-0.2,4.5c0.8,1,1.8,3.4,1,5.9
		c-1,0.1-1.9,0.1-2.9,0.2c-0.8,1.6-1.1,4.6-0.4,6.5c2.7,0.1,5.3,0.3,8,0.4c0.1,2.7,0.1,5.3,0.2,8c0,7.2-0.4,14.7,1.4,20
		c5.8,16.8,26.4,17.4,47.9,17.2c0.1,0.1,0.1,0.1,0.2,0.2c-1.6,2.9-12.2,8.6-10.2,12.1c2.6,4.4,10.1-0.3,14.3,0.4
		c4.4,0.7,8.2,3.6,9.6,7.2c2.6,6.4-3.7,11.3-3.7,18.2c1,0.8,1.8,1.5,3.5,1.6c0,0,9.8-5.1,12.5-5.9c0.1,0.1,0.3,0.1,0.4,0.2
		c-0.5,8.1-3.8,16.8-5.9,24.1c-1.3,5-2.6,10.1-3.9,15.1c-2.3,3.5-4.6,7-7,10.4c-2.6,4.1-5.2,8.2-7.8,12.3c-1,0.4-2,0.8-3.1,1.2
		c-2.7,2.4-5.5,4.8-8.2,7.2c-3.9,2.9-8,5.4-11.9,8.2c-2.5,1.1-4.9,2.2-7.4,3.3c-6.1,3.7-11.1,9.4-15.3,14.9
		c-8.5,11.1-19.7,20.2-27.8,31.3c-4.9,6.7-9.8,13.5-14.7,20.2c-2.3,2.6-4.6,5.2-7,7.8c-4.7,6.1-9.3,12.5-15.3,17.2
		c-4.9,3.1-9.8,6.1-14.7,9.2c-6.3,4.4-11.8,9.9-18.6,13.9c-10.5,6.2-21.3,10.8-31.5,17.2c-14.7,9.7-29.5,19.4-44.2,29
		c-13.5,9.6-26.9,19.9-41.5,28.4c-8,4.7-17.5,6.6-26.8,10.2c-9.1,3.6-18.4,7.4-26.8,12.1c-8.6,4.8-16,10.7-23.7,16.2
		c-8,5.6-16.2,10.1-23.7,16c-5.4,4.2-10.1,13.4-16.2,16.2c-2.5,0.7-6.5-4.8-12.3-3.5c-3.8,0.9-5.6,5.1-9.8,6.1
		c-5.7,1.4-12.2-2.2-18.6-0.4c-6.5,1.9-5.8,10.5-11.9,13.1c-2.8-1.1-4.9-1.3-7.8-0.6c-2.2,0.4-4.5,0.8-6.7,1.2
		c-6.1,2.7-7.6,10.9-12.7,14.7c-5.7,4.2-14.1,5.9-19.6,10.2c-3,2.3-3,6.1-5.3,9.2c-1.8,2.4-6.5,3.5-9.2,4.9
		c-5.6,2.8-11.9,6.3-16.2,10.6c-3.4,3.5-3.7,9.6-6.7,13.5c-4.9,6.3-13.5,9.4-18.4,15.8c-2.5,3.2-1,6.9-2.7,10c-1,1.8-3,4.2-4.3,6.1
		c-4.9,7-13.5,10.9-17.2,19c-2.7,6-0.4,14.7-3.1,21.1c-2.1,5-7.2,7.7-9.8,12.1c-2.3,3.7-4,7.9-4.9,12.9c-0.1,2.9-0.1,5.9-0.2,8.8
		c-0.4,2.3-1.8,5.7-1,8.6c0.3,1.2,1.1,1.8,1.2,3.5c-2.9,3.8-7.1,5.9-8.2,11.7c-1.7,8.9,4.3,19.9,2.2,26c-1,2.9-4.9,4.2-6.5,6.5
		c-1.9,2.8-3.1,7.2-3.7,11c-1.5,9.2,8.1,19.3,6.1,29c-1.2,5.7-6.2,10.9-4.3,19.2c1.3,5.8,4.5,9.9,5.5,16.2c-0.1,2-0.1,4.1-0.2,6.1
		c0.3,2.8,0.5,5.6,0.8,8.4c-0.3,3-1.7,6.6-0.8,10c0.9,3.7,7.3,9.7,6.5,13.5c-0.7,3.1-3.2,6.3-4.7,8.8c-3.3,5.5-6.5,10.9-9.8,16.4
		c-6.3,15.1-12.5,30.1-18.8,45.2c-3.3,8.2-5.4,17.3-7.4,26.2c-1,6.4-2,12.8-3.1,19.2c-3.7,9-7.4,18-11,27c-1.8,8-3.7,16-5.5,23.9
		c-0.7,4.4-1.5,8.7-2.2,13.1c-4.9,9.5-9.8,19-14.7,28.4c-3.3,10.4-6.7,20.9-10,31.3c-1.3,9.5-2.6,19-3.9,28.4
		c-2.2,11.4-2,24-4.1,36.2c-2.9,25.8-5.9,51.7-8.8,77.5c-0.7,17.9-1.4,35.9-2,53.8c-3.5,24.3-7,48.5-10.4,72.8
		c-0.7,12.3-1.5,24.5-2.3,36.8c-0.1,6.9-0.1,13.8-0.2,20.7c-0.5,26.8-1.1,53.6-1.6,80.4h1393c-0.9-4.8-2.2-9.9-3.1-15.1v-13.1
		c-1-6.5-1.3-11.7-3.3-16.8c-6.8-17.2-16.4-32.6-27-46c-9-11.4-21.8-19.4-30.3-31.5c-4.1-7.6-8.2-15.3-12.3-22.9
		c-9.2-15-19.8-29.4-30.5-43.2c-2.9-2.3-5.7-4.6-8.6-7c-3.9-3.3-7.8-6.7-11.7-10c-7.6-4-15.1-7.9-22.7-11.9
		c-0.5-2.9,0.3-6.8,0.8-9.6c1.7-9.4,2.8-17.8,4.5-26.6c0.3-4.6,0.7-9.1,1-13.7c2.4-14.7,1.9-32.7-0.6-47.5
		c-2.2-12.9-4.2-24.7-6.3-37.2c-1.2-13.5-2.5-27-3.7-40.5c-1.1-6.7-2.2-13.4-3.3-20c-2-7.9-4.1-15.8-6.1-23.7
		c-0.8-8.2-1.6-16.5-2.5-24.8c-2.6-20.7-5.2-41.5-7.8-62.2c-0.8-9.8-1.5-19.6-2.2-29.5c-3-14.5-6.3-29.9-9-45.4
		c-1-17.5-2-35-3.1-52.6c1.6-7.5,3.1-15,4.7-22.5c0.4-4.3,0.8-8.6,1.2-12.9c1.7-10,2-20.4,2-32.3c0.1-5.5,0.1-11,0.2-16.6
		c-0.4-6.8-0.8-13.6-1.2-20.5c-1.8-7.4-3.5-14.9-5.3-22.3c-0.8-5.4-1.6-10.8-2.5-16.2c-9.2-38.2-26.8-70.8-47.2-98
		c-7.3-9.7-15.3-19.9-25-27.2c-1.4-1.1-3-1.1-4.3-2c-2.3-2.7-4.6-5.3-7-8c-3.6-1.3-7.2-2.6-10.8-3.9c-6.3-3.3-12.7-6.7-19-10
		c-7.6-4.6-15.1-9.3-22.7-13.9c-2.9-2-5.9-4.1-8.8-6.1c-0.1-0.1-0.1-0.3-0.2-0.4c2.7-1.6,5.5-3.3,8.2-4.9c1.5-2.5-1.1-23-2.5-25.8
		c-1.4-3-9-3.3-12.3-4.5c-13.3-4.2-26.6-8.5-39.9-12.7c-0.1-0.1-0.1-0.3-0.2-0.4c3.3-3,5.6-6.9,9.2-9.6c3.3-1.8,6.5-3.7,9.8-5.5
		c1.9-2,3.8-4,5.7-5.9c3.1-2.6,6.1-5.2,9.2-7.8c2.6-2.5,5.2-4.9,7.8-7.4c10.2-5.3,20.3-10.6,30.5-16c6.5-2.4,13.1-4.8,19.6-7.2
		c6.3-3.7,12.5-7.5,18.2-11.9c2.9-3.1,5.9-6.1,8.8-9.2c9.3-7.3,20.7-13.3,28-22.5c9.7-12.2,16.7-26.5,25.2-40.1
		c2.4-3.1,4.8-6.1,7.2-9.2c2.2-4.2,4.4-8.3,6.5-12.5c5.5-9.3,10.6-19.5,14.7-30.1c5-16.4,10.1-32.9,15.1-49.3
		c1.6-6.4,3.1-12.8,4.7-19.2V602c1.9,1,3.2,3.7,4.5,5.3c3.6,3.5,7.2,7.1,10.8,10.6c11.2,8.7,24.1,16.4,39.7,20.7
		c21.4,5.9,47.6,2.6,64.8-4.7c36.9-15.6,58.8-43.7,74.5-80.6c5-11.7,12-33.2,11.7-49.1c0.1-0.1,0.1-0.1,0.2-0.2c1.5,0.5,3,1,4.5,1.4
		c10.3,1.9,17.3-8.6,19.2-15.5C1468.3,478,1459.2,463.7,1448,465.5z M728.6,122.7c1.5,1.4,2.9,3,4.9,3.9c0.8,1.3,0.3,2.1,0.2,4.1
		c-3.3,3.4-3.4,2.1-4.5,7.6c-1.3,0.4-2.6,0.8-3.9,1.2C724.1,138.7,728,125,728.6,122.7z M730.4,197.2c-1.4-2.7-2.3-5.6-3.3-8.8
		c1.2-1.6,1.6-2.3,1.6-4.9c3.8-2.8,9.6-2.9,14.1-5.1h1.6c0.4,2.9,1.7,4.6,2.9,6.5c0.8,1.7,1.6,3.4,2.5,5.1c2.3,3.2,13.4,4.9,17.6,7
		c1.3,0.9,2,3.6,2.7,5.1v0.6h-10.2c0.7-1.1,1.5-1.6,1.8-3.1c-0.7,1-1.5,1.9-2.3,2.9c-2.3,1.5-6.1,0.3-9,0.2c0.1-0.6,0.1-1.2,0.2-1.8
		c0.8-0.1,1.6-0.3,2.5-0.4c-0.6-0.2-1.2-0.4-1.8-0.6v-0.4c0.3-0.3,0.5-0.5,0.8-0.8h0.4v-0.2l-1.2,0.4h-0.2v-0.2
		c0.1-0.2,0.1-0.4,0.2-0.6c0.9-0.2,1.7,0.1,2.7,0.4c0.3-0.9-0.3-0.8,0.8-1.2V197c-1.8,0.1-1.6,0.4-3.3,0.2c-1.1,1.2-1.1,2.4-2.9,3.1
		c-0.2-0.4-0.4-0.8-0.6-1.2C742.4,197.8,736.3,196.9,730.4,197.2z M755,206c-0.1,0.2-0.1,0.4-0.2,0.6c-0.3-0.1-0.7-0.1-1-0.2
		c-0.1-0.2-0.1-0.4-0.2-0.6C754.2,206,754.3,206.1,755,206z M727.6,310.9c3.3,1.2,6.5,2.5,9.8,3.7c-6.7,8.8-16.2,16.6-20.5,27.8
		c-0.1,0.1-0.3,0.1-0.4,0.2c-1.2-1.9-1.4-5-1.4-8.2C715.1,321.7,721,316.9,727.6,310.9z M706.7,446.3c-6.3,1.6-10.4-3-16-1.6
		c-6.3,9.7,14.3,9.3,9.4,23.5c-1.1,3.1-4.3,6.1-7.6,7c-4.8,1.3-10.4-0.8-10.8,4.7c3.4,4.5,14.3,3.7,16.2,9.4
		c-14.6-1.2-32.1,1.3-36.4-10.4c-0.1-4.6-0.3-9.1-0.4-13.7c0.1-3,0.1-6,0.2-9c7.2-1.7,9.5,3,9.2-7.2c-1.2-0.1-2.5-0.3-3.7-0.4
		c-0.1-1.4-0.1-2.7-0.2-4.1c0.4-0.2,0.8-0.4,1.2-0.6c-0.3-0.4-0.7-0.8-1-1.2c0.6-0.4,0.7-0.4,1-1.2h-0.4c-0.6-1.4,0.6-2.7,0-4.5
		c0.9-0.3,1.8-0.5,2.7-0.8c1-4.5,1.3-24.6,0-27.8c-0.7-1.8-3.1-2.1-3.7-4.3c0.1-4.8,0.1-9.7,0.2-14.5c2.4-0.5,2.5-1.9,4.1-3.1
		c6.3-2.5,27.7-0.9,20.2-12.5v-0.2c4.6-0.6,9.1-1.2,13.7-1.8h0.2c-0.7,6.5-2.4,13.6-3.7,20.5c-2.8,15.2,0.3,43.8,5.5,53.8V446.3z
		 M734.1,379.2c-4.3,2.5-9-1-12.7,3.7c-0.4,2.9,1.7,4.3,2.7,6.3c1.4,4.3,2.7,8.6,4.1,12.9c1.5,7.3-1.3,15.8-1.6,23.5
		c-6-0.6-11.2-8.6-16.2-7.4c-0.3,0.1-0.5,0.1-0.8,0.2c-2.5,6.5,3.4,10.5,4.5,16.2c0.8,4-2.1,6.2-3.1,8.6c-0.2,0.1-0.4,0.3-0.6,0.4
		c-1.9-3.3-2-8.1-2.9-12.3c-2.4-11-4.1-27-1.6-39.5c1.5-7,3-14,4.5-21.1c4.4-1.9,8.4-5,9.2-10.4h0.2c2.2,2.1,4.4,4.2,6.5,6.3
		c3.1,2.2,6.3,4.4,9.4,6.5C735.2,375.3,734.7,377.3,734.1,379.2z M733.1,364.5c0.8,0.1,1.6,0.3,2.5,0.4c0.4,0.7,0.8,1.4,1.2,2
		C735.5,366.1,734.3,365.3,733.1,364.5z M748.2,336.7c-3-0.2-8.5-3.7-9.4-6.1c-3.5-2.4-5.2,0.7-7,3.1c-2.4,3.3-4.7,6.4-6.3,10.6
		c-1.2,3.2-2.3,6.4-3.5,9.6c-5.3-4.9,0.1-11.5,2.7-15.1c5.2-7.4,9.4-14.5,16.4-20c1.3-1.2,2.6-2.3,3.9-3.5c1.8-0.1,3.7-0.1,5.5-0.2
		h1.2v0.2c-0.3,1.2-0.5,2.5-0.8,3.7c2,2.3,4.3,4.2,6.1,6.5C754.9,329.4,752.7,334.9,748.2,336.7z M744.5,222.5
		c-3.7-5.5-7.6-10.9-10.8-17c3.7,0.3,7.6,1.4,10.8,1.8c0.2,0.7,0.4,1.5,0.6,2.2c0.1,0.1,0.3,0.1,0.4,0.2c-0.1-0.7-0.3-1.4-0.4-2
		c2.3-0.8,3.4-1.2,4.9,0c0.1-0.7,0.1-0.8-0.2-1.4c0.1-0.2,0.1-0.4,0.2-0.6c0.7,0.5,0.7,0.5,0.8,1.6h0.2c0.3-0.5,0.5-1,0.8-1.4
		c0.9,0.7,1.7,0.7,2.2,1.4c-1.2,2-2.8,3.2-6.1,3.1c3,1.4,5.5-1.2,6.3-2.9c0.5,0.2,1.1,0.4,1.6,0.6c0.2,1.4-0.2,2.1-0.6,3.3
		c1.9-1.5,1-3.1-0.2-4.5c0.1-0.3,0.1-0.5,0.2-0.8c5-0.1,10-0.3,14.9-0.4c0.1,0.1,0.3,0.1,0.4,0.2
		C767.8,209.5,749.7,221.9,744.5,222.5z M767.9,102.1H767c-1.7-6.3-8.4-7.3-15.1-6.3c-0.6-0.5-1.2-1.1-1.8-1.6
		c0.1-0.6,0.3-1.2,0.4-1.8c-0.5-0.5-1.1-1.1-1.6-1.6c0.2-0.7,0.4-1.4,0.6-2c-0.5-0.4-1-0.8-1.4-1.2v-0.4c5.6-8,13.8-12.9,21.1-19.2
		c1.9,2.6,9.3,24.9,9.2,29C774.4,97.9,770.5,99.6,767.9,102.1z M830.5,59.7c-2,2.6-5.7,4.2-7.6,6.7c-0.5,1.6-1.1,3.1-1.6,4.7
		c-1.7,2.7-4.3,5.6-6.3,8.4c-2.2,3.1-7.1,5.8-8.2,9.8c-1.6,0.3-3.1,0.5-4.7,0.8c-2.3-3.5-3-8.5-4.5-12.7c-2.3-6.9-4.6-13.8-7-20.7
		c5.2-5.1,25.6-7.9,35.2-9.6c3.9-0.3,7.8-0.7,11.7-1h3.3C837.3,50.8,833.9,55.1,830.5,59.7z M863,183.5c-0.4-0.5-0.8-1-1.2-1.4
		c0.4,0.1,0.8,0.3,1.2,0.4l0.4,0.6C863.2,183.2,863.1,183.3,863,183.5z M1081,68.3c-0.1-0.2-0.3-0.4-0.4-0.6c1.2-0.5,2.5-1,3.7-1.4
		c5.6,0,6.9,2.8,10.4,4.5c0.1,0.2,0.3,0.4,0.4,0.6C1088.6,71.4,1085.3,70.2,1081,68.3z M1098.6,78.5h-0.4c0.3-0.8,0.7-1.6,1-2.5
		c0.7,0.8,1.4,1.6,2,2.5C1100.6,79.1,1099.4,79,1098.6,78.5z M1253.2,132.5c-8.9-2.5-0.8-13.8-4.9-19.8
		c-2.3-3.4-17.7-11.9-22.1-14.1c-4.6,0.6-7.6,6.6-11.5,8.6c-3.5-0.1-17.3-8.6-18.8-10.8c-0.9-2.5,1.4-4.8,2-6.7
		c4.1-1.5,10-0.4,14.5-2c22.7-0.1,37.7,12.2,41.3,31.1C1253.7,123.3,1253.5,127.9,1253.2,132.5z M1347.8,352.2
		c-12.8-2.9-29.1-2-41.3,0.6c-0.1-0.1-0.3-0.1-0.4-0.2c-0.7-8.5-1.4-16.9-2-25.4c-2.4-12.1-4.8-24.1-7.2-36.2
		c-5-16.5-10.3-32.7-15.5-49.3c-1.2-2.9-2.3-5.9-3.5-8.8c30.2,16.5,58.8,49.3,68.3,86.5C1348.4,328.5,1348.6,341.4,1347.8,352.2z
		 M753.8,201.7h0.2v-0.8c-0.3-0.1-0.5-0.3-0.8-0.4c0.2,0.3,0.4,0.5,0.6,0.8V201.7z M755.2,211.5c-0.1,0.2-0.1,0.4-0.2,0.6
		C755.3,211.7,755.1,211.8,755.2,211.5z M754.8,212.1c-0.4,0.5-0.8,1-1.2,1.4C754.5,213.2,754.7,212.7,754.8,212.1z M743.3,216.4
		l-0.2,0.4c2.2-0.4,4.4-0.8,6.5-1.2c0.1-0.1,0.3-0.1,0.4-0.2h-0.8C747.3,215.7,745.3,216.1,743.3,216.4z"/>
</defs>
<clipPath id="SVGID_2_">
	<use xlink:href="#SVGID_1_"  style="overflow:visible;"/>
</clipPath>
<g style="clip-path:url(#SVGID_2_);">
		<image style="overflow:visible;" width="7167" height="9178" id="image" xlink:href="steampunk-tunley.jpg"  transform="matrix(0.2047 0 0 0.2043 0 0)">
	</image>
</g>
</svg>
