<?xml version="1.0" encoding="utf-8"?>
<!-- Generator: Adobe Illustrator 22.0.1, SVG Export Plug-In . SVG Version: 6.00 Build 0)  -->
<svg version="1.1" id="tilde" xmlns="http://www.w3.org/2000/svg" xmlns:xlink="http://www.w3.org/1999/xlink" x="0px" y="0px"
	 viewBox="0 0 120 20" style="enable-background:new 0 0 120 20;" xml:space="preserve">
<style type="text/css">
	.st0{fill:#BDD649;}
</style>
<path id="tildeGlyph" class="st0" d="M119,16.1l-2.3-6.4c0,0-1.8-5.3-8-5.6l-56.5,0L52,4.1l-27.3,0c0,0.1-0.1,0.1-0.1,0.1L9,4.2
	c-2.4-0.4-3-1.9-3-1.9C5.5,1.2,4.1,0.5,2.9,0.8c-1.4,0.3-2.1,1.7-1.6,3l2.3,6.4c0,0,1.8,5.3,8,5.6l56.5,0l0.1,0.1l27.3,0
	c0-0.1,0.1-0.1,0.1-0.1l15.6,0c2.4,0.4,3,1.9,3,1.9c0.6,1.1,1.9,1.8,3.2,1.5C118.7,18.9,119.4,17.5,119,16.1"/>
</svg>
