<?xml version="1.0" encoding="utf-8"?>
<!-- Generator: Adobe Illustrator 21.1.0, SVG Export Plug-In . SVG Version: 6.00 Build 0)  -->
<svg version="1.1" id="tunley-portrait_2_" xmlns="http://www.w3.org/2000/svg" xmlns:xlink="http://www.w3.org/1999/xlink" x="0px"
	 y="0px" viewBox="0 0 505.2 649" style="enable-background:new 0 0 505.2 649;" xml:space="preserve">
<style type="text/css">
	.st0{enable-background:new    ;}
</style>
<defs>
	<path id="SVGID_1_" class="st0" d="M480,373.9c0,0-2.5-5.9-6.7-9.6c-4.2-3.7-8.8-5.6-16.3-8.6c-7.5-3.1-17.9-5.3-25.7-6.5
		c-7.8-1.2-15.5-3.6-22.4-4.1c-6.9-0.4-13.7,0-20.9,0.5c-0.4-1.9-1.9-4.4-4.2-8.3c-2.3-3.8-3.9-7.9-4.8-9.8c-0.9-1.9-2.5-2-2.5-2
		s0.1-1.1,0-4.4c-0.1-3.4-0.8-6.4-2.3-9.4s-1.4-5.8-0.5-8.9c0.9-3.1,4.4-7.9,4-14.5c-0.5-6.7-5.3-9.1-6.2-10c-3.6-2.9-3.3-7-3.2-8.8
		c0.1-1.7,1.8-5.1,1.8-7c0-1.8-1.1-6.8-1.6-9.2c-0.5-2.5-2-3-3.2-3.1c-1.2-0.1-7.1-0.4-8.8-0.5s-2.5,1.5-2.5,2.8
		c-0.1,1.3,0.5,9.8,0.7,10.6s1.9,2.8,3.2,6.1c1.4,3.3-0.6,9.7-1.3,11c-0.8,1.3-3.7,5.1-4.2,8.8c-2.1,0.7-26.9,15.2-28,11.8
		c-1.1-3.4-6.3-4-9.1-6.5c-2.8-2.4-0.1-6.1-5.6-10.6c-5.6-4.4-11.1-0.3-12.7,0.8c-1.6,1.1-6.6,7.1-12,9.1c-5.4,2-9.7,2-16.8,5
		s-9.1,12.8-10.9,15.8s-5.9,6.6-9.7,11.6c-3.8,5.1-6.5,14.8-11.9,21.8c-5.4,7.1-14.9,18.4-17.5,21.5c-0.6-2.3-7.2-32.5-12-53.3
		s-13.9-39.9-19.1-53.4c-5.1-13.5-14.9-26.3-14.9-26.3s-0.5-0.7,0-1.7c-1.7-3.5-9.3-13.8-16.9-19.6c0-0.7,0.2-0.8-0.2-3.5
		s-4.7-10.6-6.1-12.7c-0.5-1.9,1.2-5.7,2.3-8.9c1.1-3.2-1.7-6.2,2.6-8c4.4-1.9,3.1-2,6.6-4.9c3.5-3,6.6-7.4,9.5-9.7
		c2.9-2.4,5.2-6.8,6.7-9.1c1.5-2.3,5.3-10.7,6.6-13.6c1.3-2.8,1.5-6.3,2.8-9.5c1.3-3.1,3.2-8,4.7-10.6s2.3-5.7,3.5-8.6
		c8.7-3.4,8.4-14.5,8.4-14.5l1.9,0.7l1.1-4.4l-4-2c0,0-0.6-1.2,1-3.6c1.5-2.4,2.3-7.9,3.1-13.4c0.8-5.5-0.9-17.4-1.9-22.7
		c-0.7-3.4-5.6-19.7-10.9-24.7c-2.5-2.4-3.6-5.1-6.5-7.6c-10.8-9.3-25.3-13.6-32.8-14.5c-17.3-2.1-21.9,1.5-28.6,2.8
		c-7.7,1.5-11,0-17.9,5.3c-11.1,8.5-22.1,21.5-25.8,31.4c-3.9,10.5-6.6,24.7-7.6,28.7c-8.1,1.6-9.1,11-10.3,15.6
		c-1.2,4.6,0.6,10.2,1.1,12.4c0.5,2.1,2.6,8.5,5.3,15c-3.3,6.7-7.1,24.8-7.1,24.8s-5.7-0.1-7.2,0.6c-1.5,0.7-2.4,12.5-3.1,14.4
		c-0.8,1.9-2.3,3.5-4.3,8.6c-2.1,5.1-1.9,7.1-1.9,7.1s-5.3,4.5-12.8,10.6c-7.5,6.1-11.1,11.5-14.9,14.8C14.6,204.6,0,221.8,0,221.8
		v427.3h466.4c0,0-19.8-13.9-56.3-26.4c-2.4-10.1-9.8-33.9-17.5-55.8c-7.7-21.9-15-41.8-28.1-61.2c-13.1-19.4-24.7-28.7-24.7-28.7
		s13.1-0.3,25.6-1.3c12.5-1.1,21.8-2,29.4-3c12.5-1.7,17.1-3.6,31.4-6.8c14.3-3.2,25.3-7.5,28.1-8.5c5.1-1.7,5.6-2.7,7.4-4.9
		c1.7-2.1,3-5,3.2-7.1c3.1-2.5,5.5-12.4,5.5-12.4s0.8-2.4,1.1-3.4c0.3-0.9-0.5-1.3-0.2-2.8c0.3-1.5,0.9-1,1.2-2.2
		c0.3-1.2-0.4-3.3,0-4.7c0.4-1.4,1.3-1.6,1.7-2.5c0.3-1-0.4-2.1,0.1-3.7c0.5-1.6,1.5-0.9,1.9-2.6s-0.3-4.5-0.1-6.2s1.7-1.9,2.5-4.4
		c0.8-2.5-1.7-3.6,0.8-13C482.1,378.3,480,373.9,480,373.9z"/>
</defs>
<clipPath id="SVGID_2_">
	<use xlink:href="#SVGID_1_"  style="overflow:visible;"/>
</clipPath>
<g style="clip-path:url(#SVGID_2_);">
	
		<image style="overflow:visible;" width="4210" height="5408" id="image" xlink:href="tunley-portrait-1263.jpg"  transform="matrix(0.12 0 0 0.12 0 0)">
	</image>
</g>
</svg>
