<svg xmlns="http://www.w3.org/2000/svg" width="4006.59" height="5335.5" viewBox="0 0 4006.59 5335.5">
  <metadata><?xpacket begin="﻿" id="W5M0MpCehiHzreSzNTczkc9d"?>
<x:xmpmeta xmlns:x="adobe:ns:meta/" x:xmptk="Adobe XMP Core 5.6-c138 79.159824, 2016/09/14-01:09:01        ">
   <rdf:RDF xmlns:rdf="http://www.w3.org/1999/02/22-rdf-syntax-ns#">
      <rdf:Description rdf:about=""/>
   </rdf:RDF>
</x:xmpmeta>
                                                                                                    
                                                                                                    
                                                                                                    
                                                                                                    
                                                                                                    
                                                                                                    
                                                                                                    
                                                                                                    
                                                                                                    
                                                                                                    
                                                                                                    
                                                                                                    
                                                                                                    
                                                                                                    
                                                                                                    
                                                                                                    
                                                                                                    
                                                                                                    
                                                                                                    
                                                                                                    
                           
<?xpacket end="w"?></metadata>
<defs>
    <style>
      .cls-1 {
        fill-rule: evenodd;
      }
    </style>
  </defs>
  <path id="mask" class="cls-1" d="M4000,3116s17.18,36.22-4,114,0.03,87.03-7,108-19.59,22.51-21,37,4.65,37.57,1,52-12.07,8.9-16,22,1.83,23.06-1,31-11.08,9.59-14,21,2.91,28.96,0,39-7.51,5.61-10,18,4.66,15.1,2,23-9,28-9,28-20.55,81.82-46,103c-2.36,16.98-13.04,41.69-27,59-15,18.6-19.09,27.06-62,41-23.36,7.59-115.29,43.51-234.4,70.42S3394.45,3925.15,3290,3939c-63.02,8.36-141.05,16.19-245,25s-213,11-213,11,96.94,77.71,206,239,169.97,327.66,234,510,126.26,381.24,146,465c304.09,103.82,469,220,469,220H0V1848s121.758-142.82,153-170,61.18-72.21,124-123,107-88,107-88-1.246-16.58,16-59,29.719-56.3,36-72,13.785-114.11,26-120,60-5,60-5,31.1-151.52,59-207c-22.438-53.859-39.832-107.112-44-125s-19.116-64.9-9-103,18.85-116.628,86-130c7.681-33.082,30.862-151.582,63-239,30.487-82.928,122.279-190.913,215-262,57.662-44.208,85.214-31.455,149-44,55.49-10.914,94.1-40.793,238-23,62.2,7.691,182.95,43.772,273,121,23.97,20.556,33.18,43.369,54,63,44.54,42,85.44,177.629,91,206,8.63,44.072,23.08,142.881,16,189s-13.24,92.319-26,112-8,30-8,30l33,17-9,37-16-6s2.71,92.492-70,121c-9.69,24.115-16.62,50.65-29,72s-28.55,61.8-39,88-11.94,55.46-23,79-42.32,93.53-55,113-32.15,56.28-56,76-49.74,56.29-79,81-18.42,25.5-55,41-12.61,40.5-22,67-22.89,57.99-19,74c11.96,17.63,47.45,83.67,51,106s1.94,22.75,2,29c63.43,48.07,126.96,134.03,141,163a14.037,14.037,0,0,0,0,14s81.23,106.53,124,219,118.95,272.17,159,445,95.22,425.1,100,444c22.23-25.72,101.28-119.92,146-179s67.33-139.7,99-182,65.63-72.02,81-97,32.17-107.03,91-132,95.2-25.38,140-42,86.67-66.84,100-76,59.54-43.87,106-7,23.28,67.74,47,88,66.95,25.63,76,54,215.57-92.39,233-98c4.12-30.91,28.64-62.07,35-73s22.51-64.65,11-92-25.23-44.43-27-51-6.5-77.22-6-88,7.22-23.58,21-23,63.01,3.07,73,4,23.19,5.34,27,26,13.25,61.65,13,77-14.1,43.68-15,58-3.17,48.57,27,73c7.73,7.08,48.16,27.43,52,83s-25.39,95.22-33,121-8.59,49.18,4,74,18.37,50.03,19,78,0,37,0,37,13.59,1.03,21,17,20.72,49.99,40,82,31.49,53.56,35,69c59.6-4.31,116.57-7.68,174-4s122.28,24.28,187,34,151.55,28.35,214,54,101.14,41.02,136,72S4000,3116,4000,3116Z" transform="translate(0 -72.5)"/>
</svg>
